<svg viewBox="0 0 15 20" fill="none" xmlns="http://www.w3.org/2000/svg">
<path d="M3.25004 19.75V10.6577C2.43851 10.482 1.75486 10.0714 1.19909 9.42593C0.643309 8.78043 0.365417 8.01024 0.365417 7.11538V0.25H1.86539V7.11538H3.25004V0.25H4.74999V7.11538H6.13464V0.25H7.63462V7.11538C7.63462 8.01024 7.35673 8.78043 6.80094 9.42593C6.24518 10.0714 5.56153 10.482 4.74999 10.6577V19.75L3.25004 19.75ZM12.8654 19.75V11.75H10.1346V4.99998C10.1346 3.75128 10.5356 2.66827 11.3375 1.75095C12.1394 0.833651 13.1487 0.339743 14.3654 0.269226V19.75H12.8654Z" fill="white"/>
</svg>
