<svg viewBox="0 0 900 507" fill="none" xmlns="http://www.w3.org/2000/svg">
	<g clip-path="url(#clip0_1209_3)">
		<mask id="mask0_1209_3" style="mask-type:luminance" maskUnits="userSpaceOnUse" x="0" y="0" width="900" height="507">
			<path d="M900 0H0V506.25H900V0Z" fill="white" />
		</mask>
		<g mask="url(#mask0_1209_3)">
			<path d="M191.997 394.434C192.564 395.433 192.698 395.904 192.391 395.837L192.41 439.939C192.41 440.573 192.093 440.89 191.459 440.881C146.507 440.276 103.37 421.169 77.6095 383.781C74.2861 378.949 71.1356 373.339 68.158 366.941C55.7002 340.188 48.2658 312.205 45.855 282.973C45.4035 277.526 45.3555 268.813 45.7013 256.825L46.777 256.738L96.3491 256.719C96.5316 256.719 96.6853 256.565 96.6757 256.383C95.1004 210.743 127.172 171.291 172.182 163.817C240.445 152.491 295.271 218.429 272.296 283.665C264.9 304.664 248.974 323.242 228.679 333.55C173.613 361.514 108.922 329.025 97.8571 268.554C97.3096 265.576 97.0695 262.512 97.1175 259.361C97.1175 259.217 97.0695 259.197 96.9734 259.303C96.9542 259.332 96.935 259.37 96.9158 259.399C96.8966 259.428 96.887 259.457 96.887 259.495C96.8101 261.1 96.3203 262.598 96.3107 264.174C96.0321 293.569 102.583 322.503 118.143 346.442C121.553 351.687 125.674 356.643 130.515 361.302C147.929 378.056 168.224 390.736 191.997 394.434Z" fill="#333280" />
			<path d="M330.761 249.081L375.684 249.341C376.068 249.341 376.376 249.658 376.376 250.042C376.03 290.475 359.932 330.254 329.138 356.383C318.063 365.797 306.671 371.638 293.368 377.267C267.3 388.305 240.012 394.558 211.504 396.028C207.114 396.259 200.736 396.191 192.39 395.836C192.697 395.903 192.563 395.433 191.996 394.434L192.169 394.107C192.246 393.953 192.284 393.79 192.284 393.617L192.294 345.422C192.294 345.115 192.563 344.865 192.87 344.884C228.774 347.151 271.132 337.574 296.913 311.07C313.414 294.106 326.544 273.164 329.993 249.446C330.137 249.465 330.396 249.341 330.761 249.081Z" fill="#ED1A3B" />
			<path d="M184.119 65.3806H193.801C229.397 68.0223 263.082 81.9706 287.643 108.263C295.259 116.409 301.311 125.055 305.816 134.19C320.079 163.115 328.349 192.933 330.616 223.644C331.125 230.628 331.173 239.1 330.76 249.081C330.395 249.341 330.136 249.465 329.992 249.446L280.16 249.437C279.853 249.437 279.709 249.283 279.728 248.975C280.66 235.21 279.738 221.204 276.971 206.958C273.456 188.84 267.001 172.702 257.598 158.533C254.841 154.383 251.575 150.415 247.82 146.63C230.204 128.878 208.794 115.506 184.157 111.558L183.84 110.29L184.119 65.3806Z" fill="#333280" />
			<path d="M183.842 110.29L184.159 111.558V160.358C184.159 160.78 183.804 161.117 183.381 161.097C158.052 159.724 134.654 163.547 113.196 172.558C102.679 176.967 93.7366 182.298 86.3695 188.543C77.7921 195.805 69.7238 205.152 62.1549 216.593C53.7793 229.254 48.5253 242.395 46.3929 256.027C46.3641 256.228 46.4121 256.392 46.5562 256.526L46.7771 256.737L45.7014 256.824L0.922255 256.776C0.403578 256.776 -0.00944093 256.353 0.000164192 255.844C0.739759 210.887 19.9404 167.082 57.7558 141.702C62.6256 138.436 68.2734 135.333 74.6992 132.384C109.537 116.399 146.19 108.474 183.842 110.29Z" fill="#ED1A3B" />
		</g>
	</g>
</svg>