<svg viewBox="0 0 18 18" fill="none" xmlns="http://www.w3.org/2000/svg">
<path d="M0.250027 17.5769V4.0769H4.25003V0.0769043H13.75V8.07691H17.75V17.5769H10.25V13.5769H7.74998V17.5769H0.250027ZM1.74998 16.0769H4.25003V13.5769H1.74998V16.0769ZM1.74998 12.0769H4.25003V9.57688H1.74998V12.0769ZM1.74998 8.07691H4.25003V5.57688H1.74998V8.07691ZM5.74998 12.0769H8.25003V9.57688H5.74998V12.0769ZM5.74998 8.07691H8.25003V5.57688H5.74998V8.07691ZM5.74998 4.0769H8.25003V1.57688H5.74998V4.0769ZM9.74998 12.0769H12.25V9.57688H9.74998V12.0769ZM9.74998 8.07691H12.25V5.57688H9.74998V8.07691ZM9.74998 4.0769H12.25V1.57688H9.74998V4.0769ZM13.75 16.0769H16.25V13.5769H13.75V16.0769ZM13.75 12.0769H16.25V9.57688H13.75V12.0769Z" fill="white"/>
</svg>
