<svg viewBox="0 0 900 507" fill="none" xmlns="http://www.w3.org/2000/svg">
    <g clip-path="url(#clip0_115_2)">
        <mask id="mask0_115_2" style="mask-type:luminance" maskUnits="userSpaceOnUse" x="0" y="0" width="900" height="507">
            <path d="M900 0H0V506.25H900V0Z" fill="white"/>
        </mask>
        <g mask="url(#mask0_115_2)">
            <path d="M191.997 394.434C192.564 395.433 192.698 395.904 192.391 395.837L192.41 439.939C192.41 440.573 192.093 440.89 191.459 440.881C146.507 440.275 103.37 421.169 77.6095 383.781C74.2861 378.949 71.1356 373.339 68.158 366.941C55.7002 340.188 48.2658 312.205 45.855 282.973C45.4035 277.526 45.3555 268.813 45.7013 256.825L46.777 256.738L96.3491 256.719C96.5316 256.719 96.6853 256.565 96.6757 256.383C95.1004 210.743 127.172 171.29 172.182 163.817C240.445 152.491 295.271 218.428 272.296 283.665C264.9 304.664 248.974 323.242 228.679 333.55C173.613 361.514 108.922 329.025 97.8571 268.554C97.3096 265.576 97.0695 262.512 97.1175 259.361C97.1175 259.217 97.0695 259.197 96.9734 259.303C96.9542 259.332 96.935 259.37 96.9158 259.399C96.8966 259.428 96.887 259.457 96.887 259.495C96.8101 261.099 96.3203 262.598 96.3107 264.173C96.0321 293.569 102.583 322.503 118.143 346.441C121.553 351.686 125.674 356.643 130.515 361.302C147.929 378.056 168.224 390.736 191.997 394.434Z" fill="#333280"/>
            <path d="M330.761 249.081L375.684 249.34C376.068 249.34 376.376 249.657 376.376 250.042C376.03 290.474 359.932 330.254 329.138 356.383C318.063 365.797 306.671 371.638 293.368 377.267C267.3 388.305 240.012 394.558 211.504 396.028C207.114 396.259 200.736 396.191 192.39 395.836C192.697 395.903 192.563 395.432 191.996 394.433L192.169 394.107C192.246 393.953 192.284 393.79 192.284 393.617L192.294 345.422C192.294 345.115 192.563 344.865 192.87 344.884C228.774 347.151 271.132 337.574 296.913 311.07C313.414 294.106 326.544 273.164 329.993 249.446C330.137 249.465 330.396 249.34 330.761 249.081Z" fill="#ED1A3B"/>
            <path d="M184.119 65.3806H193.801C229.397 68.0223 263.082 81.9706 287.643 108.263C295.259 116.409 301.311 125.055 305.816 134.19C320.079 163.115 328.349 192.933 330.616 223.644C331.125 230.628 331.173 239.1 330.76 249.081C330.395 249.341 330.136 249.465 329.992 249.446L280.16 249.437C279.853 249.437 279.709 249.283 279.728 248.975C280.66 235.21 279.738 221.204 276.971 206.958C273.456 188.84 267.001 172.702 257.598 158.533C254.841 154.383 251.575 150.415 247.82 146.63C230.204 128.878 208.794 115.506 184.157 111.558L183.84 110.29L184.119 65.3806Z" fill="#333280"/>
            <path d="M183.842 110.29L184.159 111.558V160.358C184.159 160.78 183.804 161.117 183.381 161.097C158.052 159.724 134.654 163.547 113.196 172.558C102.679 176.967 93.7366 182.298 86.3695 188.542C77.7921 195.805 69.7238 205.152 62.1549 216.593C53.7793 229.254 48.5253 242.395 46.3929 256.026C46.3641 256.228 46.4121 256.391 46.5562 256.526L46.7771 256.737L45.7014 256.824L0.922255 256.776C0.403578 256.776 -0.00944093 256.353 0.000164192 255.844C0.739759 210.887 19.9404 167.082 57.7558 141.702C62.6256 138.436 68.2734 135.333 74.6992 132.384C109.537 116.399 146.19 108.474 183.842 110.29Z" fill="#ED1A3B"/>
            <path d="M501.391 225.267L456.159 225.278C455.95 225.278 455.751 225.414 455.677 225.613L446.162 251.932C446.089 252.131 445.89 252.267 445.681 252.267L419.009 252.277C418.653 252.277 418.401 251.911 418.538 251.576L464.586 132.406C464.659 132.207 464.847 132.082 465.067 132.082L491.331 132.092C491.54 132.092 491.729 132.218 491.802 132.417L539.556 251.597C539.693 251.932 539.441 252.298 539.075 252.298L512.309 252.267C512.089 252.267 511.9 252.131 511.827 251.932L501.872 225.602C501.799 225.403 501.61 225.267 501.391 225.267ZM463.853 203.104C463.769 203.334 463.937 203.586 464.188 203.586L492.922 203.429C493.173 203.429 493.341 203.188 493.257 202.947L478.686 164.337C478.571 164.033 478.131 164.033 478.016 164.348L463.853 203.104Z" fill="#333280"/>
            <path d="M625.759 132.073L649.082 132.094C649.27 132.094 649.427 132.251 649.427 132.44L649.448 251.934C649.448 252.122 649.291 252.279 649.103 252.279L624.21 252.269C624.095 252.269 623.98 252.206 623.917 252.101L578.015 177.698C577.837 177.404 577.377 177.53 577.377 177.886L577.461 251.944C577.461 252.133 577.304 252.29 577.115 252.29L553.876 252.269C553.688 252.269 553.531 252.112 553.531 251.923V132.429C553.531 132.241 553.688 132.084 553.876 132.084L578.015 132.094C578.13 132.094 578.246 132.157 578.308 132.262L624.817 208.131C624.995 208.435 625.456 208.299 625.456 207.953L625.414 132.419C625.414 132.23 625.571 132.073 625.759 132.073Z" fill="#333280"/>
            <path d="M701.033 225.594L691.507 251.944C691.434 252.143 691.256 252.269 691.046 252.269L664.332 252.279C663.987 252.279 663.746 251.934 663.872 251.609L709.93 132.408C710.003 132.22 710.192 132.094 710.391 132.094H736.697C736.895 132.094 737.084 132.22 737.157 132.408L784.901 251.63C785.037 251.955 784.796 252.311 784.44 252.311L757.643 252.269C757.444 252.269 757.255 252.143 757.193 251.955L747.196 225.583C747.123 225.395 746.934 225.269 746.735 225.269H701.493C701.284 225.269 701.106 225.395 701.033 225.594ZM709.198 203.106C709.114 203.336 709.281 203.577 709.532 203.577L738.267 203.431C738.518 203.431 738.685 203.179 738.602 202.949L724.03 164.329C723.915 164.015 723.476 164.015 723.36 164.329L709.198 203.106Z" fill="#333280"/>
            <path d="M839.482 154.204C825.643 159.795 821.707 173.499 821.309 187.642C821.058 196.771 821.498 205.9 824.513 214.464C829.087 227.456 841.68 233.937 855.194 231.34C866.782 229.11 873.094 217.657 874.999 207.125C875.062 206.79 875.397 206.591 875.711 206.686L899.494 213.962C899.912 214.087 900.153 214.527 900.038 214.946C893.119 241.527 874.622 255.503 846.893 254.33C819.205 253.147 799.484 233.717 795.632 206.78C793.549 192.207 794.407 175.76 800.206 161.972C807.356 144.96 822.534 133.318 840.696 130.649C855.906 128.419 871.775 130.753 883.75 139.893C892.208 146.342 896.971 155.314 899.871 165.458C899.975 165.835 899.745 166.223 899.368 166.317L875.104 172.253C874.727 172.337 874.35 172.106 874.266 171.729C871.744 160.643 863.673 153.209 852.42 152.414C847.573 152.068 843.26 152.665 839.482 154.204Z" fill="#333280"/>
            <path d="M428.669 309.781L426.636 319.213C426.609 319.376 426.464 319.485 426.3 319.485L419.529 319.513C419.302 319.513 419.139 319.304 419.193 319.086L428.615 281.051C428.651 280.896 428.787 280.787 428.951 280.787H437.764C437.927 280.787 438.064 280.896 438.1 281.051L447.712 319.095C447.766 319.313 447.603 319.521 447.376 319.521L440.333 319.495C440.169 319.495 440.033 319.386 439.997 319.231L437.71 309.781C437.673 309.627 437.537 309.518 437.374 309.518L429.005 309.51C428.842 309.51 428.696 309.627 428.669 309.781ZM429.858 302.646C429.813 302.847 429.958 303.027 430.158 303.037L435.885 303.063C436.275 303.063 436.43 302.874 436.348 302.492L433.262 288.249C433.108 287.55 432.981 287.559 432.872 288.258C432.264 292.089 431.265 296.882 429.858 302.646Z" fill="#333280"/>
            <path d="M458.831 313.878C459.83 313.788 460.601 312.962 460.62 311.954C460.665 309.221 457.125 308.486 455.237 307.36C452.042 305.463 450.599 302.694 450.908 299.055C451.597 291.048 459.875 289.187 466.066 292.128C466.374 292.283 466.547 292.618 466.483 292.954L465.457 298.083C465.412 298.346 465.113 298.473 464.886 298.337C463.188 297.302 461.355 296.884 459.385 297.085C458.931 297.129 458.577 297.338 458.314 297.711C456.39 300.434 460.193 301.895 462.072 302.694C466.138 304.419 468.026 308.077 467.409 312.58C466.247 321.068 456.771 321.43 450.544 318.362C450.445 318.317 450.399 318.226 450.408 318.108C450.608 316.41 451.017 314.36 451.634 311.935C451.643 311.908 451.679 311.891 451.706 311.908C454.003 313.442 456.381 314.096 458.831 313.878Z" fill="#333280"/>
            <path d="M480.797 312.159C481.106 309.472 478.138 308.782 476.295 307.865C472.31 305.858 470.613 302.691 471.212 298.379C472.256 290.863 480.162 289.437 486.034 292.006C486.533 292.224 486.733 292.605 486.633 293.141L485.689 297.87C485.59 298.388 485.308 298.515 484.863 298.233C483.547 297.426 482.022 297.008 480.289 296.981C477.829 296.945 477.112 299.931 479.227 301.111C481.333 302.291 483.747 303.118 485.435 304.896C488.621 308.264 488.585 314.646 484.972 317.814C481.233 321.083 475.061 320.583 471.012 318.468C470.704 318.314 470.54 317.969 470.613 317.633L471.666 312.404C471.739 312.05 471.929 311.959 472.247 312.141C473.826 313.076 480.38 315.772 480.797 312.159Z" fill="#333280"/>
            <path d="M502.342 320.283C495.698 320.133 490.461 313.378 490.646 305.199C490.833 297.021 496.37 290.512 503.014 290.661C509.658 290.812 514.895 297.566 514.711 305.745C514.523 313.923 508.986 320.433 502.342 320.283ZM502.636 314.032C505.147 314.032 507.189 310.22 507.198 305.498C507.207 300.779 505.174 296.948 502.666 296.948C500.155 296.948 498.113 300.76 498.104 305.483C498.094 310.202 500.128 314.032 502.636 314.032Z" fill="#333280"/>
            <path d="M534.211 298.084C531.089 296.667 527.449 297.784 526.069 301.033C524.209 305.428 525.144 313.588 531.824 313.198C533.121 313.125 534.056 312.944 534.62 312.645C535.127 312.381 535.427 312.526 535.509 313.089L536.28 318.091C536.362 318.663 536.135 319.053 535.6 319.253C534.356 319.716 532.995 320.006 531.515 320.106C525.643 320.524 521.585 318.3 519.343 313.425C516.956 308.233 517.247 300.725 520.596 295.986C523.818 291.439 528.719 289.932 535.309 291.457C536.045 291.63 536.344 292.083 536.208 292.819C535.682 295.824 535.41 297.357 535.391 297.439C535.264 298.165 534.873 298.383 534.211 298.084Z" fill="#333280"/>
            <path d="M546.991 291.393H540.637C540.431 291.393 540.265 291.559 540.265 291.765V319.143C540.265 319.349 540.431 319.515 540.637 319.515H546.991C547.196 319.515 547.363 319.349 547.363 319.143V291.765C547.363 291.559 547.196 291.393 546.991 291.393Z" fill="#333280"/>
            <path d="M564.927 317.282C564.247 318.253 563.193 319.079 562.095 319.506C553.4 322.855 549.179 312.87 552.592 306.37C554.915 301.958 559.663 301.124 564.31 300.715C564.709 300.679 564.973 300.288 564.864 299.907C563.503 295.196 557.757 296.802 554.798 298.754C554.58 298.9 554.28 298.781 554.217 298.527L553.137 293.788C553.055 293.398 553.182 293.117 553.536 292.945C562.068 288.596 572.08 290.52 571.88 302.131C571.762 308.585 571.871 314.168 572.198 318.871C572.226 319.315 572.025 319.533 571.581 319.533L566.497 319.497C566.053 319.487 565.799 319.269 565.736 318.825L565.554 317.427C565.472 316.846 565.264 316.8 564.927 317.282ZM564.52 306.261C561.269 306.416 557.993 307.632 558.646 311.69C558.873 313.097 560.171 314.286 561.642 313.923C565.2 313.052 565.164 309.684 564.954 306.643C564.937 306.37 564.791 306.244 564.52 306.261Z" fill="#333280"/>
            <path d="M584.688 319.559C574.404 316.518 573.551 300.033 580.884 293.678C584.125 290.873 588.491 290.165 593.964 291.573C594.319 291.663 594.545 292.008 594.481 292.371L593.556 297.818C593.493 298.172 593.292 298.289 592.957 298.172C588.064 296.438 584.997 298.008 583.735 302.902C583.28 304.68 583.381 307.032 584.016 308.738C585.559 312.869 588.709 314.04 593.474 312.261C593.583 312.224 593.701 312.297 593.719 312.414L594.59 318.606C594.608 318.723 594.563 318.805 594.454 318.851C592.911 319.459 591.323 319.822 589.698 319.949C588.908 320.012 588.427 320.448 588.264 321.247C588.21 321.519 588.345 321.792 588.59 321.901C590.56 322.8 591.504 324.252 591.441 326.258C591.305 330.798 586.412 331.913 582.909 330.416C582.301 330.153 582.092 329.708 582.282 329.063L582.754 327.547C582.936 326.939 583.308 326.784 583.871 327.094C585.223 327.838 586.204 327.765 586.812 326.876C587.374 326.059 586.948 324.923 585.976 324.679L584.288 324.252C583.771 324.125 583.607 323.816 583.817 323.317L585.051 320.303C585.205 319.922 585.078 319.677 584.688 319.559Z" fill="#333280"/>
            <path d="M610.42 300.095C609.821 294.958 602.922 296.991 600.19 298.934C600.163 298.952 600.127 298.934 600.117 298.907C599.491 297.209 599.019 295.385 598.719 293.424C598.702 293.296 598.747 293.206 598.856 293.142C601.915 291.39 605.228 290.646 608.813 290.909C616.02 291.426 617.69 297.79 617.563 303.809C617.454 309.01 617.535 314.067 617.808 318.968C617.826 319.349 617.644 319.54 617.273 319.531L612.053 319.477C611.582 319.468 611.336 319.232 611.309 318.769L611.236 317.416C611.209 316.826 611.009 316.763 610.638 317.226C608.831 319.477 606.426 320.42 603.431 320.058C597.966 319.395 596.214 313.05 597.431 308.32C598.956 302.428 604.664 301.122 609.884 300.74C610.211 300.713 610.456 300.422 610.42 300.095ZM609.984 306.251C606.844 306.496 603.576 307.657 604.266 311.615C604.955 315.564 609.812 313.994 610.401 310.934C610.638 309.682 610.701 308.293 610.601 306.777C610.574 306.396 610.365 306.224 609.984 306.251Z" fill="#333280"/>
            <path d="M633.24 320.282C626.604 320.124 621.376 313.361 621.579 305.179C621.775 297.003 627.321 290.503 633.963 290.662C640.599 290.82 645.829 297.584 645.625 305.766C645.429 313.941 639.882 320.441 633.24 320.282ZM633.593 314.023C636.107 314.023 638.149 310.202 638.149 305.49C638.149 300.779 636.107 296.957 633.593 296.957C631.078 296.957 629.036 300.779 629.036 305.49C629.036 310.202 631.078 314.023 633.593 314.023Z" fill="#333280"/>
            <path d="M539.785 283.167C539.743 285.804 541.529 287.97 543.775 288.006C546.02 288.041 547.875 285.932 547.916 283.295C547.958 280.659 546.171 278.493 543.925 278.457C541.68 278.422 539.825 280.531 539.785 283.167Z" fill="#333280"/>
            <path d="M604.864 285.363C604.619 285.826 604.483 286.325 604.464 286.852C604.447 287.206 604.156 287.478 603.812 287.469L601.596 287.433C601.242 287.424 600.97 287.134 600.98 286.78C601.052 283.902 602.35 279.027 606.217 280.689C607.269 281.142 608.304 281.714 609.312 282.413C609.883 282.803 610.655 282.485 610.791 281.814L611.019 280.661C611.073 280.362 611.336 280.152 611.635 280.144L613.85 280.135C614.277 280.135 614.476 280.343 614.459 280.77C614.413 281.76 614.285 282.758 614.095 283.784C613.551 286.652 611.019 288.359 608.441 286.643C607.551 286.053 606.661 285.535 605.781 285.073C605.445 284.9 605.036 285.027 604.864 285.363Z" fill="#333280"/>
            <path d="M665.896 292.173L666.204 319.125C666.204 319.398 666.068 319.534 665.805 319.534L659.678 319.506C659.515 319.506 659.379 319.37 659.379 319.198L659.36 281.298C659.36 280.926 659.551 280.735 659.924 280.735L667.148 280.762C667.539 280.762 667.81 280.935 667.984 281.28C672.105 289.586 675.835 298.138 679.166 306.916C679.174 306.934 679.193 306.943 679.211 306.934C679.229 306.934 679.239 306.916 679.239 306.897L678.857 281.208C678.857 280.953 679.057 280.754 679.311 280.754L685.301 280.726C685.538 280.726 685.656 280.844 685.656 281.072L685.637 319.052C685.637 319.325 685.419 319.552 685.148 319.552L678.576 319.542C678.276 319.542 678.059 319.406 677.922 319.134C673.757 310.429 669.808 301.433 666.059 292.146C665.942 291.865 665.887 291.873 665.896 292.173Z" fill="#333280"/>
            <path d="M703.437 317.271C702.756 318.179 701.558 319.114 700.487 319.513C693.653 322.046 689.314 316.572 689.913 310.172C690.584 303.001 696.593 301.195 702.701 300.713C703.164 300.677 703.337 300.432 703.237 299.988C702.148 295.249 696.284 296.756 693.407 298.644C692.98 298.925 692.718 298.816 692.599 298.317L691.637 294.023C691.519 293.505 691.691 293.124 692.154 292.879C697.137 290.183 705.579 289.33 708.738 295.303C709.872 297.454 710.426 300.305 710.39 302.711C710.308 308.129 710.371 313.541 710.58 318.951C710.598 319.305 710.435 319.477 710.081 319.486L704.826 319.54C704.489 319.54 704.208 319.286 704.172 318.959L704.017 317.435C703.963 316.89 703.772 316.836 703.437 317.271ZM702.81 306.251C700.223 306.442 697.401 307.222 696.947 310.208C696.248 314.82 702.003 315.075 703.137 311.235C703.51 309.955 703.609 308.475 703.437 306.777C703.392 306.396 703.183 306.224 702.81 306.251Z" fill="#333280"/>
            <path d="M722.914 301.321C720.981 305.651 722.433 313.776 729.014 313.213C730.221 313.113 731.092 312.922 731.637 312.659C732.118 312.423 732.391 312.568 732.471 313.086L733.261 318.269C733.324 318.705 733.062 319.122 732.644 319.25C729.422 320.257 726.436 320.43 723.677 319.749C711.959 316.862 711.986 296.791 722.224 292.052C725.61 290.491 729.259 290.428 733.188 291.872C733.28 291.898 733.316 291.962 733.297 292.061L732.19 298.144C732.173 298.244 732.064 298.307 731.963 298.271C727.58 296.619 724.557 297.636 722.914 301.321Z" fill="#333280"/>
            <path d="M743.794 291.413L737.386 291.424C737.195 291.425 737.042 291.58 737.042 291.77L737.089 319.184C737.09 319.375 737.245 319.53 737.435 319.529L743.843 319.517C744.034 319.517 744.188 319.363 744.187 319.172L744.139 291.757C744.139 291.567 743.985 291.413 743.794 291.413Z" fill="#333280"/>
            <path d="M760.094 320.282C753.44 320.124 748.212 313.361 748.415 305.178C748.611 297.003 754.166 290.503 760.818 290.662C767.473 290.82 772.701 297.584 772.497 305.766C772.301 313.942 766.746 320.441 760.094 320.282ZM760.414 314.033C762.916 314.033 764.958 310.22 764.967 305.498C764.977 300.779 762.952 296.949 760.444 296.949C757.942 296.949 755.9 300.761 755.891 305.483C755.881 310.202 757.906 314.033 760.414 314.033Z" fill="#333280"/>
            <path d="M783.338 294.766C784.864 292.469 786.788 291.171 789.102 290.882C795.483 290.073 797.989 296.21 798.079 301.502C798.179 307.176 798.215 312.995 798.188 318.977C798.179 319.331 797.997 319.512 797.643 319.512L791.526 319.494C791.208 319.494 790.954 319.24 790.963 318.931C791.017 313.475 791.017 308.138 790.963 302.9C790.899 295.946 783.946 296.709 783.919 302.809C783.892 308.374 783.902 313.739 783.946 318.913C783.956 319.304 783.756 319.494 783.365 319.503L777.267 319.539C776.912 319.549 776.739 319.367 776.739 319.013L776.649 292.234C776.64 291.689 776.912 291.417 777.456 291.417H781.831C782.549 291.417 782.912 291.771 782.912 292.488L782.921 294.649C782.921 295.148 783.057 295.184 783.338 294.766Z" fill="#333280"/>
            <path d="M816.042 317.236C814.762 318.788 813.173 319.723 811.277 320.041C803.88 321.303 801.029 313.224 803.035 307.596C804.941 302.276 810.224 301.069 815.334 300.687C815.607 300.669 815.816 300.415 815.779 300.143C815.152 295.186 808.8 296.829 805.985 298.654C805.54 298.935 805.268 298.826 805.159 298.318L804.188 293.997C804.07 293.489 804.251 293.117 804.714 292.88C809.943 290.184 818.411 289.304 821.416 295.567C822.441 297.719 822.95 300.07 822.922 302.63C822.877 308.639 822.958 314.077 823.149 318.933C823.168 319.306 822.986 319.497 822.614 319.497L817.594 319.533C817.032 319.533 816.722 319.251 816.678 318.698L816.569 317.409C816.533 316.927 816.36 316.864 816.042 317.236ZM815.516 306.307C812.339 306.243 808.771 307.886 809.643 311.698C810.496 315.412 814.745 314.014 815.643 311.308C816.078 310.01 816.187 308.476 815.969 306.715C815.942 306.452 815.789 306.315 815.516 306.307Z" fill="#333280"/>
            <path d="M835.44 278.691H829.141C828.909 278.691 828.723 278.878 828.723 279.109V319.123C828.723 319.354 828.909 319.541 829.141 319.541H835.44C835.67 319.541 835.857 319.354 835.857 319.123V279.109C835.857 278.878 835.67 278.691 835.44 278.691Z" fill="#333280"/>
            <path d="M736.523 283.148C736.481 285.77 738.264 287.925 740.504 287.96C742.745 287.995 744.595 285.898 744.636 283.276C744.677 280.655 742.894 278.501 740.654 278.466C738.413 278.43 736.563 280.527 736.523 283.148Z" fill="#333280"/>
            <path d="M865.654 292.924L865.662 279.08C865.671 278.854 865.79 278.736 866.017 278.736L872.488 278.699C872.733 278.699 872.851 278.818 872.851 279.053C872.869 290.873 872.861 303.237 872.815 316.145C872.815 317.016 872.905 317.806 873.087 318.523C873.251 319.168 873.006 319.485 872.343 319.494L867.451 319.531C866.86 319.531 866.561 319.24 866.552 318.659L866.497 316.281C866.488 315.709 866.325 315.664 866.017 316.136C861.941 322.245 854.244 320.992 851.249 314.62C849.116 310.081 848.743 305.043 850.123 299.514C851.185 295.266 854.117 291.39 858.701 290.909C861.287 290.646 863.438 291.381 865.136 293.132C865.48 293.487 865.654 293.423 865.654 292.924ZM861.177 313.367C863.811 313.386 865.971 309.818 865.998 305.394C866.025 300.976 863.92 297.372 861.289 297.354C858.655 297.336 856.495 300.904 856.468 305.327C856.441 309.745 858.546 313.349 861.177 313.367Z" fill="#333280"/>
            <path d="M884.17 308.857C885.731 314.458 891.713 314.032 896.096 312.434C896.486 312.289 896.714 312.416 896.786 312.825L897.631 317.499C897.704 317.872 897.494 318.252 897.14 318.398C889.889 321.421 880.248 320.377 877.997 311.308C876.519 305.335 877.217 300.115 880.095 295.64C882.209 292.363 885.177 290.775 889.007 290.874C897.494 291.102 899.518 300.505 898.774 307.414C898.729 307.832 898.384 308.149 897.957 308.149L884.741 308.113C884.225 308.103 884.034 308.358 884.17 308.857ZM884.478 302.185L892.012 302.167C892.157 302.158 892.275 302.039 892.275 301.895V301.75C892.266 298.881 890.505 296.556 888.354 296.566H888.099C885.94 296.575 884.206 298.908 884.215 301.786V301.931C884.215 302.076 884.334 302.194 884.478 302.185Z" fill="#333280"/>
            <path d="M436.767 365.616L428.416 365.644C428.244 365.644 428.089 365.761 428.053 365.935L426.056 375.275C426.02 375.448 425.865 375.566 425.693 375.566L418.968 375.629C418.723 375.629 418.541 375.402 418.604 375.166L427.999 337.167C428.045 337.004 428.19 336.886 428.362 336.886L437.13 336.895C437.302 336.895 437.447 337.012 437.493 337.176L447.115 375.157C447.178 375.394 446.996 375.62 446.751 375.62H439.753C439.581 375.62 439.436 375.503 439.39 375.339L437.13 365.907C437.084 365.735 436.939 365.616 436.767 365.616ZM435.832 359.035L432.655 344.248C432.573 343.885 432.501 343.885 432.428 344.239L429.324 358.745C429.278 358.953 429.442 359.154 429.659 359.154L435.723 359.171C435.795 359.171 435.85 359.108 435.832 359.035Z" fill="#333280"/>
            <path d="M458.696 369.815C460.175 369.307 460.384 367.636 459.594 366.456C458.615 364.977 455.936 364.314 454.403 363.352C451.343 361.436 449.991 358.649 450.345 354.991C451.099 347.129 459.368 345.314 465.43 348.21C465.785 348.374 465.921 348.646 465.849 349.027L464.923 353.938C464.814 354.501 464.514 354.637 464.024 354.337C462.472 353.402 458.078 351.931 457.271 354.628C456.99 355.563 457.38 356.571 458.215 357.07C460.348 358.341 462.935 359.158 464.641 361C466.384 362.88 467.137 365.186 466.901 367.936C466.147 376.805 456.663 377.812 450.209 374.563C449.873 374.4 449.746 374.136 449.81 373.763L450.827 368.508C450.899 368.135 451.099 368.054 451.425 368.244C453.377 369.397 456.418 370.596 458.696 369.815Z" fill="#333280"/>
            <path d="M480.271 367.952C480.098 365.275 476.876 364.657 474.924 363.523C471.512 361.553 470.06 358.631 470.559 354.754C471.566 346.938 479.554 345.367 485.862 348.327C486.026 348.409 486.126 348.591 486.089 348.772C485.735 350.742 485.372 352.676 485 354.554C484.991 354.627 484.909 354.663 484.846 354.627C482.64 353.347 480.553 352.902 478.582 353.311C478.211 353.383 477.93 353.583 477.739 353.919C476.968 355.271 477.267 356.37 478.637 357.205C480.452 358.312 482.622 359.002 484.21 360.41C488.976 364.621 487.995 373.364 481.542 375.551C478.056 376.74 474.381 376.449 470.522 374.689C470.096 374.498 469.924 374.171 470.015 373.708L471.004 368.57C471.086 368.17 471.304 368.071 471.658 368.279C473.754 369.496 477.039 370.748 479.299 369.605C479.999 369.26 480.316 368.706 480.271 367.952Z" fill="#333280"/>
            <path d="M498.289 347.524H491.935C491.694 347.524 491.499 347.719 491.499 347.96V375.175C491.499 375.415 491.694 375.61 491.935 375.61H498.289C498.529 375.61 498.724 375.415 498.724 375.175V347.96C498.724 347.719 498.529 347.524 498.289 347.524Z" fill="#333280"/>
            <path d="M512.094 369.679C514.119 368.781 513.012 366.057 511.469 365.349C510.333 364.833 509.209 364.278 508.092 363.688C503.227 361.138 501.992 355.682 504.752 351.034C507.556 346.304 513.692 346.105 518.376 348.129C518.839 348.329 519.029 348.683 518.938 349.182L518.039 353.975C517.959 354.401 517.722 354.529 517.323 354.347C513.375 352.54 511.006 352.695 510.216 354.81C509.943 355.518 510.207 356.327 510.842 356.753C513.129 358.278 515.997 359.067 517.867 361.102C519.546 362.926 520.255 365.368 519.974 368.409C519.192 376.86 509.291 377.631 503.453 374.691C503 374.464 502.828 374.1 502.927 373.611L503.899 368.772C504.017 368.209 504.316 368.073 504.797 368.373C506.73 369.534 509.907 370.66 512.094 369.679Z" fill="#333280"/>
            <path d="M525.336 346.967L525.308 343.327C525.3 342.701 525.59 342.292 526.18 342.083L531.471 340.259C532.234 339.995 532.615 340.267 532.607 341.076L532.561 346.967C532.561 347.375 532.76 347.566 533.169 347.557L536.808 347.475C537.244 347.467 537.462 347.675 537.462 348.111V353.367C537.462 353.866 537.208 354.12 536.709 354.111L533.115 354.084C532.76 354.075 532.579 354.256 532.579 354.61C532.588 358.297 532.588 361.954 532.579 365.576C532.579 366.765 532.934 367.773 533.641 368.599C533.886 368.89 534.194 369.035 534.567 369.044L536.737 369.071C537.091 369.081 537.272 369.253 537.281 369.607L537.426 374.971C537.435 375.371 537.244 375.616 536.863 375.717C529.266 377.668 525.526 373.982 525.417 366.693C525.363 362.762 525.345 358.75 525.373 354.646C525.373 354.193 525.146 353.984 524.7 354.011L523.185 354.111C522.722 354.138 522.341 353.776 522.341 353.313L522.35 348.165C522.35 347.766 522.677 347.457 523.067 347.475L524.719 347.566C525.136 347.593 525.345 347.394 525.336 346.967Z" fill="#333280"/>
            <path d="M547.702 364.215C547.375 364.215 547.139 364.515 547.221 364.833C548.555 370.17 554.174 370.334 558.975 368.591C559.647 368.346 560.001 368.581 560.046 369.29C560.128 370.624 560.355 371.914 560.727 373.157C560.936 373.847 560.709 374.328 560.028 374.592C551.814 377.814 542.928 376.044 540.831 366.213C539.488 359.949 541.022 351.035 547.412 347.921C549.445 346.931 551.578 346.669 553.82 347.149C561.126 348.711 562.579 357.325 561.816 363.816C561.78 364.106 561.617 364.252 561.327 364.252L547.702 364.215ZM547.611 358.252H555.091C555.208 358.252 555.308 358.151 555.308 358.034V357.879C555.308 355.029 553.556 352.714 551.397 352.714H551.305C549.145 352.714 547.393 355.029 547.393 357.879V358.034C547.393 358.151 547.494 358.252 547.611 358.252Z" fill="#333280"/>
            <path d="M572.952 350.754C576.338 345.68 583.227 345.381 586.041 351.063C587.012 353.024 587.529 355.248 587.584 357.735C587.71 363.309 587.738 369.1 587.666 375.11C587.656 375.455 587.484 375.627 587.148 375.618H581.021C580.721 375.618 580.476 375.373 580.476 375.065C580.486 370.018 580.495 364.78 580.486 359.343C580.467 351.907 573.351 352.697 573.388 359.206C573.424 365.061 573.442 370.326 573.433 375.01C573.433 375.428 573.225 375.637 572.816 375.637L566.871 375.654C566.444 375.654 566.226 375.437 566.217 375.001L566.154 348.285C566.154 347.786 566.408 347.532 566.907 347.532H571.545C572.099 347.532 572.389 347.813 572.399 348.367L572.453 350.609C572.462 351.181 572.634 351.236 572.952 350.754Z" fill="#333280"/>
            <path d="M599.612 363.259C600.438 368.706 604.467 370.412 609.315 368.66C609.542 368.578 609.777 368.724 609.804 368.96L610.54 374.642C610.586 374.979 610.449 375.197 610.131 375.296C597.152 379.553 589.864 369.232 592.587 357.404C594.602 348.626 602.153 345.094 610.477 347.909C610.586 347.945 610.63 348.018 610.613 348.135L609.523 354.262C609.506 354.354 609.414 354.408 609.324 354.381C604.595 352.62 601.49 353.845 600.002 358.066C599.448 359.619 599.321 361.353 599.612 363.259Z" fill="#333280"/>
            <path d="M621.343 347.508L614.916 347.518C614.726 347.519 614.572 347.674 614.573 347.864L614.621 375.316C614.621 375.506 614.775 375.66 614.966 375.659L621.392 375.649C621.582 375.648 621.737 375.493 621.736 375.303L621.688 347.852C621.688 347.662 621.534 347.507 621.343 347.508Z" fill="#333280"/>
            <path d="M639.403 373.319C636.281 377.113 630.344 377.486 627.412 373.22C625.569 370.542 625.171 367.492 626.214 364.06C627.875 358.577 633.439 357.061 638.658 356.861C638.939 356.852 639.149 356.599 639.113 356.316C638.413 351.26 632.16 352.958 629.155 354.737C628.801 354.946 628.575 354.855 628.483 354.455L627.412 349.917C627.33 349.572 627.494 349.217 627.812 349.055C633.33 346.195 642.235 345.324 645.021 352.277C645.92 354.528 646.328 357.251 646.247 360.447C646.11 365.358 646.165 370.179 646.41 374.899C646.437 375.38 646.21 375.616 645.729 375.616L640.737 375.607C640.337 375.607 640.011 375.28 640.002 374.881L639.983 373.519C639.975 372.929 639.775 372.856 639.403 373.319ZM633.131 368.381C633.739 369.779 634.746 370.296 636.153 369.942C639.375 369.125 639.575 365.676 639.285 362.908C639.248 362.581 639.067 362.417 638.74 362.417C635.346 362.426 631.433 364.469 633.131 368.381Z" fill="#333280"/>
            <path d="M491.091 339.239C491.032 341.885 492.803 344.072 495.048 344.123C497.293 344.174 499.162 342.07 499.222 339.424C499.281 336.777 497.51 334.59 495.266 334.539C493.02 334.489 491.151 336.592 491.091 339.239Z" fill="#333280"/>
            <path d="M614.07 339.224C614.006 341.865 615.77 344.051 618.009 344.106C620.25 344.16 622.118 342.064 622.183 339.422C622.247 336.781 620.483 334.595 618.244 334.54C616.004 334.486 614.136 336.583 614.07 339.224Z" fill="#333280"/>
            <path d="M549.298 344.236L545.531 344.427C545.187 344.445 544.95 344.081 545.114 343.773L549.344 335.703C549.425 335.558 549.58 335.467 549.742 335.467L553.8 335.494C553.964 335.494 554.109 335.585 554.19 335.73L558.357 343.683C558.511 343.972 558.293 344.336 557.957 344.336L554.299 344.309C554.127 344.309 553.973 344.209 553.901 344.054L552.112 340.178C551.949 339.833 551.449 339.833 551.304 340.197L549.688 343.972C549.625 344.127 549.471 344.236 549.298 344.236Z" fill="#333280"/>
            <path d="M673.341 373.364C672.597 374.253 671.562 375.207 670.464 375.605C662.358 378.52 658.165 370.722 660.316 363.923C662.014 358.549 666.987 357.387 672.179 356.852C673.278 356.743 673.523 356.225 672.915 355.309C672.787 355.118 672.624 354.863 672.424 354.555C671.798 353.592 670.909 353.066 669.756 352.984C667.404 352.811 665.226 353.438 663.211 354.863C662.976 355.026 662.649 354.9 662.576 354.618L661.442 349.889C661.35 349.516 661.469 349.253 661.805 349.08C669.946 344.769 680.122 346.485 680.176 357.632C680.203 363.124 680.312 368.952 680.493 375.098C680.503 375.47 680.321 375.661 679.948 375.661L674.757 375.605C674.34 375.597 674.003 375.279 673.986 374.871L673.922 373.555C673.894 373.001 673.695 372.937 673.341 373.364ZM672.905 362.398C669.374 362.362 665.907 364.104 667.123 368.344C667.45 369.487 668.576 370.214 669.756 370.05C673.64 369.497 673.25 365.702 673.351 362.861C673.359 362.553 673.214 362.398 672.905 362.398Z" fill="#333280"/>
            <path d="M696.195 376.386C689.55 376.236 684.314 369.481 684.498 361.302C684.686 353.124 690.223 346.615 696.867 346.764C703.511 346.915 708.748 353.669 708.563 361.848C708.376 370.026 702.839 376.536 696.195 376.386ZM696.531 370.108C699.046 370.108 701.078 366.295 701.078 361.585C701.078 356.873 699.046 353.061 696.531 353.061C694.017 353.061 691.984 356.873 691.984 361.585C691.984 366.295 694.017 370.108 696.531 370.108Z" fill="#333280"/>
            <path d="M743.593 344.642C737.085 341.547 730.595 344.198 728.889 351.587C727.328 358.367 728.798 368.807 737.975 369.097C739.862 369.161 741.732 368.798 743.584 368.008C743.92 367.863 744.301 368.08 744.355 368.444L745.254 374.245C745.308 374.599 745.164 374.835 744.828 374.944C734.843 378.157 724.805 375.27 721.855 364.559C720.121 358.277 720.375 352.331 722.617 346.721C726.339 337.426 735.814 334.248 745.046 337.579C745.508 337.743 745.681 338.061 745.581 338.533L744.355 344.27C744.283 344.615 743.91 344.796 743.593 344.642Z" fill="#333280"/>
            <path d="M761.593 373.35C760.931 374.376 760.023 375.102 758.879 375.529C750.864 378.579 746.498 371.063 748.531 364.19C750.256 358.39 755.13 357.582 760.458 356.82C761.556 356.665 761.784 356.139 761.139 355.24C760.985 355.031 760.785 354.741 760.522 354.378C759.877 353.479 758.996 353.007 757.881 352.98C755.466 352.898 753.206 353.588 751.1 355.031C751.064 355.049 751.018 355.031 751.009 354.995C750.456 353.297 750.029 351.463 749.729 349.493C749.711 349.413 749.739 349.34 749.82 349.294C754.694 346.426 763.517 345.246 766.775 351.191C767.964 353.37 768.555 355.857 768.536 358.663C768.5 363.918 768.564 369.411 768.727 375.138C768.736 375.465 768.572 375.628 768.237 375.628H763.109C762.654 375.628 762.4 375.402 762.337 374.947L762.137 373.477C762.065 372.951 761.883 372.905 761.593 373.35ZM761.03 362.366C757.917 362.475 754.585 363.836 755.158 367.64C755.575 370.4 758.679 370.754 760.358 368.902C761.529 367.613 761.937 365.588 761.583 362.838C761.539 362.511 761.357 362.356 761.03 362.366Z" fill="#333280"/>
            <path d="M780.273 351.724C780.317 352.441 780.463 352.459 780.726 351.797C782.033 348.401 784.23 346.767 787.316 346.894C787.679 346.912 787.969 347.211 787.969 347.575V354.673C787.969 355.019 787.67 355.282 787.333 355.237C781.08 354.51 781.08 359.848 781.216 364.241C781.316 367.764 781.334 371.386 781.252 375.098C781.243 375.425 781.08 375.589 780.753 375.598L774.536 375.607C774.181 375.607 774 375.425 774.009 375.071C774.164 365.821 774.127 356.934 773.892 348.41C773.882 347.838 774.164 347.548 774.745 347.538L779.164 347.502C779.736 347.494 780.036 347.775 780.072 348.347L780.273 351.724Z" fill="#333280"/>
            <path d="M806.523 348.983L806.477 335.139C806.477 334.931 806.586 334.822 806.795 334.822L813.357 334.795C813.548 334.785 813.702 334.948 813.702 335.139C813.657 348.32 813.667 361.002 813.738 373.175C813.738 373.747 813.811 374.319 813.965 374.9C814.057 375.244 813.793 375.581 813.439 375.59L807.921 375.617C807.503 375.617 807.303 375.408 807.33 375L807.394 373.475C807.466 371.995 807.058 371.85 806.177 373.039C802.62 377.851 796.003 376.906 792.926 372.167C788.96 366.049 788.65 352.732 796.012 348.23C799.325 346.196 803.028 346.522 805.933 349.237C806.323 349.601 806.523 349.519 806.523 348.983ZM802.029 369.48C804.653 369.499 806.814 365.931 806.841 361.516C806.868 357.098 804.771 353.504 802.14 353.485C799.515 353.468 797.356 357.035 797.328 361.45C797.301 365.868 799.398 369.463 802.029 369.48Z" fill="#333280"/>
            <path d="M825.922 347.516L819.622 347.527C819.366 347.527 819.16 347.736 819.16 347.991L819.208 375.17C819.208 375.425 819.415 375.632 819.672 375.632L825.97 375.62C826.226 375.62 826.433 375.413 826.432 375.157L826.386 347.978C826.384 347.722 826.177 347.516 825.922 347.516Z" fill="#333280"/>
            <path d="M843.892 373.456C843.202 374.219 842.385 375.009 841.441 375.426C829.777 380.546 825.757 361.528 837.22 357.888C838.863 357.371 840.642 357.034 842.548 356.898C843.955 356.789 844.255 356.154 843.465 354.992L843.156 354.529C842.439 353.466 841.223 352.858 839.953 352.922C837.565 353.031 835.568 353.64 833.97 354.738C833.526 355.046 833.245 354.937 833.127 354.411L832.165 350.054C832.046 349.545 832.228 349.173 832.691 348.947C841.295 344.743 850.717 346.513 850.816 358.314C850.862 363.861 850.962 369.48 851.116 375.153C851.126 375.472 850.971 375.625 850.654 375.625L845.425 375.598C844.963 375.598 844.708 375.363 844.663 374.9L844.563 373.692C844.517 373.093 844.291 373.011 843.892 373.456ZM843.437 362.372C840.188 362.508 836.893 363.806 837.601 367.837C837.828 369.153 839.018 370.278 840.415 370.052C844.037 369.471 844.263 365.767 843.909 362.772C843.882 362.535 843.674 362.363 843.437 362.372Z" fill="#333280"/>
            <path d="M872.482 354.412C860.673 349.419 859.221 369.598 869.314 369.271C870.684 369.227 871.646 369.053 872.21 368.772C872.836 368.455 873.144 368.646 873.144 369.344C873.153 370.906 873.353 372.458 873.753 374.001C873.933 374.718 873.68 375.181 872.981 375.408C870.793 376.108 868.47 376.37 866.019 376.18C854.792 375.299 852.976 360.094 857.841 352.45C861.254 347.086 867.717 345.879 873.571 347.885C873.761 347.948 873.843 348.084 873.807 348.293L872.736 354.266C872.709 354.421 872.627 354.466 872.482 354.412Z" fill="#333280"/>
            <path d="M887.268 376.378C880.624 376.227 875.386 369.474 875.571 361.294C875.759 353.116 881.296 346.607 887.94 346.756C894.584 346.906 899.821 353.66 899.637 361.84C899.449 370.018 893.913 376.527 887.268 376.378ZM887.562 370.109C890.073 370.109 892.115 366.296 892.124 361.593C892.133 356.883 890.1 353.062 887.592 353.062C885.081 353.062 883.039 356.874 883.029 361.577C883.02 366.288 885.054 370.109 887.562 370.109Z" fill="#333280"/>
            <path d="M830.275 335.993L824.957 344.064C824.892 344.154 824.793 344.209 824.684 344.209L820.418 344.299C820.173 344.299 820.01 344.045 820.11 343.828L823.758 335.712C823.812 335.585 823.93 335.512 824.066 335.512L829.994 335.467C830.257 335.467 830.42 335.766 830.275 335.993Z" fill="#333280"/>
        </g>
    </g>
</svg>
