<svg viewBox="0 0 900 507" fill="none" xmlns="http://www.w3.org/2000/svg">
	<g clip-path="url(#clip0_1201_3)">
		<mask id="mask0_1201_3" style="mask-type:luminance" maskUnits="userSpaceOnUse" x="0" y="0" width="900" height="507">
			<path d="M900 0H0V506.25H900V0Z" fill="white" />
		</mask>
		<g mask="url(#mask0_1201_3)">
			<path d="M191.997 394.434C192.564 395.434 192.698 395.904 192.391 395.837L192.41 439.939C192.41 440.573 192.093 440.89 191.459 440.881C146.507 440.276 103.37 421.169 77.6095 383.781C74.2861 378.949 71.1356 373.339 68.158 366.941C55.7002 340.188 48.2658 312.205 45.855 282.973C45.4035 277.526 45.3555 268.813 45.7013 256.825L46.777 256.738L96.3491 256.719C96.5316 256.719 96.6853 256.565 96.6757 256.383C95.1004 210.744 127.172 171.291 172.182 163.817C240.445 152.491 295.271 218.429 272.296 283.665C264.9 304.664 248.974 323.242 228.679 333.55C173.613 361.514 108.922 329.025 97.8571 268.554C97.3096 265.576 97.0695 262.512 97.1175 259.361C97.1175 259.217 97.0695 259.198 96.9734 259.303C96.9542 259.332 96.935 259.37 96.9158 259.399C96.8966 259.428 96.887 259.457 96.887 259.495C96.8101 261.1 96.3203 262.598 96.3107 264.174C96.0321 293.569 102.583 322.503 118.143 346.442C121.553 351.687 125.674 356.643 130.515 361.302C147.929 378.056 168.224 390.736 191.997 394.434Z" fill="#333280" />
			<path d="M330.761 249.081L375.684 249.341C376.068 249.341 376.376 249.658 376.376 250.042C376.03 290.475 359.932 330.254 329.138 356.383C318.063 365.797 306.671 371.638 293.368 377.267C267.3 388.305 240.012 394.558 211.504 396.028C207.114 396.259 200.736 396.191 192.39 395.836C192.697 395.903 192.563 395.433 191.996 394.434L192.169 394.107C192.246 393.953 192.284 393.79 192.284 393.617L192.294 345.422C192.294 345.115 192.563 344.865 192.87 344.884C228.774 347.151 271.132 337.574 296.913 311.07C313.414 294.106 326.544 273.164 329.993 249.446C330.137 249.465 330.396 249.341 330.761 249.081Z" fill="#ED1A3B" />
			<path d="M184.119 65.3806H193.801C229.397 68.0223 263.082 81.9706 287.643 108.263C295.259 116.409 301.311 125.055 305.816 134.19C320.079 163.115 328.349 192.933 330.616 223.644C331.125 230.628 331.173 239.1 330.76 249.081C330.395 249.341 330.136 249.465 329.992 249.446L280.16 249.437C279.853 249.437 279.709 249.283 279.728 248.975C280.66 235.21 279.738 221.204 276.971 206.958C273.456 188.84 267.001 172.702 257.598 158.533C254.841 154.383 251.575 150.415 247.82 146.63C230.204 128.878 208.794 115.506 184.157 111.558L183.84 110.29L184.119 65.3806Z" fill="#333280" />
			<path d="M183.842 110.29L184.159 111.558V160.358C184.159 160.78 183.804 161.117 183.381 161.097C158.052 159.724 134.654 163.547 113.196 172.558C102.679 176.967 93.7366 182.298 86.3695 188.542C77.7921 195.805 69.7238 205.152 62.1549 216.593C53.7793 229.254 48.5253 242.395 46.3929 256.026C46.3641 256.228 46.4121 256.391 46.5562 256.526L46.7771 256.737L45.7014 256.824L0.922255 256.776C0.403578 256.776 -0.00944093 256.353 0.000164192 255.844C0.739759 210.887 19.9404 167.082 57.7558 141.702C62.6256 138.436 68.2734 135.333 74.6992 132.384C109.537 116.399 146.19 108.474 183.842 110.29Z" fill="#ED1A3B" />
			<path d="M501.391 286.334L456.159 286.345C455.95 286.345 455.751 286.481 455.677 286.68L446.162 312.999C446.089 313.198 445.89 313.334 445.681 313.334L419.009 313.344C418.653 313.344 418.401 312.978 418.538 312.643L464.586 193.473C464.659 193.274 464.847 193.149 465.067 193.149L491.331 193.159C491.54 193.159 491.729 193.285 491.802 193.484L539.556 312.664C539.693 312.999 539.441 313.365 539.075 313.365L512.309 313.334C512.089 313.334 511.9 313.198 511.827 312.999L501.872 286.669C501.799 286.47 501.61 286.334 501.391 286.334ZM463.853 264.171C463.769 264.401 463.937 264.653 464.188 264.653L492.922 264.496C493.173 264.496 493.341 264.255 493.257 264.014L478.686 225.404C478.571 225.1 478.131 225.1 478.016 225.414L463.853 264.171Z" fill="#333280" />
			<path d="M625.759 193.14L649.082 193.161C649.27 193.161 649.427 193.318 649.427 193.507L649.448 313.001C649.448 313.19 649.291 313.347 649.103 313.347L624.21 313.336C624.095 313.336 623.98 313.273 623.917 313.169L578.015 238.765C577.837 238.472 577.377 238.597 577.377 238.953L577.461 313.012C577.461 313.2 577.304 313.357 577.115 313.357L553.876 313.336C553.688 313.336 553.531 313.179 553.531 312.991V193.496C553.531 193.308 553.688 193.151 553.876 193.151L578.015 193.161C578.13 193.161 578.246 193.224 578.308 193.329L624.817 269.198C624.995 269.502 625.456 269.366 625.456 269.02L625.414 193.486C625.414 193.297 625.571 193.14 625.759 193.14Z" fill="#333280" />
			<path d="M701.033 286.661L691.507 313.012C691.434 313.211 691.256 313.336 691.046 313.336L664.332 313.347C663.987 313.347 663.746 313.001 663.872 312.677L709.93 193.475C710.003 193.287 710.192 193.161 710.391 193.161H736.697C736.895 193.161 737.084 193.287 737.157 193.475L784.901 312.698C785.037 313.022 784.796 313.378 784.44 313.378L757.643 313.336C757.444 313.336 757.255 313.211 757.193 313.022L747.196 286.65C747.123 286.462 746.934 286.336 746.735 286.336H701.493C701.284 286.336 701.106 286.462 701.033 286.661ZM709.198 264.173C709.114 264.404 709.281 264.644 709.532 264.644L738.267 264.498C738.518 264.498 738.685 264.247 738.602 264.016L724.03 225.396C723.915 225.082 723.476 225.082 723.36 225.396L709.198 264.173Z" fill="#333280" />
			<path d="M839.482 215.271C825.643 220.862 821.707 234.566 821.309 248.709C821.058 257.838 821.498 266.967 824.513 275.531C829.087 288.523 841.68 295.004 855.194 292.407C866.782 290.177 873.094 278.724 874.999 268.192C875.062 267.857 875.397 267.658 875.711 267.753L899.494 275.029C899.912 275.154 900.153 275.594 900.038 276.013C893.119 302.594 874.622 316.57 846.893 315.398C819.205 314.215 799.484 294.784 795.632 267.847C793.549 253.274 794.407 236.827 800.206 223.039C807.356 206.027 822.534 194.385 840.696 191.716C855.906 189.486 871.775 191.82 883.75 200.96C892.208 207.409 896.971 216.381 899.871 226.525C899.975 226.902 899.745 227.29 899.368 227.384L875.104 233.32C874.727 233.404 874.35 233.173 874.266 232.796C871.744 221.71 863.673 214.277 852.42 213.481C847.573 213.135 843.26 213.732 839.482 215.271Z" fill="#333280" />
		</g>
	</g>
</svg>