<svg viewBox="0 0 20 23" fill="none" xmlns="http://www.w3.org/2000/svg">
<path d="M8.25 4.42305V0.923096H9.74995V4.42305H8.25ZM4.2481 5.74227L1.6039 3.09807L2.6731 2.02887L5.3173 4.67307L4.2481 5.74227ZM1.25 22.4999C1.0375 22.4999 0.859375 22.428 0.715625 22.2843C0.571875 22.1405 0.5 21.9624 0.5 21.7499V14.0769L2.54232 8.24997C2.61667 8.02049 2.75321 7.83812 2.95193 7.70287C3.15064 7.5676 3.37179 7.49997 3.61537 7.49997H6.46155V5.73077H8.88072C8.58971 6.20769 8.36375 6.71874 8.20285 7.26392C8.04195 7.8091 7.9615 8.38457 7.9615 8.99032V8.99995H3.8692L2.3269 13.1923H9.49615C9.72178 13.4897 9.97113 13.766 10.2442 14.0211C10.5173 14.2762 10.8192 14.4999 11.15 14.6922H1.99997V18.9999H16V15.5211C16.2666 15.4775 16.5234 15.4153 16.7702 15.3345C17.0169 15.2538 17.2602 15.1576 17.5 15.0461V21.7499C17.5 21.9624 17.4281 22.1405 17.2843 22.2843C17.1406 22.428 16.9625 22.4999 16.75 22.4999H16.1346C15.9221 22.4999 15.744 22.428 15.6002 22.2843C15.4565 22.1405 15.3846 21.9624 15.3846 21.7499V20.4999H2.61532V21.7499C2.61532 21.9624 2.54345 22.1405 2.3997 22.2843C2.25597 22.428 2.07785 22.4999 1.86535 22.4999H1.25ZM3.28845 17.7115H6.1346C6.37978 17.7115 6.58531 17.6286 6.75117 17.4628C6.91704 17.297 6.99997 17.0915 6.99997 16.8464C6.99997 16.6013 6.91704 16.3958 6.75117 16.2297C6.58531 16.0637 6.37978 15.9807 6.1346 15.9807H3.28845V17.7115ZM14.7115 17.7115V15.9807H11.8653C11.6202 15.9807 11.4146 16.0636 11.2488 16.2294C11.0829 16.3952 11 16.6007 11 16.8457C11 17.0908 11.0829 17.2964 11.2488 17.4624C11.4146 17.6285 11.6202 17.7115 11.8653 17.7115H14.7115ZM13.9384 11.1249L17.25 7.8288L16.4115 6.99035L13.9384 9.43267L12.8961 8.39035L12.0577 9.24417L13.9384 11.1249ZM14.6538 4.49037C15.9025 4.49037 16.9647 4.92819 17.8403 5.80382C18.7159 6.67945 19.1538 7.74162 19.1538 8.99032C19.1538 10.239 18.7159 11.3012 17.8403 12.1768C16.9647 13.0525 15.9025 13.4903 14.6538 13.4903C13.4051 13.4903 12.3429 13.0525 11.4673 12.1768C10.5916 11.3012 10.1538 10.239 10.1538 8.99032C10.1538 7.74162 10.5916 6.67945 11.4673 5.80382C12.3429 4.92819 13.4051 4.49037 14.6538 4.49037Z" fill="white"/>
</svg>
