<svg viewBox="0 0 16 16" fill="none" xmlns="http://www.w3.org/2000/svg">
    <path d="M7.99997 11.7884L3.7308 7.51925L4.78462 6.43465L7.25 8.90003V0.5H8.74995V8.90003L11.2153 6.43465L12.2692 7.51925L7.99997 11.7884ZM2.3077 15.5C1.80257 15.5 1.375 15.325 1.025 14.975C0.675 14.625 0.5 14.1974 0.5 13.6923V10.9808H1.99997V13.6923C1.99997 13.7692 2.03202 13.8397 2.09612 13.9038C2.16024 13.9679 2.23077 14 2.3077 14H13.6922C13.7692 14 13.8397 13.9679 13.9038 13.9038C13.9679 13.8397 14 13.7692 14 13.6923V10.9808H15.5V13.6923C15.5 14.1974 15.325 14.625 14.975 14.975C14.625 15.325 14.1974 15.5 13.6922 15.5H2.3077Z" fill="#25245A"/>
</svg>
