<svg viewBox="0 0 17 19" fill="none" xmlns="http://www.w3.org/2000/svg">
    <path d="M6.05765 15.5C5.55252 15.5 5.12496 15.325 4.77498 14.975C4.42498 14.625 4.24998 14.1974 4.24998 13.6923V2.3077C4.24998 1.80257 4.42498 1.375 4.77498 1.025C5.12496 0.675 5.55252 0.5 6.05765 0.5H14.4422C14.9473 0.5 15.3749 0.675 15.7249 1.025C16.0749 1.375 16.2499 1.80257 16.2499 2.3077V13.6923C16.2499 14.1974 16.0749 14.625 15.7249 14.975C15.3749 15.325 14.9473 15.5 14.4422 15.5H6.05765ZM6.05765 14H14.4422C14.5191 14 14.5897 13.9679 14.6538 13.9038C14.7179 13.8397 14.7499 13.7692 14.7499 13.6923V2.3077C14.7499 2.23077 14.7179 2.16024 14.6538 2.09613C14.5897 2.03203 14.5191 1.99998 14.4422 1.99998H6.05765C5.98072 1.99998 5.9102 2.03203 5.8461 2.09613C5.78198 2.16024 5.74993 2.23077 5.74993 2.3077V13.6923C5.74993 13.7692 5.78198 13.8397 5.8461 13.9038C5.9102 13.9679 5.98072 14 6.05765 14ZM2.55768 18.9999C2.05256 18.9999 1.625 18.8249 1.275 18.4749C0.925 18.1249 0.75 17.6973 0.75 17.1922V4.3077H2.24998V17.1922C2.24998 17.2692 2.28203 17.3397 2.34613 17.4038C2.41024 17.4679 2.48076 17.5 2.55768 17.5H12.4422V18.9999H2.55768Z" fill="white"/>
</svg>
