<svg width="27" height="26" viewBox="0 0 27 26" fill="none" xmlns="http://www.w3.org/2000/svg">
<path d="M2.56891 26C1.85104 26 1.24342 25.74 0.746053 25.22C0.248684 24.7 0 24.0647 0 23.3142V7.8858C0 7.13527 0.248684 6.5 0.746053 5.98C1.24342 5.46 1.85104 5.2 2.56891 5.2H8.52632V2.6858C8.52632 1.93527 8.775 1.3 9.27237 0.78C9.76974 0.26 10.3774 0 11.0952 0H15.9048C16.6226 0 17.2303 0.26 17.7276 0.78C18.225 1.3 18.4737 1.93527 18.4737 2.6858V5.2H24.4311C25.149 5.2 25.7566 5.46 26.2539 5.98C26.7513 6.5 27 7.13527 27 7.8858V23.3142C27 24.0647 26.7513 24.7 26.2539 25.22C25.7566 25.74 25.149 26 24.4311 26H2.56891ZM2.56891 23.7714H24.4311C24.5405 23.7714 24.6407 23.7238 24.7316 23.6284C24.8228 23.5333 24.8684 23.4286 24.8684 23.3142V7.8858C24.8684 7.7714 24.8228 7.66666 24.7316 7.57157C24.6407 7.47624 24.5405 7.42857 24.4311 7.42857H2.56891C2.45949 7.42857 2.3593 7.47624 2.26836 7.57157C2.17717 7.66666 2.13158 7.7714 2.13158 7.8858V23.3142C2.13158 23.4286 2.17717 23.5333 2.26836 23.6284C2.3593 23.7238 2.45949 23.7714 2.56891 23.7714ZM10.6579 5.2H16.3421V2.6858C16.3421 2.5714 16.2965 2.46666 16.2053 2.37157C16.1144 2.27624 16.0142 2.22857 15.9048 2.22857H11.0952C10.9858 2.22857 10.8856 2.27624 10.7947 2.37157C10.7035 2.46666 10.6579 2.5714 10.6579 2.6858V5.2Z" fill="white"/>
</svg>
