<svg width="26" height="26" viewBox="0 0 26 26" fill="none" xmlns="http://www.w3.org/2000/svg">
<path d="M2.36364 26V21.0364C1.67424 20.8 1.10795 20.3814 0.664773 19.7807C0.221591 19.1799 0 18.4955 0 17.7273V5.90909H2.36364V1.18182C2.36364 0.84697 2.47689 0.566288 2.70341 0.339773C2.92992 0.113258 3.21061 0 3.54545 0C3.8803 0 4.16098 0.113258 4.3875 0.339773C4.61402 0.566288 4.72727 0.84697 4.72727 1.18182V5.90909H7.09091V17.7273C7.09091 18.4955 6.86932 19.1799 6.42614 19.7807C5.98295 20.3814 5.41667 20.8 4.72727 21.0364V26H2.36364ZM11.8182 26V21.0364C11.1288 20.8 10.5625 20.3814 10.1193 19.7807C9.67614 19.1799 9.45455 18.4955 9.45455 17.7273V5.90909H11.8182V1.18182C11.8182 0.84697 11.9314 0.566288 12.158 0.339773C12.3845 0.113258 12.6652 0 13 0C13.3348 0 13.6155 0.113258 13.842 0.339773C14.0686 0.566288 14.1818 0.84697 14.1818 1.18182V5.90909H16.5455V17.7273C16.5455 18.4955 16.3239 19.1799 15.8807 19.7807C15.4375 20.3814 14.8712 20.8 14.1818 21.0364V26H11.8182ZM21.2727 26V21.0364C20.5833 20.8 20.017 20.3814 19.5739 19.7807C19.1307 19.1799 18.9091 18.4955 18.9091 17.7273V5.90909H21.2727V1.18182C21.2727 0.84697 21.386 0.566288 21.6125 0.339773C21.839 0.113258 22.1197 0 22.4545 0C22.7894 0 23.0701 0.113258 23.2966 0.339773C23.5231 0.566288 23.6364 0.84697 23.6364 1.18182V5.90909H26V17.7273C26 18.4955 25.7784 19.1799 25.3352 19.7807C24.892 20.3814 24.3258 20.8 23.6364 21.0364V26H21.2727ZM2.36364 8.27273V13H4.72727V8.27273H2.36364ZM11.8182 8.27273V13H14.1818V8.27273H11.8182ZM21.2727 8.27273V13H23.6364V8.27273H21.2727ZM3.54545 18.9091C3.8803 18.9091 4.16098 18.7958 4.3875 18.5693C4.61402 18.3428 4.72727 18.0621 4.72727 17.7273V15.3636H2.36364V17.7273C2.36364 18.0621 2.47689 18.3428 2.70341 18.5693C2.92992 18.7958 3.21061 18.9091 3.54545 18.9091ZM13 18.9091C13.3348 18.9091 13.6155 18.7958 13.842 18.5693C14.0686 18.3428 14.1818 18.0621 14.1818 17.7273V15.3636H11.8182V17.7273C11.8182 18.0621 11.9314 18.3428 12.158 18.5693C12.3845 18.7958 12.6652 18.9091 13 18.9091ZM22.4545 18.9091C22.7894 18.9091 23.0701 18.7958 23.2966 18.5693C23.5231 18.3428 23.6364 18.0621 23.6364 17.7273V15.3636H21.2727V17.7273C21.2727 18.0621 21.386 18.3428 21.6125 18.5693C21.839 18.7958 22.1197 18.9091 22.4545 18.9091Z" fill="white"/>
</svg>
