<svg width="30" height="27" viewBox="0 0 30 27" fill="none" xmlns="http://www.w3.org/2000/svg">
<path d="M28.9286 11.88H16.0714V8.64H17.1429C17.7112 8.64 18.2562 8.41243 18.6581 8.00735C19.0599 7.60227 19.2857 7.05287 19.2857 6.48V2.16C19.2857 1.58713 19.0599 1.03773 18.6581 0.632649C18.2562 0.227571 17.7112 0 17.1429 0H12.8571C12.2888 0 11.7438 0.227571 11.3419 0.632649C10.9401 1.03773 10.7143 1.58713 10.7143 2.16V6.48C10.7143 7.05287 10.9401 7.60227 11.3419 8.00735C11.7438 8.41243 12.2888 8.64 12.8571 8.64H13.9286V11.88H1.07143C0.787268 11.88 0.514746 11.9938 0.313814 12.1963C0.112882 12.3989 0 12.6736 0 12.96C0 13.2464 0.112882 13.5211 0.313814 13.7237C0.514746 13.9262 0.787268 14.04 1.07143 14.04H5.35714V18.36H4.28571C3.71739 18.36 3.17235 18.5876 2.77049 18.9927C2.36862 19.3977 2.14286 19.9471 2.14286 20.52V24.84C2.14286 25.4129 2.36862 25.9623 2.77049 26.3674C3.17235 26.7724 3.71739 27 4.28571 27H8.57143C9.13975 27 9.68479 26.7724 10.0867 26.3674C10.4885 25.9623 10.7143 25.4129 10.7143 24.84V20.52C10.7143 19.9471 10.4885 19.3977 10.0867 18.9927C9.68479 18.5876 9.13975 18.36 8.57143 18.36H7.5V14.04H22.5V18.36H21.4286C20.8603 18.36 20.3152 18.5876 19.9133 18.9927C19.5115 19.3977 19.2857 19.9471 19.2857 20.52V24.84C19.2857 25.4129 19.5115 25.9623 19.9133 26.3674C20.3152 26.7724 20.8603 27 21.4286 27H25.7143C26.2826 27 26.8277 26.7724 27.2295 26.3674C27.6314 25.9623 27.8571 25.4129 27.8571 24.84V20.52C27.8571 19.9471 27.6314 19.3977 27.2295 18.9927C26.8277 18.5876 26.2826 18.36 25.7143 18.36H24.6429V14.04H28.9286C29.2127 14.04 29.4853 13.9262 29.6862 13.7237C29.8871 13.5211 30 13.2464 30 12.96C30 12.6736 29.8871 12.3989 29.6862 12.1963C29.4853 11.9938 29.2127 11.88 28.9286 11.88ZM12.8571 2.16H17.1429V6.48H12.8571V2.16ZM8.57143 24.84H4.28571V20.52H8.57143V24.84ZM25.7143 24.84H21.4286V20.52H25.7143V24.84Z" fill="white"/>
</svg>
