<svg viewBox="0 0 902 275" fill="none" xmlns="http://www.w3.org/2000/svg">
    <symbol id="wer_logo_white" viewBox="0 0 958 290" fill="none">
        <rect x="5" y="5" width="140" height="140" stroke="#5A7DF5" stroke-width="10" />
        <rect x="145" y="5" width="140" height="140" stroke="#5A7DF5" stroke-width="10" />
        <rect x="145" y="145" width="140" height="140" stroke="#5A7DF5" stroke-width="10" />
        <path d="M191.472 171.605H204.369C206.174 171.605 208.163 171.713 210.336 171.927C212.508 172.141 214.666 172.631 216.808 173.396C218.95 174.13 220.908 175.308 222.683 176.93C224.457 178.521 225.88 180.709 226.951 183.493C228.053 186.247 228.604 189.751 228.604 194.004V195.978C228.604 207.728 225.069 215.285 218.001 218.651L230.898 250H218.23L207.444 220.671H203.359V250H191.472V171.605ZM204.92 212.088C209.265 212.088 212.248 211.078 213.87 209.059C215.522 207.039 216.349 203.398 216.349 198.135V191.938C216.349 187.899 215.568 184.931 214.008 183.034C212.478 181.137 209.449 180.188 204.92 180.188H203.359V212.088H204.92Z" fill="white" />
        <path d="M191.472 37.6055H221.443V46.9688H203.359V70.4229H217.542V79.7861H203.359V106.637H221.443V116H191.472V37.6055Z" fill="white" />
        <path d="M42.4688 37.6055H53.8516L59.1299 84.9727L59.7266 96.0342H60.874L61.9756 84.9727L70.4209 37.6055H79.9219L88 84.9727L88.918 96.0342H90.1113L90.6621 84.9727L95.4814 37.6055H106.91L95.9404 116H83.8691L77.3975 78.3174L75.3779 61.9316H74.46L72.4863 78.3174L65.6934 116H53.7598L42.4688 37.6055Z" fill="white" />
        <path d="M245.25 85.8438C245.25 85.7604 245.917 85.2812 247.25 84.4062C248.604 83.5312 250.146 82.7396 251.875 82.0312C253.604 81.3021 255.323 80.9375 257.031 80.9375C260.094 80.9375 262.479 81.9479 264.188 83.9688C265.896 85.9896 266.75 88.7708 266.75 92.3125V109.281L271.25 110.875V116H253.625V110.875L257.156 109.281V94.0625C257.156 92.5625 256.76 91.3333 255.969 90.375C255.177 89.4167 254.125 88.9375 252.812 88.9375C251.625 88.9375 250.521 89.2083 249.5 89.75C248.5 90.2708 247.656 90.8542 246.969 91.5C246.302 92.125 245.969 92.4792 245.969 92.5625V109.281L249.469 110.875V116H231.25V110.875L236.375 109.281V88.4688L231.25 86.875V81.75L244.812 81.4375L245.25 85.8438ZM274.095 123.031C274.095 121.406 274.595 120.021 275.595 118.875C276.595 117.729 277.71 116.833 278.939 116.188C280.189 115.542 280.814 115.271 280.814 115.375C280.814 115.458 280.46 115.365 279.751 115.094C279.043 114.802 278.397 114.344 277.814 113.719C277.251 113.073 276.97 112.208 276.97 111.125C276.97 109.812 278.085 107.406 280.314 103.906C279.085 103.094 277.949 101.896 276.908 100.312C275.887 98.7292 275.376 96.5938 275.376 93.9062C275.376 89.6771 276.793 86.4375 279.626 84.1875C282.46 81.9375 286.158 80.8125 290.72 80.8125C293.574 80.8125 296.095 81.3229 298.283 82.3438L309.283 82.0938V87.1875L304.033 88.0938C304.074 88.2604 304.262 88.7917 304.595 89.6875C304.949 90.5833 305.126 91.7396 305.126 93.1562C305.126 97.5938 303.741 100.896 300.97 103.062C298.199 105.208 294.47 106.281 289.783 106.281C288.97 106.281 288.251 106.229 287.626 106.125C287.001 106 286.626 105.938 286.501 105.938L286.251 110.25H295.72C299.824 110.25 302.98 111.104 305.189 112.812C307.418 114.521 308.533 116.969 308.533 120.156C308.533 123.823 307.022 126.76 304.001 128.969C301.001 131.198 296.533 132.312 290.595 132.312C285.22 132.312 281.126 131.604 278.314 130.188C275.501 128.792 274.095 126.406 274.095 123.031ZM290.408 87.4062C288.533 87.4062 287.158 87.9062 286.283 88.9062C285.408 89.9062 284.97 91.4271 284.97 93.4688C284.97 95.4688 285.387 97.0417 286.22 98.1875C287.053 99.3125 288.345 99.875 290.095 99.875C292.053 99.875 293.449 99.3646 294.283 98.3438C295.116 97.3229 295.533 95.6979 295.533 93.4688C295.533 91.4271 295.116 89.9062 294.283 88.9062C293.449 87.9062 292.158 87.4062 290.408 87.4062ZM286.439 117.281C286.272 117.365 285.939 117.562 285.439 117.875C284.96 118.208 284.491 118.677 284.033 119.281C283.595 119.906 283.376 120.625 283.376 121.438C283.376 122.979 284.001 124 285.251 124.5C286.522 125.021 288.564 125.281 291.376 125.281C294.272 125.281 296.355 124.938 297.626 124.25C298.918 123.562 299.564 122.458 299.564 120.938C299.564 119.562 299.064 118.604 298.064 118.062C297.064 117.542 295.428 117.281 293.158 117.281H286.439ZM321.534 100.844C321.7 103.406 322.471 105.406 323.846 106.844C325.242 108.26 327.055 108.969 329.284 108.969C330.867 108.969 332.45 108.75 334.034 108.312C335.638 107.854 336.961 107.396 338.003 106.938C339.065 106.458 339.742 106.125 340.034 105.938L342.784 111.25C342.784 111.333 342.034 111.865 340.534 112.844C339.055 113.802 337.232 114.677 335.065 115.469C332.919 116.24 330.628 116.625 328.19 116.625C322.773 116.625 318.648 115.125 315.815 112.125C312.982 109.125 311.565 104.875 311.565 99.375C311.565 95.6667 312.242 92.4167 313.596 89.625C314.971 86.8125 316.94 84.6458 319.503 83.125C322.065 81.5833 325.107 80.8125 328.628 80.8125C333.315 80.8125 336.909 82.1562 339.409 84.8438C341.909 87.5312 343.159 91.1979 343.159 95.8438C343.159 96.8646 343.107 97.8542 343.003 98.8125C342.898 99.7708 342.825 100.375 342.784 100.625L321.534 100.844ZM328.003 88.4688C326.253 88.4688 324.825 89.0625 323.721 90.25C322.617 91.4167 321.93 92.9583 321.659 94.875H333.253C333.253 92.9583 332.825 91.4167 331.971 90.25C331.117 89.0625 329.794 88.4688 328.003 88.4688ZM360.41 85.8438C360.41 85.7604 361.077 85.2812 362.41 84.4062C363.764 83.5312 365.306 82.7396 367.035 82.0312C368.764 81.3021 370.483 80.9375 372.191 80.9375C375.254 80.9375 377.639 81.9479 379.348 83.9688C381.056 85.9896 381.91 88.7708 381.91 92.3125V109.281L386.41 110.875V116H368.785V110.875L372.316 109.281V94.0625C372.316 92.5625 371.92 91.3333 371.129 90.375C370.337 89.4167 369.285 88.9375 367.973 88.9375C366.785 88.9375 365.681 89.2083 364.66 89.75C363.66 90.2708 362.816 90.8542 362.129 91.5C361.462 92.125 361.129 92.4792 361.129 92.5625V109.281L364.629 110.875V116H346.41V110.875L351.535 109.281V88.4688L346.41 86.875V81.75L359.973 81.4375L360.41 85.8438ZM402.693 85.1562C404.005 84.0521 405.599 83.0521 407.474 82.1562C409.37 81.2604 411.359 80.8125 413.443 80.8125C416.693 80.8125 419.182 81.8229 420.911 83.8438C422.64 85.8646 423.505 88.6875 423.505 92.3125V109.281L427.974 110.875V116H410.568V110.875L413.88 109.344V93.8438C413.88 90.4271 412.474 88.7292 409.661 88.75C408.599 88.75 407.557 89.0104 406.536 89.5312C405.515 90.0312 404.661 90.5521 403.974 91.0938C403.286 91.6146 402.859 91.9583 402.693 92.125V109.281L406.099 110.875V116H387.974V110.875L393.099 109.281V73.3125L387.974 72.0312V66.9062L402.693 66.4062V85.1562ZM451.194 111.844C451.194 111.927 450.642 112.396 449.538 113.25C448.433 114.104 447.11 114.885 445.569 115.594C444.027 116.281 442.444 116.625 440.819 116.625C437.694 116.625 435.246 115.76 433.475 114.031C431.725 112.281 430.85 109.802 430.85 106.594C430.85 102.927 432.163 100.25 434.788 98.5625C437.413 96.875 441.235 96.0312 446.256 96.0312H450.756V92.5C450.756 89.375 449.11 87.8229 445.819 87.8438C444.84 87.8438 443.933 87.9167 443.1 88.0625C442.267 88.2083 441.6 88.3646 441.1 88.5312C440.621 88.6771 440.319 88.7708 440.194 88.8125L439.225 92.8438H433.475L433.038 83.375C433.413 83.25 434.329 82.9792 435.788 82.5625C437.267 82.1458 439.027 81.75 441.069 81.375C443.131 81 445.079 80.8125 446.913 80.8125C450.204 80.8125 452.819 81.2292 454.756 82.0625C456.694 82.875 458.11 84.2083 459.006 86.0625C459.902 87.8958 460.35 90.3646 460.35 93.4688V109.281L465.163 110.438V115.562L452.35 116L451.194 111.844ZM440.131 105.625C440.131 106.875 440.454 107.833 441.1 108.5C441.767 109.146 442.704 109.469 443.913 109.469C444.933 109.469 445.944 109.198 446.944 108.656C447.944 108.094 448.788 107.521 449.475 106.938C450.163 106.333 450.59 105.938 450.756 105.75V101.469H447.1C444.621 101.469 442.84 101.802 441.756 102.469C440.673 103.135 440.131 104.188 440.131 105.625ZM481.695 85.8438C481.695 85.7604 482.195 85.2708 483.195 84.375C484.195 83.4792 485.351 82.6667 486.664 81.9375C487.997 81.1875 489.31 80.8125 490.601 80.8125C491.622 80.8125 492.58 80.8958 493.476 81.0625C494.372 81.2292 495.07 81.4062 495.57 81.5938C496.091 81.7812 496.414 81.8958 496.539 81.9375L496.039 94.25H490.289L489.32 88.8125C488.216 88.8125 487.143 89.0833 486.101 89.625C485.08 90.1458 484.205 90.7292 483.476 91.375C482.768 92 482.414 92.3333 482.414 92.375V109.281L488.82 110.875V116H467.695V110.875L472.82 109.281V88.4688L467.695 86.875V81.75L481.133 81.4375L481.695 85.8438ZM501.821 70.875C501.821 69.125 502.363 67.7292 503.446 66.6875C504.53 65.6458 505.821 65.125 507.321 65.125C510.905 65.125 512.696 67.0417 512.696 70.875C512.696 72.6667 512.144 74.0938 511.04 75.1562C509.957 76.1979 508.717 76.7188 507.321 76.7188C505.571 76.7188 504.217 76.2188 503.259 75.2188C502.3 74.1979 501.821 72.75 501.821 70.875ZM517.04 110.875V116H497.853V110.875L502.978 109.281V88.4688L497.853 86.875V81.75L512.571 81.4375V109.281L517.04 110.875ZM540.604 111.844C540.604 111.927 540.052 112.396 538.948 113.25C537.843 114.104 536.52 114.885 534.979 115.594C533.437 116.281 531.854 116.625 530.229 116.625C527.104 116.625 524.656 115.76 522.885 114.031C521.135 112.281 520.26 109.802 520.26 106.594C520.26 102.927 521.573 100.25 524.198 98.5625C526.823 96.875 530.645 96.0312 535.666 96.0312H540.166V92.5C540.166 89.375 538.52 87.8229 535.229 87.8438C534.25 87.8438 533.343 87.9167 532.51 88.0625C531.677 88.2083 531.01 88.3646 530.51 88.5312C530.031 88.6771 529.729 88.7708 529.604 88.8125L528.635 92.8438H522.885L522.448 83.375C522.823 83.25 523.739 82.9792 525.198 82.5625C526.677 82.1458 528.437 81.75 530.479 81.375C532.541 81 534.489 80.8125 536.323 80.8125C539.614 80.8125 542.229 81.2292 544.166 82.0625C546.104 82.875 547.52 84.2083 548.416 86.0625C549.312 87.8958 549.76 90.3646 549.76 93.4688V109.281L554.573 110.438V115.562L541.76 116L540.604 111.844ZM529.541 105.625C529.541 106.875 529.864 107.833 530.51 108.5C531.177 109.146 532.114 109.469 533.323 109.469C534.343 109.469 535.354 109.198 536.354 108.656C537.354 108.094 538.198 107.521 538.885 106.938C539.573 106.333 540 105.938 540.166 105.75V101.469H536.51C534.031 101.469 532.25 101.802 531.166 102.469C530.083 103.135 529.541 104.188 529.541 105.625ZM580.856 100.844C581.023 103.406 581.794 105.406 583.169 106.844C584.565 108.26 586.377 108.969 588.606 108.969C590.19 108.969 591.773 108.75 593.356 108.312C594.96 107.854 596.283 107.396 597.325 106.938C598.388 106.458 599.065 106.125 599.356 105.938L602.106 111.25C602.106 111.333 601.356 111.865 599.856 112.844C598.377 113.802 596.554 114.677 594.388 115.469C592.242 116.24 589.95 116.625 587.513 116.625C582.096 116.625 577.971 115.125 575.138 112.125C572.304 109.125 570.888 104.875 570.888 99.375C570.888 95.6667 571.565 92.4167 572.919 89.625C574.294 86.8125 576.263 84.6458 578.825 83.125C581.388 81.5833 584.429 80.8125 587.95 80.8125C592.638 80.8125 596.231 82.1562 598.731 84.8438C601.231 87.5312 602.481 91.1979 602.481 95.8438C602.481 96.8646 602.429 97.8542 602.325 98.8125C602.221 99.7708 602.148 100.375 602.106 100.625L580.856 100.844ZM587.325 88.4688C585.575 88.4688 584.148 89.0625 583.044 90.25C581.94 91.4167 581.252 92.9583 580.981 94.875H592.575C592.575 92.9583 592.148 91.4167 591.294 90.25C590.44 89.0625 589.117 88.4688 587.325 88.4688ZM631.484 78.5625H625.39L623.796 84.625H617.89V70.875H655.015V84.625H649.078L647.484 78.5625H641.39V108.625L647.484 110.562V116H625.39V110.562L631.484 108.625V78.5625ZM666.579 100.844C666.745 103.406 667.516 105.406 668.891 106.844C670.287 108.26 672.1 108.969 674.329 108.969C675.912 108.969 677.495 108.75 679.079 108.312C680.683 107.854 682.006 107.396 683.047 106.938C684.11 106.458 684.787 106.125 685.079 105.938L687.829 111.25C687.829 111.333 687.079 111.865 685.579 112.844C684.1 113.802 682.277 114.677 680.11 115.469C677.964 116.24 675.672 116.625 673.235 116.625C667.818 116.625 663.693 115.125 660.86 112.125C658.027 109.125 656.61 104.875 656.61 99.375C656.61 95.6667 657.287 92.4167 658.641 89.625C660.016 86.8125 661.985 84.6458 664.547 83.125C667.11 81.5833 670.152 80.8125 673.672 80.8125C678.36 80.8125 681.954 82.1562 684.454 84.8438C686.954 87.5312 688.204 91.1979 688.204 95.8438C688.204 96.8646 688.152 97.8542 688.047 98.8125C687.943 99.7708 687.87 100.375 687.829 100.625L666.579 100.844ZM673.047 88.4688C671.297 88.4688 669.87 89.0625 668.766 90.25C667.662 91.4167 666.975 92.9583 666.704 94.875H678.297C678.297 92.9583 677.87 91.4167 677.016 90.25C676.162 89.0625 674.839 88.4688 673.047 88.4688ZM722.455 111.188C721.017 112.479 719.132 113.708 716.799 114.875C714.486 116.042 711.788 116.625 708.705 116.625C703.455 116.625 699.372 115.094 696.455 112.031C693.538 108.969 692.08 104.698 692.08 99.2188C692.08 93.5104 693.622 89.0208 696.705 85.75C699.809 82.4583 704.132 80.8125 709.674 80.8125C711.299 80.8125 712.934 80.9792 714.58 81.3125C716.247 81.6458 717.632 81.9896 718.736 82.3438C719.861 82.6771 720.57 82.9062 720.861 83.0312L720.549 93.5312H714.799L713.892 89C713.684 88.9583 713.163 88.8646 712.33 88.7188C711.497 88.5521 710.549 88.4688 709.486 88.4688C707.132 88.4688 705.288 89.2708 703.955 90.875C702.642 92.4792 701.986 94.8333 701.986 97.9375C701.986 101.479 702.653 104.208 703.986 106.125C705.34 108.021 707.34 108.969 709.986 108.969C711.653 108.969 713.111 108.719 714.361 108.219C715.632 107.698 716.695 107.167 717.549 106.625C718.403 106.083 718.976 105.729 719.267 105.562L722.455 111.188ZM738.425 85.8438C738.425 85.7604 739.092 85.2812 740.425 84.4062C741.779 83.5312 743.321 82.7396 745.05 82.0312C746.779 81.3021 748.498 80.9375 750.206 80.9375C753.269 80.9375 755.654 81.9479 757.362 83.9688C759.071 85.9896 759.925 88.7708 759.925 92.3125V109.281L764.425 110.875V116H746.8V110.875L750.331 109.281V94.0625C750.331 92.5625 749.935 91.3333 749.144 90.375C748.352 89.4167 747.3 88.9375 745.987 88.9375C744.8 88.9375 743.696 89.2083 742.675 89.75C741.675 90.2708 740.831 90.8542 740.144 91.5C739.477 92.125 739.144 92.4792 739.144 92.5625V109.281L742.644 110.875V116H724.425V110.875L729.55 109.281V88.4688L724.425 86.875V81.75L737.987 81.4375L738.425 85.8438ZM784.239 80.8125C789.385 80.8125 793.353 82.3125 796.145 85.3125C798.958 88.3125 800.364 92.5729 800.364 98.0938C800.364 101.885 799.655 105.177 798.239 107.969C796.843 110.76 794.864 112.906 792.301 114.406C789.739 115.885 786.728 116.625 783.27 116.625C772.395 116.625 766.958 110.76 766.958 99.0312C766.958 95.2396 767.666 91.9792 769.083 89.25C770.52 86.5208 772.541 84.4375 775.145 83C777.749 81.5417 780.78 80.8125 784.239 80.8125ZM783.895 88.4688C781.478 88.4688 779.697 89.25 778.551 90.8125C777.426 92.375 776.864 95.0104 776.864 98.7188C776.864 102.26 777.395 104.854 778.458 106.5C779.541 108.146 781.249 108.969 783.583 108.969C785.937 108.969 787.666 108.146 788.77 106.5C789.874 104.854 790.426 102.156 790.426 98.4062C790.426 95.0729 789.905 92.5833 788.864 90.9375C787.822 89.2917 786.166 88.4688 783.895 88.4688ZM823.115 110.875V116H802.584V110.875L807.709 109.281V73.3125L802.584 72.0312V66.9062L817.365 66.4062V109.281L823.115 110.875ZM841.679 80.8125C846.825 80.8125 850.793 82.3125 853.585 85.3125C856.398 88.3125 857.804 92.5729 857.804 98.0938C857.804 101.885 857.095 105.177 855.679 107.969C854.283 110.76 852.304 112.906 849.741 114.406C847.179 115.885 844.168 116.625 840.71 116.625C829.835 116.625 824.398 110.76 824.398 99.0312C824.398 95.2396 825.106 91.9792 826.523 89.25C827.96 86.5208 829.981 84.4375 832.585 83C835.189 81.5417 838.22 80.8125 841.679 80.8125ZM841.335 88.4688C838.918 88.4688 837.137 89.25 835.991 90.8125C834.866 92.375 834.304 95.0104 834.304 98.7188C834.304 102.26 834.835 104.854 835.898 106.5C836.981 108.146 838.689 108.969 841.023 108.969C843.377 108.969 845.106 108.146 846.21 106.5C847.314 104.854 847.866 102.156 847.866 98.4062C847.866 95.0729 847.345 92.5833 846.304 90.9375C845.262 89.2917 843.606 88.4688 841.335 88.4688ZM861.305 123.031C861.305 121.406 861.805 120.021 862.805 118.875C863.805 117.729 864.92 116.833 866.149 116.188C867.399 115.542 868.024 115.271 868.024 115.375C868.024 115.458 867.67 115.365 866.961 115.094C866.253 114.802 865.607 114.344 865.024 113.719C864.461 113.073 864.18 112.208 864.18 111.125C864.18 109.812 865.295 107.406 867.524 103.906C866.295 103.094 865.159 101.896 864.117 100.312C863.097 98.7292 862.586 96.5938 862.586 93.9062C862.586 89.6771 864.003 86.4375 866.836 84.1875C869.67 81.9375 873.367 80.8125 877.93 80.8125C880.784 80.8125 883.305 81.3229 885.492 82.3438L896.492 82.0938V87.1875L891.242 88.0938C891.284 88.2604 891.472 88.7917 891.805 89.6875C892.159 90.5833 892.336 91.7396 892.336 93.1562C892.336 97.5938 890.951 100.896 888.18 103.062C885.409 105.208 881.68 106.281 876.992 106.281C876.18 106.281 875.461 106.229 874.836 106.125C874.211 106 873.836 105.938 873.711 105.938L873.461 110.25H882.93C887.034 110.25 890.19 111.104 892.399 112.812C894.628 114.521 895.742 116.969 895.742 120.156C895.742 123.823 894.232 126.76 891.211 128.969C888.211 131.198 883.742 132.312 877.805 132.312C872.43 132.312 868.336 131.604 865.524 130.188C862.711 128.792 861.305 126.406 861.305 123.031ZM877.617 87.4062C875.742 87.4062 874.367 87.9062 873.492 88.9062C872.617 89.9062 872.18 91.4271 872.18 93.4688C872.18 95.4688 872.597 97.0417 873.43 98.1875C874.263 99.3125 875.555 99.875 877.305 99.875C879.263 99.875 880.659 99.3646 881.492 98.3438C882.326 97.3229 882.742 95.6979 882.742 93.4688C882.742 91.4271 882.326 89.9062 881.492 88.9062C880.659 87.9062 879.367 87.4062 877.617 87.4062ZM873.649 117.281C873.482 117.365 873.149 117.562 872.649 117.875C872.17 118.208 871.701 118.677 871.242 119.281C870.805 119.906 870.586 120.625 870.586 121.438C870.586 122.979 871.211 124 872.461 124.5C873.732 125.021 875.774 125.281 878.586 125.281C881.482 125.281 883.565 124.938 884.836 124.25C886.128 123.562 886.774 122.458 886.774 120.938C886.774 119.562 886.274 118.604 885.274 118.062C884.274 117.542 882.638 117.281 880.367 117.281H873.649ZM902.744 70.875C902.744 69.125 903.285 67.7292 904.369 66.6875C905.452 65.6458 906.744 65.125 908.244 65.125C911.827 65.125 913.619 67.0417 913.619 70.875C913.619 72.6667 913.067 74.0938 911.963 75.1562C910.879 76.1979 909.64 76.7188 908.244 76.7188C906.494 76.7188 905.14 76.2188 904.181 75.2188C903.223 74.1979 902.744 72.75 902.744 70.875ZM917.963 110.875V116H898.775V110.875L903.9 109.281V88.4688L898.775 86.875V81.75L913.494 81.4375V109.281L917.963 110.875ZM941.526 111.844C941.526 111.927 940.974 112.396 939.87 113.25C938.766 114.104 937.443 114.885 935.901 115.594C934.36 116.281 932.776 116.625 931.151 116.625C928.026 116.625 925.578 115.76 923.807 114.031C922.057 112.281 921.182 109.802 921.182 106.594C921.182 102.927 922.495 100.25 925.12 98.5625C927.745 96.875 931.568 96.0312 936.589 96.0312H941.089V92.5C941.089 89.375 939.443 87.8229 936.151 87.8438C935.172 87.8438 934.266 87.9167 933.432 88.0625C932.599 88.2083 931.932 88.3646 931.432 88.5312C930.953 88.6771 930.651 88.7708 930.526 88.8125L929.557 92.8438H923.807L923.37 83.375C923.745 83.25 924.662 82.9792 926.12 82.5625C927.599 82.1458 929.36 81.75 931.401 81.375C933.464 81 935.412 80.8125 937.245 80.8125C940.537 80.8125 943.151 81.2292 945.089 82.0625C947.026 82.875 948.443 84.2083 949.339 86.0625C950.235 87.8958 950.682 90.3646 950.682 93.4688V109.281L955.495 110.438V115.562L942.682 116L941.526 111.844ZM930.464 105.625C930.464 106.875 930.787 107.833 931.432 108.5C932.099 109.146 933.037 109.469 934.245 109.469C935.266 109.469 936.276 109.198 937.276 108.656C938.276 108.094 939.12 107.521 939.807 106.938C940.495 106.333 940.922 105.938 941.089 105.75V101.469H937.432C934.953 101.469 933.172 101.802 932.089 102.469C931.005 103.135 930.464 104.188 930.464 105.625Z" fill="white" />
        <path d="M420.048 150.912H401.664V159.432H417.504V165.864H401.664V180H393.456V144.48H420.048V150.912ZM433.814 153.336C436.902 153.336 439.382 153.696 441.254 154.416C443.126 155.136 444.51 156.328 445.406 157.992C446.302 159.64 446.75 161.896 446.75 164.76V180H440.126L439.574 177.48H439.214C438.35 178.488 437.278 179.24 435.998 179.736C434.718 180.232 433.302 180.48 431.75 180.48C429.814 180.48 428.158 180.16 426.782 179.52C425.406 178.88 424.358 177.984 423.638 176.832C422.934 175.68 422.582 174.352 422.582 172.848C422.582 170.352 423.51 168.424 425.366 167.064C427.238 165.688 430.166 164.872 434.15 164.616L438.926 164.256V164.16C438.926 162.912 438.71 161.928 438.278 161.208C437.862 160.488 437.182 159.976 436.238 159.672C435.31 159.368 434.046 159.216 432.446 159.216C431.31 159.216 430.054 159.312 428.678 159.504C427.302 159.696 426.022 159.976 424.838 160.344V154.512C426.182 154.128 427.654 153.84 429.254 153.648C430.854 153.44 432.374 153.336 433.814 153.336ZM434.27 175.128C435.118 175.128 435.942 174.992 436.742 174.72C437.558 174.448 438.286 174.016 438.926 173.424V168.624L434.894 168.936C433.342 169.064 432.222 169.392 431.534 169.92C430.862 170.448 430.526 171.192 430.526 172.152C430.526 173.096 430.838 173.832 431.462 174.36C432.102 174.872 433.038 175.128 434.27 175.128ZM462.668 180.504C460.988 180.504 459.356 180.4 457.772 180.192C456.188 180 454.732 179.704 453.404 179.304V173.712C454.796 174.112 456.276 174.416 457.844 174.624C459.412 174.832 460.98 174.936 462.548 174.936C464.372 174.936 465.676 174.72 466.46 174.288C467.244 173.856 467.636 173.216 467.636 172.368C467.636 171.728 467.452 171.24 467.084 170.904C466.716 170.552 466.068 170.296 465.14 170.136L460.436 169.392C457.732 168.96 455.78 168.12 454.58 166.872C453.38 165.624 452.78 163.936 452.78 161.808C452.78 159.168 453.884 157.096 456.092 155.592C458.316 154.088 461.636 153.336 466.052 153.336C467.412 153.336 468.764 153.416 470.108 153.576C471.468 153.736 472.676 153.96 473.732 154.248V159.84C472.644 159.536 471.436 159.304 470.108 159.144C468.796 158.968 467.484 158.88 466.172 158.88C463.996 158.88 462.476 159.12 461.612 159.6C460.748 160.08 460.316 160.72 460.316 161.52C460.316 162.096 460.5 162.56 460.868 162.912C461.236 163.248 461.876 163.496 462.788 163.656L467.492 164.4C470.1 164.816 472.028 165.616 473.276 166.8C474.54 167.968 475.172 169.712 475.172 172.032C475.172 173.792 474.684 175.304 473.708 176.568C472.748 177.832 471.332 178.808 469.46 179.496C467.588 180.168 465.324 180.504 462.668 180.504ZM495.399 174.048C496.135 174.048 497.103 173.936 498.303 173.712V179.904C497.535 180.08 496.695 180.224 495.783 180.336C494.871 180.448 493.999 180.504 493.167 180.504C486.303 180.504 482.871 177.208 482.871 170.616V160.056H478.335V153.744H482.871L484.311 144.48H490.887V153.744H498.159V160.056H490.887V169.176C490.887 170.392 491.039 171.36 491.343 172.08C491.663 172.784 492.151 173.288 492.807 173.592C493.463 173.896 494.327 174.048 495.399 174.048ZM527.408 169.104H510.224C510.32 170.496 510.648 171.592 511.208 172.392C511.768 173.176 512.648 173.752 513.848 174.12C515.064 174.472 516.728 174.648 518.84 174.648C521 174.648 523.336 174.384 525.848 173.856V179.616C523.112 180.208 520.376 180.504 517.64 180.504C514.12 180.504 511.224 180.024 508.952 179.064C506.696 178.104 505.016 176.632 503.912 174.648C502.824 172.648 502.28 170.072 502.28 166.92C502.28 164.04 502.784 161.584 503.792 159.552C504.8 157.52 506.272 155.976 508.208 154.92C510.144 153.864 512.488 153.336 515.24 153.336C519.208 153.336 522.224 154.528 524.288 156.912C526.368 159.28 527.408 162.696 527.408 167.16V169.104ZM515.144 158.28C513.528 158.28 512.312 158.784 511.496 159.792C510.696 160.784 510.264 162.408 510.2 164.664H519.992C519.928 162.408 519.496 160.784 518.696 159.792C517.912 158.784 516.728 158.28 515.144 158.28ZM533.468 153.744H540.02L540.644 156.984H541.028C541.796 155.8 542.812 154.904 544.076 154.296C545.356 153.688 546.772 153.384 548.324 153.384C548.996 153.384 549.748 153.448 550.58 153.576V160.704C549.924 160.576 549.012 160.512 547.844 160.512C546.628 160.512 545.428 160.728 544.244 161.16C543.076 161.592 542.156 162.216 541.484 163.032V180H533.468V153.744ZM570.13 190.56V141.216H577.402V190.56H570.13ZM622.112 161.664C624.224 162.112 625.872 163.04 627.056 164.448C628.24 165.856 628.832 167.696 628.832 169.968C628.832 172.24 628.24 174.144 627.056 175.68C625.888 177.2 623.96 178.368 621.272 179.184C618.584 180 615.024 180.408 610.592 180.408C609.04 180.408 607.296 180.344 605.36 180.216C603.44 180.088 601.688 179.92 600.104 179.712V145.392C601.864 144.992 603.816 144.672 605.96 144.432C608.12 144.176 610.192 144.048 612.176 144.048C617.632 144.048 621.608 144.88 624.104 146.544C626.616 148.192 627.872 150.68 627.872 154.008C627.872 155.88 627.36 157.504 626.336 158.88C625.328 160.24 623.92 161.168 622.112 161.664ZM613.112 149.808C611.464 149.808 609.8 149.96 608.12 150.264V158.904H613.616C615.968 158.904 617.648 158.536 618.656 157.8C619.68 157.048 620.192 155.896 620.192 154.344C620.192 153.272 619.96 152.408 619.496 151.752C619.048 151.096 618.304 150.608 617.264 150.288C616.24 149.968 614.856 149.808 613.112 149.808ZM612.752 174.648C614.928 174.648 616.64 174.472 617.888 174.12C619.152 173.752 620.04 173.208 620.552 172.488C621.08 171.768 621.344 170.84 621.344 169.704C621.344 167.992 620.808 166.744 619.736 165.96C618.664 165.176 616.896 164.784 614.432 164.784H608.12V174.408C609.496 174.568 611.04 174.648 612.752 174.648ZM658.673 169.104H641.489C641.585 170.496 641.913 171.592 642.473 172.392C643.033 173.176 643.913 173.752 645.113 174.12C646.329 174.472 647.993 174.648 650.105 174.648C652.265 174.648 654.601 174.384 657.113 173.856V179.616C654.377 180.208 651.641 180.504 648.905 180.504C645.385 180.504 642.489 180.024 640.217 179.064C637.961 178.104 636.281 176.632 635.177 174.648C634.089 172.648 633.545 170.072 633.545 166.92C633.545 164.04 634.049 161.584 635.057 159.552C636.065 157.52 637.537 155.976 639.473 154.92C641.409 153.864 643.753 153.336 646.505 153.336C650.473 153.336 653.489 154.528 655.553 156.912C657.633 159.28 658.673 162.696 658.673 167.16V169.104ZM646.409 158.28C644.793 158.28 643.577 158.784 642.761 159.792C641.961 160.784 641.529 162.408 641.465 164.664H651.257C651.193 162.408 650.761 160.784 649.961 159.792C649.177 158.784 647.993 158.28 646.409 158.28ZM678.856 174.048C679.592 174.048 680.56 173.936 681.76 173.712V179.904C680.992 180.08 680.152 180.224 679.24 180.336C678.328 180.448 677.456 180.504 676.624 180.504C669.76 180.504 666.328 177.208 666.328 170.616V160.056H661.792V153.744H666.328L667.768 144.48H674.344V153.744H681.616V160.056H674.344V169.176C674.344 170.392 674.496 171.36 674.8 172.08C675.12 172.784 675.608 173.288 676.264 173.592C676.92 173.896 677.784 174.048 678.856 174.048ZM699.937 174.048C700.673 174.048 701.641 173.936 702.841 173.712V179.904C702.073 180.08 701.233 180.224 700.321 180.336C699.409 180.448 698.537 180.504 697.705 180.504C690.841 180.504 687.409 177.208 687.409 170.616V160.056H682.873V153.744H687.409L688.849 144.48H695.425V153.744H702.697V160.056H695.425V169.176C695.425 170.392 695.577 171.36 695.881 172.08C696.201 172.784 696.689 173.288 697.345 173.592C698.001 173.896 698.865 174.048 699.937 174.048ZM731.946 169.104H714.762C714.858 170.496 715.186 171.592 715.746 172.392C716.306 173.176 717.186 173.752 718.386 174.12C719.602 174.472 721.266 174.648 723.378 174.648C725.538 174.648 727.874 174.384 730.386 173.856V179.616C727.65 180.208 724.914 180.504 722.178 180.504C718.658 180.504 715.762 180.024 713.49 179.064C711.234 178.104 709.554 176.632 708.45 174.648C707.362 172.648 706.818 170.072 706.818 166.92C706.818 164.04 707.322 161.584 708.33 159.552C709.338 157.52 710.81 155.976 712.746 154.92C714.682 153.864 717.026 153.336 719.778 153.336C723.746 153.336 726.762 154.528 728.826 156.912C730.906 159.28 731.946 162.696 731.946 167.16V169.104ZM719.682 158.28C718.066 158.28 716.85 158.784 716.034 159.792C715.234 160.784 714.802 162.408 714.738 164.664H724.53C724.466 162.408 724.034 160.784 723.234 159.792C722.45 158.784 721.266 158.28 719.682 158.28ZM738.006 153.744H744.558L745.182 156.984H745.566C746.334 155.8 747.35 154.904 748.614 154.296C749.894 153.688 751.31 153.384 752.862 153.384C753.534 153.384 754.286 153.448 755.118 153.576V160.704C754.462 160.576 753.55 160.512 752.382 160.512C751.166 160.512 749.966 160.728 748.782 161.16C747.614 161.592 746.694 162.216 746.022 163.032V180H738.006V153.744ZM774.668 190.56V141.216H781.94V190.56H774.668ZM812.754 173.712H831.546V180H804.642V144.48H831.306V150.768H812.754V158.688H828.834V164.976H812.754V173.712ZM847.202 153.336C850.29 153.336 852.77 153.696 854.642 154.416C856.514 155.136 857.898 156.328 858.794 157.992C859.69 159.64 860.138 161.896 860.138 164.76V180H853.514L852.962 177.48H852.602C851.738 178.488 850.666 179.24 849.386 179.736C848.106 180.232 846.69 180.48 845.138 180.48C843.202 180.48 841.546 180.16 840.17 179.52C838.794 178.88 837.746 177.984 837.026 176.832C836.322 175.68 835.97 174.352 835.97 172.848C835.97 170.352 836.898 168.424 838.754 167.064C840.626 165.688 843.554 164.872 847.538 164.616L852.314 164.256V164.16C852.314 162.912 852.098 161.928 851.666 161.208C851.25 160.488 850.57 159.976 849.626 159.672C848.698 159.368 847.434 159.216 845.834 159.216C844.698 159.216 843.442 159.312 842.066 159.504C840.69 159.696 839.41 159.976 838.226 160.344V154.512C839.57 154.128 841.042 153.84 842.642 153.648C844.242 153.44 845.762 153.336 847.202 153.336ZM847.658 175.128C848.506 175.128 849.33 174.992 850.13 174.72C850.946 174.448 851.674 174.016 852.314 173.424V168.624L848.282 168.936C846.73 169.064 845.61 169.392 844.922 169.92C844.25 170.448 843.914 171.192 843.914 172.152C843.914 173.096 844.226 173.832 844.85 174.36C845.49 174.872 846.426 175.128 847.658 175.128ZM876.057 180.504C874.377 180.504 872.745 180.4 871.161 180.192C869.577 180 868.121 179.704 866.793 179.304V173.712C868.185 174.112 869.665 174.416 871.233 174.624C872.801 174.832 874.369 174.936 875.937 174.936C877.761 174.936 879.065 174.72 879.849 174.288C880.633 173.856 881.025 173.216 881.025 172.368C881.025 171.728 880.841 171.24 880.473 170.904C880.105 170.552 879.457 170.296 878.529 170.136L873.825 169.392C871.121 168.96 869.169 168.12 867.969 166.872C866.769 165.624 866.169 163.936 866.169 161.808C866.169 159.168 867.273 157.096 869.481 155.592C871.705 154.088 875.025 153.336 879.441 153.336C880.801 153.336 882.153 153.416 883.497 153.576C884.857 153.736 886.065 153.96 887.121 154.248V159.84C886.033 159.536 884.825 159.304 883.497 159.144C882.185 158.968 880.873 158.88 879.561 158.88C877.385 158.88 875.865 159.12 875.001 159.6C874.137 160.08 873.705 160.72 873.705 161.52C873.705 162.096 873.889 162.56 874.257 162.912C874.625 163.248 875.265 163.496 876.177 163.656L880.881 164.4C883.489 164.816 885.417 165.616 886.665 166.8C887.929 167.968 888.561 169.712 888.561 172.032C888.561 173.792 888.073 175.304 887.097 176.568C886.137 177.832 884.721 178.808 882.849 179.496C880.977 180.168 878.713 180.504 876.057 180.504ZM894.523 180V153.744H902.539V180H894.523ZM898.531 149.928C896.883 149.928 895.651 149.592 894.835 148.92C894.019 148.232 893.611 147.24 893.611 145.944C893.611 144.632 894.019 143.64 894.835 142.968C895.651 142.28 896.883 141.936 898.531 141.936C900.179 141.936 901.411 142.28 902.227 142.968C903.043 143.64 903.451 144.632 903.451 145.944C903.451 147.24 903.043 148.232 902.227 148.92C901.411 149.592 900.179 149.928 898.531 149.928ZM934.047 169.104H916.863C916.959 170.496 917.287 171.592 917.847 172.392C918.407 173.176 919.287 173.752 920.487 174.12C921.703 174.472 923.367 174.648 925.479 174.648C927.639 174.648 929.975 174.384 932.487 173.856V179.616C929.751 180.208 927.015 180.504 924.279 180.504C920.759 180.504 917.863 180.024 915.591 179.064C913.335 178.104 911.655 176.632 910.551 174.648C909.463 172.648 908.919 170.072 908.919 166.92C908.919 164.04 909.423 161.584 910.431 159.552C911.439 157.52 912.911 155.976 914.847 154.92C916.783 153.864 919.127 153.336 921.879 153.336C925.847 153.336 928.863 154.528 930.927 156.912C933.007 159.28 934.047 162.696 934.047 167.16V169.104ZM921.783 158.28C920.167 158.28 918.951 158.784 918.135 159.792C917.335 160.784 916.903 162.408 916.839 164.664H926.631C926.567 162.408 926.135 160.784 925.335 159.792C924.551 158.784 923.367 158.28 921.783 158.28ZM940.107 153.744H946.659L947.283 156.984H947.667C948.435 155.8 949.451 154.904 950.715 154.296C951.995 153.688 953.411 153.384 954.963 153.384C955.635 153.384 956.387 153.448 957.219 153.576V160.704C956.563 160.576 955.651 160.512 954.483 160.512C953.267 160.512 952.067 160.728 950.883 161.16C949.715 161.592 948.795 162.216 948.123 163.032V180H940.107V153.744Z" fill="white" />
    </symbol>
    <symbol id="wer_logo_black" viewBox="0 0 902 275" fill="none">
        <rect x="2.5" y="2.5" width="135" height="135" stroke="#5A7DF5" stroke-width="5" />
        <rect x="137.5" y="2.5" width="135" height="135" stroke="#5A7DF5" stroke-width="5" />
        <rect x="137.5" y="137.5" width="135" height="135" stroke="#5A7DF5" stroke-width="5" />
        <path d="M186.472 166.605H199.369C201.174 166.605 203.163 166.713 205.336 166.927C207.508 167.141 209.666 167.631 211.808 168.396C213.95 169.13 215.908 170.308 217.683 171.93C219.457 173.521 220.88 175.709 221.951 178.493C223.053 181.247 223.604 184.751 223.604 189.004V190.978C223.604 202.728 220.069 210.285 213.001 213.651L225.898 245H213.23L202.444 215.671H198.359V245H186.472V166.605ZM199.92 207.088C204.265 207.088 207.248 206.078 208.87 204.059C210.522 202.039 211.349 198.398 211.349 193.135V186.938C211.349 182.899 210.568 179.931 209.008 178.034C207.478 176.137 204.449 175.188 199.92 175.188H198.359V207.088H199.92Z" fill="black" />
        <path d="M186.472 32.6055H216.443V41.9688H198.359V65.4229H212.542V74.7861H198.359V101.637H216.443V111H186.472V32.6055Z" fill="black" />
        <path d="M37.4688 32.6055H48.8516L54.1299 79.9727L54.7266 91.0342H55.874L56.9756 79.9727L65.4209 32.6055H74.9219L83 79.9727L83.918 91.0342H85.1113L85.6621 79.9727L90.4814 32.6055H101.91L90.9404 111H78.8691L72.3975 73.3174L70.3779 56.9316H69.46L67.4863 73.3174L60.6934 111H48.7598L37.4688 32.6055Z" fill="black" />
        <path d="M234.234 82.7285C234.234 82.6504 234.859 82.2012 236.109 81.3809C237.379 80.5605 238.824 79.8184 240.445 79.1543C242.066 78.4707 243.678 78.1289 245.279 78.1289C248.15 78.1289 250.387 79.0762 251.988 80.9707C253.59 82.8652 254.391 85.4727 254.391 88.793V104.701L258.609 106.195V111H242.086V106.195L245.396 104.701V90.4336C245.396 89.0273 245.025 87.875 244.283 86.9766C243.541 86.0781 242.555 85.6289 241.324 85.6289C240.211 85.6289 239.176 85.8828 238.219 86.3906C237.281 86.8789 236.49 87.4258 235.846 88.0312C235.221 88.6172 234.908 88.9492 234.908 89.0273V104.701L238.189 106.195V111H221.109V106.195L225.914 104.701V85.1895L221.109 83.6953V78.8906L233.824 78.5977L234.234 82.7285ZM261.277 117.592C261.277 116.068 261.745 114.77 262.683 113.695C263.62 112.621 264.665 111.781 265.818 111.176C266.989 110.57 267.575 110.316 267.575 110.414C267.575 110.492 267.243 110.404 266.579 110.15C265.915 109.877 265.31 109.447 264.763 108.861C264.236 108.256 263.972 107.445 263.972 106.43C263.972 105.199 265.017 102.943 267.107 99.6621C265.954 98.9004 264.89 97.7773 263.913 96.293C262.956 94.8086 262.478 92.8066 262.478 90.2871C262.478 86.3223 263.806 83.2852 266.462 81.1758C269.118 79.0664 272.585 78.0117 276.862 78.0117C279.538 78.0117 281.902 78.4902 283.952 79.4473L294.265 79.2129V83.9883L289.343 84.8379C289.382 84.9941 289.558 85.4922 289.87 86.332C290.202 87.1719 290.368 88.2559 290.368 89.584C290.368 93.7441 289.07 96.8398 286.472 98.8711C283.874 100.883 280.378 101.889 275.984 101.889C275.222 101.889 274.548 101.84 273.962 101.742C273.376 101.625 273.025 101.566 272.907 101.566L272.673 105.609H281.55C285.398 105.609 288.357 106.41 290.427 108.012C292.517 109.613 293.562 111.908 293.562 114.896C293.562 118.334 292.146 121.088 289.314 123.158C286.501 125.248 282.312 126.293 276.745 126.293C271.706 126.293 267.868 125.629 265.232 124.301C262.595 122.992 261.277 120.756 261.277 117.592ZM276.57 84.1934C274.812 84.1934 273.523 84.6621 272.702 85.5996C271.882 86.5371 271.472 87.9629 271.472 89.877C271.472 91.752 271.862 93.2266 272.644 94.3008C273.425 95.3555 274.636 95.8828 276.277 95.8828C278.112 95.8828 279.421 95.4043 280.202 94.4473C280.984 93.4902 281.374 91.9668 281.374 89.877C281.374 87.9629 280.984 86.5371 280.202 85.5996C279.421 84.6621 278.21 84.1934 276.57 84.1934ZM272.849 112.201C272.693 112.279 272.38 112.465 271.911 112.758C271.462 113.07 271.023 113.51 270.593 114.076C270.183 114.662 269.978 115.336 269.978 116.098C269.978 117.543 270.564 118.5 271.736 118.969C272.927 119.457 274.841 119.701 277.478 119.701C280.193 119.701 282.146 119.379 283.337 118.734C284.548 118.09 285.154 117.055 285.154 115.629C285.154 114.34 284.685 113.441 283.747 112.934C282.81 112.445 281.277 112.201 279.148 112.201H272.849ZM305.75 96.791C305.907 99.1934 306.629 101.068 307.918 102.416C309.227 103.744 310.926 104.408 313.016 104.408C314.5 104.408 315.985 104.203 317.469 103.793C318.973 103.363 320.213 102.934 321.19 102.504C322.186 102.055 322.821 101.742 323.094 101.566L325.672 106.547C325.672 106.625 324.969 107.123 323.563 108.041C322.176 108.939 320.467 109.76 318.436 110.502C316.424 111.225 314.276 111.586 311.991 111.586C306.912 111.586 303.045 110.18 300.389 107.367C297.733 104.555 296.405 100.57 296.405 95.4141C296.405 91.9375 297.039 88.8906 298.309 86.2734C299.598 83.6367 301.444 81.6055 303.846 80.1797C306.248 78.7344 309.1 78.0117 312.401 78.0117C316.795 78.0117 320.164 79.2715 322.508 81.791C324.852 84.3105 326.024 87.748 326.024 92.1035C326.024 93.0605 325.975 93.9883 325.877 94.8867C325.78 95.7852 325.711 96.3516 325.672 96.5859L305.75 96.791ZM311.815 85.1895C310.174 85.1895 308.836 85.7461 307.801 86.8594C306.766 87.9531 306.121 89.3984 305.868 91.1953H316.737C316.737 89.3984 316.336 87.9531 315.536 86.8594C314.735 85.7461 313.495 85.1895 311.815 85.1895ZM342.197 82.7285C342.197 82.6504 342.822 82.2012 344.072 81.3809C345.341 80.5605 346.787 79.8184 348.408 79.1543C350.029 78.4707 351.64 78.1289 353.242 78.1289C356.113 78.1289 358.349 79.0762 359.951 80.9707C361.552 82.8652 362.353 85.4727 362.353 88.793V104.701L366.572 106.195V111H350.048V106.195L353.359 104.701V90.4336C353.359 89.0273 352.988 87.875 352.246 86.9766C351.504 86.0781 350.517 85.6289 349.287 85.6289C348.173 85.6289 347.138 85.8828 346.181 86.3906C345.244 86.8789 344.453 87.4258 343.808 88.0312C343.183 88.6172 342.871 88.9492 342.871 89.0273V104.701L346.152 106.195V111H329.072V106.195L333.877 104.701V85.1895L329.072 83.6953V78.8906L341.787 78.5977L342.197 82.7285ZM381.837 82.084C383.067 81.0488 384.561 80.1113 386.319 79.2715C388.096 78.4316 389.962 78.0117 391.915 78.0117C394.962 78.0117 397.296 78.959 398.917 80.8535C400.538 82.748 401.348 85.3945 401.348 88.793V104.701L405.538 106.195V111H389.22V106.195L392.325 104.76V90.2285C392.325 87.0254 391.007 85.4336 388.37 85.4531C387.374 85.4531 386.397 85.6973 385.44 86.1855C384.483 86.6543 383.682 87.1426 383.038 87.6504C382.393 88.1387 381.993 88.4609 381.837 88.6172V104.701L385.03 106.195V111H368.038V106.195L372.843 104.701V70.9805L368.038 69.7793V64.9746L381.837 64.5059V82.084ZM427.307 107.104C427.307 107.182 426.789 107.621 425.754 108.422C424.719 109.223 423.479 109.955 422.033 110.619C420.588 111.264 419.104 111.586 417.58 111.586C414.65 111.586 412.355 110.775 410.695 109.154C409.055 107.514 408.234 105.189 408.234 102.182C408.234 98.7441 409.465 96.2344 411.926 94.6523C414.387 93.0703 417.971 92.2793 422.678 92.2793H426.896V88.9688C426.896 86.0391 425.354 84.584 422.268 84.6035C421.35 84.6035 420.5 84.6719 419.719 84.8086C418.938 84.9453 418.312 85.0918 417.844 85.248C417.395 85.3848 417.111 85.4727 416.994 85.5117L416.086 89.291H410.695L410.285 80.4141C410.637 80.2969 411.496 80.043 412.863 79.6523C414.25 79.2617 415.9 78.8906 417.814 78.5391C419.748 78.1875 421.574 78.0117 423.293 78.0117C426.379 78.0117 428.83 78.4023 430.646 79.1836C432.463 79.9453 433.791 81.1953 434.631 82.9336C435.471 84.6523 435.891 86.9668 435.891 89.877V104.701L440.402 105.785V110.59L428.391 111L427.307 107.104ZM416.936 101.273C416.936 102.445 417.238 103.344 417.844 103.969C418.469 104.574 419.348 104.877 420.48 104.877C421.438 104.877 422.385 104.623 423.322 104.115C424.26 103.588 425.051 103.051 425.695 102.504C426.34 101.938 426.74 101.566 426.896 101.391V97.377H423.469C421.145 97.377 419.475 97.6895 418.459 98.3145C417.443 98.9395 416.936 99.9258 416.936 101.273ZM455.902 82.7285C455.902 82.6504 456.37 82.1914 457.308 81.3516C458.245 80.5117 459.329 79.75 460.56 79.0664C461.81 78.3633 463.04 78.0117 464.251 78.0117C465.208 78.0117 466.107 78.0898 466.946 78.2461C467.786 78.4023 468.441 78.5684 468.909 78.7441C469.398 78.9199 469.7 79.0273 469.818 79.0664L469.349 90.6094H463.958L463.05 85.5117C462.015 85.5117 461.009 85.7656 460.032 86.2734C459.075 86.7617 458.255 87.3086 457.571 87.9141C456.907 88.5 456.575 88.8125 456.575 88.8516V104.701L462.581 106.195V111H442.777V106.195L447.581 104.701V85.1895L442.777 83.6953V78.8906L455.374 78.5977L455.902 82.7285ZM474.77 68.6953C474.77 67.0547 475.278 65.7461 476.293 64.7695C477.309 63.793 478.52 63.3047 479.926 63.3047C483.286 63.3047 484.965 65.1016 484.965 68.6953C484.965 70.375 484.448 71.7129 483.413 72.709C482.397 73.6855 481.235 74.1738 479.926 74.1738C478.286 74.1738 477.016 73.7051 476.118 72.7676C475.219 71.8105 474.77 70.4531 474.77 68.6953ZM489.038 106.195V111H471.049V106.195L475.854 104.701V85.1895L471.049 83.6953V78.8906L484.848 78.5977V104.701L489.038 106.195ZM511.129 107.104C511.129 107.182 510.611 107.621 509.576 108.422C508.541 109.223 507.3 109.955 505.855 110.619C504.41 111.264 502.925 111.586 501.402 111.586C498.472 111.586 496.177 110.775 494.517 109.154C492.877 107.514 492.056 105.189 492.056 102.182C492.056 98.7441 493.287 96.2344 495.748 94.6523C498.209 93.0703 501.793 92.2793 506.5 92.2793H510.718V88.9688C510.718 86.0391 509.175 84.584 506.089 84.6035C505.171 84.6035 504.322 84.6719 503.541 84.8086C502.759 84.9453 502.134 85.0918 501.666 85.248C501.216 85.3848 500.933 85.4727 500.816 85.5117L499.908 89.291H494.517L494.107 80.4141C494.459 80.2969 495.318 80.043 496.685 79.6523C498.072 79.2617 499.722 78.8906 501.636 78.5391C503.57 78.1875 505.396 78.0117 507.115 78.0117C510.201 78.0117 512.652 78.4023 514.468 79.1836C516.285 79.9453 517.613 81.1953 518.453 82.9336C519.293 84.6523 519.712 86.9668 519.712 89.877V104.701L524.224 105.785V110.59L512.212 111L511.129 107.104ZM500.757 101.273C500.757 102.445 501.06 103.344 501.666 103.969C502.291 104.574 503.17 104.877 504.302 104.877C505.259 104.877 506.207 104.623 507.144 104.115C508.082 103.588 508.873 103.051 509.517 102.504C510.162 101.938 510.562 101.566 510.718 101.391V97.377H507.291C504.966 97.377 503.296 97.6895 502.281 98.3145C501.265 98.9395 500.757 99.9258 500.757 101.273ZM548.865 96.791C549.021 99.1934 549.744 101.068 551.033 102.416C552.342 103.744 554.041 104.408 556.131 104.408C557.615 104.408 559.1 104.203 560.584 103.793C562.088 103.363 563.328 102.934 564.305 102.504C565.301 102.055 565.936 101.742 566.209 101.566L568.787 106.547C568.787 106.625 568.084 107.123 566.678 108.041C565.291 108.939 563.582 109.76 561.551 110.502C559.539 111.225 557.391 111.586 555.105 111.586C550.027 111.586 546.16 110.18 543.504 107.367C540.848 104.555 539.52 100.57 539.52 95.4141C539.52 91.9375 540.154 88.8906 541.424 86.2734C542.713 83.6367 544.559 81.6055 546.961 80.1797C549.363 78.7344 552.215 78.0117 555.516 78.0117C559.91 78.0117 563.279 79.2715 565.623 81.791C567.967 84.3105 569.139 87.748 569.139 92.1035C569.139 93.0605 569.09 93.9883 568.992 94.8867C568.895 95.7852 568.826 96.3516 568.787 96.5859L548.865 96.791ZM554.93 85.1895C553.289 85.1895 551.951 85.7461 550.916 86.8594C549.881 87.9531 549.236 89.3984 548.982 91.1953H559.852C559.852 89.3984 559.451 87.9531 558.65 86.8594C557.85 85.7461 556.609 85.1895 554.93 85.1895ZM596.329 75.9023H590.616L589.121 81.5859H583.584V68.6953H618.389V81.5859H612.823L611.329 75.9023H605.616V104.086L611.329 105.902V111H590.616V105.902L596.329 104.086V75.9023ZM629.23 96.791C629.386 99.1934 630.109 101.068 631.398 102.416C632.707 103.744 634.406 104.408 636.496 104.408C637.98 104.408 639.464 104.203 640.949 103.793C642.453 103.363 643.693 102.934 644.67 102.504C645.666 102.055 646.3 101.742 646.574 101.566L649.152 106.547C649.152 106.625 648.449 107.123 647.043 108.041C645.656 108.939 643.947 109.76 641.916 110.502C639.904 111.225 637.755 111.586 635.47 111.586C630.392 111.586 626.525 110.18 623.869 107.367C621.212 104.555 619.884 100.57 619.884 95.4141C619.884 91.9375 620.519 88.8906 621.789 86.2734C623.078 83.6367 624.923 81.6055 627.326 80.1797C629.728 78.7344 632.58 78.0117 635.88 78.0117C640.275 78.0117 643.644 79.2715 645.988 81.791C648.332 84.3105 649.504 87.748 649.504 92.1035C649.504 93.0605 649.455 93.9883 649.357 94.8867C649.259 95.7852 649.191 96.3516 649.152 96.5859L629.23 96.791ZM635.295 85.1895C633.654 85.1895 632.316 85.7461 631.281 86.8594C630.246 87.9531 629.601 89.3984 629.347 91.1953H640.216C640.216 89.3984 639.816 87.9531 639.015 86.8594C638.214 85.7461 636.974 85.1895 635.295 85.1895ZM681.614 106.488C680.266 107.699 678.499 108.852 676.311 109.945C674.143 111.039 671.614 111.586 668.723 111.586C663.802 111.586 659.973 110.15 657.239 107.279C654.505 104.408 653.138 100.404 653.138 95.2676C653.138 89.916 654.583 85.707 657.473 82.6406C660.384 79.5547 664.436 78.0117 669.632 78.0117C671.155 78.0117 672.688 78.168 674.231 78.4805C675.794 78.793 677.093 79.1152 678.128 79.4473C679.182 79.7598 679.846 79.9746 680.12 80.0918L679.827 89.9355H674.436L673.587 85.6875C673.391 85.6484 672.903 85.5605 672.122 85.4238C671.341 85.2676 670.452 85.1895 669.456 85.1895C667.249 85.1895 665.52 85.9414 664.27 87.4453C663.04 88.9492 662.425 91.1562 662.425 94.0664C662.425 97.3867 663.05 99.9453 664.3 101.742C665.569 103.52 667.444 104.408 669.925 104.408C671.487 104.408 672.854 104.174 674.026 103.705C675.218 103.217 676.214 102.719 677.014 102.211C677.815 101.703 678.352 101.371 678.626 101.215L681.614 106.488ZM696.586 82.7285C696.586 82.6504 697.211 82.2012 698.461 81.3809C699.73 80.5605 701.176 79.8184 702.797 79.1543C704.418 78.4707 706.029 78.1289 707.631 78.1289C710.502 78.1289 712.738 79.0762 714.34 80.9707C715.941 82.8652 716.742 85.4727 716.742 88.793V104.701L720.961 106.195V111H704.438V106.195L707.748 104.701V90.4336C707.748 89.0273 707.377 87.875 706.635 86.9766C705.893 86.0781 704.906 85.6289 703.676 85.6289C702.562 85.6289 701.527 85.8828 700.57 86.3906C699.633 86.8789 698.842 87.4258 698.197 88.0312C697.572 88.6172 697.26 88.9492 697.26 89.0273V104.701L700.541 106.195V111H683.461V106.195L688.266 104.701V85.1895L683.461 83.6953V78.8906L696.176 78.5977L696.586 82.7285ZM739.536 78.0117C744.361 78.0117 748.081 79.418 750.698 82.2305C753.335 85.043 754.654 89.0371 754.654 94.2129C754.654 97.7676 753.989 100.854 752.661 103.471C751.353 106.088 749.497 108.1 747.095 109.506C744.693 110.893 741.87 111.586 738.628 111.586C728.433 111.586 723.335 106.088 723.335 95.0918C723.335 91.5371 723.999 88.4805 725.327 85.9219C726.675 83.3633 728.57 81.4102 731.011 80.0625C733.452 78.6953 736.294 78.0117 739.536 78.0117ZM739.214 85.1895C736.948 85.1895 735.279 85.9219 734.204 87.3867C733.15 88.8516 732.622 91.3223 732.622 94.7988C732.622 98.1191 733.12 100.551 734.116 102.094C735.132 103.637 736.734 104.408 738.921 104.408C741.128 104.408 742.749 103.637 743.784 102.094C744.82 100.551 745.337 98.0215 745.337 94.5059C745.337 91.3809 744.849 89.0469 743.872 87.5039C742.896 85.9609 741.343 85.1895 739.214 85.1895ZM775.983 106.195V111H756.735V106.195L761.539 104.701V70.9805L756.735 69.7793V64.9746L770.592 64.5059V104.701L775.983 106.195ZM793.386 78.0117C798.211 78.0117 801.931 79.418 804.548 82.2305C807.185 85.043 808.504 89.0371 808.504 94.2129C808.504 97.7676 807.839 100.854 806.511 103.471C805.203 106.088 803.347 108.1 800.945 109.506C798.543 110.893 795.72 111.586 792.478 111.586C782.283 111.586 777.185 106.088 777.185 95.0918C777.185 91.5371 777.849 88.4805 779.177 85.9219C780.525 83.3633 782.42 81.4102 784.861 80.0625C787.302 78.6953 790.144 78.0117 793.386 78.0117ZM793.064 85.1895C790.798 85.1895 789.129 85.9219 788.054 87.3867C787 88.8516 786.472 91.3223 786.472 94.7988C786.472 98.1191 786.97 100.551 787.966 102.094C788.982 103.637 790.584 104.408 792.771 104.408C794.978 104.408 796.599 103.637 797.634 102.094C798.67 100.551 799.187 98.0215 799.187 94.5059C799.187 91.3809 798.699 89.0469 797.722 87.5039C796.746 85.9609 795.193 85.1895 793.064 85.1895ZM811.786 117.592C811.786 116.068 812.255 114.77 813.192 113.695C814.13 112.621 815.175 111.781 816.327 111.176C817.499 110.57 818.085 110.316 818.085 110.414C818.085 110.492 817.753 110.404 817.089 110.15C816.425 109.877 815.819 109.447 815.272 108.861C814.745 108.256 814.481 107.445 814.481 106.43C814.481 105.199 815.526 102.943 817.616 99.6621C816.464 98.9004 815.399 97.7773 814.423 96.293C813.466 94.8086 812.987 92.8066 812.987 90.2871C812.987 86.3223 814.315 83.2852 816.971 81.1758C819.628 79.0664 823.095 78.0117 827.372 78.0117C830.048 78.0117 832.411 78.4902 834.462 79.4473L844.774 79.2129V83.9883L839.852 84.8379C839.891 84.9941 840.067 85.4922 840.38 86.332C840.712 87.1719 840.878 88.2559 840.878 89.584C840.878 93.7441 839.579 96.8398 836.981 98.8711C834.384 100.883 830.888 101.889 826.493 101.889C825.731 101.889 825.057 101.84 824.471 101.742C823.886 101.625 823.534 101.566 823.417 101.566L823.182 105.609H832.059C835.907 105.609 838.866 106.41 840.936 108.012C843.026 109.613 844.071 111.908 844.071 114.896C844.071 118.334 842.655 121.088 839.823 123.158C837.011 125.248 832.821 126.293 827.255 126.293C822.216 126.293 818.378 125.629 815.741 124.301C813.104 122.992 811.786 120.756 811.786 117.592ZM827.079 84.1934C825.321 84.1934 824.032 84.6621 823.212 85.5996C822.391 86.5371 821.981 87.9629 821.981 89.877C821.981 91.752 822.372 93.2266 823.153 94.3008C823.934 95.3555 825.145 95.8828 826.786 95.8828C828.622 95.8828 829.93 95.4043 830.712 94.4473C831.493 93.4902 831.884 91.9668 831.884 89.877C831.884 87.9629 831.493 86.5371 830.712 85.5996C829.93 84.6621 828.72 84.1934 827.079 84.1934ZM823.358 112.201C823.202 112.279 822.889 112.465 822.421 112.758C821.971 113.07 821.532 113.51 821.102 114.076C820.692 114.662 820.487 115.336 820.487 116.098C820.487 117.543 821.073 118.5 822.245 118.969C823.436 119.457 825.35 119.701 827.987 119.701C830.702 119.701 832.655 119.379 833.846 118.734C835.057 118.09 835.663 117.055 835.663 115.629C835.663 114.34 835.194 113.441 834.257 112.934C833.319 112.445 831.786 112.201 829.657 112.201H823.358ZM850.635 68.6953C850.635 67.0547 851.143 65.7461 852.158 64.7695C853.174 63.793 854.385 63.3047 855.791 63.3047C859.15 63.3047 860.83 65.1016 860.83 68.6953C860.83 70.375 860.312 71.7129 859.277 72.709C858.262 73.6855 857.1 74.1738 855.791 74.1738C854.15 74.1738 852.881 73.7051 851.982 72.7676C851.084 71.8105 850.635 70.4531 850.635 68.6953ZM864.902 106.195V111H846.914V106.195L851.719 104.701V85.1895L846.914 83.6953V78.8906L860.713 78.5977V104.701L864.902 106.195ZM886.993 107.104C886.993 107.182 886.476 107.621 885.441 108.422C884.405 109.223 883.165 109.955 881.72 110.619C880.275 111.264 878.79 111.586 877.267 111.586C874.337 111.586 872.042 110.775 870.382 109.154C868.741 107.514 867.921 105.189 867.921 102.182C867.921 98.7441 869.152 96.2344 871.612 94.6523C874.073 93.0703 877.657 92.2793 882.364 92.2793H886.583V88.9688C886.583 86.0391 885.04 84.584 881.954 84.6035C881.036 84.6035 880.187 84.6719 879.405 84.8086C878.624 84.9453 877.999 85.0918 877.53 85.248C877.081 85.3848 876.798 85.4727 876.681 85.5117L875.773 89.291H870.382L869.972 80.4141C870.323 80.2969 871.183 80.043 872.55 79.6523C873.937 79.2617 875.587 78.8906 877.501 78.5391C879.435 78.1875 881.261 78.0117 882.98 78.0117C886.066 78.0117 888.517 78.4023 890.333 79.1836C892.15 79.9453 893.478 81.1953 894.318 82.9336C895.157 84.6523 895.577 86.9668 895.577 89.877V104.701L900.089 105.785V110.59L888.077 111L886.993 107.104ZM876.622 101.273C876.622 102.445 876.925 103.344 877.53 103.969C878.155 104.574 879.034 104.877 880.167 104.877C881.124 104.877 882.071 104.623 883.009 104.115C883.946 103.588 884.737 103.051 885.382 102.504C886.027 101.938 886.427 101.566 886.583 101.391V97.377H883.155C880.831 97.377 879.161 97.6895 878.146 98.3145C877.13 98.9395 876.622 99.9258 876.622 101.273Z" fill="#929292" />
        <path d="M525.658 132.002H513.019V137.859H523.909V142.281H513.019V152H507.376V127.58H525.658V132.002ZM535.122 133.668C537.245 133.668 538.95 133.916 540.237 134.411C541.524 134.906 542.475 135.725 543.091 136.869C543.707 138.002 544.015 139.553 544.015 141.522V152H539.461L539.082 150.267H538.834C538.24 150.96 537.503 151.477 536.623 151.818C535.743 152.16 534.77 152.33 533.703 152.33C532.372 152.33 531.233 152.11 530.287 151.67C529.341 151.23 528.621 150.614 528.126 149.822C527.642 149.03 527.4 148.117 527.4 147.083C527.4 145.367 528.038 144.041 529.314 143.106C530.601 142.16 532.614 141.599 535.353 141.423L538.636 141.176V141.11C538.636 140.252 538.488 139.575 538.191 139.08C537.905 138.585 537.437 138.233 536.788 138.024C536.15 137.815 535.281 137.711 534.181 137.711C533.4 137.711 532.537 137.777 531.591 137.909C530.645 138.041 529.765 138.233 528.951 138.486V134.477C529.875 134.213 530.887 134.015 531.987 133.883C533.087 133.74 534.132 133.668 535.122 133.668ZM535.435 148.65C536.018 148.65 536.585 148.557 537.135 148.37C537.696 148.183 538.196 147.886 538.636 147.479V144.179L535.864 144.393C534.797 144.481 534.027 144.707 533.554 145.07C533.092 145.433 532.861 145.944 532.861 146.604C532.861 147.253 533.076 147.759 533.505 148.122C533.945 148.474 534.588 148.65 535.435 148.65ZM554.959 152.347C553.804 152.347 552.682 152.275 551.593 152.132C550.504 152 549.503 151.796 548.59 151.521V147.677C549.547 147.952 550.565 148.161 551.643 148.304C552.721 148.447 553.799 148.518 554.877 148.518C556.131 148.518 557.027 148.37 557.566 148.073C558.105 147.776 558.375 147.336 558.375 146.753C558.375 146.313 558.248 145.977 557.995 145.746C557.742 145.504 557.297 145.328 556.659 145.218L553.425 144.707C551.566 144.41 550.224 143.832 549.399 142.974C548.574 142.116 548.161 140.956 548.161 139.493C548.161 137.678 548.92 136.253 550.438 135.219C551.967 134.185 554.25 133.668 557.286 133.668C558.221 133.668 559.15 133.723 560.074 133.833C561.009 133.943 561.84 134.097 562.566 134.295V138.14C561.818 137.931 560.987 137.771 560.074 137.661C559.172 137.54 558.27 137.48 557.368 137.48C555.872 137.48 554.827 137.645 554.233 137.975C553.639 138.305 553.342 138.745 553.342 139.295C553.342 139.691 553.469 140.01 553.722 140.252C553.975 140.483 554.415 140.653 555.042 140.763L558.276 141.275C560.069 141.561 561.394 142.111 562.252 142.925C563.121 143.728 563.556 144.927 563.556 146.522C563.556 147.732 563.22 148.771 562.549 149.64C561.889 150.509 560.916 151.18 559.629 151.653C558.342 152.116 556.785 152.347 554.959 152.347ZM577.462 147.908C577.968 147.908 578.633 147.831 579.458 147.677V151.934C578.93 152.055 578.353 152.154 577.726 152.231C577.099 152.308 576.499 152.347 575.927 152.347C571.208 152.347 568.849 150.08 568.849 145.548V138.288H565.73V133.949H568.849L569.839 127.58H574.36V133.949H579.359V138.288H574.36V144.558C574.36 145.394 574.464 146.06 574.673 146.555C574.893 147.039 575.229 147.385 575.68 147.594C576.131 147.803 576.725 147.908 577.462 147.908ZM599.468 144.509H587.654C587.72 145.466 587.945 146.219 588.33 146.769C588.715 147.308 589.32 147.704 590.145 147.957C590.981 148.199 592.125 148.32 593.577 148.32C595.062 148.32 596.668 148.139 598.395 147.776V151.736C596.514 152.143 594.633 152.347 592.752 152.347C590.332 152.347 588.341 152.017 586.779 151.356C585.228 150.696 584.073 149.684 583.314 148.32C582.566 146.945 582.192 145.174 582.192 143.007C582.192 141.027 582.539 139.339 583.232 137.942C583.925 136.545 584.937 135.483 586.268 134.757C587.599 134.031 589.21 133.668 591.102 133.668C593.83 133.668 595.904 134.488 597.323 136.127C598.753 137.755 599.468 140.103 599.468 143.172V144.509ZM591.036 137.067C589.925 137.067 589.089 137.414 588.528 138.107C587.978 138.789 587.681 139.905 587.637 141.456H594.369C594.325 139.905 594.028 138.789 593.478 138.107C592.939 137.414 592.125 137.067 591.036 137.067ZM603.634 133.949H608.139L608.568 136.176H608.832C609.36 135.362 610.058 134.746 610.927 134.328C611.807 133.91 612.781 133.701 613.848 133.701C614.31 133.701 614.827 133.745 615.399 133.833V138.734C614.948 138.646 614.321 138.602 613.518 138.602C612.682 138.602 611.857 138.75 611.043 139.047C610.24 139.344 609.607 139.773 609.145 140.334V152H603.634V133.949ZM628.839 159.26V125.336H633.839V159.26H628.839ZM664.577 139.394C666.029 139.702 667.162 140.34 667.976 141.308C668.79 142.276 669.197 143.541 669.197 145.103C669.197 146.665 668.79 147.974 667.976 149.03C667.173 150.075 665.847 150.878 663.999 151.439C662.151 152 659.704 152.281 656.657 152.281C655.59 152.281 654.391 152.237 653.06 152.149C651.74 152.061 650.535 151.945 649.446 151.802V128.207C650.656 127.932 651.998 127.712 653.472 127.547C654.957 127.371 656.382 127.283 657.746 127.283C661.497 127.283 664.23 127.855 665.946 128.999C667.673 130.132 668.537 131.842 668.537 134.13C668.537 135.417 668.185 136.534 667.481 137.48C666.788 138.415 665.82 139.053 664.577 139.394ZM658.389 131.243C657.256 131.243 656.112 131.347 654.957 131.556V137.496H658.736C660.353 137.496 661.508 137.243 662.201 136.737C662.905 136.22 663.257 135.428 663.257 134.361C663.257 133.624 663.097 133.03 662.778 132.579C662.47 132.128 661.959 131.793 661.244 131.573C660.54 131.353 659.588 131.243 658.389 131.243ZM658.142 148.32C659.638 148.32 660.815 148.199 661.673 147.957C662.542 147.704 663.152 147.33 663.504 146.835C663.867 146.34 664.049 145.702 664.049 144.921C664.049 143.744 663.68 142.886 662.943 142.347C662.206 141.808 660.991 141.539 659.297 141.539H654.957V148.155C655.903 148.265 656.965 148.32 658.142 148.32ZM689.713 144.509H677.899C677.965 145.466 678.19 146.219 678.575 146.769C678.96 147.308 679.565 147.704 680.39 147.957C681.226 148.199 682.37 148.32 683.822 148.32C685.307 148.32 686.913 148.139 688.64 147.776V151.736C686.759 152.143 684.878 152.347 682.997 152.347C680.577 152.347 678.586 152.017 677.024 151.356C675.473 150.696 674.318 149.684 673.559 148.32C672.811 146.945 672.437 145.174 672.437 143.007C672.437 141.027 672.784 139.339 673.477 137.942C674.17 136.545 675.182 135.483 676.513 134.757C677.844 134.031 679.455 133.668 681.347 133.668C684.075 133.668 686.149 134.488 687.568 136.127C688.998 137.755 689.713 140.103 689.713 143.172V144.509ZM681.281 137.067C680.17 137.067 679.334 137.414 678.773 138.107C678.223 138.789 677.926 139.905 677.882 141.456H684.614C684.57 139.905 684.273 138.789 683.723 138.107C683.184 137.414 682.37 137.067 681.281 137.067ZM703.589 147.908C704.095 147.908 704.76 147.831 705.585 147.677V151.934C705.057 152.055 704.48 152.154 703.853 152.231C703.226 152.308 702.626 152.347 702.054 152.347C697.335 152.347 694.976 150.08 694.976 145.548V138.288H691.857V133.949H694.976L695.966 127.58H700.487V133.949H705.486V138.288H700.487V144.558C700.487 145.394 700.591 146.06 700.8 146.555C701.02 147.039 701.356 147.385 701.807 147.594C702.258 147.803 702.852 147.908 703.589 147.908ZM718.082 147.908C718.588 147.908 719.253 147.831 720.078 147.677V151.934C719.55 152.055 718.973 152.154 718.346 152.231C717.719 152.308 717.119 152.347 716.547 152.347C711.828 152.347 709.469 150.08 709.469 145.548V138.288H706.35V133.949H709.469L710.459 127.58H714.98V133.949H719.979V138.288H714.98V144.558C714.98 145.394 715.084 146.06 715.293 146.555C715.513 147.039 715.849 147.385 716.3 147.594C716.751 147.803 717.345 147.908 718.082 147.908ZM740.088 144.509H728.274C728.34 145.466 728.565 146.219 728.95 146.769C729.335 147.308 729.94 147.704 730.765 147.957C731.601 148.199 732.745 148.32 734.197 148.32C735.682 148.32 737.288 148.139 739.015 147.776V151.736C737.134 152.143 735.253 152.347 733.372 152.347C730.952 152.347 728.961 152.017 727.399 151.356C725.848 150.696 724.693 149.684 723.934 148.32C723.186 146.945 722.812 145.174 722.812 143.007C722.812 141.027 723.159 139.339 723.852 137.942C724.545 136.545 725.557 135.483 726.888 134.757C728.219 134.031 729.83 133.668 731.722 133.668C734.45 133.668 736.524 134.488 737.943 136.127C739.373 137.755 740.088 140.103 740.088 143.172V144.509ZM731.656 137.067C730.545 137.067 729.709 137.414 729.148 138.107C728.598 138.789 728.301 139.905 728.257 141.456H734.989C734.945 139.905 734.648 138.789 734.098 138.107C733.559 137.414 732.745 137.067 731.656 137.067ZM744.254 133.949H748.759L749.188 136.176H749.452C749.98 135.362 750.678 134.746 751.547 134.328C752.427 133.91 753.401 133.701 754.468 133.701C754.93 133.701 755.447 133.745 756.019 133.833V138.734C755.568 138.646 754.941 138.602 754.138 138.602C753.302 138.602 752.477 138.75 751.663 139.047C750.86 139.344 750.227 139.773 749.765 140.334V152H744.254V133.949ZM769.459 159.26V125.336H774.459V159.26H769.459ZM795.643 147.677H808.563V152H790.066V127.58H808.398V131.903H795.643V137.348H806.698V141.671H795.643V147.677ZM819.327 133.668C821.45 133.668 823.155 133.916 824.442 134.411C825.729 134.906 826.68 135.725 827.296 136.869C827.912 138.002 828.22 139.553 828.22 141.522V152H823.666L823.287 150.267H823.039C822.445 150.96 821.708 151.477 820.828 151.818C819.948 152.16 818.975 152.33 817.908 152.33C816.577 152.33 815.438 152.11 814.492 151.67C813.546 151.23 812.826 150.614 812.331 149.822C811.847 149.03 811.605 148.117 811.605 147.083C811.605 145.367 812.243 144.041 813.519 143.106C814.806 142.16 816.819 141.599 819.558 141.423L822.841 141.176V141.11C822.841 140.252 822.693 139.575 822.396 139.08C822.11 138.585 821.642 138.233 820.993 138.024C820.355 137.815 819.486 137.711 818.386 137.711C817.605 137.711 816.742 137.777 815.796 137.909C814.85 138.041 813.97 138.233 813.156 138.486V134.477C814.08 134.213 815.092 134.015 816.192 133.883C817.292 133.74 818.337 133.668 819.327 133.668ZM819.64 148.65C820.223 148.65 820.79 148.557 821.34 148.37C821.901 148.183 822.401 147.886 822.841 147.479V144.179L820.069 144.393C819.002 144.481 818.232 144.707 817.759 145.07C817.297 145.433 817.066 145.944 817.066 146.604C817.066 147.253 817.281 147.759 817.71 148.122C818.15 148.474 818.793 148.65 819.64 148.65ZM839.164 152.347C838.009 152.347 836.887 152.275 835.798 152.132C834.709 152 833.708 151.796 832.795 151.521V147.677C833.752 147.952 834.769 148.161 835.847 148.304C836.925 148.447 838.003 148.518 839.081 148.518C840.335 148.518 841.232 148.37 841.771 148.073C842.31 147.776 842.579 147.336 842.579 146.753C842.579 146.313 842.453 145.977 842.2 145.746C841.947 145.504 841.501 145.328 840.863 145.218L837.629 144.707C835.77 144.41 834.428 143.832 833.603 142.974C832.778 142.116 832.366 140.956 832.366 139.493C832.366 137.678 833.125 136.253 834.643 135.219C836.172 134.185 838.454 133.668 841.49 133.668C842.425 133.668 843.355 133.723 844.279 133.833C845.214 133.943 846.044 134.097 846.77 134.295V138.14C846.022 137.931 845.192 137.771 844.279 137.661C843.377 137.54 842.475 137.48 841.573 137.48C840.077 137.48 839.032 137.645 838.438 137.975C837.844 138.305 837.547 138.745 837.547 139.295C837.547 139.691 837.673 140.01 837.926 140.252C838.179 140.483 838.619 140.653 839.246 140.763L842.48 141.275C844.273 141.561 845.599 142.111 846.457 142.925C847.326 143.728 847.76 144.927 847.76 146.522C847.76 147.732 847.425 148.771 846.754 149.64C846.094 150.509 845.12 151.18 843.833 151.653C842.546 152.116 840.99 152.347 839.164 152.347ZM851.86 152V133.949H857.371V152H851.86ZM854.615 131.325C853.482 131.325 852.635 131.094 852.074 130.632C851.513 130.159 851.233 129.477 851.233 128.586C851.233 127.684 851.513 127.002 852.074 126.54C852.635 126.067 853.482 125.831 854.615 125.831C855.748 125.831 856.595 126.067 857.156 126.54C857.717 127.002 857.998 127.684 857.998 128.586C857.998 129.477 857.717 130.159 857.156 130.632C856.595 131.094 855.748 131.325 854.615 131.325ZM879.032 144.509H867.218C867.284 145.466 867.51 146.219 867.895 146.769C868.28 147.308 868.885 147.704 869.71 147.957C870.546 148.199 871.69 148.32 873.142 148.32C874.627 148.32 876.233 148.139 877.96 147.776V151.736C876.079 152.143 874.198 152.347 872.317 152.347C869.897 152.347 867.906 152.017 866.344 151.356C864.793 150.696 863.638 149.684 862.879 148.32C862.131 146.945 861.757 145.174 861.757 143.007C861.757 141.027 862.103 139.339 862.796 137.942C863.489 136.545 864.501 135.483 865.832 134.757C867.163 134.031 868.775 133.668 870.667 133.668C873.395 133.668 875.468 134.488 876.887 136.127C878.317 137.755 879.032 140.103 879.032 143.172V144.509ZM870.601 137.067C869.49 137.067 868.654 137.414 868.093 138.107C867.543 138.789 867.246 139.905 867.202 141.456H873.934C873.89 139.905 873.593 138.789 873.043 138.107C872.504 137.414 871.69 137.067 870.601 137.067ZM883.198 133.949H887.703L888.132 136.176H888.396C888.924 135.362 889.622 134.746 890.491 134.328C891.371 133.91 892.345 133.701 893.412 133.701C893.874 133.701 894.391 133.745 894.963 133.833V138.734C894.512 138.646 893.885 138.602 893.082 138.602C892.246 138.602 891.421 138.75 890.607 139.047C889.804 139.344 889.171 139.773 888.709 140.334V152H883.198V133.949Z" fill="black" />
    </symbol>
    <symbol id="wer_logo1_white" viewBox="0 0 820 820" fill="none">
        <rect x="10" y="10" width="400" height="400" stroke="#5A7DF5" stroke-width="20" />
        <rect x="410" y="10" width="400" height="400" stroke="#5A7DF5" stroke-width="20" />
        <rect x="410" y="410" width="400" height="400" stroke="#5A7DF5" stroke-width="20" />
        <path d="M553.654 491.805H594.816C600.578 491.805 606.926 492.146 613.859 492.83C620.793 493.514 627.678 495.076 634.514 497.518C641.35 499.861 647.6 503.621 653.264 508.797C658.928 513.875 663.469 520.857 666.887 529.744C670.402 538.533 672.16 549.715 672.16 563.289V569.588C672.16 607.088 660.881 631.209 638.322 641.951L679.484 742H639.055L604.631 648.396H591.594V742H553.654V491.805ZM596.574 621.004C610.441 621.004 619.963 617.781 625.139 611.336C630.412 604.891 633.049 593.27 633.049 576.473V556.697C633.049 543.807 630.559 534.334 625.578 528.279C620.695 522.225 611.027 519.197 596.574 519.197H591.594V621.004H596.574Z" fill="white" />
        <path d="M562.654 91.8047H658.309V121.688H600.594V196.541H645.857V226.424H600.594V312.117H658.309V342H562.654V91.8047Z" fill="white" />
        <path d="M106.688 91.8047H143.016L159.861 242.977L161.766 278.279H165.428L168.943 242.977L195.896 91.8047H226.219L252 242.977L254.93 278.279H258.738L260.496 242.977L275.877 91.8047H312.352L277.342 342H238.816L218.162 221.736L211.717 169.441H208.787L202.488 221.736L180.809 342H142.723L106.688 91.8047Z" fill="white" />
    </symbol>
    <symbol id="wer_logo1_black" viewBox="0 0 820 820" fill="none">
        <rect x="10" y="10" width="400" height="400" stroke="#5A7DF5" stroke-width="20" />
        <rect x="410" y="10" width="400" height="400" stroke="#5A7DF5" stroke-width="20" />
        <rect x="410" y="410" width="400" height="400" stroke="#5A7DF5" stroke-width="20" />
        <path d="M553.654 491.805H594.816C600.578 491.805 606.926 492.146 613.859 492.83C620.793 493.514 627.678 495.076 634.514 497.518C641.35 499.861 647.6 503.621 653.264 508.797C658.928 513.875 663.469 520.857 666.887 529.744C670.402 538.533 672.16 549.715 672.16 563.289V569.588C672.16 607.088 660.881 631.209 638.322 641.951L679.484 742H639.055L604.631 648.396H591.594V742H553.654V491.805ZM596.574 621.004C610.441 621.004 619.963 617.781 625.139 611.336C630.412 604.891 633.049 593.27 633.049 576.473V556.697C633.049 543.807 630.559 534.334 625.578 528.279C620.695 522.225 611.027 519.197 596.574 519.197H591.594V621.004H596.574Z" fill="#000000" />
        <path d="M562.654 91.8047H658.309V121.688H600.594V196.541H645.857V226.424H600.594V312.117H658.309V342H562.654V91.8047Z" fill="#000000" />
        <path d="M106.688 91.8047H143.016L159.861 242.977L161.766 278.279H165.428L168.943 242.977L195.896 91.8047H226.219L252 242.977L254.93 278.279H258.738L260.496 242.977L275.877 91.8047H312.352L277.342 342H238.816L218.162 221.736L211.717 169.441H208.787L202.488 221.736L180.809 342H142.723L106.688 91.8047Z" fill="#000000" />
    </symbol>
</svg>