<svg width="28" height="28" viewBox="0 0 28 28" fill="none" xmlns="http://www.w3.org/2000/svg">
<path d="M3.99105 11.6989L7.33592 13.1136C7.74922 12.2873 8.18975 11.4888 8.65753 10.7182C9.12531 9.94755 9.64085 9.18897 10.2042 8.44242L7.97335 8.00999C7.8953 7.99049 7.81979 7.99289 7.74681 8.01721C7.67358 8.04153 7.6077 8.08295 7.54916 8.14147L3.99105 11.6989ZM9.15432 14.5458L13.473 18.8396C14.6055 18.3662 15.7798 17.7115 16.9962 16.8755C18.2125 16.0395 19.3675 15.0748 20.4611 13.9815C22.1665 12.2766 23.4856 10.4191 24.4184 8.40898C25.3511 6.3991 25.8126 4.33108 25.8027 2.20492C23.6762 2.19529 21.6061 2.6566 19.5926 3.58884C17.5791 4.52133 15.7195 5.84014 14.0139 7.54527C12.9205 8.63836 11.9557 9.79543 11.1194 11.0165C10.2832 12.2372 9.62818 13.4137 9.15432 14.5458ZM16.4758 11.5059C15.9611 10.9914 15.7038 10.3659 15.7038 9.6295C15.7038 8.89283 15.9611 8.26724 16.4758 7.75274C16.9905 7.23824 17.6224 6.98098 18.3717 6.98098C19.1213 6.98098 19.7534 7.23824 20.2681 7.75274C20.7827 8.26724 21.04 8.89283 21.04 9.6295C21.04 10.3659 20.7827 10.9914 20.2681 11.5059C19.7534 12.0204 19.1213 12.2776 18.3717 12.2776C17.6224 12.2776 16.9905 12.0204 16.4758 11.5059ZM16.3063 24.0249L19.8644 20.4679C19.9229 20.4094 19.9644 20.3435 19.9887 20.2703C20.013 20.1973 20.0155 20.1218 19.9963 20.0438L19.5634 17.8137C18.8168 18.3768 18.0582 18.8883 17.2873 19.3481C16.5162 19.8081 15.7175 20.2447 14.8912 20.6579L16.3063 24.0249ZM27.8818 0.11803C28.2072 3.04672 27.8607 5.82253 26.8423 8.44546C25.8238 11.0684 24.148 13.5462 21.8147 15.8788L21.5517 16.1417L22.2385 19.5821C22.3302 20.0399 22.3098 20.4851 22.1773 20.9178C22.0448 21.3505 21.8157 21.7294 21.4901 22.0547L15.5286 28L12.6718 21.289L6.71332 15.332L0 12.4615L5.92385 6.51626C6.24922 6.19099 6.63223 5.95958 7.0729 5.82202C7.5133 5.68472 7.96258 5.66192 8.42073 5.75363L11.8914 6.45508C11.9401 6.40644 11.9814 6.36262 12.0153 6.32361C12.0495 6.2846 12.091 6.24064 12.1396 6.19175C14.4729 3.85939 16.9475 2.18263 19.5634 1.16147C22.1792 0.140321 24.952 -0.207493 27.8818 0.11803ZM2.62573 19.9826C3.36642 19.2422 4.26941 18.8704 5.3347 18.8674C6.39974 18.8646 7.3026 19.2334 8.04329 19.9739C8.78398 20.7144 9.15052 21.617 9.14292 22.6817C9.13506 23.7467 8.76079 24.6494 8.0201 25.3899C7.44514 25.9647 6.50173 26.4581 5.18988 26.8703C3.87803 27.2825 2.19482 27.6123 0.140257 27.8598C0.387828 25.8061 0.720162 24.1235 1.13726 22.812C1.55461 21.5006 2.05076 20.5574 2.62573 19.9826ZM4.25141 21.5987C3.9785 21.8716 3.71535 22.3412 3.46195 23.0077C3.20855 23.6742 3.03598 24.3543 2.94425 25.0479C3.63831 24.9564 4.31857 24.7854 4.98501 24.5349C5.6517 24.2846 6.12151 24.023 6.39442 23.7502C6.6985 23.4462 6.85839 23.0813 6.8741 22.6555C6.88956 22.2296 6.74525 21.8647 6.44117 21.5607C6.13709 21.2567 5.77207 21.1111 5.3461 21.1237C4.92039 21.1364 4.55549 21.2947 4.25141 21.5987Z" fill="white"/>
</svg>
