<svg xmlns="http://www.w3.org/2000/svg" viewBox="0 0 194 200"><g fill="none" stroke-width="2"><path stroke="#dadadb" d="M160.9 38.02q-.65-.4-1.31-.76c-20.92-11.5-44.13-6.71-62.42 7.13q-.15.11-.34.37-.32.47.16.16c16.89-10.84 39.09-14.88 58.22-7.92q2.61.96 5.08 2.14 11.74 5.64.61-1.12" vector-effect="non-scaling-stroke"/><path stroke="#82a9c2" d="M182.838 53.177a3.62 3.21 92.4 0 0 3.36-3.483 3.62 3.21 92.4 0 0-3.056-3.75 3.62 3.21 92.4 0 0-3.36 3.482 3.62 3.21 92.4 0 0 3.056 3.75m-84.488.004a5.28 5.28 0 0 0-5.28-5.28 5.28 5.28 0 0 0-5.28 5.28 5.28 5.28 0 0 0 5.28 5.28 5.28 5.28 0 0 0 5.28-5.28m79.438-.371a5.44 5.11-1.7 0 0-5.59-4.947 5.44 5.11-1.7 0 0-5.286 5.27 5.44 5.11-1.7 0 0 5.59 4.946 5.44 5.11-1.7 0 0 5.286-5.27M48.33 84.67l5.59-18.39a1 1 0 0 0-.96-1.29l-9.47.04a1.01 1 7.8 0 0-.95.71L34.3 92.65a1.01 1-81 0 0 .94 1.3q19.95.25 25.44-.02c11.28-.54 20.91-12.41 11.09-22.08a1.01 1-40.7 0 1 .12-1.53q7-5.06 7.95-10.1c1.41-7.51-5.03-8.72-10.59-8.72q-13.6.01-27.24-.01a1.01 1 9.9 0 0-.95.66l-2.57 7.12a1 1 0 0 0 .98 1.34q10.29-.35 20.59-.38 5.89-.02 7.05 3.81a1.01 1.01 0 0 1-.48 1.17L56.2 70.94q-1.73.96.06 1.79 2.51 1.16 4.68 2.91c4.61 3.73 3.19 8.06-2.37 9.31q-4.56 1.03-9.29 1.01a1 .99-81.5 0 1-.95-1.29M174.3 62.71a.45.45 0 0 0-.42-.58l-8.14-.18a.45.45 0 0 0-.44.31l-9.72 31.16a.45.45 0 0 0 .43.58h8.22a.45.45 0 0 0 .43-.32l9.64-30.97m-87.38-.14a.34.34 0 0 0-.31.24l-9.43 30.75a.34.34 0 0 0 .33.44h8.43a.34.34 0 0 0 .32-.24l9.48-31.02a.34.34 0 0 0-.33-.44l-8.49.27m30.39 24.37c-3.29-.14-8.17-2.48-9.66-5.6-2.49-5.23 1.25-11.47 7.35-11.32q4.37.1 8.84-.13a1.02 1.01 15.3 0 0 .78-.44l3.46-5.1q1.02-1.5-.79-1.57-11.6-.39-16.21.33c-21.66 3.38-19.09 33.77 5.75 30.75a.97.97 0 0 0 .77-.55l2.37-4.81a1 .99 16.2 0 0-.79-1.43q-.77-.08-1.87-.13m28.17-16.95 10.07.02a1.01 1.01 0 0 0 .97-.73l1.5-5.23a.99.99 0 0 0-.93-1.27q-6.58-.16-13.16-.1-6.48.07-9.91 4.39c-4.86 6.12 3.39 13.47 7.09 18.03q1.27 1.56-.75 1.62l-13.23.4a1.02 1.01 11.3 0 0-.89.59l-2.16 4.8a1 1 0 0 0 .88 1.41q12.08.38 17.1-.05 8.63-.73 11.29-9.32a1.03.99 35.5 0 0-.17-.91l-8.63-11.16q-1.93-2.5.93-2.49" vector-effect="non-scaling-stroke"/><path stroke="#dadadb" d="M52.52 105.6q-6.52-3.02-9.89 2.69c-1.55 2.62-5.89 12.86 1.13 12.67 7.02-.19 8.99-8.96 9.33-14.39a.99.99 0 0 0-.57-.97m48.39.13c-9.26-5.18-12.51 7.06-12.78 13.25a1.02 1.01-74.7 0 0 .53.94c9.47 4.91 12.41-6.86 12.76-13.26a.99.98-74 0 0-.51-.93m27.07 13.15.22 1.2a1 1 0 0 0 .75.79q2.25.56 2.06-2.38-.22-3.64.11-11.46c.14-3.29-2.11-2.68-3.25-.78q-3.88 6.42-7.55 12.92-2 3.56 1.42 1.33 1.05-.68 1.56-1.91a1.01 1.01 0 0 1 .96-.61l2.77.08a1 .99-3.9 0 1 .95.82m-92.04-11.57q1.62.34 1.59-1.25a1 .99 6.9 0 0-.75-.95c-6.5-1.69-9.41 3.5-10.35 9.02-.82 4.76-1 7.06 4.9 6.87q1.98-.07 1.99-1.92a1 1 0 0 0-1.01-1.01l-2.42.04a1.01 1-88.4 0 1-1.01-1.07c.24-3.78.96-10.99 7.06-9.73m24.05 8.55q1.23-2.16 1.84.24l1.03 4.07a1 .99-7.3 0 0 .98.75h.76a1 1 0 0 0 .98-1.14l-.57-4.05a1 .97 65.2 0 1 .31-.88q3.8-3.49 3.68-8.75a.99.99 0 0 0-.98-.97l-6.94-.13a1.01.99 8.9 0 0-.97.69q-1.89 5.85-3.4 11.65c-.31 1.2-2.08 4.63 1.4 3.06a1 .98 82.4 0 0 .57-.76q.31-2.03 1.31-3.78m24-10.73-6.66-.11a1.02 1-79.3 0 0-.96.67c-.84 2.33-4.61 12.72-3.98 14.6q.42 1.26 1.95.24a1.04.99-10.1 0 0 .41-.56l.93-3.21a1.01.99 9.9 0 1 1.04-.72c5.98.48 9.16-4.51 8.24-10.07a1.01.99 85.5 0 0-.97-.84m32.4.1c-2.19-.45-5.34-.38-7.15-.01a1 .99-87.5 0 0-.75.69l-4.06 13.66a1 1 0 0 0 1.12 1.27l.59-.1a.99.98-85.1 0 0 .79-.67l1.25-3.7a.99.97 89.5 0 1 .6-.62c1.66-.6 2.21 1.24 2.1 2.62q-.21 2.84 2.39 2.35a1 1 0 0 0 .81-1.1l-.5-4.11a1.02 1.01-23.2 0 1 .36-.89q3.98-3.28 3.24-8.55a1 1 0 0 0-.79-.84m28.11 2.78a.53.53 0 0 1 .48-.38l3.38-.19a.53.53 0 0 0 .46-.32l.54-1.25a.53.53 0 0 0-.49-.74l-9.85-.09a.53.53 0 0 0-.54.54l.05 1.41a.53.53 0 0 0 .53.51l2.36-.01a.53.53 0 0 1 .5.69l-3.75 12a.53.53 0 0 0 .5.69h1.57a.53.53 0 0 0 .5-.38l3.76-12.48m9.71 8.82.67-2.08a.99.98-83.3 0 1 .86-.69l3.31-.29a1 1 0 0 0 .92-1.04l-.03-.65a1 1 0 0 0-1.07-.95q-5.03.33-1.52-3.27a.99.97-68.5 0 1 .68-.3l4.17-.18a1.01 1-87.7 0 0 .96-.89l.04-.4a.81.8-86 0 0-.77-.89l-6.61-.2a1.01 1.01 0 0 0-.99.72l-4.06 13.84a1 1 0 0 0 .97 1.28l6.21-.03a1 1 0 0 0 .98-.85l.13-.84a1 1 0 0 0-1.05-1.15l-2.79.17a1.01 1-82.8 0 1-1.01-1.31M38.16 135.98q-.54 1.58-1.32 3.71c-.83 2.28.16 3.42 2.49 2.23a1.03 1.01 85.6 0 0 .49-.58l4.03-12.16a1 1 0 0 0-.65-1.27c-2.25-.69-3.5-.06-5.04 1.77q-3.42 4.05-7.12 7.67-1.25 1.22-1.67-.47-.63-2.51-1.07-5.09c-.56-3.29-1.99-5.22-5.52-3.6a1.01 1 87.3 0 0-.54.6l-3.83 11.77a1 .99-84.3 0 0 1.06 1.3l1.22-.14a1.01 1 5.8 0 0 .85-.69c.13-.41 3.04-10.3 3.48-8.02q1.05 5.45 1.72 8.13a1.02 1.02 0 0 0 .61.69q2.34.92 3.76-.72 2.68-3.05 5.35-6.11 3.34-3.82 1.7.98m11.99 1.53.45-.91a.99.97 12.1 0 1 .87-.55l6.72-.17a1.01 1.01 0 0 0 .98-1.02l-.01-.54a1.01 1.01 0 0 0-.94-.99l-5.4-.31a1 .99 89 0 1-.93-.9c-.22-2.23 10.47-1.13 12.06-1.1a.99.99 0 0 0 .96-.69l.41-1.23a1 1 0 0 0-.97-1.31l-13.51.16a1.01 1.01 0 0 0-.94.68l-4.12 12.05a1 1 0 0 0 .95 1.32H60.2a1 .99 7.6 0 0 .96-.73l.28-.98a1 1 0 0 0-.96-1.27l-9.44-.07a1 1 0 0 1-.89-1.44m36.21-2.28-1.75 5.46a1.01 1.01 0 0 0 .96 1.31h1.37a1 1 0 0 0 .95-.68l4.07-12.1a1 .99 17.5 0 0-.67-1.28q-1.06-.3-2.17-.17c-2.31.29-7.89 7.34-9.92 9.51q-1.29 1.37-1.71-.46l-1.82-7.94a.98.97 4.6 0 0-.6-.7q-2.01-.8-4.05-.11a1.02 1-89.8 0 0-.63.64l-3.9 11.92a1 1 0 0 0 1.08 1.3l1.24-.17a.99.99 0 0 0 .82-.69l2.09-6.66q.87-2.78 1.54.06.6 2.57 1.2 5.15c.53 2.28 2.63 3.84 4.45 1.78q3.05-3.44 6.08-6.94 2.55-2.93 1.37.77m25.67-1.49q2.48-1.76 1.9-5.04a1 1 0 0 0-.98-.82H98.87a1.02 1-80.1 0 0-.95.68l-4.12 12.08a1 1 0 0 0 .92 1.32q9.58.23 12.72-.04 4.01-.33 4.78-4.23.29-1.48-.44-2.58a1 1 0 0 1 .25-1.37m9.82 2.47q2.3-.42 4.64-.2 2.1.2 3.14-1.26 1.06-1.5-.78-1.58l-5.41-.24a.8.78 81.1 0 1-.71-.53c-.47-1.3 1.09-1.45 2.03-1.42q5.01.16 9.98-.33a1 1 0 0 0 .84-.68l.31-.89a1 1 0 0 0-.95-1.32l-13.67.07a1.01 1-80.7 0 0-.95.69l-3.95 12.2a1 1 0 0 0 .96 1.31l13.68-.12a1 .99 90 0 0 .99-1V140a1 1 0 0 0-1-1h-9.25a1.01 1-80.6 0 1-.95-1.33l.28-.81a1.01 1-84.8 0 1 .77-.65m30.5 2.68a1.41 1.25-37.6 0 1 .41-2.17c3.3-1.77 5.12-3.85 3.94-7.86a1.01 1 82.3 0 0-.93-.72l-13.71-.47a1 1 0 0 0-.98.69l-4.1 12.43a1.01 1 7.3 0 0 1.02 1.31l1.26-.08a1.01 1 7.6 0 0 .87-.66l1.2-3.3a1.01 1 2.7 0 1 .7-.63q5.69-1.4 7.57 3.64a.99.99 0 0 0 .73.63q7.09 1.48 2.02-2.81" vector-effect="non-scaling-stroke"/><path stroke="#82a9c2" d="M182.888 52.307a2.79 2.35 92.5 0 0 2.47-2.684 2.79 2.35 92.5 0 0-2.226-2.89 2.79 2.35 92.5 0 0-2.47 2.684 2.79 2.35 92.5 0 0 2.226 2.89" vector-effect="non-scaling-stroke"/><path stroke="#82a9c2" d="M182.94 48.94q-.56 1.16.08 1.71 1.07.93.84-.47l-.26-1.54q-.21-1.26-.63-.06-.06.16-.03.36" vector-effect="non-scaling-stroke"/><path stroke="#dadadb" d="M44.218 118.324A6.09 2.76 111.3 0 0 49 113.653a6.09 2.76 111.3 0 0-.359-6.677 6.09 2.76 111.3 0 0-4.784 4.671 6.09 2.76 111.3 0 0 .36 6.677M94 108.72q-2.22 3.76-2.86 8.14a1.01 1-86.8 0 0 1.02 1.15l2.49-.08a1.02 1.02 0 0 0 .79-.43q2.86-4.13 2.85-9.13a1.01 1-81 0 0-.67-.94q-2.37-.84-3.62 1.29m34.15 4.13q.2-.55.15-1.12-.17-1.66-.96-.19l-1.39 2.56a1 1 0 0 0 .82 1.47q1.8.12 1.34-2.18a.99.92-42.9 0 1 .04-.54m-62.81-5.3c-3.66-1.31-2.94.67-3.91 2.62-2.51 5.09 4.31 3.15 4.57-1.63a1 .99 11.4 0 0-.66-.99m14.6-.89a1 1 0 0 0-1.27.63l-1.55 4.61a1 .99 8.9 0 0 .96 1.31c4.1-.04 5.86-5.19 1.86-6.55m33.54.75-1.64-.15a1 .99-78 0 0-1.04.68l-1.25 3.83a1 1 0 0 0 1.02 1.31q4.04-.3 3.81-4.72a1 .99-88.7 0 0-.9-.95m-3.502 24.332a1.26 1.26 0 0 0-1.28-1.24l-7.438.117a1.26 1.26 0 0 0-1.24 1.28l.002.14a1.26 1.26 0 0 0 1.28 1.24l7.438-.118a1.26 1.26 0 0 0 1.24-1.28l-.002-.14M99.11 138.86q3.93.27 7.66.12c1.36-.06 2.43-.69 2.2-2.14a1 .99-4.3 0 0-.99-.84h-8.44a1 1 0 0 0-.92.61l-.36.86a1 1 0 0 0 .85 1.39m53.35-8.07-8.09-.06a1.01 1 8.6 0 0-.96.7l-.7 2.2a1 1 0 0 0 .92 1.3q5.62.2 6.81.01 2.7-.44 3-3.04a1 .99 3.6 0 0-.98-1.11" vector-effect="non-scaling-stroke"/></g><path fill="#fff" d="M0 0h194v200H0V0Zm160.9 38.02q-.65-.4-1.31-.76c-20.92-11.5-44.13-6.71-62.42 7.13q-.15.11-.34.37-.32.47.16.16c16.89-10.84 39.09-14.88 58.22-7.92q2.61.96 5.08 2.14 11.74 5.64.61-1.12Zm21.938 15.157a3.62 3.21 92.4 0 0 3.36-3.483 3.62 3.21 92.4 0 0-3.056-3.75 3.62 3.21 92.4 0 0-3.36 3.482 3.62 3.21 92.4 0 0 3.056 3.75Zm-84.488.003a5.28 5.28 0 0 0-5.28-5.28 5.28 5.28 0 0 0-5.28 5.28 5.28 5.28 0 0 0 5.28 5.28 5.28 5.28 0 0 0 5.28-5.28Zm79.438-.371a5.44 5.11-1.7 0 0-5.59-4.947 5.44 5.11-1.7 0 0-5.286 5.27 5.44 5.11-1.7 0 0 5.59 4.946 5.44 5.11-1.7 0 0 5.286-5.27ZM48.33 84.67l5.59-18.39a1 1 0 0 0-.96-1.29l-9.47.04a1.01 1 7.8 0 0-.95.71L34.3 92.65a1.01 1-81 0 0 .94 1.3q19.95.25 25.44-.02c11.28-.54 20.91-12.41 11.09-22.08a1.01 1-40.7 0 1 .12-1.53q7-5.06 7.95-10.1c1.41-7.51-5.03-8.72-10.59-8.72q-13.6.01-27.24-.01a1.01 1 9.9 0 0-.95.66l-2.57 7.12a1 1 0 0 0 .98 1.34q10.29-.35 20.59-.38 5.89-.02 7.05 3.81a1.01 1.01 0 0 1-.48 1.17L56.2 70.94q-1.73.96.06 1.79 2.51 1.16 4.68 2.91c4.61 3.73 3.19 8.06-2.37 9.31q-4.56 1.03-9.29 1.01a1 .99-81.5 0 1-.95-1.29ZM174.3 62.71a.45.45 0 0 0-.42-.58l-8.14-.18a.45.45 0 0 0-.44.31l-9.72 31.16a.45.45 0 0 0 .43.58h8.22a.45.45 0 0 0 .43-.32l9.64-30.97Zm-87.38-.14a.34.34 0 0 0-.31.24l-9.43 30.75a.34.34 0 0 0 .33.44h8.43a.34.34 0 0 0 .32-.24l9.48-31.02a.34.34 0 0 0-.33-.44l-8.49.27Zm30.39 24.37c-3.29-.14-8.17-2.48-9.66-5.6-2.49-5.23 1.25-11.47 7.35-11.32q4.37.1 8.84-.13a1.02 1.01 15.3 0 0 .78-.44l3.46-5.1q1.02-1.5-.79-1.57-11.6-.39-16.21.33c-21.66 3.38-19.09 33.77 5.75 30.75a.97.97 0 0 0 .77-.55l2.37-4.81a1 .99 16.2 0 0-.79-1.43q-.77-.08-1.87-.13Zm28.17-16.95 10.07.02a1.01 1.01 0 0 0 .97-.73l1.5-5.23a.99.99 0 0 0-.93-1.27q-6.58-.16-13.16-.1-6.48.07-9.91 4.39c-4.86 6.12 3.39 13.47 7.09 18.03q1.27 1.56-.75 1.62l-13.23.4a1.02 1.01 11.3 0 0-.89.59l-2.16 4.8a1 1 0 0 0 .88 1.41q12.08.38 17.1-.05 8.63-.73 11.29-9.32a1.03.99 35.5 0 0-.17-.91l-8.63-11.16q-1.93-2.5.93-2.49ZM52.52 105.6q-6.52-3.02-9.89 2.69c-1.55 2.62-5.89 12.86 1.13 12.67 7.02-.19 8.99-8.96 9.33-14.39a.99.99 0 0 0-.57-.97Zm48.39.13c-9.26-5.18-12.51 7.06-12.78 13.25a1.02 1.01-74.7 0 0 .53.94c9.47 4.91 12.41-6.86 12.76-13.26a.99.98-74 0 0-.51-.93Zm27.07 13.15.22 1.2a1 1 0 0 0 .75.79q2.25.56 2.06-2.38-.22-3.64.11-11.46c.14-3.29-2.11-2.68-3.25-.78q-3.88 6.42-7.55 12.92-2 3.56 1.42 1.33 1.05-.68 1.56-1.91a1.01 1.01 0 0 1 .96-.61l2.77.08a1 .99-3.9 0 1 .95.82Zm-92.04-11.57q1.62.34 1.59-1.25a1 .99 6.9 0 0-.75-.95c-6.5-1.69-9.41 3.5-10.35 9.02-.82 4.76-1 7.06 4.9 6.87q1.98-.07 1.99-1.92a1 1 0 0 0-1.01-1.01l-2.42.04a1.01 1-88.4 0 1-1.01-1.07c.24-3.78.96-10.99 7.06-9.73Zm24.05 8.55q1.23-2.16 1.84.24l1.03 4.07a1 .99-7.3 0 0 .98.75h.76a1 1 0 0 0 .98-1.14l-.57-4.05a1 .97 65.2 0 1 .31-.88q3.8-3.49 3.68-8.75a.99.99 0 0 0-.98-.97l-6.94-.13a1.01.99 8.9 0 0-.97.69q-1.89 5.85-3.4 11.65c-.31 1.2-2.08 4.63 1.4 3.06a1 .98 82.4 0 0 .57-.76q.31-2.03 1.31-3.78Zm24-10.73-6.66-.11a1.02 1-79.3 0 0-.96.67c-.84 2.33-4.61 12.72-3.98 14.6q.42 1.26 1.95.24a1.04.99-10.1 0 0 .41-.56l.93-3.21a1.01.99 9.9 0 1 1.04-.72c5.98.48 9.16-4.51 8.24-10.07a1.01.99 85.5 0 0-.97-.84Zm32.4.1c-2.19-.45-5.34-.38-7.15-.01a1 .99-87.5 0 0-.75.69l-4.06 13.66a1 1 0 0 0 1.12 1.27l.59-.1a.99.98-85.1 0 0 .79-.67l1.25-3.7a.99.97 89.5 0 1 .6-.62c1.66-.6 2.21 1.24 2.1 2.62q-.21 2.84 2.39 2.35a1 1 0 0 0 .81-1.1l-.5-4.11a1.02 1.01-23.2 0 1 .36-.89q3.98-3.28 3.24-8.55a1 1 0 0 0-.79-.84Zm28.11 2.78a.53.53 0 0 1 .48-.38l3.38-.19a.53.53 0 0 0 .46-.32l.54-1.25a.53.53 0 0 0-.49-.74l-9.85-.09a.53.53 0 0 0-.54.54l.05 1.41a.53.53 0 0 0 .53.51l2.36-.01a.53.53 0 0 1 .5.69l-3.75 12a.53.53 0 0 0 .5.69h1.57a.53.53 0 0 0 .5-.38l3.76-12.48Zm9.71 8.82.67-2.08a.99.98-83.3 0 1 .86-.69l3.31-.29a1 1 0 0 0 .92-1.04l-.03-.65a1 1 0 0 0-1.07-.95q-5.03.33-1.52-3.27a.99.97-68.5 0 1 .68-.3l4.17-.18a1.01 1-87.7 0 0 .96-.89l.04-.4a.81.8-86 0 0-.77-.89l-6.61-.2a1.01 1.01 0 0 0-.99.72l-4.06 13.84a1 1 0 0 0 .97 1.28l6.21-.03a1 1 0 0 0 .98-.85l.13-.84a1 1 0 0 0-1.05-1.15l-2.79.17a1.01 1-82.8 0 1-1.01-1.31ZM38.16 135.98q-.54 1.58-1.32 3.71c-.83 2.28.16 3.42 2.49 2.23a1.03 1.01 85.6 0 0 .49-.58l4.03-12.16a1 1 0 0 0-.65-1.27c-2.25-.69-3.5-.06-5.04 1.77q-3.42 4.05-7.12 7.67-1.25 1.22-1.67-.47-.63-2.51-1.07-5.09c-.56-3.29-1.99-5.22-5.52-3.6a1.01 1 87.3 0 0-.54.6l-3.83 11.77a1 .99-84.3 0 0 1.06 1.3l1.22-.14a1.01 1 5.8 0 0 .85-.69c.13-.41 3.04-10.3 3.48-8.02q1.05 5.45 1.72 8.13a1.02 1.02 0 0 0 .61.69q2.34.92 3.76-.72 2.68-3.05 5.35-6.11 3.34-3.82 1.7.98Zm11.99 1.53.45-.91a.99.97 12.1 0 1 .87-.55l6.72-.17a1.01 1.01 0 0 0 .98-1.02l-.01-.54a1.01 1.01 0 0 0-.94-.99l-5.4-.31a1 .99 89 0 1-.93-.9c-.22-2.23 10.47-1.13 12.06-1.1a.99.99 0 0 0 .96-.69l.41-1.23a1 1 0 0 0-.97-1.31l-13.51.16a1.01 1.01 0 0 0-.94.68l-4.12 12.05a1 1 0 0 0 .95 1.32H60.2a1 .99 7.6 0 0 .96-.73l.28-.98a1 1 0 0 0-.96-1.27l-9.44-.07a1 1 0 0 1-.89-1.44Zm36.21-2.28-1.75 5.46a1.01 1.01 0 0 0 .96 1.31h1.37a1 1 0 0 0 .95-.68l4.07-12.1a1 .99 17.5 0 0-.67-1.28q-1.06-.3-2.17-.17c-2.31.29-7.89 7.34-9.92 9.51q-1.29 1.37-1.71-.46l-1.82-7.94a.98.97 4.6 0 0-.6-.7q-2.01-.8-4.05-.11a1.02 1-89.8 0 0-.63.64l-3.9 11.92a1 1 0 0 0 1.08 1.3l1.24-.17a.99.99 0 0 0 .82-.69l2.09-6.66q.87-2.78 1.54.06.6 2.57 1.2 5.15c.53 2.28 2.63 3.84 4.45 1.78q3.05-3.44 6.08-6.94 2.55-2.93 1.37.77Zm25.67-1.49q2.48-1.76 1.9-5.04a1 1 0 0 0-.98-.82H98.87a1.02 1-80.1 0 0-.95.68l-4.12 12.08a1 1 0 0 0 .92 1.32q9.58.23 12.72-.04 4.01-.33 4.78-4.23.29-1.48-.44-2.58a1 1 0 0 1 .25-1.37Zm9.82 2.47q2.3-.42 4.64-.2 2.1.2 3.14-1.26 1.06-1.5-.78-1.58l-5.41-.24a.8.78 81.1 0 1-.71-.53c-.47-1.3 1.09-1.45 2.03-1.42q5.01.16 9.98-.33a1 1 0 0 0 .84-.68l.31-.89a1 1 0 0 0-.95-1.32l-13.67.07a1.01 1-80.7 0 0-.95.69l-3.95 12.2a1 1 0 0 0 .96 1.31l13.68-.12a1 .99 90 0 0 .99-1V140a1 1 0 0 0-1-1h-9.25a1.01 1-80.6 0 1-.95-1.33l.28-.81a1.01 1-84.8 0 1 .77-.65Zm30.5 2.68a1.41 1.25-37.6 0 1 .41-2.17c3.3-1.77 5.12-3.85 3.94-7.86a1.01 1 82.3 0 0-.93-.72l-13.71-.47a1 1 0 0 0-.98.69l-4.1 12.43a1.01 1 7.3 0 0 1.02 1.31l1.26-.08a1.01 1 7.6 0 0 .87-.66l1.2-3.3a1.01 1 2.7 0 1 .7-.63q5.69-1.4 7.57 3.64a.99.99 0 0 0 .73.63q7.09 1.48 2.02-2.81Z"/><path fill="#b4b5b7" d="M160.9 38.02q11.13 6.76-.61 1.12-2.47-1.18-5.08-2.14c-19.13-6.96-41.33-2.92-58.22 7.92q-.48.31-.16-.16.19-.26.34-.37c18.29-13.84 41.5-18.63 62.42-7.13q.66.36 1.31.76Z"/><path fill="#055285" d="M182.838 53.177a3.62 3.21 92.4 0 1-3.055-3.751 3.62 3.21 92.4 0 1 3.359-3.483 3.62 3.21 92.4 0 1 3.055 3.751 3.62 3.21 92.4 0 1-3.359 3.483Zm.05-.87a2.79 2.35 92.5 0 0 2.47-2.684 2.79 2.35 92.5 0 0-2.226-2.89 2.79 2.35 92.5 0 0-2.47 2.684 2.79 2.35 92.5 0 0 2.226 2.89Z"/><path fill="#fff" d="M182.888 52.307a2.79 2.35 92.5 0 1-2.226-2.89 2.79 2.35 92.5 0 1 2.47-2.684 2.79 2.35 92.5 0 1 2.226 2.89 2.79 2.35 92.5 0 1-2.47 2.684Zm.052-3.367q-.56 1.16.08 1.71 1.07.93.84-.47l-.26-1.54q-.21-1.26-.63-.06-.06.16-.03.36Z"/><circle cx="93.07" cy="53.18" r="5.28" fill="#055285"/><ellipse fill="#055285" rx="5.44" ry="5.11" transform="rotate(-1.7 1871.313 -5781.87)"/><path fill="#055285" d="M182.94 48.94q-.03-.2.03-.36.42-1.2.63.06l.26 1.54q.23 1.4-.84.47-.64-.55-.08-1.71ZM49.28 85.96q4.73.02 9.29-1.01c5.56-1.25 6.98-5.58 2.37-9.31q-2.17-1.75-4.68-2.91-1.79-.83-.06-1.79l10.43-5.73a1.01 1.01 0 0 0 .48-1.17q-1.16-3.83-7.05-3.81-10.3.03-20.59.38a1 1 0 0 1-.98-1.34l2.57-7.12a1.01 1 9.9 0 1 .95-.66q13.64.02 27.24.01c5.56 0 12 1.21 10.59 8.72q-.95 5.04-7.95 10.1a1.01 1-40.7 0 0-.12 1.53c9.82 9.67.19 21.54-11.09 22.08q-5.49.27-25.44.02a1.01 1-81 0 1-.94-1.3l8.24-26.91a1.01 1 7.8 0 1 .95-.71l9.47-.04a1 1 0 0 1 .96 1.29l-5.59 18.39a1 .99-81.5 0 0 .95 1.29ZM174.3 62.71l-9.64 30.97a.45.45 0 0 1-.43.32h-8.22a.45.45 0 0 1-.43-.58l9.72-31.16a.45.45 0 0 1 .44-.31l8.14.18a.45.45 0 0 1 .42.58Zm-87.38-.14 8.49-.27a.34.34 0 0 1 .33.44l-9.48 31.02a.34.34 0 0 1-.32.24h-8.43a.34.34 0 0 1-.33-.44l9.43-30.75a.34.34 0 0 1 .31-.24Zm30.39 24.37q1.1.05 1.87.13a1 .99 16.2 0 1 .79 1.43l-2.37 4.81a.97.97 0 0 1-.77.55c-24.84 3.02-27.41-27.37-5.75-30.75q4.61-.72 16.21-.33 1.81.07.79 1.57l-3.46 5.1a1.02 1.01 15.3 0 1-.78.44q-4.47.23-8.84.13c-6.1-.15-9.84 6.09-7.35 11.32 1.49 3.12 6.37 5.46 9.66 5.6Zm28.17-16.95q-2.86-.01-.93 2.49l8.63 11.16a1.03.99 35.5 0 1 .17.91q-2.66 8.59-11.29 9.32-5.02.43-17.1.05a1 1 0 0 1-.88-1.41l2.16-4.8a1.02 1.01 11.3 0 1 .89-.59l13.23-.4q2.02-.06.75-1.62c-3.7-4.56-11.95-11.91-7.09-18.03q3.43-4.32 9.91-4.39 6.58-.06 13.16.1a.99.99 0 0 1 .93 1.27l-1.5 5.23a1.01 1.01 0 0 1-.97.73l-10.07-.02Z"/><path fill="#b4b5b7" d="M52.52 105.6a.99.99 0 0 1 .57.97c-.34 5.43-2.31 14.2-9.33 14.39-7.02.19-2.68-10.05-1.13-12.67q3.37-5.71 9.89-2.69Zm-8.302 12.724A6.09 2.76 111.3 0 0 49 113.653a6.09 2.76 111.3 0 0-.359-6.677 6.09 2.76 111.3 0 0-4.784 4.671 6.09 2.76 111.3 0 0 .36 6.677Zm56.692-12.594a.99.98-74 0 1 .51.93c-.35 6.4-3.29 18.17-12.76 13.26a1.02 1.01-74.7 0 1-.53-.94c.27-6.19 3.52-18.43 12.78-13.25ZM94 108.72q-2.22 3.76-2.86 8.14a1.01 1-86.8 0 0 1.02 1.15l2.49-.08a1.02 1.02 0 0 0 .79-.43q2.86-4.13 2.85-9.13a1.01 1-81 0 0-.67-.94q-2.37-.84-3.62 1.29Zm33.03 9.34-2.77-.08a1.01 1.01 0 0 0-.96.61q-.51 1.23-1.56 1.91-3.42 2.23-1.42-1.33 3.67-6.5 7.55-12.92c1.14-1.9 3.39-2.51 3.25.78q-.33 7.82-.11 11.46.19 2.94-2.06 2.38a1 1 0 0 1-.75-.79l-.22-1.2a1 .99-3.9 0 0-.95-.82Zm1.12-5.21q.2-.55.15-1.12-.17-1.66-.96-.19l-1.39 2.56a1 1 0 0 0 .82 1.47q1.8.12 1.34-2.18a.99.92-42.9 0 1 .04-.54Zm-92.21-5.54c-6.1-1.26-6.82 5.95-7.06 9.73a1.01 1-88.4 0 0 1.01 1.07l2.42-.04a1 1 0 0 1 1.01 1.01q-.01 1.85-1.99 1.92c-5.9.19-5.72-2.11-4.9-6.87.94-5.52 3.85-10.71 10.35-9.02a1 .99 6.9 0 1 .75.95q.03 1.59-1.59 1.25Zm24.05 8.55q-1 1.75-1.31 3.78a1 .98 82.4 0 1-.57.76c-3.48 1.57-1.71-1.86-1.4-3.06q1.51-5.8 3.4-11.65a1.01.99 8.9 0 1 .97-.69l6.94.13a.99.99 0 0 1 .98.97q.12 5.26-3.68 8.75a1 .97 65.2 0 0-.31.88l.57 4.05a1 1 0 0 1-.98 1.14h-.76a1 .99-7.3 0 1-.98-.75l-1.03-4.07q-.61-2.4-1.84-.24Zm5.35-8.31c-3.66-1.31-2.94.67-3.91 2.62-2.51 5.09 4.31 3.15 4.57-1.63a1 .99 11.4 0 0-.66-.99Zm18.65-2.42a1.01.99 85.5 0 1 .97.84c.92 5.56-2.26 10.55-8.24 10.07a1.01.99 9.9 0 0-1.04.72l-.93 3.21a1.04.99-10.1 0 1-.41.56q-1.53 1.02-1.95-.24c-.63-1.88 3.14-12.27 3.98-14.6a1.02 1-79.3 0 1 .96-.67l6.66.11Zm-4.05 1.53a1 1 0 0 0-1.27.63l-1.55 4.61a1 .99 8.9 0 0 .96 1.31c4.1-.04 5.86-5.19 1.86-6.55Zm29.3-1.44c1.81-.37 4.96-.44 7.15.01a1 1 0 0 1 .79.84q.74 5.27-3.24 8.55a1.02 1.01-23.2 0 0-.36.89l.5 4.11a1 1 0 0 1-.81 1.1q-2.6.49-2.39-2.35c.11-1.38-.44-3.22-2.1-2.62a.99.97 89.5 0 0-.6.62l-1.25 3.7a.99.98-85.1 0 1-.79.67l-.59.1a1 1 0 0 1-1.12-1.27l4.06-13.66a1 .99-87.5 0 1 .75-.69Zm4.24 2.19-1.64-.15a1 .99-78 0 0-1.04.68l-1.25 3.83a1 1 0 0 0 1.02 1.31q4.04-.3 3.81-4.72a1 .99-88.7 0 0-.9-.95Zm31.02.6-3.76 12.48a.53.53 0 0 1-.5.38h-1.57a.53.53 0 0 1-.5-.69l3.75-12a.53.53 0 0 0-.5-.69l-2.36.01a.53.53 0 0 1-.53-.51l-.05-1.41a.53.53 0 0 1 .54-.54l9.85.09a.53.53 0 0 1 .49.74l-.54 1.25a.53.53 0 0 1-.46.32l-3.38.19a.53.53 0 0 0-.48.38Zm10.72 10.13 2.79-.17a1 1 0 0 1 1.05 1.15l-.13.84a1 1 0 0 1-.98.85l-6.21.03a1 1 0 0 1-.97-1.28l4.06-13.84a1.01 1.01 0 0 1 .99-.72l6.61.2a.81.8-86 0 1 .77.89l-.04.4a1.01 1-87.7 0 1-.96.89l-4.17.18a.99.97-68.5 0 0-.68.3q-3.51 3.6 1.52 3.27a1 1 0 0 1 1.07.95l.03.65a1 1 0 0 1-.92 1.04l-3.31.29a.99.98-83.3 0 0-.86.69l-.67 2.08a1.01 1-82.8 0 0 1.01 1.31Z"/><path fill="#fff" d="M79.94 106.66c4 1.36 2.24 6.51-1.86 6.55a1 .99 8.9 0 1-.96-1.31l1.55-4.61a1 1 0 0 1 1.27-.63Z"/><ellipse fill="#fff" rx="6.09" ry="2.76" transform="rotate(111.3 -15.28 72.19)"/><path fill="#fff" d="M65.34 107.55a1 .99 11.4 0 1 .66.99c-.26 4.78-7.08 6.72-4.57 1.63.97-1.95.25-3.93 3.91-2.62ZM94 108.72q1.25-2.13 3.62-1.29a1.01 1-81 0 1 .67.94q.01 5-2.85 9.13a1.02 1.02 0 0 1-.79.43l-2.49.08a1.01 1-86.8 0 1-1.02-1.15q.64-4.38 2.86-8.14Zm19.48-1.31a1 .99-88.7 0 1 .9.95q.23 4.42-3.81 4.72a1 1 0 0 1-1.02-1.31l1.25-3.83a1 .99-78 0 1 1.04-.68l1.64.15Zm14.63 5.98q.46 2.3-1.34 2.18a1 1 0 0 1-.82-1.47l1.39-2.56q.79-1.47.96.19.05.57-.15 1.12a.99.92-42.9 0 0-.04.54Z"/><path fill="#b4b5b7" d="M38.16 135.98q1.64-4.8-1.7-.98-2.67 3.06-5.35 6.11-1.42 1.64-3.76.72a1.02 1.02 0 0 1-.61-.69q-.67-2.68-1.72-8.13c-.44-2.28-3.35 7.61-3.48 8.02a1.01 1 5.8 0 1-.85.69l-1.22.14a1 .99-84.3 0 1-1.06-1.3l3.83-11.77a1.01 1 87.3 0 1 .54-.6c3.53-1.62 4.96.31 5.52 3.6q.44 2.58 1.07 5.09.42 1.69 1.67.47 3.7-3.62 7.12-7.67c1.54-1.83 2.79-2.46 5.04-1.77a1 1 0 0 1 .65 1.27l-4.03 12.16a1.03 1.01 85.6 0 1-.49.58c-2.33 1.19-3.32.05-2.49-2.23q.78-2.13 1.32-3.71Zm12.88 2.97 9.44.07a1 1 0 0 1 .96 1.27l-.28.98a1 .99 7.6 0 1-.96.73H46.73a1 1 0 0 1-.95-1.32l4.12-12.05a1.01 1.01 0 0 1 .94-.68l13.51-.16a1 1 0 0 1 .97 1.31l-.41 1.23a.99.99 0 0 1-.96.69c-1.59-.03-12.28-1.13-12.06 1.1a1 .99 89 0 0 .93.9l5.4.31a1.01 1.01 0 0 1 .94.99l.01.54a1.01 1.01 0 0 1-.98 1.02l-6.72.17a.99.97 12.1 0 0-.87.55l-.45.91a1 1 0 0 0 .89 1.44Zm35.32-3.72q1.18-3.7-1.37-.77-3.03 3.5-6.08 6.94c-1.82 2.06-3.92.5-4.45-1.78q-.6-2.58-1.2-5.15-.67-2.84-1.54-.06l-2.09 6.66a.99.99 0 0 1-.82.69l-1.24.17a1 1 0 0 1-1.08-1.3l3.9-11.92a1.02 1-89.8 0 1 .63-.64q2.04-.69 4.05.11a.98.97 4.6 0 1 .6.7l1.82 7.94q.42 1.83 1.71.46c2.03-2.17 7.61-9.22 9.92-9.51q1.11-.13 2.17.17a1 .99 17.5 0 1 .67 1.28l-4.07 12.1a1 1 0 0 1-.95.68h-1.37a1.01 1.01 0 0 1-.96-1.31l1.75-5.46Zm25.42-.12q.73 1.1.44 2.58-.77 3.9-4.78 4.23-3.14.27-12.72.04a1 1 0 0 1-.92-1.32l4.12-12.08a1.02 1-80.1 0 1 .95-.68h14.08a1 1 0 0 1 .98.82q.58 3.28-1.9 5.04a1 1 0 0 0-.25 1.37Zm-1.802-3.368a1.26 1.26 0 0 0-1.28-1.24l-7.438.117a1.26 1.26 0 0 0-1.24 1.28l.002.14a1.26 1.26 0 0 0 1.28 1.24l7.438-.118a1.26 1.26 0 0 0 1.24-1.28l-.002-.14ZM99.11 138.86q3.93.27 7.66.12c1.36-.06 2.43-.69 2.2-2.14a1 .99-4.3 0 0-.99-.84h-8.44a1 1 0 0 0-.92.61l-.36.86a1 1 0 0 0 .85 1.39Zm21.97-2-.28.81a1.01 1-80.6 0 0 .95 1.33H131a1 1 0 0 1 1 1v.91a1 .99-90 0 1-.99 1l-13.68.12a1 1 0 0 1-.96-1.31l3.95-12.2a1.01 1-80.7 0 1 .95-.69l13.67-.07a1 1 0 0 1 .95 1.32l-.31.89a1 1 0 0 1-.84.68q-4.97.49-9.98.33c-.94-.03-2.5.12-2.03 1.42a.8.78 81.1 0 0 .71.53l5.41.24q1.84.08.78 1.58-1.04 1.46-3.14 1.26-2.34-.22-4.64.2a1.01 1-84.8 0 0-.77.65Zm31.27 2.03q5.07 4.29-2.02 2.81a.99.99 0 0 1-.73-.63q-1.88-5.04-7.57-3.64a1.01 1 2.7 0 0-.7.63l-1.2 3.3a1.01 1 7.6 0 1-.87.66l-1.26.08a1.01 1 7.3 0 1-1.02-1.31l4.1-12.43a1 1 0 0 1 .98-.69l13.71.47a1.01 1 82.3 0 1 .93.72c1.18 4.01-.64 6.09-3.94 7.86a1.41 1.25-37.6 0 0-.41 2.17Zm.11-8.1-8.09-.06a1.01 1 8.6 0 0-.96.7l-.7 2.2a1 1 0 0 0 .92 1.3q5.62.2 6.81.01 2.7-.44 3-3.04a1 .99 3.6 0 0-.98-1.11Z"/><rect width="9.96" height="2.66" x="-4.98" y="-1.33" fill="#fff" rx="1.26" transform="rotate(-.9 8448.706 -6618.425)"/><path fill="#fff" d="M152.46 130.79a1 .99 3.6 0 1 .98 1.11q-.3 2.6-3 3.04-1.19.19-6.81-.01a1 1 0 0 1-.92-1.3l.7-2.2a1.01 1 8.6 0 1 .96-.7l8.09.06Zm-53.35 8.07a1 1 0 0 1-.85-1.39l.36-.86a1 1 0 0 1 .92-.61h8.44a1 .99-4.3 0 1 .99.84c.23 1.45-.84 2.08-2.2 2.14q-3.73.15-7.66-.12Z"/></svg>