<svg width="820" height="820" viewBox="0 0 820 820" fill="none" xmlns="http://www.w3.org/2000/svg">
<rect x="10" y="10" width="400" height="400" stroke="#5A7DF5" stroke-width="20"/>
<rect x="410" y="10" width="400" height="400" stroke="#5A7DF5" stroke-width="20"/>
<rect x="410" y="410" width="400" height="400" stroke="#5A7DF5" stroke-width="20"/>
<path d="M553.654 491.805H594.816C600.578 491.805 606.926 492.146 613.859 492.83C620.793 493.514 627.678 495.076 634.514 497.518C641.35 499.861 647.6 503.621 653.264 508.797C658.928 513.875 663.469 520.857 666.887 529.744C670.402 538.533 672.16 549.715 672.16 563.289V569.588C672.16 607.088 660.881 631.209 638.322 641.951L679.484 742H639.055L604.631 648.396H591.594V742H553.654V491.805ZM596.574 621.004C610.441 621.004 619.963 617.781 625.139 611.336C630.412 604.891 633.049 593.27 633.049 576.473V556.697C633.049 543.807 630.559 534.334 625.578 528.279C620.695 522.225 611.027 519.197 596.574 519.197H591.594V621.004H596.574Z" fill="white"/>
<path d="M562.654 91.8047H658.309V121.688H600.594V196.541H645.857V226.424H600.594V312.117H658.309V342H562.654V91.8047Z" fill="white"/>
<path d="M106.688 91.8047H143.016L159.861 242.977L161.766 278.279H165.428L168.943 242.977L195.896 91.8047H226.219L252 242.977L254.93 278.279H258.738L260.496 242.977L275.877 91.8047H312.352L277.342 342H238.816L218.162 221.736L211.717 169.441H208.787L202.488 221.736L180.809 342H142.723L106.688 91.8047Z" fill="white"/>
</svg>
