<svg width="20" height="18" viewBox="0 0 20 18" fill="none" xmlns="http://www.w3.org/2000/svg">
<path d="M2.19001 17.3154C1.68485 17.3154 1.25726 17.1404 0.907263 16.7904C0.557263 16.4404 0.382263 16.0128 0.382263 15.5077V2.12318C0.382263 1.61801 0.557263 1.19043 0.907263 0.84043C1.25726 0.49043 1.68485 0.31543 2.19001 0.31543H17.5745C18.0797 0.31543 18.5073 0.49043 18.8573 0.84043C19.2073 1.19043 19.3823 1.61801 19.3823 2.12318V15.5077C19.3823 16.0128 19.2073 16.4404 18.8573 16.7904C18.5073 17.1404 18.0797 17.3154 17.5745 17.3154H2.19001ZM2.19001 15.8154H17.5745C17.6515 15.8154 17.722 15.7833 17.786 15.7192C17.8502 15.6552 17.8823 15.5847 17.8823 15.5077V2.12318C17.8823 2.04618 17.8502 1.97568 17.786 1.91168C17.722 1.84751 17.6515 1.81543 17.5745 1.81543H2.19001C2.11301 1.81543 2.04251 1.84751 1.97851 1.91168C1.91435 1.97568 1.88226 2.04618 1.88226 2.12318V15.5077C1.88226 15.5847 1.91435 15.6552 1.97851 15.7192C2.04251 15.7833 2.11301 15.8154 2.19001 15.8154ZM4.26701 13.4307H15.4975V11.9309H4.26701V13.4307ZM4.26701 9.56543H7.95926V4.20018H4.26701V9.56543ZM10.1515 9.56543H15.4975V8.06543H10.1515V9.56543ZM10.1515 5.69993H15.4975V4.20018H10.1515V5.69993Z" fill="#00AEFF"/>
</svg>
