<?xml version="1.0" encoding="utf-8"?>
<!-- Generator: Adobe Illustrator 19.2.1, SVG Export Plug-In . SVG Version: 6.00 Build 0)  -->
<svg version="1.1" id="layer" xmlns="http://www.w3.org/2000/svg" xmlns:xlink="http://www.w3.org/1999/xlink" x="0px" y="0px"
	 viewBox="0 0 652 652" style="enable-background:new 0 0 652 652;" xml:space="preserve">
<g>
	<path d="M262.1,325.4l-13.5-37.6h-38.8v66.6L184,287.8h-31c-4.4-18.4-17.6-30.9-41.5-31.3l-91.1,0.1v130.8h58.1v-42.7h34
		c6.6,0,12.6-1.2,17.9-3.2l-18.5,45.9h32.7l6.9-18.1l31.1,0.1l7.2,18H238V350l15.5,37.4H290v-99.6h-27.9V325.4z M98.3,316.5
		c0,3.6-2.4,6.6-6.3,6.8H81.3v-47.1h10.6c3.9-0.3,6.1,3,6.3,6.9V316.5z M158,348.6l10.1-27l10.1,27.1L158,348.6z M475.6,387.3h31.2
		v-99.6h-31.2V387.3z M438.7,358.4c0,2.3-0.1,6.9-3.3,6.8l-7.9,0c-3.5,0-3.7-3.6-3.7-6.8l0.1-70.8h-32.4v79
		c0,19.4,20.4,20.8,20.4,20.8h35.4c17.7,0,17.4-20.4,17.4-20.4v-79.1h-26.6C438.4,328.9,438.7,358.4,438.7,358.4 M513.1,287.5v20.4
		H535v79.5h30.4v-79.5h22.2v-20.4H513.1z M364.4,287.2h-61.5V387h61.5c9.2,0,16.3-2.7,16.3-13.6v-72.7
		C380.5,292.4,373.5,287.2,364.4,287.2 M351.6,356.1c0,4.6-2.3,6.6-4.8,6.6H338v-54.6h7.9c3.4,0,5.7,2.9,5.7,6.6V356.1z"/>
	<path d="M603.9,306.1H602v-14h6.5c2.3,0,4.6,0.8,4.6,3.8c0,2.1-1,2.8-2,3.4c0.8,0.3,1.6,0.7,1.7,2.6l0.1,2.5c0,0.8,0.1,1.1,0.7,1.4
		v0.3h-2.3c-0.3-0.9-0.3-3-0.3-3.5c0-1.2-0.2-2.5-2.4-2.5h-4.6V306.1z M603.9,298.4h4.4c1.4,0,2.9-0.3,2.9-2.4
		c0-2.2-1.6-2.3-2.5-2.3h-4.7V298.4z"/>
	<path d="M618.2,299.1c0,5.7-4.6,10.4-10.4,10.4c-5.7,0-10.4-4.7-10.4-10.4c0-5.7,4.7-10.4,10.4-10.4
		C613.5,288.7,618.2,293.3,618.2,299.1 M607.8,286.6c-6.9,0-12.5,5.6-12.5,12.5c0,6.9,5.6,12.5,12.5,12.5c6.9,0,12.5-5.6,12.5-12.5
		C620.3,292.2,614.7,286.6,607.8,286.6"/>
</g>
</svg>
