<svg version="1.1" xmlns="http://www.w3.org/2000/svg" xmlns:xlink="http://www.w3.org/1999/xlink" x="0px"
	 y="0px" width="169px" height="25.8px" viewBox="0 0 169 25.8" style="enable-background:new 0 0 169 25.8;" xml:space="preserve">
<style type="text/css">
<![CDATA[
	.st0{fill:#c00;}
	.st1{fill:#595757;}
]]>
</style>
<g>
	<g>
		<path class="st1" d="M108.18,20.49v-1.54v-0.25c0-0.3,0.01-0.55,0.02-0.73c0.01-0.19,0.02-0.34,0.03-0.45
			c0.01-0.12,0.02-0.21,0.04-0.27c-0.84,0-1.47,0.13-1.91,0.38c-0.43,0.26-0.71,0.68-0.71,1.28v0.04v1.34v2.4v1.38v0.22h0.03
			c0.06,0.48,0.31,0.84,0.69,1.07c0.43,0.26,1.06,0.38,1.91,0.38c-0.02-0.06-0.03-0.15-0.04-0.27c-0.01-0.11-0.02-0.26-0.03-0.45
			c-0.01-0.19-0.02-0.44-0.02-0.74v-1.78V20.49z"/>
		<path class="st1" d="M103.46,24.59c-0.06-0.07-0.16-0.18-0.27-0.31l-1.71-1.92c0.69,0,1.28-0.24,1.79-0.72
			c0.5-0.48,0.75-1.06,0.75-1.74v-0.14c0-0.65-0.25-1.23-0.74-1.72c-0.49-0.5-1.07-0.74-1.73-0.74h-5.99v5.32v0.92v0l0,0
			c0,0.8,0.22,1.36,0.66,1.7c0.44,0.34,1.15,0.51,1.96,0.51c-0.01-0.08-0.03-0.2-0.04-0.36c-0.01-0.14-0.02-0.34-0.03-0.6
			c-0.01-0.25-0.01-0.58-0.01-0.98v-0.28v-1.17h0.85l0.67,0.75c0.32,0.37,0.61,0.69,0.86,0.96l0.1,0.11
			c0.06,0.06,0.11,0.13,0.16,0.19c0.01,0.01,0.02,0.02,0.03,0.04l0.17,0.19h0.01c0.21,0.23,0.41,0.43,0.59,0.58
			c0.24,0.2,0.48,0.35,0.71,0.45c0.23,0.1,0.47,0.16,0.73,0.19c0.23,0.03,0.35,0.03,0.5,0c0.16-0.03,0.29-0.06,0.4-0.1
			c0.11-0.05,0.45-0.14,0.53-0.22c-0.15-0.11-0.32-0.28-0.47-0.43C103.8,24.92,103.6,24.75,103.46,24.59z M98.1,21.1v-0.15v-2.39
			h2.56c0.22,0,0.41,0.08,0.58,0.24c0.16,0.16,0.25,0.78,0.25,1c0,0.23-0.08,0.86-0.24,1.04c-0.16,0.18-0.35,0.26-0.58,0.26H98.1z"
			/>
		<path class="st1" d="M57.61,18.77c0.16-0.16,0.36-0.24,0.58-0.24h2.2v0h0.07c0.46,0,0.82-0.19,1.07-0.49
			c0.25-0.3,0.21-0.3,0.38-0.76h-3.75v0h-0.86c-0.65,0-1.21,0.25-1.71,0.74c-0.49,0.49-0.74,1.06-0.74,1.71v3.52
			c0,0.66,0.25,1.23,0.74,1.72c0.5,0.49,1.07,0.74,1.73,0.74h0.84h2.24h0.07c0.46,0,0.82-0.19,1.07-0.49
			c0.25-0.3,0.21-0.31,0.38-0.76h-1.51h-2.2c-0.21,0-0.4-0.08-0.57-0.25c-0.17-0.17-0.25-0.36-0.25-0.57v-1.5h0.78h2.24h0.07
			c0.46,0,0.82-0.19,1.07-0.49c0.25-0.3,0.21-0.3,0.38-0.76h-1.51h-2.24h-0.78v-1.51C57.37,19.13,57.45,18.93,57.61,18.77z"/>
		<path class="st1" d="M73.45,18.77c0.16-0.16,0.36-0.24,0.58-0.24h2.2v0h0.07c0.46,0,0.82-0.19,1.07-0.49
			c0.25-0.3,0.21-0.3,0.37-0.76h-3.75v0h-0.86c-0.64,0-1.21,0.25-1.71,0.74c-0.49,0.49-0.74,1.06-0.74,1.71v3.52
			c0,0.66,0.25,1.23,0.74,1.72c0.49,0.49,1.07,0.74,1.72,0.74h0.84h2.24h0.07c0.46,0,0.82-0.19,1.07-0.49
			c0.25-0.3,0.21-0.31,0.37-0.76h-1.51h-2.2c-0.22,0-0.4-0.08-0.57-0.25c-0.17-0.17-0.25-0.36-0.25-0.57v-1.5h0.78h2.24h0.07
			c0.46,0,0.82-0.19,1.07-0.49c0.25-0.3,0.21-0.3,0.37-0.76h-1.51h-2.24H73.2v-1.51C73.2,19.13,73.28,18.93,73.45,18.77z"/>
		<path class="st1" d="M66.61,24.44c-0.22,0-0.41-0.08-0.58-0.25c-0.16-0.16-0.25-0.36-0.25-0.58v-3.13l0.01,0v-1.78
			c0-0.3,0.01-0.55,0.02-0.74c0.01-0.19,0.02-0.34,0.03-0.45c0.01-0.12,0.03-0.21,0.04-0.27c-0.84,0-1.48,0.13-1.92,0.38
			c-0.44,0.25-0.71,0.68-0.71,1.28v0.28v1.1v2.95c0,0.65,0.25,1.22,0.74,1.71c0.49,0.49,1.06,0.74,1.71,0.74h0.54h2.02h0.29
			c0.46,0,0.82-0.19,1.07-0.49c0.25-0.3,0.18-0.33,0.38-0.76h-1.73H66.61z"/>
		<path class="st1" d="M81.86,18.77c0.16-0.16,0.36-0.24,0.58-0.24h1.83v0h0.11c0.46,0,0.82-0.19,1.07-0.49
			c0.25-0.3,0.21-0.3,0.38-0.76h-3.75v0h-0.54c-0.65,0-1.22,0.25-1.71,0.74c-0.49,0.49-0.74,1.06-0.74,1.71v3.52
			c0,0.66,0.25,1.23,0.74,1.72c0.49,0.49,1.07,0.74,1.73,0.74h2.62v-0.01h0.21c0.46,0,0.82-0.19,1.07-0.49
			c0.25-0.3,0.21-0.3,0.38-0.76h-3.5c-0.17-0.02-0.33-0.1-0.46-0.24c-0.17-0.16-0.25-0.36-0.25-0.58v-4.27
			C81.62,19.13,81.7,18.93,81.86,18.77z"/>
		<path class="st1" d="M112.52,18.77c0.16-0.16,0.36-0.24,0.58-0.24h1.83v0h0.12c0.46,0,0.82-0.19,1.07-0.49
			c0.25-0.3,0.21-0.3,0.37-0.76h-3.75v0h-0.54c-0.65,0-1.22,0.25-1.71,0.74c-0.49,0.49-0.74,1.06-0.74,1.71v3.52
			c0,0.66,0.25,1.23,0.74,1.72c0.5,0.49,1.07,0.74,1.73,0.74h2.62v-0.01h0.21c0.46,0,0.82-0.19,1.07-0.49
			c0.25-0.3,0.21-0.3,0.37-0.76h-3.5c-0.17-0.02-0.33-0.1-0.46-0.24c-0.16-0.16-0.25-0.36-0.25-0.58v-4.27
			C112.28,19.13,112.36,18.93,112.52,18.77z"/>
		<path class="st1" d="M90.59,17.28h-0.06h-2.24h-0.07c-0.46,0-0.82,0.19-1.07,0.49s-0.21,0.3-0.38,0.76h1.51h1.03v4.04v0.92v0.49
			h0.04c0.08,0.54,0.28,0.95,0.62,1.22c0.44,0.34,1.15,0.51,1.96,0.51c-0.01-0.08-0.03-0.2-0.04-0.36c-0.01-0.15-0.02-0.35-0.03-0.6
			c-0.01-0.25-0.02-0.58-0.02-0.97v-1.64v-3.59h0.87v0h0.18c0.46,0,0.82-0.19,1.07-0.49c0.25-0.3,0.21-0.3,0.37-0.76L90.59,17.28
			L90.59,17.28z"/>
		<path class="st1" d="M146.78,17.29h-3.51c-0.66,0-1.24,0.24-1.73,0.73c-0.49,0.49-0.73,1.06-0.73,1.72v3.51
			c0,0.65,0.24,1.22,0.73,1.71c0.49,0.49,1.06,0.74,1.71,0.74h3.5c0.66,0,1.23-0.24,1.72-0.74c0.49-0.49,0.73-1.06,0.73-1.72v-3.51
			c0-0.65-0.24-1.22-0.73-1.71C148,17.53,147.43,17.29,146.78,17.29z M146.7,23.62c0,0.22-0.08,0.41-0.25,0.58
			c-0.16,0.17-0.35,0.25-0.57,0.25h-1.72c-0.22,0-0.41-0.08-0.58-0.25c-0.17-0.16-0.25-0.36-0.25-0.58v-4.26
			c0-0.22,0.08-0.42,0.24-0.58c0.16-0.16,0.36-0.24,0.58-0.24h1.72c0.22,0,0.41,0.08,0.57,0.25c0.16,0.16,0.25,0.35,0.25,0.57V23.62
			z"/>
		<path class="st1" d="M168.23,18.03c-0.49-0.49-1.06-0.74-1.72-0.74h-5.95v5.32v0.92v0.19h0.01c0.03,0.69,0.23,1.2,0.63,1.51
			c0.44,0.34,1.16,0.51,1.96,0.51c-0.01-0.08-0.03-0.2-0.04-0.36c-0.01-0.14-0.02-0.34-0.03-0.6c-0.01-0.25-0.01-0.58-0.01-0.98
			v-0.09v-0.24h3.45c0.65,0,1.22-0.25,1.71-0.74c0.49-0.49,0.73-1.06,0.73-1.7v-1.3C168.97,19.09,168.72,18.52,168.23,18.03z
			 M166.44,21.4c0,0.22-0.08,0.41-0.24,0.58c-0.16,0.17-0.35,0.25-0.57,0.25h-2.55v-3.68h2.55c0.22,0,0.41,0.08,0.57,0.25
			c0.16,0.16,0.24,0.46,0.24,0.68V21.4z"/>
		<path class="st1" d="M139.2,24.59c-0.06-0.07-0.15-0.17-0.26-0.29l-1.72-1.93c0.69,0,1.28-0.24,1.79-0.72
			c0.5-0.48,0.75-1.06,0.75-1.74v-0.14c0-0.65-0.25-1.23-0.74-1.72c-0.49-0.5-1.07-0.74-1.73-0.74h-5.99v5.32v0.92v0l0,0
			c0,0.8,0.22,1.36,0.66,1.7c0.44,0.34,1.15,0.51,1.96,0.51c-0.01-0.08-0.03-0.2-0.04-0.36c-0.01-0.14-0.02-0.34-0.03-0.6
			c-0.01-0.25-0.01-0.58-0.01-0.98v-0.28v-1.17h0.85l0.67,0.75h0c0.44,0.51,0.83,0.92,1.12,1.26c0.02,0.02,0.04,0.04,0.05,0.06
			l0.15,0.17h0c0.21,0.23,0.41,0.43,0.59,0.58c0.24,0.2,0.48,0.35,0.71,0.45c0.23,0.1,0.47,0.16,0.73,0.19
			c0.23,0.03,0.35,0.03,0.5,0c0.16-0.03,0.29-0.06,0.4-0.1c0.11-0.05,0.45-0.14,0.54-0.22c-0.15-0.11-0.32-0.28-0.47-0.43
			C139.53,24.92,139.33,24.75,139.2,24.59z M133.83,21.1v-0.15v-2.39h2.56c0.22,0,0.41,0.08,0.58,0.24c0.16,0.16,0.25,0.78,0.25,1
			c0,0.23-0.08,0.86-0.24,1.04c-0.16,0.18-0.35,0.26-0.58,0.26H133.83z"/>
		<path class="st1" d="M156.36,18.92v0.35v1.03v4.15h-2.55c-0.22,0-0.41-0.08-0.58-0.25c-0.17-0.17-0.25-0.36-0.25-0.58v-3.13v-1.23
			v-0.56c0-0.3,0.01-0.55,0.02-0.74c0.01-0.19,0.02-0.34,0.03-0.45c0.01-0.12,0.03-0.21,0.04-0.27c-0.84,0-1.48,0.13-1.92,0.38
			c-0.43,0.25-0.71,0.68-0.71,1.28v0.35v1.03v2.95c0,0.65,0.25,1.23,0.74,1.72c0.49,0.49,1.07,0.74,1.72,0.74h5.32
			c0,0,0.33-0.02,0.49-0.2c0.18-0.2,0.18-0.45,0.18-0.45v-4.57v-1.23v-0.56c0-0.3,0.01-0.55,0.02-0.74
			c0.01-0.19,0.01-0.34,0.03-0.45c0.01-0.12,0.03-0.21,0.04-0.27c-0.84,0-1.48,0.13-1.92,0.38
			C156.63,17.89,156.36,18.32,156.36,18.92z"/>
		<path class="st1" d="M128.49,18.55c0.46,0,0.82-0.19,1.07-0.5c0.25-0.3,0.21-0.3,0.37-0.76h-1.77h-1.98h-2.21
			c-0.65,0-1.22,0.24-1.71,0.73c-0.49,0.49-0.74,1.06-0.74,1.71v3.51c0,0.66,0.25,1.23,0.74,1.72c0.49,0.49,1.07,0.74,1.72,0.74
			h3.49c0.66,0,1.24-0.24,1.72-0.73c0.49-0.49,0.73-1.06,0.73-1.72v-2.38h-0.79h-2.31c-0.46,0-0.82,0.19-1.07,0.49
			c-0.25,0.3-0.21,0.3-0.38,0.76h2.01v1.5c0,0.22-0.08,0.41-0.25,0.58c-0.16,0.17-0.35,0.25-0.57,0.25h-1.72
			c-0.22,0-0.41-0.08-0.57-0.25c-0.17-0.16-0.25-0.36-0.25-0.58v-4.26c0-0.22,0.08-0.41,0.25-0.57c0.16-0.16,0.36-0.25,0.57-0.25
			h1.31v0H128.49z"/>
	</g>
	<g>
		<path class="st1" d="M59.25,5.25h-3.02V5.18v-1.2c0-0.33,0.12-1.39,0.36-1.63c0.24-0.24,0.52-0.51,0.85-0.51h1.81h2.31h0.43
			c0.67,0,1.19-0.28,1.56-0.72c0.37-0.44,0.22-0.47,0.55-1.12h-2.54h-2.31h-3.13c-0.95,0-1.78,0.36-2.51,1.08
			c-0.72,0.72-1.09,1.55-1.09,2.5v4.19v1.18V9.1c0,1.16,0.32,1.99,0.96,2.48c0.64,0.49,1.68,0.74,2.86,0.74
			c-0.02-0.12-0.04-0.29-0.06-0.52c-0.02-0.21-0.03-0.5-0.04-0.87c-0.01-0.37-0.01-0.84-0.01-2.05V7.09h3.02h2.14h0.6
			c0.67,0,1.19-0.27,1.56-0.71c0.37-0.44,0.22-0.42,0.55-1.14h-2.71H59.25z"/>
		<g>
			<path class="st1" d="M92.17,10.65c-0.09-0.1-0.23-0.26-0.39-0.44l-2.51-2.81c1,0,1.87-0.35,2.6-1.05c0.73-0.7,1.1-1.55,1.1-2.54
				V3.6c0-0.96-0.36-1.79-1.08-2.52C91.18,0.36,90.34,0,89.38,0h-8.74v7.76V9.1v0l0,0c0,1.16,0.32,1.99,0.96,2.48
				c0.64,0.49,1.68,0.74,2.86,0.74c-0.02-0.12-0.04-0.29-0.06-0.52c-0.02-0.21-0.03-0.5-0.04-0.87c-0.01-0.37-0.02-0.84-0.02-1.42
				V9.1V7.4h1.23l0.97,1.09h0c0.64,0.75,1.21,1.34,1.64,1.83c0.42,0.49,0.81,0.88,1.17,1.18c0.35,0.3,0.7,0.51,1.03,0.65
				c0.33,0.14,0.69,0.23,1.07,0.27c0.33,0.04,0.51,0.04,0.73,0c0.23-0.04,0.42-0.09,0.59-0.15c0.16-0.08,0.66-0.21,0.78-0.33
				c-0.22-0.15-0.47-0.41-0.69-0.62C92.67,11.14,92.37,10.88,92.17,10.65z M84.34,5.56V1.84h3.74c0.32,0,0.6,0.12,0.84,0.36
				c0.24,0.24,0.36,1.14,0.36,1.46c0,0.34-0.12,1.26-0.35,1.51c-0.23,0.26-0.51,0.38-0.85,0.38H84.34z"/>
			<path class="st1" d="M121.75,10.73c-0.04-0.05-0.1-0.11-0.17-0.19l-4.24-4.97l0.33-0.43l4.5-4.79c0,0-2-0.83-3.91,0.34
				c-0.78,0.48-0.68,0.47-1.44,1.3c-0.81,0.9-1.87,1.98-2.82,2.94h-0.56V4.72V2.69V2.13c0-0.44,0.02-0.8,0.03-1.07
				c0.01-0.28,0.02-0.5,0.04-0.66c0.02-0.18,0.04-0.31,0.06-0.4c-1.23,0-2.16,0.19-2.8,0.56c-0.63,0.37-1.04,1-1.04,1.87v0.25v1.76
				v3.32V9.1v0.21h0.01c0.04,1.05,0.35,1.81,0.95,2.28c0.64,0.49,1.68,0.74,2.86,0.74c-0.02-0.12-0.04-0.29-0.06-0.52
				c-0.02-0.21-0.03-0.5-0.04-0.87c-0.01-0.37-0.01-0.84-0.01-1.42l0-0.2h0V7.4h1.63l2.99,3.35c0,0,0.26,0.3,0.64,0.69
				c0.32,0.33,0.69,0.51,1.03,0.65c0.34,0.14,0.7,0.23,1.08,0.27c0.34,0.04,0.63,0.04,0.86,0c0.23-0.04,0.44-0.09,0.61-0.15
				c0.17-0.08,0.59-0.19,0.72-0.31c-0.22-0.15-0.44-0.33-0.65-0.54C122.16,11.19,121.98,10.97,121.75,10.73z"/>
			<path class="st1" d="M74.5,2.43v0.51v1.51v6.05h-3.73c-0.32,0-0.6-0.12-0.85-0.36c-0.24-0.24-0.36-0.52-0.36-0.84V4.72V2.94V2.13
				c0-0.44,0.02-0.8,0.03-1.07c0.01-0.28,0.02-0.5,0.04-0.66c0.02-0.18,0.04-0.31,0.06-0.4c-1.23,0-2.16,0.19-2.8,0.56
				c-0.63,0.37-1.04,1-1.04,1.87v0.51v1.51v4.3c0,0.95,0.36,1.79,1.08,2.51c0.72,0.72,1.56,1.08,2.51,1.08h7.77
				c0,0,0.47-0.03,0.72-0.3c0.26-0.29,0.26-0.65,0.26-0.65V4.72V2.94V2.13c0-0.44,0.02-0.8,0.03-1.07c0.01-0.28,0.02-0.5,0.04-0.66
				c0.02-0.18,0.04-0.31,0.06-0.4c-1.23,0-2.16,0.19-2.8,0.56C74.9,0.93,74.5,1.56,74.5,2.43z"/>
			<path class="st1" d="M103.41,2.43v0.51v1.51v6.05h-3.73c-0.32,0-0.6-0.12-0.84-0.36c-0.24-0.24-0.37-0.52-0.37-0.84V4.72V2.94
				V2.13c0-0.44,0.02-0.8,0.03-1.07c0.01-0.28,0.02-0.5,0.04-0.66c0.02-0.18,0.04-0.31,0.06-0.4c-1.23,0-2.16,0.19-2.79,0.56
				c-0.63,0.37-1.04,1-1.04,1.87v0.51v1.51v4.3c0,0.95,0.36,1.79,1.08,2.51c0.72,0.72,1.56,1.08,2.51,1.08h7.77
				c0,0,0.48-0.03,0.72-0.3c0.26-0.29,0.26-0.65,0.26-0.65V4.72V2.94V2.13c0-0.44,0.02-0.8,0.03-1.07c0.01-0.28,0.02-0.5,0.04-0.66
				c0.02-0.18,0.04-0.31,0.06-0.4c-1.23,0-2.16,0.19-2.8,0.56C103.81,0.93,103.41,1.56,103.41,2.43z"/>
			<path class="st1" d="M151.56,2.21v0.25v1.77v5.07c0,0.32-0.11,0.6-0.33,0.84c-0.22,0.24-0.48,0.36-0.77,0.36h-2.29V2V1.63
				c0,0,0-1.01-0.68-1.01c-0.07,0-1.93,0-1.93,0c-0.78,0-0.78,1.06-0.78,1.06V2v8.5h-2.29c-0.29,0-0.55-0.12-0.77-0.36
				c-0.22-0.24-0.33-0.52-0.33-0.84V4.22V2.45V2.21c0-0.88-0.35-1.5-0.93-1.87c-0.58-0.37-1.44-0.56-2.57-0.56
				c0.02,0.09,0.04,0.22,0.05,0.39c0.02,0.16,0.03,0.38,0.04,0.66C138,1.1,138,1.46,138,1.9v0.55V4.5v4.25
				c0,0.95,0.33,1.79,0.99,2.51c0.66,0.72,1.42,1.08,2.3,1.08h10.38c0.88,0,1.64-0.36,2.29-1.08c0.66-0.72,0.98-1.56,0.98-2.51V4.5
				V2.45V1.9c0-0.44,0-0.8,0.01-1.07c0.01-0.28,0.02-0.5,0.04-0.66c0.02-0.17,0.04-0.31,0.05-0.39c-1.13,0-1.99,0.19-2.57,0.56
				C151.91,0.7,151.56,1.33,151.56,2.21z"/>
			<path class="st1" d="M136.15,11.04c-0.01-0.37,0-1.06,0-1.64V3.6c0-0.96-0.36-1.8-1.08-2.52C134.35,0.36,133.51,0,132.55,0h-5.12
				c-0.97,0-1.82,0.36-2.54,1.08c-0.72,0.72-1.08,1.56-1.08,2.52v5.94h0c0,0.55,0.01,1.16,0,1.5c-0.01,0.37,0.01,0.66-0.01,0.87
				c-0.02,0.23-0.04,0.41-0.06,0.52c1.18,0,2.18-0.25,2.82-0.74c0.58-0.45,0.89-1.17,0.95-2.16h0.01V9.21V8.74h4.94v0.47V9.4h0.01
				c0.04,1.06,0.35,1.83,0.95,2.29c0.64,0.49,1.64,0.74,2.82,0.74c-0.02-0.11-0.04-0.29-0.06-0.52
				C136.15,11.7,136.16,11.41,136.15,11.04z M127.51,6.9V3.04c0-0.33,0.12-0.61,0.36-0.84c0.24-0.24,0.52-0.35,0.85-0.35h2.53
				c0.32,0,0.6,0.12,0.84,0.36c0.24,0.24,0.36,0.52,0.36,0.84V6.9H127.51z"/>
			<path class="st1" d="M168.94,11.91c-0.02-0.21,0-0.5-0.01-0.87c-0.01-0.37,0-1.06,0-1.64V3.6c0-0.96-0.36-1.8-1.08-2.52
				C167.13,0.36,166.29,0,165.32,0h-5.12c-0.97,0-1.82,0.36-2.54,1.08c-0.72,0.72-1.08,1.56-1.08,2.52v5.94l0,0
				c0,0.55,0.01,1.16,0,1.5c-0.01,0.37,0.01,0.66-0.01,0.87c-0.02,0.23-0.04,0.41-0.06,0.52c1.18,0,2.18-0.25,2.82-0.74
				c0.58-0.45,0.89-1.17,0.95-2.16h0.01V9.21V8.74h4.94v0.47V9.4h0.01c0.03,1.06,0.35,1.83,0.95,2.29c0.64,0.49,1.63,0.74,2.82,0.74
				C168.98,12.32,168.96,12.14,168.94,11.91z M160.29,6.9V3.04c0-0.33,0.12-0.61,0.36-0.84c0.24-0.24,0.52-0.35,0.85-0.35h2.53
				c0.32,0,0.6,0.12,0.84,0.36c0.24,0.24,0.36,0.52,0.36,0.84V6.9H160.29z"/>
		</g>
	</g>
	<g>
		<polygon class="st0" points="24.76,-0.37 0,19.09 10.02,19.09 24.76,4.6 39.5,19.09 49.52,19.09 		"/>
		<path class="st0" d="M37.56,19.25l-1.87-1.75l-2.99,1.59H16.83l-2.99-1.59l-1.87,1.75c-0.69,0.7-0.24,1.93,0.05,2.57
			c0.29,0.65,0.59,1.55,1.18,2.83s1.82,1.23,2.73,0.75c2.83-0.96,6.23-1.6,8.84-1.6c2.61,0,6.01,0.64,8.84,1.6
			c0.91,0.48,2.14,0.54,2.73-0.75c0.59-1.28,0.89-2.18,1.18-2.83C37.8,21.18,38.25,19.95,37.56,19.25z"/>
	</g>
</g>
</svg>
