<svg width="15" height="30" viewBox="0 0 15 30" fill="none" xmlns="http://www.w3.org/2000/svg">
<path d="M0 -1H15V11.2422C15 11.8497 14.86 12.4022 14.58 12.8997C14.3 13.3968 13.9159 13.8009 13.4279 14.112L8.04014 17.4926L9.16177 21.3275H14.3698L10.104 24.4937L11.7658 30L7.5 26.5878L3.23423 30L4.896 24.4937L0.630233 21.3275H5.83823L6.95986 17.4926L1.54204 14.1435C1.05403 13.8429 0.675081 13.4388 0.405205 12.9312C0.135068 12.4234 0 11.8604 0 11.2422V-1ZM2.33997 1.45983V11.2422C2.33997 11.3999 2.37754 11.5444 2.45268 11.6759C2.52756 11.8074 2.63 11.9152 2.76 11.9994L6.33001 14.2194V1.45983H2.33997ZM12.66 1.45983H8.66999V14.2194L12.24 11.9994C12.37 11.9152 12.4724 11.8074 12.5473 11.6759C12.6225 11.5444 12.66 11.3999 12.66 11.2422V1.45983Z" fill="white"/>
</svg>
