<svg width="26" height="26" viewBox="0 0 26 26" fill="none" xmlns="http://www.w3.org/2000/svg">
<path d="M3.64759 22.3378C2.5025 21.1855 1.6083 19.8603 0.964979 18.3625C0.32166 16.8647 0 15.3161 0 13.7169C0 12.113 0.306639 10.5217 0.919917 8.94274C1.53292 7.36383 2.52334 5.88918 3.89117 4.51879C4.8801 3.528 6.1183 2.71184 7.60575 2.0703C9.09321 1.42903 10.778 0.940553 12.66 0.604869C14.5421 0.268914 16.5931 0.0732789 18.8132 0.0179643C21.0336 -0.0370793 23.3627 0.0343697 25.8007 0.232309C25.9755 2.5642 26.0353 4.82994 25.9801 7.02951C25.9249 9.22881 25.7329 11.2795 25.4041 13.1816C25.075 15.084 24.5946 16.797 23.9629 18.3206C23.3309 19.8442 22.5174 21.1045 21.5222 22.1015C20.1815 23.4554 18.7476 24.4436 17.2206 25.0662C15.6937 25.6887 14.1471 26 12.5808 26C10.9389 26 9.32569 25.6777 7.74134 25.0332C6.157 24.3887 4.79242 23.4902 3.64759 22.3378ZM7.28869 22.0702C8.10468 22.5835 8.96709 22.96 9.87591 23.1997C10.7847 23.4397 11.6877 23.5596 12.5849 23.5596C13.8369 23.5596 15.0752 23.3114 16.2999 22.8149C17.5248 22.3185 18.6868 21.5092 19.7859 20.3872C20.2712 19.8991 20.7632 19.2145 21.262 18.3332C21.7605 17.452 22.1918 16.2996 22.5558 14.8761C22.9198 13.4525 23.1962 11.7307 23.3848 9.71064C23.5734 7.69057 23.6105 5.28411 23.496 2.49126C22.1699 2.43703 20.6693 2.42185 18.9943 2.44571C17.3195 2.46984 15.6489 2.6065 13.9822 2.85569C12.3159 3.10488 10.741 3.49547 9.25762 4.02747C7.77423 4.55919 6.57447 5.28397 5.65834 6.20182C4.451 7.41169 3.612 8.63661 3.14136 9.87659C2.67098 11.1166 2.43579 12.2924 2.43579 13.4041C2.43579 14.9413 2.73512 16.3315 3.33378 17.5747C3.93218 18.8176 4.55506 19.7405 5.20244 20.3433C6.11018 18.2993 7.38585 16.3382 9.02947 14.46C10.6731 12.5817 12.7556 10.9429 15.2769 9.54348C13.3696 11.21 11.7363 13.0402 10.3769 15.0343C9.01743 17.028 7.98803 19.3734 7.28869 22.0702Z" fill="white"/>
</svg>
