<svg width="17" height="22" viewBox="0 0 17 22" fill="none" xmlns="http://www.w3.org/2000/svg">
<path d="M2.47235 21.2227C1.92235 21.2227 1.45152 21.0268 1.05985 20.6352C0.668184 20.2435 0.472351 19.7727 0.472351 19.2227V9.22266C0.472351 8.67266 0.668184 8.20182 1.05985 7.81016C1.45152 7.41849 1.92235 7.22266 2.47235 7.22266H3.47235V5.22266C3.47235 3.83932 3.95985 2.66016 4.93485 1.68516C5.90985 0.710156 7.08902 0.222656 8.47235 0.222656C9.85568 0.222656 11.0349 0.710156 12.0099 1.68516C12.9849 2.66016 13.4724 3.83932 13.4724 5.22266V7.22266H14.4724C15.0224 7.22266 15.4932 7.41849 15.8849 7.81016C16.2765 8.20182 16.4724 8.67266 16.4724 9.22266V19.2227C16.4724 19.7727 16.2765 20.2435 15.8849 20.6352C15.4932 21.0268 15.0224 21.2227 14.4724 21.2227H2.47235ZM2.47235 19.2227H14.4724V9.22266H2.47235V19.2227ZM8.47235 16.2227C9.02235 16.2227 9.49319 16.0268 9.88485 15.6352C10.2765 15.2435 10.4724 14.7727 10.4724 14.2227C10.4724 13.6727 10.2765 13.2018 9.88485 12.8102C9.49319 12.4185 9.02235 12.2227 8.47235 12.2227C7.92235 12.2227 7.45152 12.4185 7.05985 12.8102C6.66818 13.2018 6.47235 13.6727 6.47235 14.2227C6.47235 14.7727 6.66818 15.2435 7.05985 15.6352C7.45152 16.0268 7.92235 16.2227 8.47235 16.2227ZM5.47235 7.22266H11.4724V5.22266C11.4724 4.38932 11.1807 3.68099 10.5974 3.09766C10.014 2.51432 9.30568 2.22266 8.47235 2.22266C7.63902 2.22266 6.93068 2.51432 6.34735 3.09766C5.76402 3.68099 5.47235 4.38932 5.47235 5.22266V7.22266Z" fill="#00AEFF"/>
</svg>
