<svg width="958" height="290" viewBox="0 0 958 290" fill="none" xmlns="http://www.w3.org/2000/svg">
    <rect x="5" y="5" width="140" height="140" stroke="#5A7DF5" stroke-width="10" />
    <rect x="145" y="5" width="140" height="140" stroke="#5A7DF5" stroke-width="10" />
    <rect x="145" y="145" width="140" height="140" stroke="#5A7DF5" stroke-width="10" />
    <path d="M191.472 171.605H204.369C206.174 171.605 208.163 171.713 210.336 171.927C212.508 172.141 214.666 172.631 216.808 173.396C218.95 174.13 220.908 175.308 222.683 176.93C224.457 178.521 225.88 180.709 226.951 183.493C228.053 186.247 228.604 189.751 228.604 194.004V195.978C228.604 207.728 225.069 215.285 218.001 218.651L230.898 250H218.23L207.444 220.671H203.359V250H191.472V171.605ZM204.92 212.088C209.265 212.088 212.248 211.078 213.87 209.059C215.522 207.039 216.349 203.398 216.349 198.135V191.938C216.349 187.899 215.568 184.931 214.008 183.034C212.478 181.137 209.449 180.188 204.92 180.188H203.359V212.088H204.92Z" fill="white" />
    <path d="M191.472 37.6055H221.443V46.9688H203.359V70.4229H217.542V79.7861H203.359V106.637H221.443V116H191.472V37.6055Z" fill="white" />
    <path d="M42.4688 37.6055H53.8516L59.1299 84.9727L59.7266 96.0342H60.874L61.9756 84.9727L70.4209 37.6055H79.9219L88 84.9727L88.918 96.0342H90.1113L90.6621 84.9727L95.4814 37.6055H106.91L95.9404 116H83.8691L77.3975 78.3174L75.3779 61.9316H74.46L72.4863 78.3174L65.6934 116H53.7598L42.4688 37.6055Z" fill="white" />
    <path d="M245.25 85.8438C245.25 85.7604 245.917 85.2812 247.25 84.4062C248.604 83.5312 250.146 82.7396 251.875 82.0312C253.604 81.3021 255.323 80.9375 257.031 80.9375C260.094 80.9375 262.479 81.9479 264.188 83.9688C265.896 85.9896 266.75 88.7708 266.75 92.3125V109.281L271.25 110.875V116H253.625V110.875L257.156 109.281V94.0625C257.156 92.5625 256.76 91.3333 255.969 90.375C255.177 89.4167 254.125 88.9375 252.812 88.9375C251.625 88.9375 250.521 89.2083 249.5 89.75C248.5 90.2708 247.656 90.8542 246.969 91.5C246.302 92.125 245.969 92.4792 245.969 92.5625V109.281L249.469 110.875V116H231.25V110.875L236.375 109.281V88.4688L231.25 86.875V81.75L244.812 81.4375L245.25 85.8438ZM274.095 123.031C274.095 121.406 274.595 120.021 275.595 118.875C276.595 117.729 277.71 116.833 278.939 116.188C280.189 115.542 280.814 115.271 280.814 115.375C280.814 115.458 280.46 115.365 279.751 115.094C279.043 114.802 278.397 114.344 277.814 113.719C277.251 113.073 276.97 112.208 276.97 111.125C276.97 109.812 278.085 107.406 280.314 103.906C279.085 103.094 277.949 101.896 276.908 100.312C275.887 98.7292 275.376 96.5938 275.376 93.9062C275.376 89.6771 276.793 86.4375 279.626 84.1875C282.46 81.9375 286.158 80.8125 290.72 80.8125C293.574 80.8125 296.095 81.3229 298.283 82.3438L309.283 82.0938V87.1875L304.033 88.0938C304.074 88.2604 304.262 88.7917 304.595 89.6875C304.949 90.5833 305.126 91.7396 305.126 93.1562C305.126 97.5938 303.741 100.896 300.97 103.062C298.199 105.208 294.47 106.281 289.783 106.281C288.97 106.281 288.251 106.229 287.626 106.125C287.001 106 286.626 105.938 286.501 105.938L286.251 110.25H295.72C299.824 110.25 302.98 111.104 305.189 112.812C307.418 114.521 308.533 116.969 308.533 120.156C308.533 123.823 307.022 126.76 304.001 128.969C301.001 131.198 296.533 132.312 290.595 132.312C285.22 132.312 281.126 131.604 278.314 130.188C275.501 128.792 274.095 126.406 274.095 123.031ZM290.408 87.4062C288.533 87.4062 287.158 87.9062 286.283 88.9062C285.408 89.9062 284.97 91.4271 284.97 93.4688C284.97 95.4688 285.387 97.0417 286.22 98.1875C287.053 99.3125 288.345 99.875 290.095 99.875C292.053 99.875 293.449 99.3646 294.283 98.3438C295.116 97.3229 295.533 95.6979 295.533 93.4688C295.533 91.4271 295.116 89.9062 294.283 88.9062C293.449 87.9062 292.158 87.4062 290.408 87.4062ZM286.439 117.281C286.272 117.365 285.939 117.562 285.439 117.875C284.96 118.208 284.491 118.677 284.033 119.281C283.595 119.906 283.376 120.625 283.376 121.438C283.376 122.979 284.001 124 285.251 124.5C286.522 125.021 288.564 125.281 291.376 125.281C294.272 125.281 296.355 124.938 297.626 124.25C298.918 123.562 299.564 122.458 299.564 120.938C299.564 119.562 299.064 118.604 298.064 118.062C297.064 117.542 295.428 117.281 293.158 117.281H286.439ZM321.534 100.844C321.7 103.406 322.471 105.406 323.846 106.844C325.242 108.26 327.055 108.969 329.284 108.969C330.867 108.969 332.45 108.75 334.034 108.312C335.638 107.854 336.961 107.396 338.003 106.938C339.065 106.458 339.742 106.125 340.034 105.938L342.784 111.25C342.784 111.333 342.034 111.865 340.534 112.844C339.055 113.802 337.232 114.677 335.065 115.469C332.919 116.24 330.628 116.625 328.19 116.625C322.773 116.625 318.648 115.125 315.815 112.125C312.982 109.125 311.565 104.875 311.565 99.375C311.565 95.6667 312.242 92.4167 313.596 89.625C314.971 86.8125 316.94 84.6458 319.503 83.125C322.065 81.5833 325.107 80.8125 328.628 80.8125C333.315 80.8125 336.909 82.1562 339.409 84.8438C341.909 87.5312 343.159 91.1979 343.159 95.8438C343.159 96.8646 343.107 97.8542 343.003 98.8125C342.898 99.7708 342.825 100.375 342.784 100.625L321.534 100.844ZM328.003 88.4688C326.253 88.4688 324.825 89.0625 323.721 90.25C322.617 91.4167 321.93 92.9583 321.659 94.875H333.253C333.253 92.9583 332.825 91.4167 331.971 90.25C331.117 89.0625 329.794 88.4688 328.003 88.4688ZM360.41 85.8438C360.41 85.7604 361.077 85.2812 362.41 84.4062C363.764 83.5312 365.306 82.7396 367.035 82.0312C368.764 81.3021 370.483 80.9375 372.191 80.9375C375.254 80.9375 377.639 81.9479 379.348 83.9688C381.056 85.9896 381.91 88.7708 381.91 92.3125V109.281L386.41 110.875V116H368.785V110.875L372.316 109.281V94.0625C372.316 92.5625 371.92 91.3333 371.129 90.375C370.337 89.4167 369.285 88.9375 367.973 88.9375C366.785 88.9375 365.681 89.2083 364.66 89.75C363.66 90.2708 362.816 90.8542 362.129 91.5C361.462 92.125 361.129 92.4792 361.129 92.5625V109.281L364.629 110.875V116H346.41V110.875L351.535 109.281V88.4688L346.41 86.875V81.75L359.973 81.4375L360.41 85.8438ZM402.693 85.1562C404.005 84.0521 405.599 83.0521 407.474 82.1562C409.37 81.2604 411.359 80.8125 413.443 80.8125C416.693 80.8125 419.182 81.8229 420.911 83.8438C422.64 85.8646 423.505 88.6875 423.505 92.3125V109.281L427.974 110.875V116H410.568V110.875L413.88 109.344V93.8438C413.88 90.4271 412.474 88.7292 409.661 88.75C408.599 88.75 407.557 89.0104 406.536 89.5312C405.515 90.0312 404.661 90.5521 403.974 91.0938C403.286 91.6146 402.859 91.9583 402.693 92.125V109.281L406.099 110.875V116H387.974V110.875L393.099 109.281V73.3125L387.974 72.0312V66.9062L402.693 66.4062V85.1562ZM451.194 111.844C451.194 111.927 450.642 112.396 449.538 113.25C448.433 114.104 447.11 114.885 445.569 115.594C444.027 116.281 442.444 116.625 440.819 116.625C437.694 116.625 435.246 115.76 433.475 114.031C431.725 112.281 430.85 109.802 430.85 106.594C430.85 102.927 432.163 100.25 434.788 98.5625C437.413 96.875 441.235 96.0312 446.256 96.0312H450.756V92.5C450.756 89.375 449.11 87.8229 445.819 87.8438C444.84 87.8438 443.933 87.9167 443.1 88.0625C442.267 88.2083 441.6 88.3646 441.1 88.5312C440.621 88.6771 440.319 88.7708 440.194 88.8125L439.225 92.8438H433.475L433.038 83.375C433.413 83.25 434.329 82.9792 435.788 82.5625C437.267 82.1458 439.027 81.75 441.069 81.375C443.131 81 445.079 80.8125 446.913 80.8125C450.204 80.8125 452.819 81.2292 454.756 82.0625C456.694 82.875 458.11 84.2083 459.006 86.0625C459.902 87.8958 460.35 90.3646 460.35 93.4688V109.281L465.163 110.438V115.562L452.35 116L451.194 111.844ZM440.131 105.625C440.131 106.875 440.454 107.833 441.1 108.5C441.767 109.146 442.704 109.469 443.913 109.469C444.933 109.469 445.944 109.198 446.944 108.656C447.944 108.094 448.788 107.521 449.475 106.938C450.163 106.333 450.59 105.938 450.756 105.75V101.469H447.1C444.621 101.469 442.84 101.802 441.756 102.469C440.673 103.135 440.131 104.188 440.131 105.625ZM481.695 85.8438C481.695 85.7604 482.195 85.2708 483.195 84.375C484.195 83.4792 485.351 82.6667 486.664 81.9375C487.997 81.1875 489.31 80.8125 490.601 80.8125C491.622 80.8125 492.58 80.8958 493.476 81.0625C494.372 81.2292 495.07 81.4062 495.57 81.5938C496.091 81.7812 496.414 81.8958 496.539 81.9375L496.039 94.25H490.289L489.32 88.8125C488.216 88.8125 487.143 89.0833 486.101 89.625C485.08 90.1458 484.205 90.7292 483.476 91.375C482.768 92 482.414 92.3333 482.414 92.375V109.281L488.82 110.875V116H467.695V110.875L472.82 109.281V88.4688L467.695 86.875V81.75L481.133 81.4375L481.695 85.8438ZM501.821 70.875C501.821 69.125 502.363 67.7292 503.446 66.6875C504.53 65.6458 505.821 65.125 507.321 65.125C510.905 65.125 512.696 67.0417 512.696 70.875C512.696 72.6667 512.144 74.0938 511.04 75.1562C509.957 76.1979 508.717 76.7188 507.321 76.7188C505.571 76.7188 504.217 76.2188 503.259 75.2188C502.3 74.1979 501.821 72.75 501.821 70.875ZM517.04 110.875V116H497.853V110.875L502.978 109.281V88.4688L497.853 86.875V81.75L512.571 81.4375V109.281L517.04 110.875ZM540.604 111.844C540.604 111.927 540.052 112.396 538.948 113.25C537.843 114.104 536.52 114.885 534.979 115.594C533.437 116.281 531.854 116.625 530.229 116.625C527.104 116.625 524.656 115.76 522.885 114.031C521.135 112.281 520.26 109.802 520.26 106.594C520.26 102.927 521.573 100.25 524.198 98.5625C526.823 96.875 530.645 96.0312 535.666 96.0312H540.166V92.5C540.166 89.375 538.52 87.8229 535.229 87.8438C534.25 87.8438 533.343 87.9167 532.51 88.0625C531.677 88.2083 531.01 88.3646 530.51 88.5312C530.031 88.6771 529.729 88.7708 529.604 88.8125L528.635 92.8438H522.885L522.448 83.375C522.823 83.25 523.739 82.9792 525.198 82.5625C526.677 82.1458 528.437 81.75 530.479 81.375C532.541 81 534.489 80.8125 536.323 80.8125C539.614 80.8125 542.229 81.2292 544.166 82.0625C546.104 82.875 547.52 84.2083 548.416 86.0625C549.312 87.8958 549.76 90.3646 549.76 93.4688V109.281L554.573 110.438V115.562L541.76 116L540.604 111.844ZM529.541 105.625C529.541 106.875 529.864 107.833 530.51 108.5C531.177 109.146 532.114 109.469 533.323 109.469C534.343 109.469 535.354 109.198 536.354 108.656C537.354 108.094 538.198 107.521 538.885 106.938C539.573 106.333 540 105.938 540.166 105.75V101.469H536.51C534.031 101.469 532.25 101.802 531.166 102.469C530.083 103.135 529.541 104.188 529.541 105.625ZM580.856 100.844C581.023 103.406 581.794 105.406 583.169 106.844C584.565 108.26 586.377 108.969 588.606 108.969C590.19 108.969 591.773 108.75 593.356 108.312C594.96 107.854 596.283 107.396 597.325 106.938C598.388 106.458 599.065 106.125 599.356 105.938L602.106 111.25C602.106 111.333 601.356 111.865 599.856 112.844C598.377 113.802 596.554 114.677 594.388 115.469C592.242 116.24 589.95 116.625 587.513 116.625C582.096 116.625 577.971 115.125 575.138 112.125C572.304 109.125 570.888 104.875 570.888 99.375C570.888 95.6667 571.565 92.4167 572.919 89.625C574.294 86.8125 576.263 84.6458 578.825 83.125C581.388 81.5833 584.429 80.8125 587.95 80.8125C592.638 80.8125 596.231 82.1562 598.731 84.8438C601.231 87.5312 602.481 91.1979 602.481 95.8438C602.481 96.8646 602.429 97.8542 602.325 98.8125C602.221 99.7708 602.148 100.375 602.106 100.625L580.856 100.844ZM587.325 88.4688C585.575 88.4688 584.148 89.0625 583.044 90.25C581.94 91.4167 581.252 92.9583 580.981 94.875H592.575C592.575 92.9583 592.148 91.4167 591.294 90.25C590.44 89.0625 589.117 88.4688 587.325 88.4688ZM631.484 78.5625H625.39L623.796 84.625H617.89V70.875H655.015V84.625H649.078L647.484 78.5625H641.39V108.625L647.484 110.562V116H625.39V110.562L631.484 108.625V78.5625ZM666.579 100.844C666.745 103.406 667.516 105.406 668.891 106.844C670.287 108.26 672.1 108.969 674.329 108.969C675.912 108.969 677.495 108.75 679.079 108.312C680.683 107.854 682.006 107.396 683.047 106.938C684.11 106.458 684.787 106.125 685.079 105.938L687.829 111.25C687.829 111.333 687.079 111.865 685.579 112.844C684.1 113.802 682.277 114.677 680.11 115.469C677.964 116.24 675.672 116.625 673.235 116.625C667.818 116.625 663.693 115.125 660.86 112.125C658.027 109.125 656.61 104.875 656.61 99.375C656.61 95.6667 657.287 92.4167 658.641 89.625C660.016 86.8125 661.985 84.6458 664.547 83.125C667.11 81.5833 670.152 80.8125 673.672 80.8125C678.36 80.8125 681.954 82.1562 684.454 84.8438C686.954 87.5312 688.204 91.1979 688.204 95.8438C688.204 96.8646 688.152 97.8542 688.047 98.8125C687.943 99.7708 687.87 100.375 687.829 100.625L666.579 100.844ZM673.047 88.4688C671.297 88.4688 669.87 89.0625 668.766 90.25C667.662 91.4167 666.975 92.9583 666.704 94.875H678.297C678.297 92.9583 677.87 91.4167 677.016 90.25C676.162 89.0625 674.839 88.4688 673.047 88.4688ZM722.455 111.188C721.017 112.479 719.132 113.708 716.799 114.875C714.486 116.042 711.788 116.625 708.705 116.625C703.455 116.625 699.372 115.094 696.455 112.031C693.538 108.969 692.08 104.698 692.08 99.2188C692.08 93.5104 693.622 89.0208 696.705 85.75C699.809 82.4583 704.132 80.8125 709.674 80.8125C711.299 80.8125 712.934 80.9792 714.58 81.3125C716.247 81.6458 717.632 81.9896 718.736 82.3438C719.861 82.6771 720.57 82.9062 720.861 83.0312L720.549 93.5312H714.799L713.892 89C713.684 88.9583 713.163 88.8646 712.33 88.7188C711.497 88.5521 710.549 88.4688 709.486 88.4688C707.132 88.4688 705.288 89.2708 703.955 90.875C702.642 92.4792 701.986 94.8333 701.986 97.9375C701.986 101.479 702.653 104.208 703.986 106.125C705.34 108.021 707.34 108.969 709.986 108.969C711.653 108.969 713.111 108.719 714.361 108.219C715.632 107.698 716.695 107.167 717.549 106.625C718.403 106.083 718.976 105.729 719.267 105.562L722.455 111.188ZM738.425 85.8438C738.425 85.7604 739.092 85.2812 740.425 84.4062C741.779 83.5312 743.321 82.7396 745.05 82.0312C746.779 81.3021 748.498 80.9375 750.206 80.9375C753.269 80.9375 755.654 81.9479 757.362 83.9688C759.071 85.9896 759.925 88.7708 759.925 92.3125V109.281L764.425 110.875V116H746.8V110.875L750.331 109.281V94.0625C750.331 92.5625 749.935 91.3333 749.144 90.375C748.352 89.4167 747.3 88.9375 745.987 88.9375C744.8 88.9375 743.696 89.2083 742.675 89.75C741.675 90.2708 740.831 90.8542 740.144 91.5C739.477 92.125 739.144 92.4792 739.144 92.5625V109.281L742.644 110.875V116H724.425V110.875L729.55 109.281V88.4688L724.425 86.875V81.75L737.987 81.4375L738.425 85.8438ZM784.239 80.8125C789.385 80.8125 793.353 82.3125 796.145 85.3125C798.958 88.3125 800.364 92.5729 800.364 98.0938C800.364 101.885 799.655 105.177 798.239 107.969C796.843 110.76 794.864 112.906 792.301 114.406C789.739 115.885 786.728 116.625 783.27 116.625C772.395 116.625 766.958 110.76 766.958 99.0312C766.958 95.2396 767.666 91.9792 769.083 89.25C770.52 86.5208 772.541 84.4375 775.145 83C777.749 81.5417 780.78 80.8125 784.239 80.8125ZM783.895 88.4688C781.478 88.4688 779.697 89.25 778.551 90.8125C777.426 92.375 776.864 95.0104 776.864 98.7188C776.864 102.26 777.395 104.854 778.458 106.5C779.541 108.146 781.249 108.969 783.583 108.969C785.937 108.969 787.666 108.146 788.77 106.5C789.874 104.854 790.426 102.156 790.426 98.4062C790.426 95.0729 789.905 92.5833 788.864 90.9375C787.822 89.2917 786.166 88.4688 783.895 88.4688ZM823.115 110.875V116H802.584V110.875L807.709 109.281V73.3125L802.584 72.0312V66.9062L817.365 66.4062V109.281L823.115 110.875ZM841.679 80.8125C846.825 80.8125 850.793 82.3125 853.585 85.3125C856.398 88.3125 857.804 92.5729 857.804 98.0938C857.804 101.885 857.095 105.177 855.679 107.969C854.283 110.76 852.304 112.906 849.741 114.406C847.179 115.885 844.168 116.625 840.71 116.625C829.835 116.625 824.398 110.76 824.398 99.0312C824.398 95.2396 825.106 91.9792 826.523 89.25C827.96 86.5208 829.981 84.4375 832.585 83C835.189 81.5417 838.22 80.8125 841.679 80.8125ZM841.335 88.4688C838.918 88.4688 837.137 89.25 835.991 90.8125C834.866 92.375 834.304 95.0104 834.304 98.7188C834.304 102.26 834.835 104.854 835.898 106.5C836.981 108.146 838.689 108.969 841.023 108.969C843.377 108.969 845.106 108.146 846.21 106.5C847.314 104.854 847.866 102.156 847.866 98.4062C847.866 95.0729 847.345 92.5833 846.304 90.9375C845.262 89.2917 843.606 88.4688 841.335 88.4688ZM861.305 123.031C861.305 121.406 861.805 120.021 862.805 118.875C863.805 117.729 864.92 116.833 866.149 116.188C867.399 115.542 868.024 115.271 868.024 115.375C868.024 115.458 867.67 115.365 866.961 115.094C866.253 114.802 865.607 114.344 865.024 113.719C864.461 113.073 864.18 112.208 864.18 111.125C864.18 109.812 865.295 107.406 867.524 103.906C866.295 103.094 865.159 101.896 864.117 100.312C863.097 98.7292 862.586 96.5938 862.586 93.9062C862.586 89.6771 864.003 86.4375 866.836 84.1875C869.67 81.9375 873.367 80.8125 877.93 80.8125C880.784 80.8125 883.305 81.3229 885.492 82.3438L896.492 82.0938V87.1875L891.242 88.0938C891.284 88.2604 891.472 88.7917 891.805 89.6875C892.159 90.5833 892.336 91.7396 892.336 93.1562C892.336 97.5938 890.951 100.896 888.18 103.062C885.409 105.208 881.68 106.281 876.992 106.281C876.18 106.281 875.461 106.229 874.836 106.125C874.211 106 873.836 105.938 873.711 105.938L873.461 110.25H882.93C887.034 110.25 890.19 111.104 892.399 112.812C894.628 114.521 895.742 116.969 895.742 120.156C895.742 123.823 894.232 126.76 891.211 128.969C888.211 131.198 883.742 132.312 877.805 132.312C872.43 132.312 868.336 131.604 865.524 130.188C862.711 128.792 861.305 126.406 861.305 123.031ZM877.617 87.4062C875.742 87.4062 874.367 87.9062 873.492 88.9062C872.617 89.9062 872.18 91.4271 872.18 93.4688C872.18 95.4688 872.597 97.0417 873.43 98.1875C874.263 99.3125 875.555 99.875 877.305 99.875C879.263 99.875 880.659 99.3646 881.492 98.3438C882.326 97.3229 882.742 95.6979 882.742 93.4688C882.742 91.4271 882.326 89.9062 881.492 88.9062C880.659 87.9062 879.367 87.4062 877.617 87.4062ZM873.649 117.281C873.482 117.365 873.149 117.562 872.649 117.875C872.17 118.208 871.701 118.677 871.242 119.281C870.805 119.906 870.586 120.625 870.586 121.438C870.586 122.979 871.211 124 872.461 124.5C873.732 125.021 875.774 125.281 878.586 125.281C881.482 125.281 883.565 124.938 884.836 124.25C886.128 123.562 886.774 122.458 886.774 120.938C886.774 119.562 886.274 118.604 885.274 118.062C884.274 117.542 882.638 117.281 880.367 117.281H873.649ZM902.744 70.875C902.744 69.125 903.285 67.7292 904.369 66.6875C905.452 65.6458 906.744 65.125 908.244 65.125C911.827 65.125 913.619 67.0417 913.619 70.875C913.619 72.6667 913.067 74.0938 911.963 75.1562C910.879 76.1979 909.64 76.7188 908.244 76.7188C906.494 76.7188 905.14 76.2188 904.181 75.2188C903.223 74.1979 902.744 72.75 902.744 70.875ZM917.963 110.875V116H898.775V110.875L903.9 109.281V88.4688L898.775 86.875V81.75L913.494 81.4375V109.281L917.963 110.875ZM941.526 111.844C941.526 111.927 940.974 112.396 939.87 113.25C938.766 114.104 937.443 114.885 935.901 115.594C934.36 116.281 932.776 116.625 931.151 116.625C928.026 116.625 925.578 115.76 923.807 114.031C922.057 112.281 921.182 109.802 921.182 106.594C921.182 102.927 922.495 100.25 925.12 98.5625C927.745 96.875 931.568 96.0312 936.589 96.0312H941.089V92.5C941.089 89.375 939.443 87.8229 936.151 87.8438C935.172 87.8438 934.266 87.9167 933.432 88.0625C932.599 88.2083 931.932 88.3646 931.432 88.5312C930.953 88.6771 930.651 88.7708 930.526 88.8125L929.557 92.8438H923.807L923.37 83.375C923.745 83.25 924.662 82.9792 926.12 82.5625C927.599 82.1458 929.36 81.75 931.401 81.375C933.464 81 935.412 80.8125 937.245 80.8125C940.537 80.8125 943.151 81.2292 945.089 82.0625C947.026 82.875 948.443 84.2083 949.339 86.0625C950.235 87.8958 950.682 90.3646 950.682 93.4688V109.281L955.495 110.438V115.562L942.682 116L941.526 111.844ZM930.464 105.625C930.464 106.875 930.787 107.833 931.432 108.5C932.099 109.146 933.037 109.469 934.245 109.469C935.266 109.469 936.276 109.198 937.276 108.656C938.276 108.094 939.12 107.521 939.807 106.938C940.495 106.333 940.922 105.938 941.089 105.75V101.469H937.432C934.953 101.469 933.172 101.802 932.089 102.469C931.005 103.135 930.464 104.188 930.464 105.625Z" fill="white" />
    <path d="M420.048 150.912H401.664V159.432H417.504V165.864H401.664V180H393.456V144.48H420.048V150.912ZM433.814 153.336C436.902 153.336 439.382 153.696 441.254 154.416C443.126 155.136 444.51 156.328 445.406 157.992C446.302 159.64 446.75 161.896 446.75 164.76V180H440.126L439.574 177.48H439.214C438.35 178.488 437.278 179.24 435.998 179.736C434.718 180.232 433.302 180.48 431.75 180.48C429.814 180.48 428.158 180.16 426.782 179.52C425.406 178.88 424.358 177.984 423.638 176.832C422.934 175.68 422.582 174.352 422.582 172.848C422.582 170.352 423.51 168.424 425.366 167.064C427.238 165.688 430.166 164.872 434.15 164.616L438.926 164.256V164.16C438.926 162.912 438.71 161.928 438.278 161.208C437.862 160.488 437.182 159.976 436.238 159.672C435.31 159.368 434.046 159.216 432.446 159.216C431.31 159.216 430.054 159.312 428.678 159.504C427.302 159.696 426.022 159.976 424.838 160.344V154.512C426.182 154.128 427.654 153.84 429.254 153.648C430.854 153.44 432.374 153.336 433.814 153.336ZM434.27 175.128C435.118 175.128 435.942 174.992 436.742 174.72C437.558 174.448 438.286 174.016 438.926 173.424V168.624L434.894 168.936C433.342 169.064 432.222 169.392 431.534 169.92C430.862 170.448 430.526 171.192 430.526 172.152C430.526 173.096 430.838 173.832 431.462 174.36C432.102 174.872 433.038 175.128 434.27 175.128ZM462.668 180.504C460.988 180.504 459.356 180.4 457.772 180.192C456.188 180 454.732 179.704 453.404 179.304V173.712C454.796 174.112 456.276 174.416 457.844 174.624C459.412 174.832 460.98 174.936 462.548 174.936C464.372 174.936 465.676 174.72 466.46 174.288C467.244 173.856 467.636 173.216 467.636 172.368C467.636 171.728 467.452 171.24 467.084 170.904C466.716 170.552 466.068 170.296 465.14 170.136L460.436 169.392C457.732 168.96 455.78 168.12 454.58 166.872C453.38 165.624 452.78 163.936 452.78 161.808C452.78 159.168 453.884 157.096 456.092 155.592C458.316 154.088 461.636 153.336 466.052 153.336C467.412 153.336 468.764 153.416 470.108 153.576C471.468 153.736 472.676 153.96 473.732 154.248V159.84C472.644 159.536 471.436 159.304 470.108 159.144C468.796 158.968 467.484 158.88 466.172 158.88C463.996 158.88 462.476 159.12 461.612 159.6C460.748 160.08 460.316 160.72 460.316 161.52C460.316 162.096 460.5 162.56 460.868 162.912C461.236 163.248 461.876 163.496 462.788 163.656L467.492 164.4C470.1 164.816 472.028 165.616 473.276 166.8C474.54 167.968 475.172 169.712 475.172 172.032C475.172 173.792 474.684 175.304 473.708 176.568C472.748 177.832 471.332 178.808 469.46 179.496C467.588 180.168 465.324 180.504 462.668 180.504ZM495.399 174.048C496.135 174.048 497.103 173.936 498.303 173.712V179.904C497.535 180.08 496.695 180.224 495.783 180.336C494.871 180.448 493.999 180.504 493.167 180.504C486.303 180.504 482.871 177.208 482.871 170.616V160.056H478.335V153.744H482.871L484.311 144.48H490.887V153.744H498.159V160.056H490.887V169.176C490.887 170.392 491.039 171.36 491.343 172.08C491.663 172.784 492.151 173.288 492.807 173.592C493.463 173.896 494.327 174.048 495.399 174.048ZM527.408 169.104H510.224C510.32 170.496 510.648 171.592 511.208 172.392C511.768 173.176 512.648 173.752 513.848 174.12C515.064 174.472 516.728 174.648 518.84 174.648C521 174.648 523.336 174.384 525.848 173.856V179.616C523.112 180.208 520.376 180.504 517.64 180.504C514.12 180.504 511.224 180.024 508.952 179.064C506.696 178.104 505.016 176.632 503.912 174.648C502.824 172.648 502.28 170.072 502.28 166.92C502.28 164.04 502.784 161.584 503.792 159.552C504.8 157.52 506.272 155.976 508.208 154.92C510.144 153.864 512.488 153.336 515.24 153.336C519.208 153.336 522.224 154.528 524.288 156.912C526.368 159.28 527.408 162.696 527.408 167.16V169.104ZM515.144 158.28C513.528 158.28 512.312 158.784 511.496 159.792C510.696 160.784 510.264 162.408 510.2 164.664H519.992C519.928 162.408 519.496 160.784 518.696 159.792C517.912 158.784 516.728 158.28 515.144 158.28ZM533.468 153.744H540.02L540.644 156.984H541.028C541.796 155.8 542.812 154.904 544.076 154.296C545.356 153.688 546.772 153.384 548.324 153.384C548.996 153.384 549.748 153.448 550.58 153.576V160.704C549.924 160.576 549.012 160.512 547.844 160.512C546.628 160.512 545.428 160.728 544.244 161.16C543.076 161.592 542.156 162.216 541.484 163.032V180H533.468V153.744ZM570.13 190.56V141.216H577.402V190.56H570.13ZM622.112 161.664C624.224 162.112 625.872 163.04 627.056 164.448C628.24 165.856 628.832 167.696 628.832 169.968C628.832 172.24 628.24 174.144 627.056 175.68C625.888 177.2 623.96 178.368 621.272 179.184C618.584 180 615.024 180.408 610.592 180.408C609.04 180.408 607.296 180.344 605.36 180.216C603.44 180.088 601.688 179.92 600.104 179.712V145.392C601.864 144.992 603.816 144.672 605.96 144.432C608.12 144.176 610.192 144.048 612.176 144.048C617.632 144.048 621.608 144.88 624.104 146.544C626.616 148.192 627.872 150.68 627.872 154.008C627.872 155.88 627.36 157.504 626.336 158.88C625.328 160.24 623.92 161.168 622.112 161.664ZM613.112 149.808C611.464 149.808 609.8 149.96 608.12 150.264V158.904H613.616C615.968 158.904 617.648 158.536 618.656 157.8C619.68 157.048 620.192 155.896 620.192 154.344C620.192 153.272 619.96 152.408 619.496 151.752C619.048 151.096 618.304 150.608 617.264 150.288C616.24 149.968 614.856 149.808 613.112 149.808ZM612.752 174.648C614.928 174.648 616.64 174.472 617.888 174.12C619.152 173.752 620.04 173.208 620.552 172.488C621.08 171.768 621.344 170.84 621.344 169.704C621.344 167.992 620.808 166.744 619.736 165.96C618.664 165.176 616.896 164.784 614.432 164.784H608.12V174.408C609.496 174.568 611.04 174.648 612.752 174.648ZM658.673 169.104H641.489C641.585 170.496 641.913 171.592 642.473 172.392C643.033 173.176 643.913 173.752 645.113 174.12C646.329 174.472 647.993 174.648 650.105 174.648C652.265 174.648 654.601 174.384 657.113 173.856V179.616C654.377 180.208 651.641 180.504 648.905 180.504C645.385 180.504 642.489 180.024 640.217 179.064C637.961 178.104 636.281 176.632 635.177 174.648C634.089 172.648 633.545 170.072 633.545 166.92C633.545 164.04 634.049 161.584 635.057 159.552C636.065 157.52 637.537 155.976 639.473 154.92C641.409 153.864 643.753 153.336 646.505 153.336C650.473 153.336 653.489 154.528 655.553 156.912C657.633 159.28 658.673 162.696 658.673 167.16V169.104ZM646.409 158.28C644.793 158.28 643.577 158.784 642.761 159.792C641.961 160.784 641.529 162.408 641.465 164.664H651.257C651.193 162.408 650.761 160.784 649.961 159.792C649.177 158.784 647.993 158.28 646.409 158.28ZM678.856 174.048C679.592 174.048 680.56 173.936 681.76 173.712V179.904C680.992 180.08 680.152 180.224 679.24 180.336C678.328 180.448 677.456 180.504 676.624 180.504C669.76 180.504 666.328 177.208 666.328 170.616V160.056H661.792V153.744H666.328L667.768 144.48H674.344V153.744H681.616V160.056H674.344V169.176C674.344 170.392 674.496 171.36 674.8 172.08C675.12 172.784 675.608 173.288 676.264 173.592C676.92 173.896 677.784 174.048 678.856 174.048ZM699.937 174.048C700.673 174.048 701.641 173.936 702.841 173.712V179.904C702.073 180.08 701.233 180.224 700.321 180.336C699.409 180.448 698.537 180.504 697.705 180.504C690.841 180.504 687.409 177.208 687.409 170.616V160.056H682.873V153.744H687.409L688.849 144.48H695.425V153.744H702.697V160.056H695.425V169.176C695.425 170.392 695.577 171.36 695.881 172.08C696.201 172.784 696.689 173.288 697.345 173.592C698.001 173.896 698.865 174.048 699.937 174.048ZM731.946 169.104H714.762C714.858 170.496 715.186 171.592 715.746 172.392C716.306 173.176 717.186 173.752 718.386 174.12C719.602 174.472 721.266 174.648 723.378 174.648C725.538 174.648 727.874 174.384 730.386 173.856V179.616C727.65 180.208 724.914 180.504 722.178 180.504C718.658 180.504 715.762 180.024 713.49 179.064C711.234 178.104 709.554 176.632 708.45 174.648C707.362 172.648 706.818 170.072 706.818 166.92C706.818 164.04 707.322 161.584 708.33 159.552C709.338 157.52 710.81 155.976 712.746 154.92C714.682 153.864 717.026 153.336 719.778 153.336C723.746 153.336 726.762 154.528 728.826 156.912C730.906 159.28 731.946 162.696 731.946 167.16V169.104ZM719.682 158.28C718.066 158.28 716.85 158.784 716.034 159.792C715.234 160.784 714.802 162.408 714.738 164.664H724.53C724.466 162.408 724.034 160.784 723.234 159.792C722.45 158.784 721.266 158.28 719.682 158.28ZM738.006 153.744H744.558L745.182 156.984H745.566C746.334 155.8 747.35 154.904 748.614 154.296C749.894 153.688 751.31 153.384 752.862 153.384C753.534 153.384 754.286 153.448 755.118 153.576V160.704C754.462 160.576 753.55 160.512 752.382 160.512C751.166 160.512 749.966 160.728 748.782 161.16C747.614 161.592 746.694 162.216 746.022 163.032V180H738.006V153.744ZM774.668 190.56V141.216H781.94V190.56H774.668ZM812.754 173.712H831.546V180H804.642V144.48H831.306V150.768H812.754V158.688H828.834V164.976H812.754V173.712ZM847.202 153.336C850.29 153.336 852.77 153.696 854.642 154.416C856.514 155.136 857.898 156.328 858.794 157.992C859.69 159.64 860.138 161.896 860.138 164.76V180H853.514L852.962 177.48H852.602C851.738 178.488 850.666 179.24 849.386 179.736C848.106 180.232 846.69 180.48 845.138 180.48C843.202 180.48 841.546 180.16 840.17 179.52C838.794 178.88 837.746 177.984 837.026 176.832C836.322 175.68 835.97 174.352 835.97 172.848C835.97 170.352 836.898 168.424 838.754 167.064C840.626 165.688 843.554 164.872 847.538 164.616L852.314 164.256V164.16C852.314 162.912 852.098 161.928 851.666 161.208C851.25 160.488 850.57 159.976 849.626 159.672C848.698 159.368 847.434 159.216 845.834 159.216C844.698 159.216 843.442 159.312 842.066 159.504C840.69 159.696 839.41 159.976 838.226 160.344V154.512C839.57 154.128 841.042 153.84 842.642 153.648C844.242 153.44 845.762 153.336 847.202 153.336ZM847.658 175.128C848.506 175.128 849.33 174.992 850.13 174.72C850.946 174.448 851.674 174.016 852.314 173.424V168.624L848.282 168.936C846.73 169.064 845.61 169.392 844.922 169.92C844.25 170.448 843.914 171.192 843.914 172.152C843.914 173.096 844.226 173.832 844.85 174.36C845.49 174.872 846.426 175.128 847.658 175.128ZM876.057 180.504C874.377 180.504 872.745 180.4 871.161 180.192C869.577 180 868.121 179.704 866.793 179.304V173.712C868.185 174.112 869.665 174.416 871.233 174.624C872.801 174.832 874.369 174.936 875.937 174.936C877.761 174.936 879.065 174.72 879.849 174.288C880.633 173.856 881.025 173.216 881.025 172.368C881.025 171.728 880.841 171.24 880.473 170.904C880.105 170.552 879.457 170.296 878.529 170.136L873.825 169.392C871.121 168.96 869.169 168.12 867.969 166.872C866.769 165.624 866.169 163.936 866.169 161.808C866.169 159.168 867.273 157.096 869.481 155.592C871.705 154.088 875.025 153.336 879.441 153.336C880.801 153.336 882.153 153.416 883.497 153.576C884.857 153.736 886.065 153.96 887.121 154.248V159.84C886.033 159.536 884.825 159.304 883.497 159.144C882.185 158.968 880.873 158.88 879.561 158.88C877.385 158.88 875.865 159.12 875.001 159.6C874.137 160.08 873.705 160.72 873.705 161.52C873.705 162.096 873.889 162.56 874.257 162.912C874.625 163.248 875.265 163.496 876.177 163.656L880.881 164.4C883.489 164.816 885.417 165.616 886.665 166.8C887.929 167.968 888.561 169.712 888.561 172.032C888.561 173.792 888.073 175.304 887.097 176.568C886.137 177.832 884.721 178.808 882.849 179.496C880.977 180.168 878.713 180.504 876.057 180.504ZM894.523 180V153.744H902.539V180H894.523ZM898.531 149.928C896.883 149.928 895.651 149.592 894.835 148.92C894.019 148.232 893.611 147.24 893.611 145.944C893.611 144.632 894.019 143.64 894.835 142.968C895.651 142.28 896.883 141.936 898.531 141.936C900.179 141.936 901.411 142.28 902.227 142.968C903.043 143.64 903.451 144.632 903.451 145.944C903.451 147.24 903.043 148.232 902.227 148.92C901.411 149.592 900.179 149.928 898.531 149.928ZM934.047 169.104H916.863C916.959 170.496 917.287 171.592 917.847 172.392C918.407 173.176 919.287 173.752 920.487 174.12C921.703 174.472 923.367 174.648 925.479 174.648C927.639 174.648 929.975 174.384 932.487 173.856V179.616C929.751 180.208 927.015 180.504 924.279 180.504C920.759 180.504 917.863 180.024 915.591 179.064C913.335 178.104 911.655 176.632 910.551 174.648C909.463 172.648 908.919 170.072 908.919 166.92C908.919 164.04 909.423 161.584 910.431 159.552C911.439 157.52 912.911 155.976 914.847 154.92C916.783 153.864 919.127 153.336 921.879 153.336C925.847 153.336 928.863 154.528 930.927 156.912C933.007 159.28 934.047 162.696 934.047 167.16V169.104ZM921.783 158.28C920.167 158.28 918.951 158.784 918.135 159.792C917.335 160.784 916.903 162.408 916.839 164.664H926.631C926.567 162.408 926.135 160.784 925.335 159.792C924.551 158.784 923.367 158.28 921.783 158.28ZM940.107 153.744H946.659L947.283 156.984H947.667C948.435 155.8 949.451 154.904 950.715 154.296C951.995 153.688 953.411 153.384 954.963 153.384C955.635 153.384 956.387 153.448 957.219 153.576V160.704C956.563 160.576 955.651 160.512 954.483 160.512C953.267 160.512 952.067 160.728 950.883 161.16C949.715 161.592 948.795 162.216 948.123 163.032V180H940.107V153.744Z" fill="white" />
</svg>