<svg width="779" height="780" viewBox="0 0 779 780" fill="none" xmlns="http://www.w3.org/2000/svg">
<rect x="10" y="10" width="380" height="380" stroke="#5A7DF5" stroke-width="20"/>
<rect x="389" y="10" width="380" height="380" stroke="#5A7DF5" stroke-width="20"/>
<rect x="389" y="390" width="380" height="380" stroke="#5A7DF5" stroke-width="20"/>
<path d="M548.563 465.623H589.726C595.487 465.623 601.835 465.965 608.769 466.648C615.702 467.332 622.587 468.894 629.423 471.336C636.259 473.679 642.509 477.439 648.173 482.615C653.837 487.693 658.378 494.676 661.796 503.562C665.312 512.351 667.069 523.533 667.069 537.107V543.406C667.069 580.906 655.79 605.027 633.231 615.769L674.394 715.818H633.964L599.54 622.215H586.503V715.818H548.563V465.623ZM591.483 594.822C605.351 594.822 614.872 591.599 620.048 585.154C625.321 578.709 627.958 567.088 627.958 550.291V530.515C627.958 517.625 625.468 508.152 620.487 502.097C615.604 496.043 605.937 493.015 591.483 493.015H586.503V594.822H591.483Z" fill="white"/>
<path d="M548.563 75.8047H644.218V105.688H586.503V180.541H631.767V210.424H586.503V296.117H644.218V326H548.563V75.8047Z" fill="white"/>
<path d="M113.688 75.8047H150.016L166.861 226.977L168.766 262.279H172.428L175.943 226.977L202.896 75.8047H233.219L259 226.977L261.93 262.279H265.738L267.496 226.977L282.877 75.8047H319.352L284.342 326H245.816L225.162 205.736L218.717 153.441H215.787L209.488 205.736L187.809 326H149.723L113.688 75.8047Z" fill="white"/>
</svg>
