<svg xmlns="http://www.w3.org/2000/svg" viewBox="0 0 460 230"><g fill="none" stroke="#90def4" stroke-width="2"><path d="M177.169 17.54a5.5 5.5 0 0 0-5.51-5.49h-.2a5.5 5.5 0 0 0-5.49 5.51l.102 58.64a5.5 5.5 0 0 0 5.51 5.49h.2a5.5 5.5 0 0 0 5.49-5.51l-.102-58.64m121.581-.07a5.42 5.42 0 0 0-5.42-5.42h-.22a5.42 5.42 0 0 0-5.42 5.42v58.8a5.42 5.42 0 0 0 5.42 5.42h.22a5.42 5.42 0 0 0 5.42-5.42v-58.8M146.71 38.13a5.31 5.31 0 0 0-5.31-5.31h-.34a5.31 5.31 0 0 0-5.31 5.31v27.26a5.31 5.31 0 0 0 5.31 5.31h.34a5.31 5.31 0 0 0 5.31-5.31V38.13m60.77.14a5.42 5.42 0 0 0-5.42-5.42h-.32a5.42 5.42 0 0 0-5.42 5.42v26.98a5.42 5.42 0 0 0 5.42 5.42h.32a5.42 5.42 0 0 0 5.42-5.42V38.27m60.76-.13a5.31 5.31 0 0 0-5.31-5.31h-.34a5.31 5.31 0 0 0-5.31 5.31v27.24a5.31 5.31 0 0 0 5.31 5.31h.34a5.31 5.31 0 0 0 5.31-5.31V38.14m60.96.11a5.41 5.41 0 0 0-5.41-5.41h-.34a5.41 5.41 0 0 0-5.41 5.41v27.02a5.41 5.41 0 0 0 5.41 5.41h.34a5.41 5.41 0 0 0 5.41-5.41V38.25M116.22 53.3a5.21 5.21 0 0 0-5.2-5.22h-.52a5.21 5.21 0 0 0-5.22 5.2l-.02 12.18a5.21 5.21 0 0 0 5.2 5.22h.52a5.21 5.21 0 0 0 5.22-5.2l.02-12.18m121.7.08a5.28 5.28 0 0 0-5.28-5.28h-.54a5.28 5.28 0 0 0-5.28 5.28v11.98a5.28 5.28 0 0 0 5.28 5.28h.54a5.28 5.28 0 0 0 5.28-5.28V53.38m121.54-.1a5.2 5.2 0 0 0-5.2-5.2h-.52a5.2 5.2 0 0 0-5.2 5.2v12.2a5.2 5.2 0 0 0 5.2 5.2h.52a5.2 5.2 0 0 0 5.2-5.2v-12.2m-198.22 79.65c-27.44 11.69-27.85-31.23.02-19.63a.36.35-78.6 0 0 .49-.33v-10.63a.63.63 0 0 0-.44-.6c-15.52-4.95-32.05 2.62-33.06 20.17-1.09 19.07 16.53 27.42 33.02 22.66a.67.65-8.3 0 0 .48-.63v-10.67a.37.37 0 0 0-.51-.34m58.74 2.07c-3.92 2.32-11.41 1.05-15.6-.26a.85.84 8.7 0 0-1.1.8l-.04 8.64a.62.61-83.5 0 0 .47.6c9.43 2.25 26.47 2.55 29.57-9.51 2.9-11.29-5.79-15.46-14.7-18.38q-2.12-.69-3.36-2.46a1.42 1.4-60.2 0 1-.24-.91c.46-5.66 11.73-3.22 15.01-2.62a.44.43-85 0 0 .51-.43v-8.17a.66.65-81.7 0 0-.46-.63c-9.24-2.87-24.49-2.43-26.62 9.85-1.96 11.32 7.17 13.78 15.22 17.01 2.88 1.16 4.91 4.36 1.34 6.47m32.46 5.56c7.15 5.92 16.65 6.48 25.24 4.1a.77.76 82.6 0 0 .57-.74v-10.65a.44.44 0 0 0-.63-.4c-20.75 9.57-28.56-17.36-12.1-21.09q5.84-1.32 12.1 1.62a.44.44 0 0 0 .63-.4v-10.47a.82.82 0 0 0-.57-.78c-9.85-3.12-22.33-1.34-28.62 7.29-6.89 9.46-6.27 23.55 3.38 31.52m84.3-17.584a23.44 22.96-.4 0 0-23.6-22.795 23.44 22.96-.4 0 0-23.28 23.123 23.44 22.96-.4 0 0 23.6 22.795 23.44 22.96-.4 0 0 23.28-23.123M188.25 101.46a.35.35 0 0 0-.35-.35h-10.34a.35.35 0 0 0-.35.35v43.44a.35.35 0 0 0 .35.35h10.34a.35.35 0 0 0 .35-.35v-43.44m-25 82.47c3.55-20.14-19.53-18.03-32.42-17.55a.6.6 0 0 0-.58.6v46.89a.63.63 0 0 0 .63.63h2.74a.63.63 0 0 0 .63-.63v-17.28a.51.5-.6 0 1 .5-.5c10.78-.12 26.01 2 28.5-12.16m76.55 27.93c-5.83.64-7.8.56-7.78-5.96q.02-11.26-.09-22.44a.73.73 0 0 1 .77-.74l6.51.35a.69.69 0 0 0 .73-.72l-.08-2.06a.56.56 0 0 0-.56-.54h-6.85a.54.54 0 0 1-.54-.55l.1-7.28a.66.65-89.6 0 0-.65-.67h-2.46a.61.61 0 0 0-.62.6l-.11 7.23a.68.68 0 0 1-.68.67h-3.86a.53.52-2 0 0-.53.56l.14 1.83a.65.65 0 0 0 .65.6l3.45.01a.64.64 0 0 1 .64.64q.05 9.93.01 19.91c-.03 8.12 1.58 13.98 11.35 11.64q1.8-.43 1.12-2.64a.63.63 0 0 0-.66-.44m-48.36-2.14.27 4.16a.67.66-1.8 0 0 .67.62h1.71a.66.65 0 0 0 .66-.65q-.01-10.99.01-21.99 0-5-1.34-7.47c-4.93-9.06-23.03-7.36-25.07 3.72a.54.54 0 0 0 .53.64h2.7a.73.72 6.5 0 0 .71-.56c2.34-10.18 21.22-8.31 18.7 3.95a.74.74 0 0 1-.59.58c-7.05 1.28-21.54 1.64-22.9 11.01-2.02 13.86 16.95 14.58 23.31 5.81a.35.35 0 0 1 .63.18m13.32-25.01-.31-4.5a.49.49 0 0 0-.49-.46h-2.06a.61.61 0 0 0-.61.61l-.06 33.5a.63.63 0 0 0 .64.63l2.51-.04a.63.63 0 0 0 .62-.63c-.03-7.5-3.56-35.6 12.59-31.17a.54.54 0 0 0 .68-.54l-.1-2.43a.8.79 5.1 0 0-.63-.75c-6.55-1.39-8.77 1.25-12.43 5.89q-.32.4-.35-.11m43.88-.51-.19-3.86a.62.62 0 0 0-.62-.59h-1.95a.62.62 0 0 0-.63.62v33.55a.62.61-3 0 0 .68.61l2.49-.26a.67.66-3.8 0 0 .59-.67c-.02-6.56-1.51-21.11 1.47-26.62 3.04-5.61 13.29-7.49 16.71-1.42q1.29 2.28 1.3 7.72.02 10.25.02 20.53a.53.53 0 0 0 .52.53l2.63.09a.51.51 0 0 0 .53-.51q.12-10.26.05-20.51c-.05-7.51-1.56-13.37-9.52-14.6q-8.26-1.28-13.64 5.53-.41.52-.44-.14m42.82-5.19c-19.32 2.61-17.64 39.53 6.38 36.09q8.68-1.25 11.42-9.78a.44.44 0 0 0-.42-.57h-2.7a.88.87-79.1 0 0-.81.55c-2 5.08-6.49 7.34-11.9 6.62q-10.63-1.42-11.04-13.58a.57.57 0 0 1 .57-.59h26.51a.49.49 0 0 0 .49-.49c.11-11.41-6.16-19.91-18.5-18.25m28.8 5.97-.33-4.66a.61.61 0 0 0-.61-.57h-2.07a.5.5 0 0 0-.5.5v33.61a.6.6 0 0 0 .61.6l2.64-.02a.49.48-.6 0 0 .49-.49c-.02-7.48-3.41-36.21 12.62-31.28a.49.49 0 0 0 .64-.47v-2.57a.67.67 0 0 0-.55-.66q-8.87-1.7-12.36 6.11a.3.3 0 0 1-.58-.1" vector-effect="non-scaling-stroke"/><path d="M324.73 123.12a11.44 11.44 0 0 0-11.44-11.44 11.44 11.44 0 0 0-11.44 11.44 11.44 11.44 0 0 0 11.44 11.44 11.44 11.44 0 0 0 11.44-11.44m-169.18 49.34c-5.18-4.14-14.56-2.7-20.91-2.79a.39.39 0 0 0-.39.39V192a.63.63 0 0 0 .59.63c6.29.38 15.89.94 20.66-2.63 5.24-3.93 5.53-13.16.05-17.54m16.76 29.08c-5.81 11.28 12.54 14.72 17.99 3.92 1.27-2.5.51-6.16.94-9.06a.56.56 0 0 0-.63-.64c-3.93.55-16.35 1.99-18.3 5.78m133.65-7.3c-1.18-16.94-22.01-16.51-23.6.03a.43.43 0 0 0 .43.48h22.69a.48.48 0 0 0 .48-.51" vector-effect="non-scaling-stroke"/></g><path fill="#fff" d="M0 0h460v230H0V0Zm177.169 17.54a5.5 5.5 0 0 0-5.51-5.49h-.2a5.5 5.5 0 0 0-5.49 5.51l.102 58.64a5.5 5.5 0 0 0 5.51 5.49h.2a5.5 5.5 0 0 0 5.49-5.51l-.102-58.64Zm121.581-.07a5.42 5.42 0 0 0-5.42-5.42h-.22a5.42 5.42 0 0 0-5.42 5.42v58.8a5.42 5.42 0 0 0 5.42 5.42h.22a5.42 5.42 0 0 0 5.42-5.42v-58.8ZM146.71 38.13a5.31 5.31 0 0 0-5.31-5.31h-.34a5.31 5.31 0 0 0-5.31 5.31v27.26a5.31 5.31 0 0 0 5.31 5.31h.34a5.31 5.31 0 0 0 5.31-5.31V38.13Zm60.77.14a5.42 5.42 0 0 0-5.42-5.42h-.32a5.42 5.42 0 0 0-5.42 5.42v26.98a5.42 5.42 0 0 0 5.42 5.42h.32a5.42 5.42 0 0 0 5.42-5.42V38.27Zm60.76-.13a5.31 5.31 0 0 0-5.31-5.31h-.34a5.31 5.31 0 0 0-5.31 5.31v27.24a5.31 5.31 0 0 0 5.31 5.31h.34a5.31 5.31 0 0 0 5.31-5.31V38.14Zm60.96.11a5.41 5.41 0 0 0-5.41-5.41h-.34a5.41 5.41 0 0 0-5.41 5.41v27.02a5.41 5.41 0 0 0 5.41 5.41h.34a5.41 5.41 0 0 0 5.41-5.41V38.25ZM116.22 53.3a5.21 5.21 0 0 0-5.2-5.22h-.52a5.21 5.21 0 0 0-5.22 5.2l-.02 12.18a5.21 5.21 0 0 0 5.2 5.22h.52a5.21 5.21 0 0 0 5.22-5.2l.02-12.18Zm121.7.08a5.28 5.28 0 0 0-5.28-5.28h-.54a5.28 5.28 0 0 0-5.28 5.28v11.98a5.28 5.28 0 0 0 5.28 5.28h.54a5.28 5.28 0 0 0 5.28-5.28V53.38Zm121.54-.1a5.2 5.2 0 0 0-5.2-5.2h-.52a5.2 5.2 0 0 0-5.2 5.2v12.2a5.2 5.2 0 0 0 5.2 5.2h.52a5.2 5.2 0 0 0 5.2-5.2v-12.2Zm-198.22 79.65c-27.44 11.69-27.85-31.23.02-19.63a.36.35-78.6 0 0 .49-.33v-10.63a.63.63 0 0 0-.44-.6c-15.52-4.95-32.05 2.62-33.06 20.17-1.09 19.07 16.53 27.42 33.02 22.66a.67.65-8.3 0 0 .48-.63v-10.67a.37.37 0 0 0-.51-.34Zm58.74 2.07c-3.92 2.32-11.41 1.05-15.6-.26a.85.84 8.7 0 0-1.1.8l-.04 8.64a.62.61-83.5 0 0 .47.6c9.43 2.25 26.47 2.55 29.57-9.51 2.9-11.29-5.79-15.46-14.7-18.38q-2.12-.69-3.36-2.46a1.42 1.4-60.2 0 1-.24-.91c.46-5.66 11.73-3.22 15.01-2.62a.44.43-85 0 0 .51-.43v-8.17a.66.65-81.7 0 0-.46-.63c-9.24-2.87-24.49-2.43-26.62 9.85-1.96 11.32 7.17 13.78 15.22 17.01 2.88 1.16 4.91 4.36 1.34 6.47Zm32.46 5.56c7.15 5.92 16.65 6.48 25.24 4.1a.77.76 82.6 0 0 .57-.74v-10.65a.44.44 0 0 0-.63-.4c-20.75 9.57-28.56-17.36-12.1-21.09q5.84-1.32 12.1 1.62a.44.44 0 0 0 .63-.4v-10.47a.82.82 0 0 0-.57-.78c-9.85-3.12-22.33-1.34-28.62 7.29-6.89 9.46-6.27 23.55 3.38 31.52Zm84.3-17.584a23.44 22.96-.4 0 0-23.6-22.795 23.44 22.96-.4 0 0-23.28 23.123 23.44 22.96-.4 0 0 23.6 22.795 23.44 22.96-.4 0 0 23.28-23.123ZM188.25 101.46a.35.35 0 0 0-.35-.35h-10.34a.35.35 0 0 0-.35.35v43.44a.35.35 0 0 0 .35.35h10.34a.35.35 0 0 0 .35-.35v-43.44Zm-25 82.47c3.55-20.14-19.53-18.03-32.42-17.55a.6.6 0 0 0-.58.6v46.89a.63.63 0 0 0 .63.63h2.74a.63.63 0 0 0 .63-.63v-17.28a.51.5-.6 0 1 .5-.5c10.78-.12 26.01 2 28.5-12.16Zm76.55 27.93c-5.83.64-7.8.56-7.78-5.96q.02-11.26-.09-22.44a.73.73 0 0 1 .77-.74l6.51.35a.69.69 0 0 0 .73-.72l-.08-2.06a.56.56 0 0 0-.56-.54h-6.85a.54.54 0 0 1-.54-.55l.1-7.28a.66.65-89.6 0 0-.65-.67h-2.46a.61.61 0 0 0-.62.6l-.11 7.23a.68.68 0 0 1-.68.67h-3.86a.53.52-2 0 0-.53.56l.14 1.83a.65.65 0 0 0 .65.6l3.45.01a.64.64 0 0 1 .64.64q.05 9.93.01 19.91c-.03 8.12 1.58 13.98 11.35 11.64q1.8-.43 1.12-2.64a.63.63 0 0 0-.66-.44Zm-48.36-2.14.27 4.16a.67.66-1.8 0 0 .67.62h1.71a.66.65 0 0 0 .66-.65q-.01-10.99.01-21.99 0-5-1.34-7.47c-4.93-9.06-23.03-7.36-25.07 3.72a.54.54 0 0 0 .53.64h2.7a.73.72 6.5 0 0 .71-.56c2.34-10.18 21.22-8.31 18.7 3.95a.74.74 0 0 1-.59.58c-7.05 1.28-21.54 1.64-22.9 11.01-2.02 13.86 16.95 14.58 23.31 5.81a.35.35 0 0 1 .63.18Zm13.32-25.01-.31-4.5a.49.49 0 0 0-.49-.46h-2.06a.61.61 0 0 0-.61.61l-.06 33.5a.63.63 0 0 0 .64.63l2.51-.04a.63.63 0 0 0 .62-.63c-.03-7.5-3.56-35.6 12.59-31.17a.54.54 0 0 0 .68-.54l-.1-2.43a.8.79 5.1 0 0-.63-.75c-6.55-1.39-8.77 1.25-12.43 5.89q-.32.4-.35-.11Zm43.88-.51-.19-3.86a.62.62 0 0 0-.62-.59h-1.95a.62.62 0 0 0-.63.62v33.55a.62.61-3 0 0 .68.61l2.49-.26a.67.66-3.8 0 0 .59-.67c-.02-6.56-1.51-21.11 1.47-26.62 3.04-5.61 13.29-7.49 16.71-1.42q1.29 2.28 1.3 7.72.02 10.25.02 20.53a.53.53 0 0 0 .52.53l2.63.09a.51.51 0 0 0 .53-.51q.12-10.26.05-20.51c-.05-7.51-1.56-13.37-9.52-14.6q-8.26-1.28-13.64 5.53-.41.52-.44-.14Zm42.82-5.19c-19.32 2.61-17.64 39.53 6.38 36.09q8.68-1.25 11.42-9.78a.44.44 0 0 0-.42-.57h-2.7a.88.87-79.1 0 0-.81.55c-2 5.08-6.49 7.34-11.9 6.62q-10.63-1.42-11.04-13.58a.57.57 0 0 1 .57-.59h26.51a.49.49 0 0 0 .49-.49c.11-11.41-6.16-19.91-18.5-18.25Zm28.8 5.97-.33-4.66a.61.61 0 0 0-.61-.57h-2.07a.5.5 0 0 0-.5.5v33.61a.6.6 0 0 0 .61.6l2.64-.02a.49.48-.6 0 0 .49-.49c-.02-7.48-3.41-36.21 12.62-31.28a.49.49 0 0 0 .64-.47v-2.57a.67.67 0 0 0-.55-.66q-8.87-1.7-12.36 6.11a.3.3 0 0 1-.58-.1Z"/><rect width="11.2" height="69.64" x="-5.6" y="-34.82" fill="#20bde9" rx="5.5" transform="rotate(-.1 26940.335 -98307.557)"/><rect width="11.06" height="69.64" x="287.69" y="12.05" fill="#20bde9" rx="5.42"/><rect width="10.96" height="37.88" x="135.75" y="32.82" fill="#20bde9" rx="5.31"/><rect width="11.16" height="37.82" x="196.32" y="32.85" fill="#20bde9" rx="5.42"/><rect width="10.96" height="37.86" x="257.28" y="32.83" fill="#20bde9" rx="5.31"/><rect width="11.16" height="37.84" x="318.04" y="32.84" fill="#20bde9" rx="5.41"/><rect width="10.94" height="22.6" x="-5.47" y="-11.3" fill="#20bde9" rx="5.21" transform="rotate(.1 -33966.855 63479.02)"/><rect width="11.1" height="22.54" x="226.82" y="48.1" fill="#20bde9" rx="5.28"/><rect width="10.92" height="22.6" x="348.54" y="48.08" fill="#20bde9" rx="5.2"/><path fill="#20bde9" d="M161.26 113.3c-27.87-11.6-27.46 31.32-.02 19.63a.37.37 0 0 1 .51.34v10.67a.67.65-8.3 0 1-.48.63c-16.49 4.76-34.11-3.59-33.02-22.66 1.01-17.55 17.54-25.12 33.06-20.17a.63.63 0 0 1 .44.6v10.63a.36.35-78.6 0 1-.49.33Zm58.72 21.7c3.57-2.11 1.54-5.31-1.34-6.47-8.05-3.23-17.18-5.69-15.22-17.01 2.13-12.28 17.38-12.72 26.62-9.85a.66.65-81.7 0 1 .46.63v8.17a.44.43-85 0 1-.51.43c-3.28-.6-14.55-3.04-15.01 2.62a1.42 1.4-60.2 0 0 .24.91q1.24 1.77 3.36 2.46c8.91 2.92 17.6 7.09 14.7 18.38-3.1 12.06-20.14 11.76-29.57 9.51a.62.61-83.5 0 1-.47-.6l.04-8.64a.85.84 8.7 0 1 1.1-.8c4.19 1.31 11.68 2.58 15.6.26Zm32.46 5.56c-9.65-7.97-10.27-22.06-3.38-31.52 6.29-8.63 18.77-10.41 28.62-7.29a.82.82 0 0 1 .57.78V113a.44.44 0 0 1-.63.4q-6.26-2.94-12.1-1.62c-16.46 3.73-8.65 30.66 12.1 21.09a.44.44 0 0 1 .63.4v10.65a.77.76 82.6 0 1-.57.74c-8.59 2.38-18.09 1.82-25.24-4.1Zm84.3-17.584a23.44 22.96-.4 0 1-23.28 23.123 23.44 22.96-.4 0 1-23.6-22.795 23.44 22.96-.4 0 1 23.28-23.123 23.44 22.96-.4 0 1 23.6 22.795Zm-12.01.144a11.44 11.44 0 0 0-11.44-11.44 11.44 11.44 0 0 0-11.44 11.44 11.44 11.44 0 0 0 11.44 11.44 11.44 11.44 0 0 0 11.44-11.44Z"/><rect width="11.04" height="44.14" x="177.21" y="101.11" fill="#20bde9" rx=".35"/><circle cx="313.29" cy="123.12" r="11.44" fill="#fff"/><path fill="#20bde9" d="M130.83 166.38c12.89-.48 35.97-2.59 32.42 17.55-2.49 14.16-17.72 12.04-28.5 12.16a.51.5-.6 0 0-.5.5v17.28a.63.63 0 0 1-.63.63h-2.74a.63.63 0 0 1-.63-.63v-46.89a.6.6 0 0 1 .58-.6Zm24.72 6.08c-5.18-4.14-14.56-2.7-20.91-2.79a.39.39 0 0 0-.39.39V192a.63.63 0 0 0 .59.63c6.29.38 15.89.94 20.66-2.63 5.24-3.93 5.53-13.16.05-17.54Z"/><path fill="#fff" d="M155.55 172.46c5.48 4.38 5.19 13.61-.05 17.54-4.77 3.57-14.37 3.01-20.66 2.63a.63.63 0 0 1-.59-.63v-21.94a.39.39 0 0 1 .39-.39c6.35.09 15.73-1.35 20.91 2.79Z"/><path fill="#20bde9" d="M232.02 205.9c-.02 6.52 1.95 6.6 7.78 5.96a.63.63 0 0 1 .66.44q.68 2.21-1.12 2.64c-9.77 2.34-11.38-3.52-11.35-11.64q.04-9.98-.01-19.91a.64.64 0 0 0-.64-.64l-3.45-.01a.65.65 0 0 1-.65-.6l-.14-1.83a.53.52-2 0 1 .53-.56h3.86a.68.68 0 0 0 .68-.67l.11-7.23a.61.61 0 0 1 .62-.6h2.46a.66.65-89.6 0 1 .65.67l-.1 7.28a.54.54 0 0 0 .54.55h6.85a.56.56 0 0 1 .56.54l.08 2.06a.69.69 0 0 1-.73.72l-6.51-.35a.73.73 0 0 0-.77.74q.11 11.18.09 22.44Zm-40.58 3.82a.35.35 0 0 0-.63-.18c-6.36 8.77-25.33 8.05-23.31-5.81 1.36-9.37 15.85-9.73 22.9-11.01a.74.74 0 0 0 .59-.58c2.52-12.26-16.36-14.13-18.7-3.95a.73.72 6.5 0 1-.71.56h-2.7a.54.54 0 0 1-.53-.64c2.04-11.08 20.14-12.78 25.07-3.72q1.34 2.47 1.34 7.47-.02 11-.01 21.99a.66.65 0 0 1-.66.65h-1.71a.67.66-1.8 0 1-.67-.62l-.27-4.16Zm-19.13-8.18c-5.81 11.28 12.54 14.72 17.99 3.92 1.27-2.5.51-6.16.94-9.06a.56.56 0 0 0-.63-.64c-3.93.55-16.35 1.99-18.3 5.78Zm32.8-16.72c3.66-4.64 5.88-7.28 12.43-5.89a.8.79 5.1 0 1 .63.75l.1 2.43a.54.54 0 0 1-.68.54c-16.15-4.43-12.62 23.67-12.59 31.17a.63.63 0 0 1-.62.63l-2.51.04a.63.63 0 0 1-.64-.63l.06-33.5a.61.61 0 0 1 .61-.61h2.06a.49.49 0 0 1 .49.46l.31 4.5q.03.51.35.11Zm43.97-.48q5.38-6.81 13.64-5.53c7.96 1.23 9.47 7.09 9.52 14.6q.07 10.25-.05 20.51a.51.51 0 0 1-.53.51l-2.63-.09a.53.53 0 0 1-.52-.53q0-10.28-.02-20.53-.01-5.44-1.3-7.72c-3.42-6.07-13.67-4.19-16.71 1.42-2.98 5.51-1.49 20.06-1.47 26.62a.67.66-3.8 0 1-.59.67l-2.49.26a.62.61-3 0 1-.68-.61v-33.55a.62.62 0 0 1 .63-.62h1.95a.62.62 0 0 1 .62.59l.19 3.86q.03.66.44.14Zm48.76 30.76c-24.02 3.44-25.7-33.48-6.38-36.09 12.34-1.66 18.61 6.84 18.5 18.25a.49.49 0 0 1-.49.49h-26.51a.57.57 0 0 0-.57.59q.41 12.16 11.04 13.58c5.41.72 9.9-1.54 11.9-6.62a.88.87-79.1 0 1 .81-.55h2.7a.44.44 0 0 1 .42.57q-2.74 8.53-11.42 9.78Zm8.12-20.86c-1.18-16.94-22.01-16.51-23.6.03a.43.43 0 0 0 .43.48h22.69a.48.48 0 0 0 .48-.51Zm14.3-9.26a.3.3 0 0 0 .58.1q3.49-7.81 12.36-6.11a.67.67 0 0 1 .55.66v2.57a.49.49 0 0 1-.64.47c-16.03-4.93-12.64 23.8-12.62 31.28a.49.48-.6 0 1-.49.49l-2.64.02a.6.6 0 0 1-.61-.6v-33.61a.5.5 0 0 1 .5-.5h2.07a.61.61 0 0 1 .61.57l.33 4.66Z"/><path fill="#fff" d="M282.36 194.27c1.59-16.54 22.42-16.97 23.6-.03a.48.48 0 0 1-.48.51h-22.69a.43.43 0 0 1-.43-.48Zm-92.06 11.19c-5.45 10.8-23.8 7.36-17.99-3.92 1.95-3.79 14.37-5.23 18.3-5.78a.56.56 0 0 1 .63.64c-.43 2.9.33 6.56-.94 9.06Z"/></svg>