<svg width="18" height="20" viewBox="0 0 18 20" fill="none" xmlns="http://www.w3.org/2000/svg">
<path d="M3.343 9.55588L3.08683 8.22255C2.91606 8.14847 2.75595 8.0707 2.60652 7.98921C2.45709 7.90773 2.30411 7.80773 2.14756 7.68921L0.909427 8.08921L0.055542 6.5781L1.03751 5.68921C1.00905 5.49662 0.994815 5.30403 0.994815 5.11144C0.994815 4.91884 1.00905 4.72625 1.03751 4.53366L0.055542 3.64477L0.909427 2.13366L2.14756 2.53366C2.30411 2.41514 2.45709 2.31514 2.60652 2.23366C2.75595 2.15218 2.91606 2.0744 3.08683 2.00033L3.343 0.666992H5.05077L5.30693 2.00033C5.47771 2.0744 5.63781 2.15218 5.78724 2.23366C5.93667 2.31514 6.08966 2.41514 6.24621 2.53366L7.48434 2.13366L8.33823 3.64477L7.35626 4.53366C7.38472 4.72625 7.39895 4.91884 7.39895 5.11144C7.39895 5.30403 7.38472 5.49662 7.35626 5.68921L8.33823 6.5781L7.48434 8.08921L6.24621 7.68921C6.08966 7.80773 5.93667 7.90773 5.78724 7.98921C5.63781 8.0707 5.47771 8.14847 5.30693 8.22255L5.05077 9.55588H3.343ZM4.19688 6.88921C4.66652 6.88921 5.06856 6.71514 5.403 6.36699C5.73743 6.01884 5.90465 5.60033 5.90465 5.11144C5.90465 4.62255 5.73743 4.20403 5.403 3.85588C5.06856 3.50773 4.66652 3.33366 4.19688 3.33366C3.72725 3.33366 3.32521 3.50773 2.99077 3.85588C2.65633 4.20403 2.48911 4.62255 2.48911 5.11144C2.48911 5.60033 2.65633 6.01884 2.99077 6.36699C3.32521 6.71514 3.72725 6.88921 4.19688 6.88921ZM10.9853 19.3337L10.601 17.467C10.3591 17.3781 10.1349 17.2707 9.92859 17.1448C9.72223 17.0188 9.51943 16.8744 9.32019 16.7114L7.61242 17.2892L6.41698 15.1559L7.7832 13.9114C7.75474 13.6448 7.74051 13.3781 7.74051 13.1114C7.74051 12.8448 7.75474 12.5781 7.7832 12.3114L6.41698 11.067L7.61242 8.93366L9.32019 9.51144C9.51943 9.34847 9.72223 9.20403 9.92859 9.0781C10.1349 8.95218 10.3591 8.84477 10.601 8.75588L10.9853 6.88921H13.3761L13.7604 8.75588C14.0023 8.84477 14.2265 8.95218 14.4328 9.0781C14.6392 9.20403 14.842 9.34847 15.0412 9.51144L16.749 8.93366L17.9444 11.067L16.5782 12.3114C16.6067 12.5781 16.6209 12.8448 16.6209 13.1114C16.6209 13.3781 16.6067 13.6448 16.5782 13.9114L17.9444 15.1559L16.749 17.2892L15.0412 16.7114C14.842 16.8744 14.6392 17.0188 14.4328 17.1448C14.2265 17.2707 14.0023 17.3781 13.7604 17.467L13.3761 19.3337H10.9853ZM12.1807 15.7781C12.8923 15.7781 13.4971 15.5188 13.9952 15.0003C14.4933 14.4818 14.7424 13.8522 14.7424 13.1114C14.7424 12.3707 14.4933 11.7411 13.9952 11.2225C13.4971 10.704 12.8923 10.4448 12.1807 10.4448C11.4691 10.4448 10.8643 10.704 10.3662 11.2225C9.8681 11.7411 9.61905 12.3707 9.61905 13.1114C9.61905 13.8522 9.8681 14.4818 10.3662 15.0003C10.8643 15.5188 11.4691 15.7781 12.1807 15.7781Z" fill="#00AEFF"/>
</svg>
