<svg width="28" height="26" viewBox="0 0 28 26" fill="none" xmlns="http://www.w3.org/2000/svg">
<path d="M25.6667 14.1818H2.33333C1.71449 14.1818 1.121 14.4308 0.683417 14.8741C0.245833 15.3174 0 15.9186 0 16.5455V23.6364C0 24.2632 0.245833 24.8644 0.683417 25.3077C1.121 25.751 1.71449 26 2.33333 26H25.6667C26.2855 26 26.879 25.751 27.3166 25.3077C27.7542 24.8644 28 24.2632 28 23.6364V16.5455C28 15.9186 27.7542 15.3174 27.3166 14.8741C26.879 14.4308 26.2855 14.1818 25.6667 14.1818ZM25.6667 23.6364H2.33333V16.5455H25.6667V23.6364ZM25.6667 0H2.33333C1.71449 0 1.121 0.249025 0.683417 0.692293C0.245833 1.13556 0 1.73676 0 2.36364V9.45455C0 10.0814 0.245833 10.6826 0.683417 11.1259C1.121 11.5692 1.71449 11.8182 2.33333 11.8182H25.6667C26.2855 11.8182 26.879 11.5692 27.3166 11.1259C27.7542 10.6826 28 10.0814 28 9.45455V2.36364C28 1.73676 27.7542 1.13556 27.3166 0.692293C26.879 0.249025 26.2855 0 25.6667 0ZM25.6667 9.45455H2.33333V2.36364H25.6667V9.45455ZM23.3333 5.90909C23.3333 6.2597 23.2307 6.60244 23.0384 6.89396C22.8461 7.18549 22.5728 7.4127 22.253 7.54688C21.9333 7.68105 21.5814 7.71616 21.2419 7.64776C20.9025 7.57935 20.5906 7.41052 20.3459 7.1626C20.1012 6.91468 19.9345 6.59881 19.867 6.25493C19.7994 5.91106 19.8341 5.55462 19.9665 5.2307C20.099 4.90677 20.3233 4.62991 20.6111 4.43512C20.8989 4.24033 21.2372 4.13636 21.5833 4.13636C22.0475 4.13636 22.4926 4.32313 22.8208 4.65558C23.149 4.98803 23.3333 5.43893 23.3333 5.90909ZM23.3333 20.0909C23.3333 20.4415 23.2307 20.7843 23.0384 21.0758C22.8461 21.3673 22.5728 21.5945 22.253 21.7287C21.9333 21.8629 21.5814 21.898 21.2419 21.8296C20.9025 21.7612 20.5906 21.5923 20.3459 21.3444C20.1012 21.0965 19.9345 20.7806 19.867 20.4368C19.7994 20.0929 19.8341 19.7364 19.9665 19.4125C20.099 19.0886 20.3233 18.8117 20.6111 18.6169C20.8989 18.4221 21.2372 18.3182 21.5833 18.3182C22.0475 18.3182 22.4926 18.505 22.8208 18.8374C23.149 19.1699 23.3333 19.6208 23.3333 20.0909Z" fill="white"/>
</svg>
