<svg width="26" height="21" viewBox="0 0 26 21" fill="none" xmlns="http://www.w3.org/2000/svg">
<path d="M2.47376 21C1.78248 21 1.19737 20.755 0.718421 20.265C0.239474 19.775 0 19.1764 0 18.4692V2.53085C0 1.82362 0.239474 1.225 0.718421 0.735C1.19737 0.245 1.78248 0 2.47376 0H23.5262C24.2175 0 24.8026 0.245 25.2816 0.735C25.7605 1.225 26 1.82362 26 2.53085V18.4692C26 19.1764 25.7605 19.775 25.2816 20.265C24.8026 20.755 24.2175 21 23.5262 21H2.47376ZM13 11.2808L2.05263 4.11915V18.4692C2.05263 18.5949 2.09209 18.6982 2.171 18.7789C2.24991 18.8596 2.35083 18.9 2.47376 18.9H23.5262C23.6492 18.9 23.7501 18.8596 23.829 18.7789C23.9079 18.6982 23.9474 18.5949 23.9474 18.4692V4.11915L13 11.2808ZM13 9.1L23.737 2.1H2.26303L13 9.1ZM2.05263 4.11915V2.1V18.4692C2.05263 18.5949 2.09209 18.6982 2.171 18.7789C2.24991 18.8596 2.35083 18.9 2.47376 18.9H2.05263V4.11915Z" fill="white"/>
</svg>
