<svg width="28" height="28" viewBox="0 0 28 28" fill="none" xmlns="http://www.w3.org/2000/svg">
<path d="M14.0026 28C12.0662 28 10.246 27.6326 8.54221 26.8977C6.83839 26.1628 5.35635 25.1655 4.09611 23.9057C2.83586 22.646 1.83805 21.1646 1.10268 19.4615C0.367561 17.7584 0 15.9388 0 14.0026C0 12.0662 0.367439 10.246 1.10232 8.54221C1.83719 6.83839 2.83451 5.35635 4.09426 4.09611C5.35402 2.83586 6.83544 1.83805 8.53853 1.10268C10.2416 0.367561 12.0612 0 13.9974 0C15.9338 0 17.754 0.367438 19.4578 1.10232C21.1616 1.83719 22.6437 2.83451 23.9039 4.09426C25.1641 5.35402 26.1619 6.83544 26.8973 8.53853C27.6324 10.2416 28 12.0612 28 13.9974C28 15.9338 27.6326 17.754 26.8977 19.4578C26.1628 21.1616 25.1655 22.6437 23.9057 23.9039C22.646 25.1641 21.1646 26.1619 19.4615 26.8973C17.7584 27.6324 15.9388 28 14.0026 28ZM14 25.7895C17.2912 25.7895 20.0789 24.6474 22.3632 22.3632C24.6474 20.0789 25.7895 17.2912 25.7895 14C25.7895 10.7088 24.6474 7.92105 22.3632 5.63684C20.0789 3.35263 17.2912 2.21053 14 2.21053C10.7088 2.21053 7.92105 3.35263 5.63684 5.63684C3.35263 7.92105 2.21053 10.7088 2.21053 14C2.21053 17.2912 3.35263 20.0789 5.63684 22.3632C7.92105 24.6474 10.7088 25.7895 14 25.7895ZM14.0033 22.1053C11.7528 22.1053 9.83869 21.3176 8.26111 19.7422C6.68353 18.1668 5.89474 16.2539 5.89474 14.0033C5.89474 11.7528 6.68242 9.83868 8.25779 8.2611C9.83316 6.68353 11.7461 5.89474 13.9967 5.89474C16.2472 5.89474 18.1613 6.68242 19.7389 8.25779C21.3165 9.83316 22.1053 11.7461 22.1053 13.9967C22.1053 16.2472 21.3176 18.1613 19.7422 19.7389C18.1668 21.3165 16.2539 22.1053 14.0033 22.1053ZM14 19.8947C15.6211 19.8947 17.0088 19.3175 18.1632 18.1632C19.3175 17.0088 19.8947 15.6211 19.8947 14C19.8947 12.3789 19.3175 10.9912 18.1632 9.83684C17.0088 8.68246 15.6211 8.10526 14 8.10526C12.3789 8.10526 10.9912 8.68246 9.83684 9.83684C8.68246 10.9912 8.10526 12.3789 8.10526 14C8.10526 15.6211 8.68246 17.0088 9.83684 18.1632C10.9912 19.3175 12.3789 19.8947 14 19.8947ZM14 16.2105C13.3973 16.2105 12.8782 15.9928 12.4427 15.5573C12.0072 15.1218 11.7895 14.6027 11.7895 14C11.7895 13.3973 12.0072 12.8782 12.4427 12.4427C12.8782 12.0072 13.3973 11.7895 14 11.7895C14.6027 11.7895 15.1218 12.0072 15.5573 12.4427C15.9928 12.8782 16.2105 13.3973 16.2105 14C16.2105 14.6027 15.9928 15.1218 15.5573 15.5573C15.1218 15.9928 14.6027 16.2105 14 16.2105Z" fill="white"/>
</svg>
