<svg width="30" height="30" viewBox="0 0 30 30" fill="none" xmlns="http://www.w3.org/2000/svg">
<path d="M15 21.5026L8.52003 15.0158L15 8.52899L21.48 15.0158L15 21.5026ZM17.0875 29.1362C16.8084 29.4157 16.4852 29.6296 16.1179 29.7779C15.7506 29.926 15.3779 30 15 30C14.6221 30 14.2494 29.926 13.8821 29.7779C13.5148 29.6296 13.1916 29.4157 12.9125 29.1362L0.846886 17.0584C0.578371 16.7893 0.370027 16.4709 0.221852 16.1033C0.0739507 15.7356 0 15.3679 0 15.0002C0 14.6322 0.0739507 14.2644 0.221852 13.8967C0.370027 13.5291 0.578371 13.2108 0.846886 12.942L12.8875 0.888752C13.1833 0.592638 13.5106 0.370418 13.8695 0.222087C14.2286 0.0740303 14.6054 0 15 0C15.3946 0 15.7714 0.0740303 16.1305 0.222087C16.4894 0.370418 16.8167 0.592638 17.1125 0.888752L29.1531 12.942C29.4216 13.2108 29.63 13.5291 29.7781 13.8967C29.926 14.2644 30 14.6322 30 15.0002C30 15.3679 29.926 15.7356 29.7781 16.1033C29.63 16.4709 29.4216 16.7893 29.1531 17.0584L17.0875 29.1362ZM15.2677 26.5331L26.5208 15.2678C26.5942 15.1943 26.6309 15.1051 26.6309 15.0002C26.6309 14.895 26.5942 14.8057 26.5208 14.7322L15.2677 3.46691C15.1943 3.39343 15.1051 3.35929 15 3.36448C14.8949 3.36994 14.8057 3.40941 14.7323 3.48289L3.46327 14.7638C3.38986 14.8373 3.35575 14.9213 3.36094 15.0158C3.3664 15.1103 3.40583 15.1943 3.47923 15.2678L14.7323 26.5331C14.8057 26.6066 14.8949 26.6433 15 26.6433C15.1051 26.6433 15.1943 26.6066 15.2677 26.5331Z" fill="white"/>
</svg>
