<svg width="28" height="27" viewBox="0 0 28 27" fill="none" xmlns="http://www.w3.org/2000/svg">
<path d="M3.05592 27L0 8.87311H28L24.9441 27H3.05592ZM5.13924 24.5282H22.8608L24.9823 11.345H3.01765L5.13924 24.5282ZM10.672 17.5246H17.328C17.6816 17.5246 17.9779 17.4061 18.217 17.169C18.4563 16.932 18.576 16.6384 18.576 16.2882C18.576 15.9378 18.4563 15.6443 18.217 15.4079C17.9779 15.1711 17.6816 15.0527 17.328 15.0527H10.672C10.3184 15.0527 10.0221 15.1712 9.78303 15.4083C9.54369 15.6453 9.42402 15.9389 9.42402 16.2891C9.42402 16.6395 9.54369 16.9331 9.78303 17.1699C10.0221 17.4063 10.3184 17.5246 10.672 17.5246ZM4.01605 6.9084C3.66245 6.9084 3.36612 6.78989 3.12706 6.55287C2.88772 6.31585 2.76805 6.02225 2.76805 5.67207C2.76805 5.32161 2.88772 5.02815 3.12706 4.79168C3.36612 4.55493 3.66245 4.43656 4.01605 4.43656H23.984C24.3376 4.43656 24.6339 4.55507 24.8729 4.79209C25.1123 5.02911 25.2319 5.32271 25.2319 5.67289C25.2319 6.02335 25.1123 6.31681 24.8729 6.55328C24.6339 6.79003 24.3376 6.9084 23.984 6.9084H4.01605ZM7.34403 2.47185C6.99043 2.47185 6.6941 2.35334 6.45504 2.11631C6.2157 1.87929 6.09604 1.58569 6.09604 1.23551C6.09604 0.885059 6.2157 0.591596 6.45504 0.355122C6.6941 0.118374 6.99043 0 7.34403 0H20.656C21.0096 0 21.3059 0.118512 21.545 0.355534C21.7843 0.592557 21.904 0.886158 21.904 1.23634C21.904 1.58679 21.7843 1.88025 21.545 2.11673C21.3059 2.35347 21.0096 2.47185 20.656 2.47185H7.34403Z" fill="white"/>
</svg>
