<svg width="32" height="29" viewBox="0 0 32 29" fill="none" xmlns="http://www.w3.org/2000/svg">
<path d="M15.6743 26.7086C15.8245 26.7086 15.9773 26.6733 16.1326 26.6028C16.2877 26.5322 16.4101 26.4519 16.5 26.3617L28.6792 14.1417C29.0228 13.7969 29.2816 13.4286 29.4554 13.0367C29.629 12.645 29.7158 12.2338 29.7158 11.8029C29.7158 11.3563 29.629 10.9263 29.4554 10.513C29.2816 10.0994 29.0228 9.72816 28.6792 9.39916L22.5881 3.28762C22.2602 2.94283 21.9049 2.6906 21.5221 2.53094C21.1397 2.37153 20.7258 2.29183 20.2807 2.29183C19.8513 2.29183 19.4388 2.37153 19.0434 2.53094C18.648 2.6906 18.2834 2.94283 17.9497 3.28762L17.0767 4.16348L19.8939 7.01337C20.2355 7.34059 20.4879 7.71378 20.6511 8.13293C20.814 8.55207 20.8955 8.98689 20.8955 9.43736C20.8955 10.3699 20.5851 11.1476 19.9643 11.7704C19.3435 12.3933 18.5684 12.7047 17.639 12.7047C17.1901 12.7047 16.7552 12.6303 16.3344 12.4813C15.9138 12.3326 15.5405 12.0946 15.2144 11.7674L12.3299 8.89687L5.71185 15.5371C5.59662 15.6527 5.51021 15.782 5.45259 15.9251C5.39498 16.068 5.36618 16.2149 5.36618 16.3659C5.36618 16.6478 5.46186 16.8887 5.65322 17.0886C5.84458 17.2885 6.08074 17.3885 6.36169 17.3885C6.5122 17.3885 6.66498 17.3532 6.82005 17.2827C6.97538 17.2121 7.09796 17.1318 7.1878 17.0416L12.1894 12.0233L13.794 13.6333L8.81566 18.6516C8.70069 18.7673 8.6144 18.8966 8.55678 19.0397C8.49917 19.1826 8.47037 19.3295 8.47037 19.4805C8.47037 19.7527 8.56846 19.9873 8.76464 20.1841C8.96083 20.381 9.19457 20.4794 9.46588 20.4794C9.61639 20.4794 9.76917 20.4441 9.92424 20.3736C10.0796 20.303 10.202 20.2227 10.2916 20.1325L15.4691 14.9614L17.0741 16.5714L11.9198 21.7662C11.8145 21.8564 11.7306 21.9792 11.6682 22.1348C11.6058 22.2907 11.5746 22.444 11.5746 22.5947C11.5746 22.8672 11.6726 23.1019 11.8688 23.2987C12.065 23.4955 12.2988 23.594 12.5701 23.594C12.7203 23.594 12.8668 23.5651 13.0094 23.5073C13.1518 23.4495 13.2806 23.3627 13.3958 23.2471L18.5733 18.076L20.1783 19.686L15.0008 24.8808C14.8856 24.9964 14.7992 25.1306 14.7416 25.2834C14.6839 25.4362 14.6551 25.5831 14.6551 25.7242C14.6551 26.0061 14.7596 26.2406 14.9685 26.4278C15.1773 26.615 15.4126 26.7086 15.6743 26.7086ZM15.6507 29C14.7898 29 14.0392 28.7004 13.3988 28.1012C12.7585 27.5018 12.4238 26.7554 12.3946 25.8621C11.5317 25.8033 10.8108 25.4958 10.2318 24.9396C9.65293 24.3832 9.33911 23.6525 9.29038 22.7475C8.38839 22.6889 7.65923 22.3727 7.10291 21.7987C6.54633 21.2247 6.2485 20.5028 6.20942 19.6329C5.30362 19.5744 4.55593 19.2448 3.96636 18.6444C3.37679 18.0439 3.082 17.2844 3.082 16.3659C3.082 15.9155 3.16741 15.4742 3.33821 15.042C3.50902 14.6101 3.75748 14.2307 4.08361 13.9037L12.3299 5.65317L16.7901 10.128C16.8797 10.2336 16.9972 10.3179 17.1426 10.3808C17.2883 10.4435 17.446 10.4748 17.6158 10.4748C17.893 10.4748 18.132 10.3827 18.333 10.1986C18.5343 10.0145 18.6349 9.77349 18.6349 9.47555C18.6349 9.30519 18.6037 9.14706 18.5413 9.00115C18.4786 8.85523 18.3946 8.7372 18.2893 8.64706L12.9477 3.28762C12.6198 2.94283 12.2621 2.6906 11.8745 2.53094C11.487 2.37153 11.0706 2.29183 10.6255 2.29183C10.1961 2.29183 9.78859 2.37153 9.40307 2.53094C9.0173 2.6906 8.65272 2.94283 8.30933 3.28762L3.30738 8.32964C3.03023 8.60772 2.80334 8.93634 2.62669 9.31551C2.45005 9.69442 2.34612 10.0808 2.3149 10.4748C2.28343 10.8 2.29803 11.1217 2.35868 11.44C2.41909 11.7583 2.52543 12.0576 2.67771 12.3377L0.996936 14.0241C0.653295 13.5265 0.394676 12.9692 0.221079 12.3522C0.0472282 11.7352 -0.0240889 11.1094 0.00712814 10.4748C0.0383452 9.77145 0.196461 9.09218 0.481474 8.43698C0.766488 7.78177 1.16571 7.19659 1.67914 6.68144L6.66625 1.67762C7.23653 1.12121 7.85694 0.702571 8.52747 0.421695C9.198 0.140564 9.90229 0 10.6403 0C11.3781 0 12.0799 0.140564 12.7456 0.421695C13.4115 0.702571 14.0217 1.12121 14.576 1.67762L15.4489 2.5531L16.3214 1.67762C16.8915 1.12121 17.5093 0.702571 18.1751 0.421695C18.8408 0.140564 19.5426 0 20.2807 0C21.0187 0 21.723 0.140564 22.3935 0.421695C23.0641 0.702571 23.6766 1.12121 24.2312 1.67762L30.2842 7.75095C30.8385 8.30736 31.2631 8.94054 31.558 9.6505C31.8527 10.3605 32 11.0857 32 11.8262C32 12.5667 31.8527 13.2709 31.558 13.9389C31.2631 14.6068 30.8385 15.2189 30.2842 15.775L18.1046 27.9717C17.7688 28.3086 17.3907 28.5643 16.9701 28.7387C16.5494 28.9129 16.1095 29 15.6507 29Z" fill="white"/>
</svg>
