<svg width="24" height="11" viewBox="0 0 24 11" fill="none" xmlns="http://www.w3.org/2000/svg">
<path d="M10.525 5.5C10.1508 5.5 9.8435 5.35867 9.603 5.076C9.3625 4.79333 9.27433 4.4635 9.3385 4.0865L9.5905 2.5365C9.69817 1.94167 9.97958 1.45358 10.4348 1.07225C10.8898 0.69075 11.4122 0.5 12.0022 0.5C12.6059 0.5 13.1353 0.69075 13.5903 1.07225C14.0454 1.45358 14.3268 1.94167 14.4345 2.5365L14.6865 4.0865C14.7507 4.4635 14.6625 4.79333 14.422 5.076C14.1815 5.35867 13.8742 5.5 13.5 5.5H10.525ZM10.875 4H13.15L12.95 2.775C12.9167 2.54167 12.8083 2.35417 12.625 2.2125C12.4417 2.07083 12.2333 2 12 2C11.7667 2 11.5625 2.07083 11.3875 2.2125C11.2125 2.35417 11.1083 2.54167 11.075 2.775L10.875 4ZM3.428 6.33075C3.10167 6.34742 2.81908 6.28417 2.58025 6.141C2.34142 5.99783 2.18583 5.77583 2.1135 5.475C2.08017 5.34433 2.07342 5.21517 2.09325 5.0875C2.11308 4.96 2.15 4.83808 2.204 4.72175C2.204 4.73642 2.19567 4.70742 2.179 4.63475C2.152 4.60142 2.08142 4.43025 1.96725 4.12125C1.94042 3.94692 1.96242 3.78217 2.03325 3.627C2.10408 3.47183 2.19625 3.33783 2.30975 3.225C2.31608 3.225 2.3295 3.21158 2.35 3.18475C2.379 2.91408 2.49108 2.68617 2.68625 2.501C2.88142 2.31583 3.12 2.22325 3.402 2.22325C3.43267 2.22325 3.56858 2.25017 3.80975 2.304L3.875 2.2885C3.9455 2.21483 4.03717 2.15958 4.15 2.12275C4.26283 2.08592 4.38275 2.0675 4.50975 2.0675C4.66775 2.0675 4.80792 2.09183 4.93025 2.1405C5.05242 2.18917 5.14917 2.26625 5.2205 2.37175C5.23467 2.37175 5.24533 2.3755 5.2525 2.383C5.25967 2.3905 5.27033 2.39425 5.2845 2.39425C5.4795 2.41092 5.65283 2.47233 5.8045 2.5785C5.95617 2.68467 6.06808 2.82967 6.14025 3.0135C6.16725 3.11733 6.17817 3.21383 6.173 3.303C6.16783 3.392 6.14858 3.48008 6.11525 3.56725C6.11525 3.57758 6.12358 3.60775 6.14025 3.65775C6.24425 3.76158 6.32317 3.8715 6.377 3.9875C6.43083 4.1035 6.45775 4.22692 6.45775 4.35775C6.45775 4.40525 6.41733 4.55458 6.3365 4.80575C6.32633 4.82625 6.32633 4.85642 6.3365 4.89625C6.343 4.91542 6.3565 5.0295 6.377 5.2385C6.377 5.53833 6.25167 5.79533 6.001 6.0095C5.7505 6.22367 5.44633 6.33075 5.0885 6.33075H3.428ZM19.7638 6.38475C19.2943 6.38475 18.8909 6.21675 18.5538 5.88075C18.2166 5.54475 18.048 5.14083 18.048 4.669C18.048 4.49733 18.0729 4.33708 18.1227 4.18825C18.1724 4.03925 18.2398 3.89383 18.325 3.752L17.7242 3.22175C17.5812 3.10858 17.5562 2.96642 17.649 2.79525C17.742 2.62408 17.8743 2.5385 18.0458 2.5385H19.7615C20.2333 2.5385 20.6363 2.70575 20.9703 3.04025C21.3041 3.37458 21.471 3.77658 21.471 4.24625V4.67325C21.471 5.13975 21.3038 5.54167 20.9695 5.879C20.6352 6.21617 20.2332 6.38475 19.7638 6.38475ZM0.5 10.7885V9.56925C0.5 8.89358 0.848583 8.34458 1.54575 7.92225C2.24292 7.49975 3.14767 7.2885 4.26 7.2885C4.46367 7.2885 4.65908 7.29425 4.84625 7.30575C5.03342 7.31725 5.21225 7.33967 5.38275 7.373C5.19425 7.668 5.05125 7.98183 4.95375 8.3145C4.85642 8.64733 4.80775 9.00183 4.80775 9.378V10.7885H0.5ZM6.5 10.7885V9.4135C6.5 8.45833 7.00825 7.69233 8.02475 7.1155C9.04125 6.5385 10.3672 6.25 12.0027 6.25C13.6534 6.25 14.9823 6.5385 15.9895 7.1155C16.9965 7.69233 17.5 8.45833 17.5 9.4135V10.7885H6.5ZM19.75 7.2885C20.875 7.2885 21.7812 7.49975 22.4688 7.92225C23.1562 8.34458 23.5 8.89358 23.5 9.56925V10.7885H19.1923V9.378C19.1923 9.00183 19.1478 8.64733 19.0588 8.3145C18.9696 7.98183 18.8359 7.668 18.6578 7.373C18.8283 7.33967 19.0051 7.31725 19.1883 7.30575C19.3716 7.29425 19.5588 7.2885 19.75 7.2885ZM11.9988 7.75C10.9598 7.75 10.0669 7.88783 9.32025 8.1635C8.57342 8.43917 8.159 8.77892 8.077 9.18275V9.2885H15.9385V9.18275C15.8462 8.77892 15.4307 8.43917 14.6923 8.1635C13.9539 7.88783 13.0561 7.75 11.9988 7.75Z" fill="#00AEFF"/>
</svg>
