<svg width="15" height="15" viewBox="0 0 15 15" fill="none" xmlns="http://www.w3.org/2000/svg">
<path d="M8.51786 6.38018L5.48214 3.18068L6.5 2.12673L8.51786 4.25345L12.5714 0L13.5714 1.05395L8.51786 6.38018ZM4.28571 11.9887L9.25 13.4191L13.5 12.0263C13.4405 11.9134 13.3542 11.8162 13.2411 11.7346C13.128 11.6531 13 11.6123 12.8571 11.6123H9.25C8.92857 11.6123 8.67262 11.5997 8.48214 11.5747C8.29167 11.5496 8.09524 11.4994 7.89286 11.4241L6.23214 10.8407L6.625 9.37265L8.07143 9.8808C8.27381 9.94354 8.5119 9.99373 8.78572 10.0314C9.05952 10.069 9.46429 10.0941 10 10.1067C10 9.96863 9.96131 9.83689 9.88393 9.71142C9.80655 9.58595 9.71429 9.50439 9.60714 9.46675L5.42857 7.84818H4.28571V11.9887ZM0 14.6236V6.34254H5.42857C5.5119 6.34254 5.59524 6.35194 5.67857 6.37077C5.76191 6.38959 5.83929 6.41154 5.91071 6.43664L10.1071 8.07403C10.5 8.22459 10.8185 8.48808 11.0625 8.86449C11.3065 9.2409 11.4286 9.65496 11.4286 10.1067H12.8571C13.4524 10.1067 13.9583 10.3137 14.375 10.7277C14.7917 11.1418 15 11.6876 15 12.3651V13.1179L9.28571 15L4.28571 13.532V14.6236H0ZM1.42857 13.1179H2.85714V7.84818H1.42857V13.1179Z" fill="#00AEFF"/>
</svg>
