<svg width="902" height="275" viewBox="0 0 902 275" fill="none" xmlns="http://www.w3.org/2000/svg">
    <rect x="2.5" y="2.5" width="135" height="135" stroke="#5A7DF5" stroke-width="5" />
    <rect x="137.5" y="2.5" width="135" height="135" stroke="#5A7DF5" stroke-width="5" />
    <rect x="137.5" y="137.5" width="135" height="135" stroke="#5A7DF5" stroke-width="5" />
    <path d="M186.472 166.605H199.369C201.174 166.605 203.163 166.713 205.336 166.927C207.508 167.141 209.666 167.631 211.808 168.396C213.95 169.13 215.908 170.308 217.683 171.93C219.457 173.521 220.88 175.709 221.951 178.493C223.053 181.247 223.604 184.751 223.604 189.004V190.978C223.604 202.728 220.069 210.285 213.001 213.651L225.898 245H213.23L202.444 215.671H198.359V245H186.472V166.605ZM199.92 207.088C204.265 207.088 207.248 206.078 208.87 204.059C210.522 202.039 211.349 198.398 211.349 193.135V186.938C211.349 182.899 210.568 179.931 209.008 178.034C207.478 176.137 204.449 175.188 199.92 175.188H198.359V207.088H199.92Z" fill="black" />
    <path d="M186.472 32.6055H216.443V41.9688H198.359V65.4229H212.542V74.7861H198.359V101.637H216.443V111H186.472V32.6055Z" fill="black" />
    <path d="M37.4688 32.6055H48.8516L54.1299 79.9727L54.7266 91.0342H55.874L56.9756 79.9727L65.4209 32.6055H74.9219L83 79.9727L83.918 91.0342H85.1113L85.6621 79.9727L90.4814 32.6055H101.91L90.9404 111H78.8691L72.3975 73.3174L70.3779 56.9316H69.46L67.4863 73.3174L60.6934 111H48.7598L37.4688 32.6055Z" fill="black" />
    <path d="M234.234 82.7285C234.234 82.6504 234.859 82.2012 236.109 81.3809C237.379 80.5605 238.824 79.8184 240.445 79.1543C242.066 78.4707 243.678 78.1289 245.279 78.1289C248.15 78.1289 250.387 79.0762 251.988 80.9707C253.59 82.8652 254.391 85.4727 254.391 88.793V104.701L258.609 106.195V111H242.086V106.195L245.396 104.701V90.4336C245.396 89.0273 245.025 87.875 244.283 86.9766C243.541 86.0781 242.555 85.6289 241.324 85.6289C240.211 85.6289 239.176 85.8828 238.219 86.3906C237.281 86.8789 236.49 87.4258 235.846 88.0312C235.221 88.6172 234.908 88.9492 234.908 89.0273V104.701L238.189 106.195V111H221.109V106.195L225.914 104.701V85.1895L221.109 83.6953V78.8906L233.824 78.5977L234.234 82.7285ZM261.277 117.592C261.277 116.068 261.745 114.77 262.683 113.695C263.62 112.621 264.665 111.781 265.818 111.176C266.989 110.57 267.575 110.316 267.575 110.414C267.575 110.492 267.243 110.404 266.579 110.15C265.915 109.877 265.31 109.447 264.763 108.861C264.236 108.256 263.972 107.445 263.972 106.43C263.972 105.199 265.017 102.943 267.107 99.6621C265.954 98.9004 264.89 97.7773 263.913 96.293C262.956 94.8086 262.478 92.8066 262.478 90.2871C262.478 86.3223 263.806 83.2852 266.462 81.1758C269.118 79.0664 272.585 78.0117 276.862 78.0117C279.538 78.0117 281.902 78.4902 283.952 79.4473L294.265 79.2129V83.9883L289.343 84.8379C289.382 84.9941 289.558 85.4922 289.87 86.332C290.202 87.1719 290.368 88.2559 290.368 89.584C290.368 93.7441 289.07 96.8398 286.472 98.8711C283.874 100.883 280.378 101.889 275.984 101.889C275.222 101.889 274.548 101.84 273.962 101.742C273.376 101.625 273.025 101.566 272.907 101.566L272.673 105.609H281.55C285.398 105.609 288.357 106.41 290.427 108.012C292.517 109.613 293.562 111.908 293.562 114.896C293.562 118.334 292.146 121.088 289.314 123.158C286.501 125.248 282.312 126.293 276.745 126.293C271.706 126.293 267.868 125.629 265.232 124.301C262.595 122.992 261.277 120.756 261.277 117.592ZM276.57 84.1934C274.812 84.1934 273.523 84.6621 272.702 85.5996C271.882 86.5371 271.472 87.9629 271.472 89.877C271.472 91.752 271.862 93.2266 272.644 94.3008C273.425 95.3555 274.636 95.8828 276.277 95.8828C278.112 95.8828 279.421 95.4043 280.202 94.4473C280.984 93.4902 281.374 91.9668 281.374 89.877C281.374 87.9629 280.984 86.5371 280.202 85.5996C279.421 84.6621 278.21 84.1934 276.57 84.1934ZM272.849 112.201C272.693 112.279 272.38 112.465 271.911 112.758C271.462 113.07 271.023 113.51 270.593 114.076C270.183 114.662 269.978 115.336 269.978 116.098C269.978 117.543 270.564 118.5 271.736 118.969C272.927 119.457 274.841 119.701 277.478 119.701C280.193 119.701 282.146 119.379 283.337 118.734C284.548 118.09 285.154 117.055 285.154 115.629C285.154 114.34 284.685 113.441 283.747 112.934C282.81 112.445 281.277 112.201 279.148 112.201H272.849ZM305.75 96.791C305.907 99.1934 306.629 101.068 307.918 102.416C309.227 103.744 310.926 104.408 313.016 104.408C314.5 104.408 315.985 104.203 317.469 103.793C318.973 103.363 320.213 102.934 321.19 102.504C322.186 102.055 322.821 101.742 323.094 101.566L325.672 106.547C325.672 106.625 324.969 107.123 323.563 108.041C322.176 108.939 320.467 109.76 318.436 110.502C316.424 111.225 314.276 111.586 311.991 111.586C306.912 111.586 303.045 110.18 300.389 107.367C297.733 104.555 296.405 100.57 296.405 95.4141C296.405 91.9375 297.039 88.8906 298.309 86.2734C299.598 83.6367 301.444 81.6055 303.846 80.1797C306.248 78.7344 309.1 78.0117 312.401 78.0117C316.795 78.0117 320.164 79.2715 322.508 81.791C324.852 84.3105 326.024 87.748 326.024 92.1035C326.024 93.0605 325.975 93.9883 325.877 94.8867C325.78 95.7852 325.711 96.3516 325.672 96.5859L305.75 96.791ZM311.815 85.1895C310.174 85.1895 308.836 85.7461 307.801 86.8594C306.766 87.9531 306.121 89.3984 305.868 91.1953H316.737C316.737 89.3984 316.336 87.9531 315.536 86.8594C314.735 85.7461 313.495 85.1895 311.815 85.1895ZM342.197 82.7285C342.197 82.6504 342.822 82.2012 344.072 81.3809C345.341 80.5605 346.787 79.8184 348.408 79.1543C350.029 78.4707 351.64 78.1289 353.242 78.1289C356.113 78.1289 358.349 79.0762 359.951 80.9707C361.552 82.8652 362.353 85.4727 362.353 88.793V104.701L366.572 106.195V111H350.048V106.195L353.359 104.701V90.4336C353.359 89.0273 352.988 87.875 352.246 86.9766C351.504 86.0781 350.517 85.6289 349.287 85.6289C348.173 85.6289 347.138 85.8828 346.181 86.3906C345.244 86.8789 344.453 87.4258 343.808 88.0312C343.183 88.6172 342.871 88.9492 342.871 89.0273V104.701L346.152 106.195V111H329.072V106.195L333.877 104.701V85.1895L329.072 83.6953V78.8906L341.787 78.5977L342.197 82.7285ZM381.837 82.084C383.067 81.0488 384.561 80.1113 386.319 79.2715C388.096 78.4316 389.962 78.0117 391.915 78.0117C394.962 78.0117 397.296 78.959 398.917 80.8535C400.538 82.748 401.348 85.3945 401.348 88.793V104.701L405.538 106.195V111H389.22V106.195L392.325 104.76V90.2285C392.325 87.0254 391.007 85.4336 388.37 85.4531C387.374 85.4531 386.397 85.6973 385.44 86.1855C384.483 86.6543 383.682 87.1426 383.038 87.6504C382.393 88.1387 381.993 88.4609 381.837 88.6172V104.701L385.03 106.195V111H368.038V106.195L372.843 104.701V70.9805L368.038 69.7793V64.9746L381.837 64.5059V82.084ZM427.307 107.104C427.307 107.182 426.789 107.621 425.754 108.422C424.719 109.223 423.479 109.955 422.033 110.619C420.588 111.264 419.104 111.586 417.58 111.586C414.65 111.586 412.355 110.775 410.695 109.154C409.055 107.514 408.234 105.189 408.234 102.182C408.234 98.7441 409.465 96.2344 411.926 94.6523C414.387 93.0703 417.971 92.2793 422.678 92.2793H426.896V88.9688C426.896 86.0391 425.354 84.584 422.268 84.6035C421.35 84.6035 420.5 84.6719 419.719 84.8086C418.938 84.9453 418.312 85.0918 417.844 85.248C417.395 85.3848 417.111 85.4727 416.994 85.5117L416.086 89.291H410.695L410.285 80.4141C410.637 80.2969 411.496 80.043 412.863 79.6523C414.25 79.2617 415.9 78.8906 417.814 78.5391C419.748 78.1875 421.574 78.0117 423.293 78.0117C426.379 78.0117 428.83 78.4023 430.646 79.1836C432.463 79.9453 433.791 81.1953 434.631 82.9336C435.471 84.6523 435.891 86.9668 435.891 89.877V104.701L440.402 105.785V110.59L428.391 111L427.307 107.104ZM416.936 101.273C416.936 102.445 417.238 103.344 417.844 103.969C418.469 104.574 419.348 104.877 420.48 104.877C421.438 104.877 422.385 104.623 423.322 104.115C424.26 103.588 425.051 103.051 425.695 102.504C426.34 101.938 426.74 101.566 426.896 101.391V97.377H423.469C421.145 97.377 419.475 97.6895 418.459 98.3145C417.443 98.9395 416.936 99.9258 416.936 101.273ZM455.902 82.7285C455.902 82.6504 456.37 82.1914 457.308 81.3516C458.245 80.5117 459.329 79.75 460.56 79.0664C461.81 78.3633 463.04 78.0117 464.251 78.0117C465.208 78.0117 466.107 78.0898 466.946 78.2461C467.786 78.4023 468.441 78.5684 468.909 78.7441C469.398 78.9199 469.7 79.0273 469.818 79.0664L469.349 90.6094H463.958L463.05 85.5117C462.015 85.5117 461.009 85.7656 460.032 86.2734C459.075 86.7617 458.255 87.3086 457.571 87.9141C456.907 88.5 456.575 88.8125 456.575 88.8516V104.701L462.581 106.195V111H442.777V106.195L447.581 104.701V85.1895L442.777 83.6953V78.8906L455.374 78.5977L455.902 82.7285ZM474.77 68.6953C474.77 67.0547 475.278 65.7461 476.293 64.7695C477.309 63.793 478.52 63.3047 479.926 63.3047C483.286 63.3047 484.965 65.1016 484.965 68.6953C484.965 70.375 484.448 71.7129 483.413 72.709C482.397 73.6855 481.235 74.1738 479.926 74.1738C478.286 74.1738 477.016 73.7051 476.118 72.7676C475.219 71.8105 474.77 70.4531 474.77 68.6953ZM489.038 106.195V111H471.049V106.195L475.854 104.701V85.1895L471.049 83.6953V78.8906L484.848 78.5977V104.701L489.038 106.195ZM511.129 107.104C511.129 107.182 510.611 107.621 509.576 108.422C508.541 109.223 507.3 109.955 505.855 110.619C504.41 111.264 502.925 111.586 501.402 111.586C498.472 111.586 496.177 110.775 494.517 109.154C492.877 107.514 492.056 105.189 492.056 102.182C492.056 98.7441 493.287 96.2344 495.748 94.6523C498.209 93.0703 501.793 92.2793 506.5 92.2793H510.718V88.9688C510.718 86.0391 509.175 84.584 506.089 84.6035C505.171 84.6035 504.322 84.6719 503.541 84.8086C502.759 84.9453 502.134 85.0918 501.666 85.248C501.216 85.3848 500.933 85.4727 500.816 85.5117L499.908 89.291H494.517L494.107 80.4141C494.459 80.2969 495.318 80.043 496.685 79.6523C498.072 79.2617 499.722 78.8906 501.636 78.5391C503.57 78.1875 505.396 78.0117 507.115 78.0117C510.201 78.0117 512.652 78.4023 514.468 79.1836C516.285 79.9453 517.613 81.1953 518.453 82.9336C519.293 84.6523 519.712 86.9668 519.712 89.877V104.701L524.224 105.785V110.59L512.212 111L511.129 107.104ZM500.757 101.273C500.757 102.445 501.06 103.344 501.666 103.969C502.291 104.574 503.17 104.877 504.302 104.877C505.259 104.877 506.207 104.623 507.144 104.115C508.082 103.588 508.873 103.051 509.517 102.504C510.162 101.938 510.562 101.566 510.718 101.391V97.377H507.291C504.966 97.377 503.296 97.6895 502.281 98.3145C501.265 98.9395 500.757 99.9258 500.757 101.273ZM548.865 96.791C549.021 99.1934 549.744 101.068 551.033 102.416C552.342 103.744 554.041 104.408 556.131 104.408C557.615 104.408 559.1 104.203 560.584 103.793C562.088 103.363 563.328 102.934 564.305 102.504C565.301 102.055 565.936 101.742 566.209 101.566L568.787 106.547C568.787 106.625 568.084 107.123 566.678 108.041C565.291 108.939 563.582 109.76 561.551 110.502C559.539 111.225 557.391 111.586 555.105 111.586C550.027 111.586 546.16 110.18 543.504 107.367C540.848 104.555 539.52 100.57 539.52 95.4141C539.52 91.9375 540.154 88.8906 541.424 86.2734C542.713 83.6367 544.559 81.6055 546.961 80.1797C549.363 78.7344 552.215 78.0117 555.516 78.0117C559.91 78.0117 563.279 79.2715 565.623 81.791C567.967 84.3105 569.139 87.748 569.139 92.1035C569.139 93.0605 569.09 93.9883 568.992 94.8867C568.895 95.7852 568.826 96.3516 568.787 96.5859L548.865 96.791ZM554.93 85.1895C553.289 85.1895 551.951 85.7461 550.916 86.8594C549.881 87.9531 549.236 89.3984 548.982 91.1953H559.852C559.852 89.3984 559.451 87.9531 558.65 86.8594C557.85 85.7461 556.609 85.1895 554.93 85.1895ZM596.329 75.9023H590.616L589.121 81.5859H583.584V68.6953H618.389V81.5859H612.823L611.329 75.9023H605.616V104.086L611.329 105.902V111H590.616V105.902L596.329 104.086V75.9023ZM629.23 96.791C629.386 99.1934 630.109 101.068 631.398 102.416C632.707 103.744 634.406 104.408 636.496 104.408C637.98 104.408 639.464 104.203 640.949 103.793C642.453 103.363 643.693 102.934 644.67 102.504C645.666 102.055 646.3 101.742 646.574 101.566L649.152 106.547C649.152 106.625 648.449 107.123 647.043 108.041C645.656 108.939 643.947 109.76 641.916 110.502C639.904 111.225 637.755 111.586 635.47 111.586C630.392 111.586 626.525 110.18 623.869 107.367C621.212 104.555 619.884 100.57 619.884 95.4141C619.884 91.9375 620.519 88.8906 621.789 86.2734C623.078 83.6367 624.923 81.6055 627.326 80.1797C629.728 78.7344 632.58 78.0117 635.88 78.0117C640.275 78.0117 643.644 79.2715 645.988 81.791C648.332 84.3105 649.504 87.748 649.504 92.1035C649.504 93.0605 649.455 93.9883 649.357 94.8867C649.259 95.7852 649.191 96.3516 649.152 96.5859L629.23 96.791ZM635.295 85.1895C633.654 85.1895 632.316 85.7461 631.281 86.8594C630.246 87.9531 629.601 89.3984 629.347 91.1953H640.216C640.216 89.3984 639.816 87.9531 639.015 86.8594C638.214 85.7461 636.974 85.1895 635.295 85.1895ZM681.614 106.488C680.266 107.699 678.499 108.852 676.311 109.945C674.143 111.039 671.614 111.586 668.723 111.586C663.802 111.586 659.973 110.15 657.239 107.279C654.505 104.408 653.138 100.404 653.138 95.2676C653.138 89.916 654.583 85.707 657.473 82.6406C660.384 79.5547 664.436 78.0117 669.632 78.0117C671.155 78.0117 672.688 78.168 674.231 78.4805C675.794 78.793 677.093 79.1152 678.128 79.4473C679.182 79.7598 679.846 79.9746 680.12 80.0918L679.827 89.9355H674.436L673.587 85.6875C673.391 85.6484 672.903 85.5605 672.122 85.4238C671.341 85.2676 670.452 85.1895 669.456 85.1895C667.249 85.1895 665.52 85.9414 664.27 87.4453C663.04 88.9492 662.425 91.1562 662.425 94.0664C662.425 97.3867 663.05 99.9453 664.3 101.742C665.569 103.52 667.444 104.408 669.925 104.408C671.487 104.408 672.854 104.174 674.026 103.705C675.218 103.217 676.214 102.719 677.014 102.211C677.815 101.703 678.352 101.371 678.626 101.215L681.614 106.488ZM696.586 82.7285C696.586 82.6504 697.211 82.2012 698.461 81.3809C699.73 80.5605 701.176 79.8184 702.797 79.1543C704.418 78.4707 706.029 78.1289 707.631 78.1289C710.502 78.1289 712.738 79.0762 714.34 80.9707C715.941 82.8652 716.742 85.4727 716.742 88.793V104.701L720.961 106.195V111H704.438V106.195L707.748 104.701V90.4336C707.748 89.0273 707.377 87.875 706.635 86.9766C705.893 86.0781 704.906 85.6289 703.676 85.6289C702.562 85.6289 701.527 85.8828 700.57 86.3906C699.633 86.8789 698.842 87.4258 698.197 88.0312C697.572 88.6172 697.26 88.9492 697.26 89.0273V104.701L700.541 106.195V111H683.461V106.195L688.266 104.701V85.1895L683.461 83.6953V78.8906L696.176 78.5977L696.586 82.7285ZM739.536 78.0117C744.361 78.0117 748.081 79.418 750.698 82.2305C753.335 85.043 754.654 89.0371 754.654 94.2129C754.654 97.7676 753.989 100.854 752.661 103.471C751.353 106.088 749.497 108.1 747.095 109.506C744.693 110.893 741.87 111.586 738.628 111.586C728.433 111.586 723.335 106.088 723.335 95.0918C723.335 91.5371 723.999 88.4805 725.327 85.9219C726.675 83.3633 728.57 81.4102 731.011 80.0625C733.452 78.6953 736.294 78.0117 739.536 78.0117ZM739.214 85.1895C736.948 85.1895 735.279 85.9219 734.204 87.3867C733.15 88.8516 732.622 91.3223 732.622 94.7988C732.622 98.1191 733.12 100.551 734.116 102.094C735.132 103.637 736.734 104.408 738.921 104.408C741.128 104.408 742.749 103.637 743.784 102.094C744.82 100.551 745.337 98.0215 745.337 94.5059C745.337 91.3809 744.849 89.0469 743.872 87.5039C742.896 85.9609 741.343 85.1895 739.214 85.1895ZM775.983 106.195V111H756.735V106.195L761.539 104.701V70.9805L756.735 69.7793V64.9746L770.592 64.5059V104.701L775.983 106.195ZM793.386 78.0117C798.211 78.0117 801.931 79.418 804.548 82.2305C807.185 85.043 808.504 89.0371 808.504 94.2129C808.504 97.7676 807.839 100.854 806.511 103.471C805.203 106.088 803.347 108.1 800.945 109.506C798.543 110.893 795.72 111.586 792.478 111.586C782.283 111.586 777.185 106.088 777.185 95.0918C777.185 91.5371 777.849 88.4805 779.177 85.9219C780.525 83.3633 782.42 81.4102 784.861 80.0625C787.302 78.6953 790.144 78.0117 793.386 78.0117ZM793.064 85.1895C790.798 85.1895 789.129 85.9219 788.054 87.3867C787 88.8516 786.472 91.3223 786.472 94.7988C786.472 98.1191 786.97 100.551 787.966 102.094C788.982 103.637 790.584 104.408 792.771 104.408C794.978 104.408 796.599 103.637 797.634 102.094C798.67 100.551 799.187 98.0215 799.187 94.5059C799.187 91.3809 798.699 89.0469 797.722 87.5039C796.746 85.9609 795.193 85.1895 793.064 85.1895ZM811.786 117.592C811.786 116.068 812.255 114.77 813.192 113.695C814.13 112.621 815.175 111.781 816.327 111.176C817.499 110.57 818.085 110.316 818.085 110.414C818.085 110.492 817.753 110.404 817.089 110.15C816.425 109.877 815.819 109.447 815.272 108.861C814.745 108.256 814.481 107.445 814.481 106.43C814.481 105.199 815.526 102.943 817.616 99.6621C816.464 98.9004 815.399 97.7773 814.423 96.293C813.466 94.8086 812.987 92.8066 812.987 90.2871C812.987 86.3223 814.315 83.2852 816.971 81.1758C819.628 79.0664 823.095 78.0117 827.372 78.0117C830.048 78.0117 832.411 78.4902 834.462 79.4473L844.774 79.2129V83.9883L839.852 84.8379C839.891 84.9941 840.067 85.4922 840.38 86.332C840.712 87.1719 840.878 88.2559 840.878 89.584C840.878 93.7441 839.579 96.8398 836.981 98.8711C834.384 100.883 830.888 101.889 826.493 101.889C825.731 101.889 825.057 101.84 824.471 101.742C823.886 101.625 823.534 101.566 823.417 101.566L823.182 105.609H832.059C835.907 105.609 838.866 106.41 840.936 108.012C843.026 109.613 844.071 111.908 844.071 114.896C844.071 118.334 842.655 121.088 839.823 123.158C837.011 125.248 832.821 126.293 827.255 126.293C822.216 126.293 818.378 125.629 815.741 124.301C813.104 122.992 811.786 120.756 811.786 117.592ZM827.079 84.1934C825.321 84.1934 824.032 84.6621 823.212 85.5996C822.391 86.5371 821.981 87.9629 821.981 89.877C821.981 91.752 822.372 93.2266 823.153 94.3008C823.934 95.3555 825.145 95.8828 826.786 95.8828C828.622 95.8828 829.93 95.4043 830.712 94.4473C831.493 93.4902 831.884 91.9668 831.884 89.877C831.884 87.9629 831.493 86.5371 830.712 85.5996C829.93 84.6621 828.72 84.1934 827.079 84.1934ZM823.358 112.201C823.202 112.279 822.889 112.465 822.421 112.758C821.971 113.07 821.532 113.51 821.102 114.076C820.692 114.662 820.487 115.336 820.487 116.098C820.487 117.543 821.073 118.5 822.245 118.969C823.436 119.457 825.35 119.701 827.987 119.701C830.702 119.701 832.655 119.379 833.846 118.734C835.057 118.09 835.663 117.055 835.663 115.629C835.663 114.34 835.194 113.441 834.257 112.934C833.319 112.445 831.786 112.201 829.657 112.201H823.358ZM850.635 68.6953C850.635 67.0547 851.143 65.7461 852.158 64.7695C853.174 63.793 854.385 63.3047 855.791 63.3047C859.15 63.3047 860.83 65.1016 860.83 68.6953C860.83 70.375 860.312 71.7129 859.277 72.709C858.262 73.6855 857.1 74.1738 855.791 74.1738C854.15 74.1738 852.881 73.7051 851.982 72.7676C851.084 71.8105 850.635 70.4531 850.635 68.6953ZM864.902 106.195V111H846.914V106.195L851.719 104.701V85.1895L846.914 83.6953V78.8906L860.713 78.5977V104.701L864.902 106.195ZM886.993 107.104C886.993 107.182 886.476 107.621 885.441 108.422C884.405 109.223 883.165 109.955 881.72 110.619C880.275 111.264 878.79 111.586 877.267 111.586C874.337 111.586 872.042 110.775 870.382 109.154C868.741 107.514 867.921 105.189 867.921 102.182C867.921 98.7441 869.152 96.2344 871.612 94.6523C874.073 93.0703 877.657 92.2793 882.364 92.2793H886.583V88.9688C886.583 86.0391 885.04 84.584 881.954 84.6035C881.036 84.6035 880.187 84.6719 879.405 84.8086C878.624 84.9453 877.999 85.0918 877.53 85.248C877.081 85.3848 876.798 85.4727 876.681 85.5117L875.773 89.291H870.382L869.972 80.4141C870.323 80.2969 871.183 80.043 872.55 79.6523C873.937 79.2617 875.587 78.8906 877.501 78.5391C879.435 78.1875 881.261 78.0117 882.98 78.0117C886.066 78.0117 888.517 78.4023 890.333 79.1836C892.15 79.9453 893.478 81.1953 894.318 82.9336C895.157 84.6523 895.577 86.9668 895.577 89.877V104.701L900.089 105.785V110.59L888.077 111L886.993 107.104ZM876.622 101.273C876.622 102.445 876.925 103.344 877.53 103.969C878.155 104.574 879.034 104.877 880.167 104.877C881.124 104.877 882.071 104.623 883.009 104.115C883.946 103.588 884.737 103.051 885.382 102.504C886.027 101.938 886.427 101.566 886.583 101.391V97.377H883.155C880.831 97.377 879.161 97.6895 878.146 98.3145C877.13 98.9395 876.622 99.9258 876.622 101.273Z" fill="#929292" />
    <path d="M525.658 132.002H513.019V137.859H523.909V142.281H513.019V152H507.376V127.58H525.658V132.002ZM535.122 133.668C537.245 133.668 538.95 133.916 540.237 134.411C541.524 134.906 542.475 135.725 543.091 136.869C543.707 138.002 544.015 139.553 544.015 141.522V152H539.461L539.082 150.267H538.834C538.24 150.96 537.503 151.477 536.623 151.818C535.743 152.16 534.77 152.33 533.703 152.33C532.372 152.33 531.233 152.11 530.287 151.67C529.341 151.23 528.621 150.614 528.126 149.822C527.642 149.03 527.4 148.117 527.4 147.083C527.4 145.367 528.038 144.041 529.314 143.106C530.601 142.16 532.614 141.599 535.353 141.423L538.636 141.176V141.11C538.636 140.252 538.488 139.575 538.191 139.08C537.905 138.585 537.437 138.233 536.788 138.024C536.15 137.815 535.281 137.711 534.181 137.711C533.4 137.711 532.537 137.777 531.591 137.909C530.645 138.041 529.765 138.233 528.951 138.486V134.477C529.875 134.213 530.887 134.015 531.987 133.883C533.087 133.74 534.132 133.668 535.122 133.668ZM535.435 148.65C536.018 148.65 536.585 148.557 537.135 148.37C537.696 148.183 538.196 147.886 538.636 147.479V144.179L535.864 144.393C534.797 144.481 534.027 144.707 533.554 145.07C533.092 145.433 532.861 145.944 532.861 146.604C532.861 147.253 533.076 147.759 533.505 148.122C533.945 148.474 534.588 148.65 535.435 148.65ZM554.959 152.347C553.804 152.347 552.682 152.275 551.593 152.132C550.504 152 549.503 151.796 548.59 151.521V147.677C549.547 147.952 550.565 148.161 551.643 148.304C552.721 148.447 553.799 148.518 554.877 148.518C556.131 148.518 557.027 148.37 557.566 148.073C558.105 147.776 558.375 147.336 558.375 146.753C558.375 146.313 558.248 145.977 557.995 145.746C557.742 145.504 557.297 145.328 556.659 145.218L553.425 144.707C551.566 144.41 550.224 143.832 549.399 142.974C548.574 142.116 548.161 140.956 548.161 139.493C548.161 137.678 548.92 136.253 550.438 135.219C551.967 134.185 554.25 133.668 557.286 133.668C558.221 133.668 559.15 133.723 560.074 133.833C561.009 133.943 561.84 134.097 562.566 134.295V138.14C561.818 137.931 560.987 137.771 560.074 137.661C559.172 137.54 558.27 137.48 557.368 137.48C555.872 137.48 554.827 137.645 554.233 137.975C553.639 138.305 553.342 138.745 553.342 139.295C553.342 139.691 553.469 140.01 553.722 140.252C553.975 140.483 554.415 140.653 555.042 140.763L558.276 141.275C560.069 141.561 561.394 142.111 562.252 142.925C563.121 143.728 563.556 144.927 563.556 146.522C563.556 147.732 563.22 148.771 562.549 149.64C561.889 150.509 560.916 151.18 559.629 151.653C558.342 152.116 556.785 152.347 554.959 152.347ZM577.462 147.908C577.968 147.908 578.633 147.831 579.458 147.677V151.934C578.93 152.055 578.353 152.154 577.726 152.231C577.099 152.308 576.499 152.347 575.927 152.347C571.208 152.347 568.849 150.08 568.849 145.548V138.288H565.73V133.949H568.849L569.839 127.58H574.36V133.949H579.359V138.288H574.36V144.558C574.36 145.394 574.464 146.06 574.673 146.555C574.893 147.039 575.229 147.385 575.68 147.594C576.131 147.803 576.725 147.908 577.462 147.908ZM599.468 144.509H587.654C587.72 145.466 587.945 146.219 588.33 146.769C588.715 147.308 589.32 147.704 590.145 147.957C590.981 148.199 592.125 148.32 593.577 148.32C595.062 148.32 596.668 148.139 598.395 147.776V151.736C596.514 152.143 594.633 152.347 592.752 152.347C590.332 152.347 588.341 152.017 586.779 151.356C585.228 150.696 584.073 149.684 583.314 148.32C582.566 146.945 582.192 145.174 582.192 143.007C582.192 141.027 582.539 139.339 583.232 137.942C583.925 136.545 584.937 135.483 586.268 134.757C587.599 134.031 589.21 133.668 591.102 133.668C593.83 133.668 595.904 134.488 597.323 136.127C598.753 137.755 599.468 140.103 599.468 143.172V144.509ZM591.036 137.067C589.925 137.067 589.089 137.414 588.528 138.107C587.978 138.789 587.681 139.905 587.637 141.456H594.369C594.325 139.905 594.028 138.789 593.478 138.107C592.939 137.414 592.125 137.067 591.036 137.067ZM603.634 133.949H608.139L608.568 136.176H608.832C609.36 135.362 610.058 134.746 610.927 134.328C611.807 133.91 612.781 133.701 613.848 133.701C614.31 133.701 614.827 133.745 615.399 133.833V138.734C614.948 138.646 614.321 138.602 613.518 138.602C612.682 138.602 611.857 138.75 611.043 139.047C610.24 139.344 609.607 139.773 609.145 140.334V152H603.634V133.949ZM628.839 159.26V125.336H633.839V159.26H628.839ZM664.577 139.394C666.029 139.702 667.162 140.34 667.976 141.308C668.79 142.276 669.197 143.541 669.197 145.103C669.197 146.665 668.79 147.974 667.976 149.03C667.173 150.075 665.847 150.878 663.999 151.439C662.151 152 659.704 152.281 656.657 152.281C655.59 152.281 654.391 152.237 653.06 152.149C651.74 152.061 650.535 151.945 649.446 151.802V128.207C650.656 127.932 651.998 127.712 653.472 127.547C654.957 127.371 656.382 127.283 657.746 127.283C661.497 127.283 664.23 127.855 665.946 128.999C667.673 130.132 668.537 131.842 668.537 134.13C668.537 135.417 668.185 136.534 667.481 137.48C666.788 138.415 665.82 139.053 664.577 139.394ZM658.389 131.243C657.256 131.243 656.112 131.347 654.957 131.556V137.496H658.736C660.353 137.496 661.508 137.243 662.201 136.737C662.905 136.22 663.257 135.428 663.257 134.361C663.257 133.624 663.097 133.03 662.778 132.579C662.47 132.128 661.959 131.793 661.244 131.573C660.54 131.353 659.588 131.243 658.389 131.243ZM658.142 148.32C659.638 148.32 660.815 148.199 661.673 147.957C662.542 147.704 663.152 147.33 663.504 146.835C663.867 146.34 664.049 145.702 664.049 144.921C664.049 143.744 663.68 142.886 662.943 142.347C662.206 141.808 660.991 141.539 659.297 141.539H654.957V148.155C655.903 148.265 656.965 148.32 658.142 148.32ZM689.713 144.509H677.899C677.965 145.466 678.19 146.219 678.575 146.769C678.96 147.308 679.565 147.704 680.39 147.957C681.226 148.199 682.37 148.32 683.822 148.32C685.307 148.32 686.913 148.139 688.64 147.776V151.736C686.759 152.143 684.878 152.347 682.997 152.347C680.577 152.347 678.586 152.017 677.024 151.356C675.473 150.696 674.318 149.684 673.559 148.32C672.811 146.945 672.437 145.174 672.437 143.007C672.437 141.027 672.784 139.339 673.477 137.942C674.17 136.545 675.182 135.483 676.513 134.757C677.844 134.031 679.455 133.668 681.347 133.668C684.075 133.668 686.149 134.488 687.568 136.127C688.998 137.755 689.713 140.103 689.713 143.172V144.509ZM681.281 137.067C680.17 137.067 679.334 137.414 678.773 138.107C678.223 138.789 677.926 139.905 677.882 141.456H684.614C684.57 139.905 684.273 138.789 683.723 138.107C683.184 137.414 682.37 137.067 681.281 137.067ZM703.589 147.908C704.095 147.908 704.76 147.831 705.585 147.677V151.934C705.057 152.055 704.48 152.154 703.853 152.231C703.226 152.308 702.626 152.347 702.054 152.347C697.335 152.347 694.976 150.08 694.976 145.548V138.288H691.857V133.949H694.976L695.966 127.58H700.487V133.949H705.486V138.288H700.487V144.558C700.487 145.394 700.591 146.06 700.8 146.555C701.02 147.039 701.356 147.385 701.807 147.594C702.258 147.803 702.852 147.908 703.589 147.908ZM718.082 147.908C718.588 147.908 719.253 147.831 720.078 147.677V151.934C719.55 152.055 718.973 152.154 718.346 152.231C717.719 152.308 717.119 152.347 716.547 152.347C711.828 152.347 709.469 150.08 709.469 145.548V138.288H706.35V133.949H709.469L710.459 127.58H714.98V133.949H719.979V138.288H714.98V144.558C714.98 145.394 715.084 146.06 715.293 146.555C715.513 147.039 715.849 147.385 716.3 147.594C716.751 147.803 717.345 147.908 718.082 147.908ZM740.088 144.509H728.274C728.34 145.466 728.565 146.219 728.95 146.769C729.335 147.308 729.94 147.704 730.765 147.957C731.601 148.199 732.745 148.32 734.197 148.32C735.682 148.32 737.288 148.139 739.015 147.776V151.736C737.134 152.143 735.253 152.347 733.372 152.347C730.952 152.347 728.961 152.017 727.399 151.356C725.848 150.696 724.693 149.684 723.934 148.32C723.186 146.945 722.812 145.174 722.812 143.007C722.812 141.027 723.159 139.339 723.852 137.942C724.545 136.545 725.557 135.483 726.888 134.757C728.219 134.031 729.83 133.668 731.722 133.668C734.45 133.668 736.524 134.488 737.943 136.127C739.373 137.755 740.088 140.103 740.088 143.172V144.509ZM731.656 137.067C730.545 137.067 729.709 137.414 729.148 138.107C728.598 138.789 728.301 139.905 728.257 141.456H734.989C734.945 139.905 734.648 138.789 734.098 138.107C733.559 137.414 732.745 137.067 731.656 137.067ZM744.254 133.949H748.759L749.188 136.176H749.452C749.98 135.362 750.678 134.746 751.547 134.328C752.427 133.91 753.401 133.701 754.468 133.701C754.93 133.701 755.447 133.745 756.019 133.833V138.734C755.568 138.646 754.941 138.602 754.138 138.602C753.302 138.602 752.477 138.75 751.663 139.047C750.86 139.344 750.227 139.773 749.765 140.334V152H744.254V133.949ZM769.459 159.26V125.336H774.459V159.26H769.459ZM795.643 147.677H808.563V152H790.066V127.58H808.398V131.903H795.643V137.348H806.698V141.671H795.643V147.677ZM819.327 133.668C821.45 133.668 823.155 133.916 824.442 134.411C825.729 134.906 826.68 135.725 827.296 136.869C827.912 138.002 828.22 139.553 828.22 141.522V152H823.666L823.287 150.267H823.039C822.445 150.96 821.708 151.477 820.828 151.818C819.948 152.16 818.975 152.33 817.908 152.33C816.577 152.33 815.438 152.11 814.492 151.67C813.546 151.23 812.826 150.614 812.331 149.822C811.847 149.03 811.605 148.117 811.605 147.083C811.605 145.367 812.243 144.041 813.519 143.106C814.806 142.16 816.819 141.599 819.558 141.423L822.841 141.176V141.11C822.841 140.252 822.693 139.575 822.396 139.08C822.11 138.585 821.642 138.233 820.993 138.024C820.355 137.815 819.486 137.711 818.386 137.711C817.605 137.711 816.742 137.777 815.796 137.909C814.85 138.041 813.97 138.233 813.156 138.486V134.477C814.08 134.213 815.092 134.015 816.192 133.883C817.292 133.74 818.337 133.668 819.327 133.668ZM819.64 148.65C820.223 148.65 820.79 148.557 821.34 148.37C821.901 148.183 822.401 147.886 822.841 147.479V144.179L820.069 144.393C819.002 144.481 818.232 144.707 817.759 145.07C817.297 145.433 817.066 145.944 817.066 146.604C817.066 147.253 817.281 147.759 817.71 148.122C818.15 148.474 818.793 148.65 819.64 148.65ZM839.164 152.347C838.009 152.347 836.887 152.275 835.798 152.132C834.709 152 833.708 151.796 832.795 151.521V147.677C833.752 147.952 834.769 148.161 835.847 148.304C836.925 148.447 838.003 148.518 839.081 148.518C840.335 148.518 841.232 148.37 841.771 148.073C842.31 147.776 842.579 147.336 842.579 146.753C842.579 146.313 842.453 145.977 842.2 145.746C841.947 145.504 841.501 145.328 840.863 145.218L837.629 144.707C835.77 144.41 834.428 143.832 833.603 142.974C832.778 142.116 832.366 140.956 832.366 139.493C832.366 137.678 833.125 136.253 834.643 135.219C836.172 134.185 838.454 133.668 841.49 133.668C842.425 133.668 843.355 133.723 844.279 133.833C845.214 133.943 846.044 134.097 846.77 134.295V138.14C846.022 137.931 845.192 137.771 844.279 137.661C843.377 137.54 842.475 137.48 841.573 137.48C840.077 137.48 839.032 137.645 838.438 137.975C837.844 138.305 837.547 138.745 837.547 139.295C837.547 139.691 837.673 140.01 837.926 140.252C838.179 140.483 838.619 140.653 839.246 140.763L842.48 141.275C844.273 141.561 845.599 142.111 846.457 142.925C847.326 143.728 847.76 144.927 847.76 146.522C847.76 147.732 847.425 148.771 846.754 149.64C846.094 150.509 845.12 151.18 843.833 151.653C842.546 152.116 840.99 152.347 839.164 152.347ZM851.86 152V133.949H857.371V152H851.86ZM854.615 131.325C853.482 131.325 852.635 131.094 852.074 130.632C851.513 130.159 851.233 129.477 851.233 128.586C851.233 127.684 851.513 127.002 852.074 126.54C852.635 126.067 853.482 125.831 854.615 125.831C855.748 125.831 856.595 126.067 857.156 126.54C857.717 127.002 857.998 127.684 857.998 128.586C857.998 129.477 857.717 130.159 857.156 130.632C856.595 131.094 855.748 131.325 854.615 131.325ZM879.032 144.509H867.218C867.284 145.466 867.51 146.219 867.895 146.769C868.28 147.308 868.885 147.704 869.71 147.957C870.546 148.199 871.69 148.32 873.142 148.32C874.627 148.32 876.233 148.139 877.96 147.776V151.736C876.079 152.143 874.198 152.347 872.317 152.347C869.897 152.347 867.906 152.017 866.344 151.356C864.793 150.696 863.638 149.684 862.879 148.32C862.131 146.945 861.757 145.174 861.757 143.007C861.757 141.027 862.103 139.339 862.796 137.942C863.489 136.545 864.501 135.483 865.832 134.757C867.163 134.031 868.775 133.668 870.667 133.668C873.395 133.668 875.468 134.488 876.887 136.127C878.317 137.755 879.032 140.103 879.032 143.172V144.509ZM870.601 137.067C869.49 137.067 868.654 137.414 868.093 138.107C867.543 138.789 867.246 139.905 867.202 141.456H873.934C873.89 139.905 873.593 138.789 873.043 138.107C872.504 137.414 871.69 137.067 870.601 137.067ZM883.198 133.949H887.703L888.132 136.176H888.396C888.924 135.362 889.622 134.746 890.491 134.328C891.371 133.91 892.345 133.701 893.412 133.701C893.874 133.701 894.391 133.745 894.963 133.833V138.734C894.512 138.646 893.885 138.602 893.082 138.602C892.246 138.602 891.421 138.75 890.607 139.047C889.804 139.344 889.171 139.773 888.709 140.334V152H883.198V133.949Z" fill="black" />
</svg>