<?xml version="1.0" encoding="utf-8"?><svg viewBox="0 0 22 16" fill="none" xmlns="http://www.w3.org/2000/svg" width="22" height="16"><path d="M.798 15.308v-2.223c0-.516.133-.976.4-1.38a2.72 2.72 0 011.065-.944A15.42 15.42 0 015.13 9.686c.96-.252 2.017-.378 3.168-.378 1.151 0 2.207.126 3.168.378.961.252 1.917.61 2.867 1.075.445.225.8.54 1.066.944.266.404.399.864.399 1.38v2.223h-15zm17 0v-2.346c0-.657-.16-1.282-.482-1.877a4.545 4.545 0 00-1.368-1.531c.67.1 1.307.255 1.91.464.602.21 1.177.458 1.725.744.516.275.915.6 1.197.974.281.374.422.783.422 1.226v2.346h-3.404zm-9.5-7.616c-.962 0-1.786-.342-2.472-1.028-.685-.685-1.028-1.51-1.028-2.472s.343-1.786 1.028-2.471C6.512 1.035 7.336.692 8.298.692c.963 0 1.787.343 2.472 1.029.685.685 1.028 1.509 1.028 2.471 0 .963-.343 1.787-1.028 2.472-.685.686-1.51 1.028-2.472 1.028zm8.635-3.5c0 .963-.343 1.787-1.028 2.472-.686.686-1.51 1.028-2.472 1.028-.113 0-.257-.013-.431-.038a3.767 3.767 0 01-.43-.085c.394-.474.697-1 .908-1.578a5.19 5.19 0 00-.006-3.593 5.777 5.777 0 00-.903-1.583 1.87 1.87 0 01.43-.1c.145-.015.288-.023.432-.023.962 0 1.786.343 2.472 1.029.685.685 1.028 1.509 1.028 2.471zM2.298 13.808h12v-.723a1.01 1.01 0 00-.157-.558c-.104-.163-.27-.305-.497-.427a11.795 11.795 0 00-2.542-.964 11.499 11.499 0 00-2.804-.328 11.5 11.5 0 00-2.804.328c-.872.218-1.719.54-2.542.964-.227.122-.393.264-.497.427a1.01 1.01 0 00-.157.558v.723zm6-7.616c.55 0 1.02-.195 1.413-.587.391-.392.587-.863.587-1.413s-.196-1.02-.587-1.412a1.926 1.926 0 00-1.413-.588c-.55 0-1.02.196-1.412.588a1.926 1.926 0 00-.588 1.412c0 .55.196 1.021.588 1.413.391.392.862.587 1.412.587z" fill="#fff"/></svg>