<?xml version="1.0" encoding="utf-8"?><svg viewBox="0 0 20 23" fill="none" xmlns="http://www.w3.org/2000/svg" width="20" height="23"><path d="M8.25 4.423v-3.5h1.5v3.5h-1.5zm-4.002 1.32L1.604 3.097l1.07-1.07 2.643 2.645-1.069 1.07zM1.25 22.5a.726.726 0 01-.534-.216.726.726 0 01-.216-.534v-7.673L2.542 8.25c.075-.23.211-.412.41-.547.199-.135.42-.203.663-.203h2.847V5.73H8.88a6.417 6.417 0 00-.678 1.534 6.069 6.069 0 00-.241 1.726V9H3.869l-1.542 4.192h7.17c.225.298.474.574.747.83.273.254.575.478.906.67H2V19h14V15.52c.267-.044.523-.106.77-.187.247-.08.49-.176.73-.288v6.704c0 .212-.072.39-.216.534a.726.726 0 01-.534.216h-.615a.726.726 0 01-.535-.216.726.726 0 01-.215-.534V20.5H2.615v1.25c0 .212-.072.39-.215.534a.726.726 0 01-.535.216H1.25zm2.038-4.788h2.847c.245 0 .45-.083.616-.25A.837.837 0 007 16.847a.838.838 0 00-.249-.616.837.837 0 00-.616-.25H3.288v1.732zm11.424 0V15.98h-2.847a.837.837 0 00-.616.248.837.837 0 00-.249.617c0 .245.083.45.249.616.166.166.371.25.616.25h2.846zm-.774-6.587l3.312-3.296-.838-.839-2.474 2.443-1.042-1.043-.838.854 1.88 1.88zm.716-6.635c1.248 0 2.31.438 3.186 1.314.876.875 1.314 1.938 1.314 3.186 0 1.249-.438 2.311-1.314 3.187-.875.876-1.938 1.313-3.186 1.313-1.249 0-2.311-.438-3.187-1.313-.875-.876-1.313-1.938-1.313-3.187 0-1.248.438-2.31 1.313-3.186.876-.876 1.938-1.314 3.187-1.314z" fill="#fff"/></svg>