<?xml version="1.0" encoding="utf-8"?><svg viewBox="0 0 900 507" fill="none" xmlns="http://www.w3.org/2000/svg" width="900" height="507"><g clip-path="url(#clip0_1209_3)"><mask id="ia" style="mask-type:luminance" maskUnits="userSpaceOnUse" x="0" y="0" width="900" height="507"><path d="M900 0H0v506.25h900V0z" fill="#fff"/></mask><g mask="url(#ia)"><path d="M191.997 394.434c.567.999.701 1.47.394 1.403l.019 44.102c0 .634-.317.951-.951.942-44.952-.605-88.089-19.712-113.85-57.1-3.323-4.832-6.473-10.442-9.451-16.84-12.458-26.753-19.892-54.736-22.303-83.968-.451-5.447-.5-14.16-.154-26.148l1.076-.087 49.572-.019a.326.326 0 00.327-.336c-1.576-45.64 30.496-85.092 75.506-92.566 68.263-11.326 123.089 54.612 100.114 119.848-7.396 20.999-23.322 39.577-43.617 49.885-55.066 27.964-119.757-4.525-130.822-64.996-.547-2.978-.787-6.042-.74-9.193 0-.144-.047-.164-.144-.058-.019.029-.038.067-.057.096a.163.163 0 00-.029.096c-.077 1.605-.567 3.103-.576 4.679-.279 29.395 6.272 58.329 21.832 82.268 3.41 5.245 7.531 10.201 12.372 14.86 17.414 16.754 37.709 29.434 61.482 33.132z" fill="#333280"/><path d="M330.761 249.081l44.923.26c.384 0 .692.317.692.701-.346 40.433-16.444 80.212-47.238 106.341-11.075 9.414-22.467 15.255-35.77 20.884-26.068 11.038-53.356 17.291-81.864 18.761-4.39.231-10.768.163-19.114-.192.307.067.173-.403-.394-1.402l.173-.327a1.08 1.08 0 00.115-.49l.01-48.195c0-.307.269-.557.576-.538 35.904 2.267 78.262-7.31 104.043-33.814 16.501-16.964 29.631-37.906 33.08-61.624.144.019.403-.105.768-.365z" fill="#ED1A3B"/><path d="M184.119 65.38h9.682c35.596 2.642 69.281 16.59 93.842 42.883 7.616 8.146 13.668 16.792 18.173 25.927 14.263 28.925 22.533 58.743 24.8 89.454.509 6.984.557 15.456.144 25.437-.365.26-.624.384-.768.365l-49.832-.009c-.307 0-.451-.154-.432-.462.932-13.765.01-27.771-2.757-42.017-3.515-18.118-9.97-34.256-19.373-48.425-2.757-4.15-6.023-8.118-9.778-11.903-17.616-17.752-39.026-31.124-63.663-35.072l-.317-1.268.279-44.91z" fill="#333280"/><path d="M183.842 110.29l.317 1.268v48.8a.742.742 0 01-.778.739c-25.329-1.373-48.727 2.45-70.185 11.461-10.517 4.409-19.46 9.74-26.826 15.985-8.578 7.262-16.646 16.609-24.215 28.05-8.376 12.661-13.63 25.802-15.762 39.434a.53.53 0 00.163.499l.221.211-1.076.087-44.779-.048a.919.919 0 01-.922-.932c.74-44.957 19.94-88.762 57.756-114.142 4.87-3.266 10.517-6.369 16.943-9.318 34.838-15.985 71.491-23.91 109.143-22.094z" fill="#ED1A3B"/></g></g></svg>