<?xml version="1.0" encoding="utf-8"?><svg viewBox="0 0 900 507" fill="none" xmlns="http://www.w3.org/2000/svg" width="900" height="507"><g clip-path="url(#clip0_1201_3)"><mask id="ha" style="mask-type:luminance" maskUnits="userSpaceOnUse" x="0" y="0" width="900" height="507"><path d="M900 0H0v506.25h900V0z" fill="#fff"/></mask><g mask="url(#ha)"><path d="M191.997 394.434c.567 1 .701 1.47.394 1.403l.019 44.102c0 .634-.317.951-.951.942-44.952-.605-88.089-19.712-113.85-57.1-3.323-4.832-6.473-10.442-9.451-16.84-12.458-26.753-19.892-54.736-22.303-83.968-.451-5.447-.5-14.16-.154-26.148l1.076-.087 49.572-.019a.326.326 0 00.327-.336c-1.576-45.639 30.496-85.092 75.506-92.566 68.263-11.326 123.089 54.612 100.114 119.848-7.396 20.999-23.322 39.577-43.617 49.885-55.066 27.964-119.757-4.525-130.822-64.996-.547-2.978-.787-6.042-.74-9.193 0-.144-.047-.163-.144-.058-.019.029-.038.067-.057.096a.163.163 0 00-.029.096c-.077 1.605-.567 3.103-.576 4.679-.279 29.395 6.272 58.329 21.832 82.268 3.41 5.245 7.531 10.201 12.372 14.86 17.414 16.754 37.709 29.434 61.482 33.132z" fill="#333280" filter="drop-shadow(0 0 1px #fff)"/><path d="M330.761 249.081l44.923.26c.384 0 .692.317.692.701-.346 40.433-16.444 80.212-47.238 106.341-11.075 9.414-22.467 15.255-35.77 20.884-26.068 11.038-53.356 17.291-81.864 18.761-4.39.231-10.768.163-19.114-.192.307.067.173-.403-.394-1.402l.173-.327a1.08 1.08 0 00.115-.49l.01-48.195c0-.307.269-.557.576-.538 35.904 2.267 78.262-7.31 104.043-33.814 16.501-16.964 29.631-37.906 33.08-61.624.144.019.403-.105.768-.365z" fill="#ED1A3B" filter="drop-shadow(0 0 1px #fff)"/><path d="M184.119 65.38h9.682c35.596 2.642 69.281 16.59 93.842 42.883 7.616 8.146 13.668 16.792 18.173 25.927 14.263 28.925 22.533 58.743 24.8 89.454.509 6.984.557 15.456.144 25.437-.365.26-.624.384-.768.365l-49.832-.009c-.307 0-.451-.154-.432-.462.932-13.765.01-27.771-2.757-42.017-3.515-18.118-9.97-34.256-19.373-48.425-2.757-4.15-6.023-8.118-9.778-11.903-17.616-17.752-39.026-31.124-63.663-35.072l-.317-1.268.279-44.91z" fill="#333280" filter="drop-shadow(0 0 1px #fff)"/><path d="M183.842 110.29l.317 1.268v48.8a.742.742 0 01-.778.739c-25.329-1.373-48.727 2.45-70.185 11.461-10.517 4.409-19.46 9.74-26.826 15.984-8.578 7.263-16.646 16.61-24.215 28.051-8.376 12.661-13.63 25.802-15.762 39.433a.533.533 0 00.163.5l.221.211-1.076.087-44.779-.048a.919.919 0 01-.922-.932c.74-44.957 19.94-88.762 57.756-114.142 4.87-3.266 10.517-6.369 16.943-9.318 34.838-15.985 71.491-23.91 109.143-22.094z" fill="#ED1A3B" filter="drop-shadow(0 0 1px #fff)"/><path d="M501.391 286.334l-45.232.011a.523.523 0 00-.482.335l-9.515 26.319a.52.52 0 01-.481.335l-26.672.01a.51.51 0 01-.471-.701l46.048-119.17a.5.5 0 01.481-.324l26.264.01c.209 0 .398.126.471.325l47.754 119.18a.512.512 0 01-.481.701l-26.766-.031a.51.51 0 01-.482-.335l-9.955-26.33a.51.51 0 00-.481-.335zm-37.538-22.163a.359.359 0 00.335.482l28.734-.157a.356.356 0 00.335-.482l-14.571-38.61c-.115-.304-.555-.304-.67.01l-14.163 38.757zM625.759 193.14l23.323.021c.188 0 .345.157.345.346l.021 119.494a.349.349 0 01-.345.346l-24.893-.011a.348.348 0 01-.293-.167l-45.902-74.404c-.178-.293-.638-.168-.638.188l.084 74.059a.349.349 0 01-.346.345l-23.239-.021a.348.348 0 01-.345-.345V193.496c0-.188.157-.345.345-.345l24.139.01c.115 0 .231.063.293.168l46.509 75.869c.178.304.639.168.639-.178l-.042-75.534c0-.189.157-.346.345-.346zM701.033 286.661l-9.526 26.351a.483.483 0 01-.461.324l-26.714.011a.492.492 0 01-.46-.67l46.058-119.202a.5.5 0 01.461-.314h26.306a.5.5 0 01.46.314l47.744 119.223a.492.492 0 01-.461.68l-26.797-.042a.474.474 0 01-.45-.314l-9.997-26.372a.5.5 0 00-.461-.314h-45.242a.484.484 0 00-.46.325zm8.165-22.488a.35.35 0 00.334.471l28.735-.146a.359.359 0 00.335-.482l-14.572-38.62a.356.356 0 00-.67 0l-14.162 38.777zM839.482 215.271c-13.839 5.591-17.775 19.295-18.173 33.438-.251 9.129.189 18.258 3.204 26.822 4.574 12.992 17.167 19.473 30.681 16.876 11.588-2.23 17.9-13.683 19.805-24.215a.562.562 0 01.712-.439l23.783 7.276a.806.806 0 01.544.984c-6.919 26.581-25.416 40.557-53.145 39.385-27.688-1.183-47.409-20.614-51.261-47.551-2.083-14.573-1.225-31.02 4.574-44.808 7.15-17.012 22.328-28.654 40.49-31.323 15.21-2.23 31.079.104 43.054 9.244 8.458 6.449 13.221 15.421 16.121 25.565a.696.696 0 01-.503.859l-24.264 5.936a.699.699 0 01-.838-.524c-2.522-11.086-10.593-18.519-21.846-19.315-4.847-.346-9.16.251-12.938 1.79z" fill="#FFF"/></g></g></svg>