<?xml version="1.0" encoding="utf-8"?><svg viewBox="0 0 900 507" fill="none" xmlns="http://www.w3.org/2000/svg" width="900" height="507"><g clip-path="url(#clip0_115_2)"><mask id="fa" style="mask-type:luminance" maskUnits="userSpaceOnUse" x="0" y="0" width="900" height="507"><path d="M900 0H0v506.25h900V0z" fill="#fff"/></mask><g mask="url(#fa)"><path d="M191.997 394.434c.567.999.701 1.47.394 1.403l.019 44.102c0 .634-.317.951-.951.942-44.952-.606-88.089-19.712-113.85-57.1-3.323-4.832-6.473-10.442-9.451-16.84-12.458-26.753-19.892-54.736-22.303-83.968-.451-5.447-.5-14.16-.154-26.148l1.076-.087 49.572-.019a.326.326 0 00.327-.336c-1.576-45.64 30.496-85.093 75.506-92.566 68.263-11.326 123.089 54.611 100.114 119.848-7.396 20.999-23.322 39.577-43.617 49.885-55.066 27.964-119.757-4.525-130.822-64.996-.547-2.978-.787-6.042-.74-9.193 0-.144-.047-.164-.144-.058-.019.029-.038.067-.057.096a.163.163 0 00-.029.096c-.077 1.604-.567 3.103-.576 4.678-.279 29.396 6.272 58.33 21.832 82.268 3.41 5.245 7.531 10.202 12.372 14.861 17.414 16.754 37.709 29.434 61.482 33.132z" fill="#333280" filter="drop-shadow(0 0 2px #fff)"/><path d="M330.761 249.081l44.923.259c.384 0 .692.317.692.702-.346 40.432-16.444 80.212-47.238 106.341-11.075 9.414-22.467 15.255-35.77 20.884-26.068 11.038-53.356 17.291-81.864 18.761-4.39.231-10.768.163-19.114-.192.307.067.173-.404-.394-1.403l.173-.326a1.08 1.08 0 00.115-.49l.01-48.195c0-.307.269-.557.576-.538 35.904 2.267 78.262-7.31 104.043-33.814 16.501-16.964 29.631-37.906 33.08-61.624.144.019.403-.106.768-.365z" fill="#ED1A3B" filter="drop-shadow(0 0 2px #fff)"/><path d="M184.119 65.38h9.682c35.596 2.642 69.281 16.59 93.842 42.883 7.616 8.146 13.668 16.792 18.173 25.927 14.263 28.925 22.533 58.743 24.8 89.454.509 6.984.557 15.456.144 25.437-.365.26-.624.384-.768.365l-49.832-.009c-.307 0-.451-.154-.432-.462.932-13.765.01-27.771-2.757-42.017-3.515-18.118-9.97-34.256-19.373-48.425-2.757-4.15-6.023-8.118-9.778-11.903-17.616-17.752-39.026-31.124-63.663-35.072l-.317-1.268.279-44.91z" fill="#333280" filter="drop-shadow(0 0 2px #fff)"/><path d="M183.842 110.29l.317 1.268v48.8a.742.742 0 01-.778.739c-25.329-1.373-48.727 2.45-70.185 11.461-10.517 4.409-19.46 9.74-26.826 15.984-8.578 7.263-16.646 16.61-24.215 28.051-8.376 12.661-13.63 25.802-15.762 39.433a.533.533 0 00.163.5l.221.211-1.076.087-44.779-.048a.919.919 0 01-.922-.932c.74-44.957 19.94-88.762 57.756-114.142 4.87-3.266 10.517-6.369 16.943-9.318 34.838-15.985 71.491-23.91 109.143-22.094z" fill="#ED1A3B" filter="drop-shadow(0 0 2px #fff)"/><path d="M428.669 309.781l-2.033 9.432a.333.333 0 01-.336.272l-6.771.028a.343.343 0 01-.336-.427l9.422-38.035a.34.34 0 01.336-.264h8.813c.163 0 .3.109.336.264l9.612 38.044a.343.343 0 01-.336.426l-7.043-.026a.34.34 0 01-.336-.264l-2.287-9.45a.342.342 0 00-.336-.263l-8.369-.008a.341.341 0 00-.336.271zm1.189-7.135c-.045.201.1.381.3.391l5.727.026c.39 0 .545-.189.463-.571l-3.086-14.243c-.154-.699-.281-.69-.39.009-.608 3.831-1.607 8.624-3.014 14.388zM458.831 313.878a1.965 1.965 0 001.789-1.924c.045-2.733-3.495-3.468-5.383-4.594-3.195-1.897-4.638-4.666-4.329-8.305.689-8.007 8.967-9.868 15.158-6.927.308.155.481.49.417.826l-1.026 5.129a.38.38 0 01-.571.254c-1.698-1.035-3.531-1.453-5.501-1.252a1.42 1.42 0 00-1.071.626c-1.924 2.723 1.879 4.184 3.758 4.983 4.066 1.725 5.954 5.383 5.337 9.886-1.162 8.488-10.638 8.85-16.865 5.782-.099-.045-.145-.136-.136-.254.2-1.698.609-3.748 1.226-6.173.009-.027.045-.044.072-.027 2.297 1.534 4.675 2.188 7.125 1.97zM480.797 312.159c.309-2.687-2.659-3.377-4.502-4.294-3.985-2.007-5.682-5.174-5.083-9.486 1.044-7.516 8.95-8.942 14.822-6.373.499.218.699.599.599 1.135l-.944 4.729c-.099.518-.381.645-.826.363-1.316-.807-2.841-1.225-4.574-1.252-2.46-.036-3.177 2.95-1.062 4.13 2.106 1.18 4.52 2.007 6.208 3.785 3.186 3.368 3.15 9.75-.463 12.918-3.739 3.269-9.911 2.769-13.96.654a.755.755 0 01-.399-.835l1.053-5.229c.073-.354.263-.445.581-.263 1.579.935 8.133 3.631 8.55.018zM502.342 320.283c-6.644-.15-11.881-6.905-11.696-15.084.187-8.178 5.724-14.687 12.368-14.538 6.644.151 11.881 6.905 11.697 15.084-.188 8.178-5.725 14.688-12.369 14.538zm.294-6.251c2.511 0 4.553-3.812 4.562-8.534.009-4.719-2.024-8.55-4.532-8.55-2.511 0-4.553 3.812-4.562 8.535-.01 4.719 2.024 8.549 4.532 8.549zM534.211 298.084c-3.122-1.417-6.762-.3-8.142 2.949-1.86 4.395-.925 12.555 5.755 12.165 1.297-.073 2.232-.254 2.796-.553.507-.264.807-.119.889.444l.771 5.002c.082.572-.145.962-.68 1.162-1.244.463-2.605.753-4.085.853-5.872.418-9.93-1.806-12.172-6.681-2.387-5.192-2.096-12.7 1.253-17.439 3.222-4.547 8.123-6.054 14.713-4.529.736.173 1.035.626.899 1.362a583.208 583.208 0 01-.817 4.62c-.127.726-.518.944-1.18.645zM546.991 291.393h-6.354a.371.371 0 00-.372.372v27.378c0 .206.166.372.372.372h6.354a.372.372 0 00.372-.372v-27.378a.372.372 0 00-.372-.372zM564.927 317.282a6.429 6.429 0 01-2.832 2.224c-8.695 3.349-12.916-6.636-9.503-13.136 2.323-4.412 7.071-5.246 11.718-5.655a.636.636 0 00.554-.808c-1.361-4.711-7.107-3.105-10.066-1.153a.383.383 0 01-.581-.227l-1.08-4.739c-.082-.39.045-.671.399-.843 8.532-4.349 18.544-2.425 18.344 9.186-.118 6.454-.009 12.037.318 16.74.028.444-.173.662-.617.662l-5.084-.036c-.444-.01-.698-.228-.761-.672l-.182-1.398c-.082-.581-.29-.627-.627-.145zm-.407-11.021c-3.251.155-6.527 1.371-5.874 5.429.227 1.407 1.525 2.596 2.996 2.233 3.558-.871 3.522-4.239 3.312-7.28-.017-.273-.163-.399-.434-.382zM584.688 319.559c-10.284-3.041-11.137-19.526-3.804-25.881 3.241-2.805 7.607-3.513 13.08-2.105.355.09.581.435.517.798l-.925 5.447c-.063.354-.264.471-.599.354-4.893-1.734-7.96-.164-9.222 4.73-.455 1.778-.354 4.13.281 5.836 1.543 4.131 4.693 5.302 9.458 3.523a.189.189 0 01.245.153l.871 6.192c.018.117-.027.199-.136.245a16.394 16.394 0 01-4.756 1.098c-.79.063-1.271.499-1.434 1.298a.587.587 0 00.326.654c1.97.899 2.914 2.351 2.851 4.357-.136 4.54-5.029 5.655-8.532 4.158-.608-.263-.817-.708-.627-1.353l.472-1.516c.182-.608.554-.763 1.117-.453 1.352.744 2.333.671 2.941-.218a1.432 1.432 0 00-.836-2.197l-1.688-.427c-.517-.127-.681-.436-.471-.935l1.234-3.014c.154-.381.027-.626-.363-.744zM610.42 300.095c-.599-5.137-7.498-3.104-10.23-1.161-.027.018-.063 0-.073-.027a28.078 28.078 0 01-1.398-5.483.258.258 0 01.137-.282c3.059-1.752 6.372-2.496 9.957-2.233 7.207.517 8.877 6.881 8.75 12.9a198.115 198.115 0 00.245 15.159c.018.381-.164.572-.535.563l-5.22-.054c-.471-.009-.717-.245-.744-.708l-.073-1.353c-.027-.59-.227-.653-.598-.19-1.807 2.251-4.212 3.194-7.207 2.832-5.465-.663-7.217-7.008-6-11.738 1.525-5.892 7.233-7.198 12.453-7.58a.586.586 0 00.536-.645zm-.436 6.156c-3.14.245-6.408 1.406-5.718 5.364.689 3.949 5.546 2.379 6.135-.681.237-1.252.3-2.641.2-4.157-.027-.381-.236-.553-.617-.526zM633.24 320.282c-6.636-.158-11.864-6.921-11.661-15.103.196-8.176 5.742-14.676 12.384-14.517 6.636.158 11.866 6.922 11.662 15.104-.196 8.175-5.743 14.675-12.385 14.516zm.353-6.259c2.514 0 4.556-3.821 4.556-8.533 0-4.711-2.042-8.533-4.556-8.533-2.515 0-4.557 3.822-4.557 8.533 0 4.712 2.042 8.533 4.557 8.533zM539.785 283.167c-.042 2.637 1.744 4.803 3.99 4.839 2.245.035 4.1-2.074 4.141-4.711.042-2.636-1.745-4.802-3.991-4.838-2.245-.035-4.1 2.074-4.14 4.71zM604.864 285.363a3.418 3.418 0 00-.4 1.489.641.641 0 01-.652.617l-2.216-.036a.63.63 0 01-.616-.653c.072-2.878 1.37-7.753 5.237-6.091a17.743 17.743 0 013.095 1.724.955.955 0 001.479-.599l.228-1.153a.638.638 0 01.616-.517l2.215-.009c.427 0 .626.208.609.635-.046.99-.174 1.988-.364 3.014-.544 2.868-3.076 4.575-5.654 2.859-.89-.59-1.78-1.108-2.66-1.57a.677.677 0 00-.917.29zM665.896 292.173l.308 26.952c0 .273-.136.409-.399.409l-6.127-.028a.304.304 0 01-.299-.308l-.019-37.9c0-.372.191-.563.564-.563l7.224.027c.391 0 .662.173.836.518a285.818 285.818 0 0111.182 25.636c.008.018.027.027.045.018.018 0 .028-.018.028-.037l-.382-25.689c0-.255.2-.454.454-.454l5.99-.028c.237 0 .355.118.355.346l-.019 37.98c0 .273-.218.5-.489.5l-6.572-.01a.684.684 0 01-.654-.408 471.098 471.098 0 01-11.863-26.988c-.117-.281-.172-.273-.163.027zM703.437 317.271c-.681.908-1.879 1.843-2.95 2.242-6.834 2.533-11.173-2.941-10.574-9.341.671-7.171 6.68-8.977 12.788-9.459.463-.036.636-.281.536-.725-1.089-4.739-6.953-3.232-9.83-1.344-.427.281-.689.172-.808-.327l-.962-4.294c-.118-.518.054-.899.517-1.144 4.983-2.696 13.425-3.549 16.584 2.424 1.134 2.151 1.688 5.002 1.652 7.408-.082 5.418-.019 10.83.19 16.24.018.354-.145.526-.499.535l-5.255.054a.657.657 0 01-.654-.581l-.155-1.524c-.054-.545-.245-.599-.58-.164zm-.627-11.02c-2.587.191-5.409.971-5.863 3.957-.699 4.612 5.056 4.867 6.19 1.027.373-1.28.472-2.76.3-4.458-.045-.381-.254-.553-.627-.526zM722.914 301.321c-1.933 4.33-.481 12.455 6.1 11.892 1.207-.1 2.078-.291 2.623-.554.481-.236.754-.091.834.427l.79 5.183a.89.89 0 01-.617.981c-3.222 1.007-6.208 1.18-8.967.499-11.718-2.887-11.691-22.958-1.453-27.697 3.386-1.561 7.035-1.624 10.964-.18.092.026.128.09.109.189l-1.107 6.083a.171.171 0 01-.227.127c-4.383-1.652-7.406-.635-9.049 3.05zM743.794 291.413l-6.408.011a.346.346 0 00-.344.346l.047 27.414a.346.346 0 00.346.345l6.408-.012a.343.343 0 00.344-.345l-.048-27.415a.344.344 0 00-.345-.344zM760.094 320.282c-6.654-.158-11.882-6.921-11.679-15.104.196-8.175 5.751-14.675 12.403-14.516 6.655.158 11.883 6.922 11.679 15.104-.196 8.176-5.751 14.675-12.403 14.516zm.32-6.249c2.502 0 4.544-3.813 4.553-8.535.01-4.719-2.015-8.549-4.523-8.549-2.502 0-4.544 3.812-4.553 8.534-.01 4.719 2.015 8.55 4.523 8.55zM783.338 294.766c1.526-2.297 3.45-3.595 5.764-3.884 6.381-.809 8.887 5.328 8.977 10.62a789.5 789.5 0 01.109 17.475c-.009.354-.191.535-.545.535l-6.117-.018a.554.554 0 01-.563-.563c.054-5.456.054-10.793 0-16.031-.064-6.954-7.017-6.191-7.044-.091-.027 5.565-.017 10.93.027 16.104.01.391-.19.581-.581.59l-6.098.036c-.355.01-.528-.172-.528-.526l-.09-26.779c-.009-.545.263-.817.807-.817h4.375c.718 0 1.081.354 1.081 1.071l.009 2.161c0 .499.136.535.417.117zM816.042 317.236c-1.28 1.552-2.869 2.487-4.765 2.805-7.397 1.262-10.248-6.817-8.242-12.445 1.906-5.32 7.189-6.527 12.299-6.909a.486.486 0 00.445-.544c-.627-4.957-6.979-3.314-9.794-1.489-.445.281-.717.172-.826-.336l-.971-4.321c-.118-.508.063-.88.526-1.117 5.229-2.696 13.697-3.576 16.702 2.687 1.025 2.152 1.534 4.503 1.506 7.063-.045 6.009.036 11.447.227 16.303.019.373-.163.564-.535.564l-5.02.036c-.562 0-.872-.282-.916-.835l-.109-1.289c-.036-.482-.209-.545-.527-.173zm-.526-10.929c-3.177-.064-6.745 1.579-5.873 5.391.853 3.714 5.102 2.316 6-.39.435-1.298.544-2.832.326-4.593-.027-.263-.18-.4-.453-.408zM835.44 278.691h-6.299a.417.417 0 00-.418.418v40.014c0 .231.186.418.418.418h6.299c.23 0 .417-.187.417-.418v-40.014a.418.418 0 00-.417-.418zM736.523 283.148c-.042 2.622 1.741 4.777 3.981 4.812 2.241.035 4.091-2.062 4.132-4.684.041-2.621-1.742-4.775-3.982-4.81-2.241-.036-4.091 2.061-4.131 4.682zM865.654 292.924l.008-13.844c.009-.226.128-.344.355-.344l6.471-.037c.245 0 .363.119.363.354.018 11.82.01 24.184-.036 37.092 0 .871.09 1.661.272 2.378.164.645-.081.962-.744.971l-4.892.037c-.591 0-.89-.291-.899-.872l-.055-2.378c-.009-.572-.172-.617-.48-.145-4.076 6.109-11.773 4.856-14.768-1.516-2.133-4.539-2.506-9.577-1.126-15.106 1.062-4.248 3.994-8.124 8.578-8.605 2.586-.263 4.737.472 6.435 2.223.344.355.518.291.518-.208zm-4.477 20.443c2.634.019 4.794-3.549 4.821-7.973.027-4.418-2.078-8.022-4.709-8.04-2.634-.018-4.794 3.55-4.821 7.973-.027 4.418 2.078 8.022 4.709 8.04zM884.17 308.857c1.561 5.601 7.543 5.175 11.926 3.577.39-.145.618-.018.69.391l.845 4.674a.814.814 0 01-.491.899c-7.251 3.023-16.892 1.979-19.143-7.09-1.478-5.973-.78-11.193 2.098-15.668 2.114-3.277 5.082-4.865 8.912-4.766 8.487.228 10.511 9.631 9.767 16.54a.817.817 0 01-.817.735l-13.216-.036c-.516-.01-.707.245-.571.744zm.308-6.672l7.534-.018a.278.278 0 00.263-.272v-.145c-.009-2.869-1.77-5.194-3.921-5.184h-.255c-2.159.009-3.893 2.342-3.884 5.22v.145a.25.25 0 00.263.254zM436.767 365.616l-8.351.028a.368.368 0 00-.363.291l-1.997 9.34a.37.37 0 01-.363.291l-6.725.063a.37.37 0 01-.364-.463l9.395-37.999a.38.38 0 01.363-.281l8.768.009c.172 0 .317.117.363.281l9.622 37.981a.37.37 0 01-.364.463h-6.998a.378.378 0 01-.363-.281l-2.26-9.432a.379.379 0 00-.363-.291zm-.935-6.581l-3.177-14.787c-.082-.363-.154-.363-.227-.009l-3.104 14.506a.34.34 0 00.335.409l6.064.017a.11.11 0 00.109-.136zM458.696 369.815c1.479-.508 1.688-2.179.898-3.359-.979-1.479-3.658-2.142-5.191-3.104-3.06-1.916-4.412-4.703-4.058-8.361.754-7.862 9.023-9.677 15.085-6.781.355.164.491.436.419.817l-.926 4.911c-.109.563-.409.699-.899.399-1.552-.935-5.946-2.406-6.753.291a2.132 2.132 0 00.944 2.442c2.133 1.271 4.72 2.088 6.426 3.93 1.743 1.88 2.496 4.186 2.26 6.936-.754 8.869-10.238 9.876-16.692 6.627-.336-.163-.463-.427-.399-.8l1.017-5.255c.072-.373.272-.454.598-.264 1.952 1.153 4.993 2.352 7.271 1.571zM480.271 367.952c-.173-2.677-3.395-3.295-5.347-4.429-3.412-1.97-4.864-4.892-4.365-8.769 1.007-7.816 8.995-9.387 15.303-6.427a.413.413 0 01.227.445c-.354 1.97-.717 3.904-1.089 5.782-.009.073-.091.109-.154.073-2.206-1.28-4.293-1.725-6.264-1.316a1.187 1.187 0 00-.843.608c-.771 1.352-.472 2.451.898 3.286 1.815 1.107 3.985 1.797 5.573 3.205 4.766 4.211 3.785 12.954-2.668 15.141-3.486 1.189-7.161.898-11.02-.862-.426-.191-.598-.518-.507-.981l.989-5.138c.082-.4.3-.499.654-.291 2.096 1.217 5.381 2.469 7.641 1.326.7-.345 1.017-.899.972-1.653zM498.289 347.524h-6.354a.436.436 0 00-.436.436v27.215c0 .24.195.435.436.435h6.354c.24 0 .435-.195.435-.435V347.96a.436.436 0 00-.435-.436zM512.094 369.679c2.025-.898.918-3.622-.625-4.33a63.138 63.138 0 01-3.377-1.661c-4.865-2.55-6.1-8.006-3.34-12.654 2.804-4.73 8.94-4.929 13.624-2.905.463.2.653.554.562 1.053l-.899 4.793c-.08.426-.317.554-.716.372-3.948-1.807-6.317-1.652-7.107.463a1.64 1.64 0 00.626 1.943c2.287 1.525 5.155 2.314 7.025 4.349 1.679 1.824 2.388 4.266 2.107 7.307-.782 8.451-10.683 9.222-16.521 6.282-.453-.227-.625-.591-.526-1.08l.972-4.839c.118-.563.417-.699.898-.399 1.933 1.161 5.11 2.287 7.297 1.306zM525.336 346.967l-.028-3.64c-.008-.626.282-1.035.872-1.244l5.291-1.824c.763-.264 1.144.008 1.136.817l-.046 5.891c0 .408.199.599.608.59l3.639-.082c.436-.008.654.2.654.636v5.256c0 .499-.254.753-.753.744l-3.594-.027c-.355-.009-.536.172-.536.526.009 3.687.009 7.344 0 10.966 0 1.189.355 2.197 1.062 3.023.245.291.553.436.926.445l2.17.027c.354.01.535.182.544.536l.145 5.364c.009.4-.182.645-.563.746-7.597 1.951-11.337-1.735-11.446-9.024a585.409 585.409 0 01-.044-12.047c0-.453-.227-.662-.673-.635l-1.515.1a.793.793 0 01-.844-.798l.009-5.148c0-.399.327-.708.717-.69l1.652.091c.417.027.626-.172.617-.599zM547.702 364.215c-.327 0-.563.3-.481.618 1.334 5.337 6.953 5.501 11.754 3.758.672-.245 1.026-.01 1.071.699.082 1.334.309 2.624.681 3.867.209.69-.018 1.171-.699 1.435-8.214 3.222-17.1 1.452-19.197-8.379-1.343-6.264.191-15.178 6.581-18.292 2.033-.99 4.166-1.252 6.408-.772 7.306 1.562 8.759 10.176 7.996 16.667-.036.29-.199.436-.489.436l-13.625-.037zm-.091-5.963h7.48a.222.222 0 00.217-.218v-.155c0-2.85-1.752-5.165-3.911-5.165h-.092c-2.16 0-3.912 2.315-3.912 5.165v.155c0 .117.101.218.218.218zM572.952 350.754c3.386-5.074 10.275-5.373 13.089.309.971 1.961 1.488 4.185 1.543 6.672.126 5.574.154 11.365.082 17.375-.01.345-.182.517-.518.508h-6.127a.548.548 0 01-.545-.553c.01-5.047.019-10.285.01-15.722-.019-7.436-7.135-6.646-7.098-.137.036 5.855.054 11.12.045 15.804 0 .418-.208.627-.617.627l-5.945.017c-.427 0-.645-.217-.654-.653l-.063-26.716c0-.499.254-.753.753-.753h4.638c.554 0 .844.281.854.835l.054 2.242c.009.572.181.627.499.145zM599.612 363.259c.826 5.447 4.855 7.153 9.703 5.401a.362.362 0 01.489.3l.736 5.682c.046.337-.091.555-.409.654-12.979 4.257-20.267-6.064-17.544-17.892 2.015-8.778 9.566-12.31 17.89-9.495.109.036.153.109.136.226l-1.09 6.127a.155.155 0 01-.199.119c-4.729-1.761-7.834-.536-9.322 3.685-.554 1.553-.681 3.287-.39 5.193zM621.343 347.508l-6.427.01a.345.345 0 00-.343.346l.048 27.452c0 .19.154.344.345.343l6.426-.01a.346.346 0 00.344-.346l-.048-27.451a.344.344 0 00-.345-.344zM639.403 373.319c-3.122 3.794-9.059 4.167-11.991-.099-1.843-2.678-2.241-5.728-1.198-9.16 1.661-5.483 7.225-6.999 12.444-7.199a.48.48 0 00.455-.545c-.7-5.056-6.953-3.358-9.958-1.579-.354.209-.58.118-.672-.282l-1.071-4.538a.767.767 0 01.4-.862c5.518-2.86 14.423-3.731 17.209 3.222.899 2.251 1.307 4.974 1.226 8.17a181.32 181.32 0 00.163 14.452c.027.481-.2.717-.681.717l-4.992-.009a.742.742 0 01-.735-.726l-.019-1.362c-.008-.59-.208-.663-.58-.2zm-6.272-4.938c.608 1.398 1.615 1.915 3.022 1.561 3.222-.817 3.422-4.266 3.132-7.034-.037-.327-.218-.491-.545-.491-3.394.009-7.307 2.052-5.609 5.964zM491.091 339.239c-.059 2.646 1.712 4.833 3.957 4.884 2.245.051 4.114-2.053 4.174-4.699.059-2.647-1.712-4.834-3.956-4.885-2.246-.05-4.115 2.053-4.175 4.7zM614.07 339.224c-.064 2.641 1.7 4.827 3.939 4.882 2.241.054 4.109-2.042 4.174-4.684.064-2.641-1.7-4.827-3.939-4.882-2.24-.054-4.108 2.043-4.174 4.684zM549.298 344.236l-3.767.191a.445.445 0 01-.417-.654l4.23-8.07a.46.46 0 01.398-.236l4.058.027c.164 0 .309.091.39.236l4.167 7.953a.45.45 0 01-.4.653l-3.658-.027a.438.438 0 01-.398-.255l-1.789-3.876c-.163-.345-.663-.345-.808.019l-1.616 3.775a.425.425 0 01-.39.264zM673.341 373.364c-.744.889-1.779 1.843-2.877 2.241-8.106 2.915-12.299-4.883-10.148-11.682 1.698-5.374 6.671-6.536 11.863-7.071 1.099-.109 1.344-.627.736-1.543-.128-.191-.291-.446-.491-.754-.626-.963-1.515-1.489-2.668-1.571-2.352-.173-4.53.454-6.545 1.879a.415.415 0 01-.635-.245l-1.134-4.729c-.092-.373.027-.636.363-.809 8.141-4.311 18.317-2.595 18.371 8.552.027 5.492.136 11.32.317 17.466.01.372-.172.563-.545.563l-5.191-.056a.774.774 0 01-.771-.734l-.064-1.316c-.028-.554-.227-.618-.581-.191zm-.436-10.966c-3.531-.036-6.998 1.706-5.782 5.946a2.395 2.395 0 002.633 1.706c3.884-.553 3.494-4.348 3.595-7.189.008-.308-.137-.463-.446-.463zM696.195 376.386c-6.645-.15-11.881-6.905-11.697-15.084.188-8.178 5.725-14.687 12.369-14.538 6.644.151 11.881 6.905 11.696 15.084-.187 8.178-5.724 14.688-12.368 14.538zm.336-6.278c2.515 0 4.547-3.813 4.547-8.523 0-4.712-2.032-8.524-4.547-8.524-2.514 0-4.547 3.812-4.547 8.524 0 4.71 2.033 8.523 4.547 8.523zM743.593 344.642c-6.508-3.095-12.998-.444-14.704 6.945-1.561 6.78-.091 17.22 9.086 17.51 1.887.064 3.757-.299 5.609-1.089a.559.559 0 01.771.436l.899 5.801c.054.354-.09.59-.426.699-9.985 3.213-20.023.326-22.973-10.385-1.734-6.282-1.48-12.228.762-17.838 3.722-9.295 13.197-12.473 22.429-9.142.462.164.635.482.535.954l-1.226 5.737a.535.535 0 01-.762.372zM761.593 373.35a5.396 5.396 0 01-2.714 2.179c-8.015 3.05-12.381-4.466-10.348-11.339 1.725-5.8 6.599-6.608 11.927-7.37 1.098-.155 1.326-.681.681-1.58-.154-.209-.354-.499-.617-.862-.645-.899-1.526-1.371-2.641-1.398-2.415-.082-4.675.608-6.781 2.051-.036.018-.082 0-.091-.036a34.56 34.56 0 01-1.28-5.502c-.018-.08.01-.153.091-.199 4.874-2.868 13.697-4.048 16.955 1.897 1.189 2.179 1.78 4.666 1.761 7.472-.036 5.255.028 10.748.191 16.475.009.327-.155.49-.49.49h-5.128c-.455 0-.709-.226-.772-.681l-.2-1.47c-.072-.526-.254-.572-.544-.127zm-.563-10.984c-3.113.109-6.445 1.47-5.872 5.274.417 2.76 3.521 3.114 5.2 1.262 1.171-1.289 1.579-3.314 1.225-6.064-.044-.327-.226-.482-.553-.472zM780.273 351.724c.044.717.19.735.453.073 1.307-3.396 3.504-5.03 6.59-4.903a.686.686 0 01.653.681v7.098a.563.563 0 01-.636.564c-6.253-.727-6.253 4.611-6.117 9.004.1 3.523.118 7.145.036 10.857-.009.327-.172.491-.499.5l-6.217.009c-.355 0-.536-.182-.527-.536.155-9.25.118-18.137-.117-26.661-.01-.572.272-.862.853-.872l4.419-.036c.572-.008.872.273.908.845l.201 3.377zM806.523 348.983l-.046-13.844c0-.208.109-.317.318-.317l6.562-.027c.191-.01.345.153.345.344-.045 13.181-.035 25.863.036 38.036 0 .572.073 1.144.227 1.725a.554.554 0 01-.526.69l-5.518.027c-.418 0-.618-.209-.591-.617l.064-1.525c.072-1.48-.336-1.625-1.217-.436-3.557 4.812-10.174 3.867-13.251-.872-3.966-6.118-4.276-19.435 3.086-23.937 3.313-2.034 7.016-1.708 9.921 1.007.39.364.59.282.59-.254zm-4.494 20.497c2.624.019 4.785-3.549 4.812-7.964.027-4.418-2.07-8.012-4.701-8.031-2.625-.017-4.784 3.55-4.812 7.965-.027 4.418 2.07 8.013 4.701 8.03zM825.922 347.516l-6.3.011a.463.463 0 00-.462.464l.048 27.179c0 .255.207.462.464.462l6.298-.012a.461.461 0 00.462-.463l-.046-27.179a.465.465 0 00-.464-.462zM843.892 373.456c-.69.763-1.507 1.553-2.451 1.97-11.664 5.12-15.684-13.898-4.221-17.538a23.226 23.226 0 015.328-.99c1.407-.109 1.707-.744.917-1.906l-.309-.463a3.645 3.645 0 00-3.203-1.607c-2.388.109-4.385.718-5.983 1.816-.444.308-.725.199-.843-.327l-.962-4.357c-.119-.509.063-.881.526-1.107 8.604-4.204 18.026-2.434 18.125 9.367.046 5.547.146 11.166.3 16.839.01.319-.145.472-.462.472l-5.229-.027c-.462 0-.717-.235-.762-.698l-.1-1.208c-.046-.599-.272-.681-.671-.236zm-.455-11.084c-3.249.136-6.544 1.434-5.836 5.465.227 1.316 1.417 2.441 2.814 2.215 3.622-.581 3.848-4.285 3.494-7.28a.455.455 0 00-.472-.4zM872.482 354.412c-11.809-4.993-13.261 15.186-3.168 14.859 1.37-.044 2.332-.218 2.896-.499.626-.317.934-.126.934.572.009 1.562.209 3.114.609 4.657.18.717-.073 1.18-.772 1.407-2.188.7-4.511.962-6.962.772-11.227-.881-13.043-16.086-8.178-23.73 3.413-5.364 9.876-6.571 15.73-4.565.19.063.272.199.236.408l-1.071 5.973c-.027.155-.109.2-.254.146zM887.268 376.378c-6.644-.151-11.882-6.904-11.697-15.084.188-8.178 5.725-14.687 12.369-14.538 6.644.15 11.881 6.904 11.697 15.084-.188 8.178-5.724 14.687-12.369 14.538zm.294-6.269c2.511 0 4.553-3.813 4.562-8.516.009-4.71-2.024-8.531-4.532-8.531-2.511 0-4.553 3.812-4.563 8.515-.009 4.711 2.025 8.532 4.533 8.532zM830.275 335.993l-5.318 8.071a.337.337 0 01-.273.145l-4.266.09a.335.335 0 01-.308-.471l3.648-8.116a.326.326 0 01.308-.2l5.928-.045c.263 0 .426.299.281.526zM501.391 225.267l-45.232.011a.523.523 0 00-.482.335l-9.515 26.319a.52.52 0 01-.481.335l-26.672.01a.51.51 0 01-.471-.701l46.048-119.17a.5.5 0 01.481-.324l26.264.01c.209 0 .398.126.471.325l47.754 119.18a.512.512 0 01-.481.701l-26.766-.031a.51.51 0 01-.482-.335l-9.955-26.33a.51.51 0 00-.481-.335zm-37.538-22.163a.359.359 0 00.335.482l28.734-.157a.356.356 0 00.335-.482l-14.571-38.61c-.115-.304-.555-.304-.67.011l-14.163 38.756zM625.759 132.073l23.323.021c.188 0 .345.157.345.346l.021 119.494a.348.348 0 01-.345.345l-24.893-.01a.347.347 0 01-.293-.168l-45.902-74.403c-.178-.294-.638-.168-.638.188l.084 74.058a.349.349 0 01-.346.346l-23.239-.021a.349.349 0 01-.345-.346V132.429c0-.188.157-.345.345-.345l24.139.01c.115 0 .231.063.293.168l46.509 75.869c.178.304.639.168.639-.178l-.042-75.534c0-.189.157-.346.345-.346zM701.033 225.594l-9.526 26.35a.484.484 0 01-.461.325l-26.714.01a.492.492 0 01-.46-.67l46.058-119.201a.5.5 0 01.461-.314h26.306a.5.5 0 01.46.314l47.744 119.222a.493.493 0 01-.461.681l-26.797-.042a.475.475 0 01-.45-.314l-9.997-26.372a.5.5 0 00-.461-.314h-45.242a.484.484 0 00-.46.325zm8.165-22.488a.35.35 0 00.334.471l28.735-.146a.36.36 0 00.335-.482l-14.572-38.62a.356.356 0 00-.67 0l-14.162 38.777zM839.482 154.204c-13.839 5.591-17.775 19.295-18.173 33.438-.251 9.129.189 18.258 3.204 26.822 4.574 12.992 17.167 19.473 30.681 16.876 11.588-2.23 17.9-13.683 19.805-24.215a.562.562 0 01.712-.439l23.783 7.276a.806.806 0 01.544.984c-6.919 26.581-25.416 40.557-53.145 39.384-27.688-1.183-47.409-20.613-51.261-47.55-2.083-14.573-1.225-31.02 4.574-44.808 7.15-17.012 22.328-28.654 40.49-31.323 15.21-2.23 31.079.104 43.054 9.244 8.458 6.449 13.221 15.421 16.121 25.565a.696.696 0 01-.503.859l-24.264 5.936a.699.699 0 01-.838-.524c-2.522-11.086-10.593-18.52-21.846-19.315-4.847-.346-9.16.251-12.938 1.79z" fill="#FFF"/></g></g></svg>