<?xml version="1.0" encoding="utf-8"?><svg viewBox="0 0 16 16" fill="none" xmlns="http://www.w3.org/2000/svg" width="16" height="16"><path d="M8 11.788L3.73 7.52l1.055-1.084L7.25 8.9V.5h1.5v8.4l2.465-2.465 1.054 1.084L8 11.79zM2.308 15.5c-.505 0-.933-.175-1.283-.525A1.745 1.745 0 01.5 13.692v-2.711H2v2.711c0 .077.032.148.096.212a.294.294 0 00.212.096h11.384a.294.294 0 00.212-.096.294.294 0 00.096-.212v-2.711h1.5v2.711c0 .505-.175.933-.525 1.283-.35.35-.778.525-1.283.525H2.308z" fill="#25245A"/></svg>