<?xml version="1.0" encoding="utf-8"?><svg viewBox="0 0 1800 1800" fill="none" xmlns="http://www.w3.org/2000/svg" width="1800" height="1800"><path fill-rule="evenodd" clip-rule="evenodd" d="M900 0L400 1350 200 700H0l400 1100 154.526-401.77a344.605 344.605 0 00-4.526 55.79C550 1645.1 706.7 1800 900 1800s350-154.9 350-345.98c0-18.99-1.55-37.63-4.53-55.79L1400 1800l400-1100h-200l-200 650L900 0zm295.72 1268.87L900 500l-295.718 768.87C653.507 1192.2 732.403 1135.98 825 1116v102.2c-101.428 31.49-175 125.16-175 235.82 0 136.48 111.929 247.13 250 247.13 138.07 0 250-110.65 250-247.13 0-110.66-73.57-204.33-175-235.82V1116c92.6 19.98 171.49 76.2 220.72 152.87z" fill="#fff"/></svg>